<?xml version="1.0" encoding="utf-8"?>
<!-- Generator: Adobe Illustrator 27.5.0, SVG Export Plug-In . SVG Version: 6.00 Build 0)  -->
<svg version="1.1" xmlns="http://www.w3.org/2000/svg" xmlns:xlink="http://www.w3.org/1999/xlink" x="0px" y="0px"
	 viewBox="0 0 750 500" style="enable-background:new 0 0 750 500;" xml:space="preserve">
<g id="BACKGROUND">
	<rect style="fill:#FFFFFF;" width="750" height="500"/>
	<g>
		<path style="fill:#E9F8FF;" d="M82.832,371.368c-14.346,0.105-26.874,8.076-28.646,17.012c-1.775,8.935,6.105,18.02,18.029,23.026
			c10.971,4.605,24.495,6.02,36.575,9.362c12.079,3.343,23.779,10.02,23.109,18.292c-0.645,7.978-12.631,14.652-11.273,22.594
			c1.059,6.164,9.889,10.626,18.769,13.342c36.18,11.066,79.464,4.442,117.012-4.65c37.55-9.093,75.6-20.692,115.761-19.031
			c18.087,0.748,35.568,4.186,53.182,6.878c115.291,17.608,39.288-20.884,138.033-5.803c58.991,9.011,121.758-56.846,120.69-69.691
			c-2.768-33.281-122.487-15.371-253.48-17.939C313.183,362.458,195.331,370.543,82.832,371.368"/>
		<rect x="46.936" y="364.182" style="fill:#C6E5FA;" width="629.733" height="10.926"/>
		<g>
			<rect x="357.777" y="46.643" style="fill:#D7F1FF;" width="104.914" height="38.469"/>
			<rect x="345.66" y="42.654" style="fill:#C6E5FA;" width="64.575" height="45.464"/>
			<rect x="351.781" y="61.333" style="fill:#FFFFFF;" width="108.412" height="6.994"/>
			<rect x="385.117" y="56.524" style="fill:#D7F1FF;" width="13.112" height="9.617"/>
			<path style="fill:#C6E5FA;" d="M428.247,187.27c-5.114,0-10.134-3.467-12.823-8.874c-2.038-4.097-2.84-9.094-2.523-15.728
				c0.543-11.337,3.729-22.388,6.81-33.075c1.415-4.908,2.879-9.983,4.06-15.006l2.084,0.49c-1.194,5.075-2.665,10.176-4.088,15.109
				c-3.048,10.569-6.197,21.498-6.728,32.584c-0.299,6.253,0.433,10.916,2.302,14.672c1.91,3.841,6.014,7.686,10.904,7.686
				c0.044,0,0.087-0.001,0.131-0.001c5.481-0.075,9.757-4.926,11.407-9.401c1.904-5.16,1.606-10.983,1.001-16.508
				c-1.199-10.927-3.53-21.76-6.931-32.199c-0.448-1.378-0.918-2.764-1.388-4.154c-3.104-9.171-6.314-18.653-4.502-28.24
				l2.103,0.397c-1.707,9.036,1.41,18.248,4.427,27.156c0.474,1.398,0.945,2.792,1.396,4.178
				c3.445,10.578,5.808,21.556,7.022,32.629c0.634,5.785,0.937,11.906-1.12,17.482c-1.96,5.311-6.858,10.71-13.387,10.8
				C428.352,187.269,428.3,187.27,428.247,187.27z"/>
			<path style="fill:#C6E5FA;" d="M424.921,96.031c-0.119,6.105-0.505,12.205-1.159,18.279c-0.098,0.913,0.057,2.171,0.972,2.259
				c0.904,0.086,1.306-1.099,1.391-2.003c0.57-6.031,1.14-12.059,1.709-18.09C426.896,96.235,425.916,96.165,424.921,96.031"/>
			<path style="fill:#E9F8FF;" d="M424.455,49.52c0.703,13.753,0.444,27.556-0.774,41.272c-0.148,1.677-0.288,3.473,0.535,4.941
				c0.825,1.465,3.03,2.26,4.229,1.079c0.73-0.719,0.822-1.847,0.867-2.87c0.632-14.182,0.939-28.377,0.917-42.573
				c0-0.377-0.018-0.795-0.281-1.064c-0.239-0.243-0.609-0.288-0.948-0.315C427.602,49.88,426.196,49.848,424.455,49.52"/>
			<rect x="423.106" y="57.986" style="fill:#C6E5FA;" width="8.306" height="6.557"/>
			<path style="fill:#C6E5FA;" d="M422.678,35.589c0,0-0.244-0.758-1.127,5.461c-0.884,6.219-0.767,7.788,1.206,9.525
				c1.977,1.738,6.466,1.658,8.227,0.341c1.487-1.111,2.96-3.541,1.997-7.818c-1.094-4.868-2.177-7.429-2.177-7.429L422.678,35.589z
				"/>
			<path style="fill:#C6E5FA;" d="M423.649,73.113c-1.039,5.629-1.501,11.364-1.381,17.087c0.038,1.783,0.147,3.622,0.936,5.222
				c0.788,1.599,2.424,2.908,4.204,2.782c1.568-0.112,2.898-1.311,3.587-2.724c0.689-1.415,0.848-3.022,0.94-4.593
				c0.355-5.924-0.044-11.894-1.185-17.721C428.441,73.181,426.132,73.194,423.649,73.113"/>
		</g>
		<g>
			<g>
				<rect x="496.324" y="251.452" style="fill:#D7F1FF;" width="206.184" height="123.71"/>
				<rect x="510.807" y="253.249" style="fill:#E9F8FF;" width="177.218" height="109.525"/>
				<g>
					<g>
						<rect x="518.556" y="264.654" style="fill:#D7F1FF;" width="77.695" height="41.228"/>
						<rect x="539.935" y="282.494" style="fill:#C6E5FA;" width="34.937" height="5.551"/>
					</g>
					<g>
						<rect x="602.581" y="264.654" style="fill:#D7F1FF;" width="77.695" height="41.228"/>
						<rect x="623.961" y="282.494" style="fill:#C6E5FA;" width="34.937" height="5.551"/>
					</g>
					<g>
						<rect x="518.556" y="312.703" style="fill:#D7F1FF;" width="77.695" height="41.229"/>
						<rect x="539.935" y="330.543" style="fill:#C6E5FA;" width="34.937" height="5.551"/>
					</g>
					<g>
						<rect x="602.581" y="312.703" style="fill:#D7F1FF;" width="77.695" height="41.229"/>
						<rect x="623.961" y="330.543" style="fill:#C6E5FA;" width="34.937" height="5.551"/>
					</g>
				</g>
				<polygon style="fill:#D7F1FF;" points="489.451,247.138 495.465,243.129 701.667,242.557 709.38,247.138 				"/>
				<rect x="489.451" y="247.004" style="fill:#C6E5FA;" width="219.929" height="8.896"/>
			</g>
			<g>
				<rect x="589.322" y="237.685" style="fill:#E9F8FF;" width="96.924" height="9.055"/>
				<path style="fill:#E9F8FF;" d="M675.975,181.161h-2.024h-72.332h-2.025h-0.176v56.279h2.201v-37.55h4.987v30.914
					c0,2.23,1.807,4.039,4.037,4.039c2.229,0,4.037-1.808,4.037-4.039v-30.914h5.495v30.914c0,2.23,1.809,4.039,4.037,4.039
					c2.231,0,4.037-1.808,4.037-4.039v-30.914h5.497v30.914c0,2.23,1.806,4.039,4.035,4.039c2.232,0,4.038-1.808,4.038-4.039
					v-30.914h5.495v30.914c0,2.23,1.808,4.039,4.038,4.039c2.231,0,4.038-1.808,4.038-4.039v-30.914h5.495v30.914
					c0,2.23,1.807,4.039,4.036,4.039c2.23,0,4.038-1.808,4.038-4.039v-30.914h4.99v37.55h2.202v-56.279H675.975z M673.95,182.835
					v1.8h-72.332v-1.8H673.95z M668.96,198.22v-3.869h1.385v-3.864h-10.842v3.864h1.383v3.869h-5.495v-3.869h1.383v-3.864h-10.84
					v3.864h1.381v3.869h-5.495v-3.869h1.386v-3.864h-10.842h-0.001v3.864h0.001h1.383v3.869h-5.497v-3.869h1.386v-3.864h-10.842
					v3.864h1.382v3.869h-5.495v-3.869h1.383v-3.864h-10.84v3.864h1.383v3.869h-4.987v-12.256h72.332v12.256H668.96z"/>
			</g>
		</g>
		<g>
			<g>
				<rect x="47.494" y="268.503" style="fill:#D7F1FF;" width="206.184" height="123.71"/>
				<rect x="61.976" y="270.3" style="fill:#E9F8FF;" width="177.218" height="109.525"/>
				<g>
					<g>
						<rect x="69.725" y="281.705" style="fill:#D7F1FF;" width="77.695" height="41.228"/>
						<rect x="91.105" y="299.545" style="fill:#C6E5FA;" width="34.937" height="5.551"/>
					</g>
					<g>
						<rect x="153.751" y="281.705" style="fill:#D7F1FF;" width="77.695" height="41.228"/>
						<rect x="175.13" y="299.545" style="fill:#C6E5FA;" width="34.937" height="5.551"/>
					</g>
					<g>
						<rect x="69.725" y="329.754" style="fill:#D7F1FF;" width="77.695" height="41.229"/>
						<rect x="91.105" y="347.594" style="fill:#C6E5FA;" width="34.937" height="5.551"/>
					</g>
					<g>
						<rect x="153.751" y="329.754" style="fill:#D7F1FF;" width="77.695" height="41.229"/>
						<rect x="175.13" y="347.594" style="fill:#C6E5FA;" width="34.937" height="5.551"/>
					</g>
				</g>
				<polygon style="fill:#D7F1FF;" points="40.621,264.189 46.634,260.18 252.836,259.607 260.549,264.189 				"/>
				<rect x="40.621" y="264.055" style="fill:#C6E5FA;" width="219.929" height="8.896"/>
			</g>
			<g>
				<rect x="40.621" y="254.735" style="fill:#E9F8FF;" width="96.924" height="9.055"/>
				<path style="fill:#E9F8FF;" d="M127.273,198.212h-2.024H52.917h-2.025h-0.176v56.279h2.201v-37.55h4.987v30.914
					c0,2.23,1.807,4.038,4.037,4.038c2.229,0,4.037-1.808,4.037-4.038v-30.914h5.495v30.914c0,2.23,1.809,4.038,4.037,4.038
					c2.231,0,4.037-1.808,4.037-4.038v-30.914h5.497v30.914c0,2.23,1.806,4.038,4.035,4.038c2.232,0,4.038-1.808,4.038-4.038
					v-30.914h5.495v30.914c0,2.23,1.809,4.038,4.038,4.038c2.23,0,4.038-1.808,4.038-4.038v-30.914h5.495v30.914
					c0,2.23,1.807,4.038,4.036,4.038c2.23,0,4.038-1.808,4.038-4.038v-30.914h4.99v37.55h2.202v-56.279H127.273z M125.249,199.886
					v1.8H52.917v-1.8H125.249z M120.258,215.271v-3.869h1.385v-3.864h-10.842v3.864h1.383v3.869h-5.495v-3.869h1.383v-3.864h-10.84
					v3.864h1.381v3.869h-5.495v-3.869h1.386v-3.864H83.662h-0.001v3.864h0.001h1.383v3.869h-5.497v-3.869h1.386v-3.864H70.091v3.864
					h1.382v3.869h-5.495v-3.869h1.383v-3.864h-10.84v3.864h1.383v3.869h-4.987v-12.256h72.332v12.256H120.258z"/>
			</g>
		</g>
		<g>
			<g>
				<rect x="48.983" y="34.868" style="fill:#E9F8FF;" width="98.437" height="145.9"/>
				<rect x="58.984" y="45.471" style="fill:#D7F1FF;" width="78.435" height="125.323"/>
				<rect x="48.983" y="88.848" style="fill:#E9F8FF;" width="98.437" height="9.229"/>
				<rect x="48.983" y="129.139" style="fill:#E9F8FF;" width="98.437" height="9.229"/>
				<g>
					<rect x="63.438" y="50.669" style="fill:#C6E5FA;" width="10" height="37.553"/>
					<rect x="76.757" y="50.669" style="fill:#C6E5FA;" width="10" height="37.553"/>
				</g>
				<g>
					<rect x="102.699" y="98.077" style="fill:#C6E5FA;" width="10" height="31.785"/>
					<rect x="116.018" y="98.077" style="fill:#C6E5FA;" width="10" height="31.785"/>
				</g>
				<g>
					<rect x="65.098" y="139.165" style="fill:#C6E5FA;" width="10" height="31.785"/>
					<rect x="78.417" y="139.165" style="fill:#C6E5FA;" width="10" height="31.785"/>
				</g>
				<g>
					<line style="fill:none;stroke:#FFFFFF;stroke-miterlimit:10;" x1="71.359" y1="107.818" x2="106.025" y2="152.708"/>
					<line style="fill:none;stroke:#FFFFFF;stroke-miterlimit:10;" x1="76.757" y1="78.129" x2="128.025" y2="144.04"/>
					<line style="fill:none;stroke:#FFFFFF;stroke-miterlimit:10;" x1="88.724" y1="52.39" x2="139.992" y2="118.301"/>
				</g>
			</g>
			<g>
				<rect x="161.104" y="34.868" style="fill:#E9F8FF;" width="98.437" height="145.9"/>
				<rect x="171.105" y="45.471" style="fill:#D7F1FF;" width="78.435" height="125.323"/>
				<rect x="161.104" y="88.848" style="fill:#E9F8FF;" width="98.437" height="9.229"/>
				<rect x="161.104" y="129.139" style="fill:#E9F8FF;" width="98.437" height="9.229"/>
				<g>
					<rect x="173.509" y="137.815" style="fill:#C6E5FA;" width="10" height="31.785"/>
					<rect x="186.828" y="137.815" style="fill:#C6E5FA;" width="10" height="31.785"/>
				</g>
				<g>
					<rect x="202.852" y="137.815" style="fill:#C6E5FA;" width="10" height="31.785"/>
					<rect x="216.172" y="137.815" style="fill:#C6E5FA;" width="10" height="31.785"/>
				</g>
				<g>
					<rect x="175.169" y="57.204" style="fill:#C6E5FA;" width="10" height="31.785"/>
					<rect x="188.488" y="57.204" style="fill:#C6E5FA;" width="10" height="31.785"/>
				</g>
				<g>
					<line style="fill:none;stroke:#FFFFFF;stroke-miterlimit:10;" x1="183.48" y1="107.818" x2="218.146" y2="152.708"/>
					<line style="fill:none;stroke:#FFFFFF;stroke-miterlimit:10;" x1="188.878" y1="78.129" x2="240.146" y2="144.04"/>
					<line style="fill:none;stroke:#FFFFFF;stroke-miterlimit:10;" x1="200.845" y1="52.39" x2="252.113" y2="118.301"/>
				</g>
			</g>
		</g>
	</g>
</g>
<g id="OBJECTS">
	<g>
		<g>
			<g>
				<path style="fill:#F79A9A;" d="M495.68,141.532c6.058,14.955,12.228,30.1,21.941,42.983
					c5.383,7.136,12.537,13.859,21.419,14.848c9.362,1.042,18.47-4.785,23.753-12.58c5.285-7.794,7.405-17.272,8.883-26.573
					l-12.714-6.091c-1.785,5.733-3.568,11.466-5.354,17.199c-0.66,2.113-1.347,4.284-2.74,6.004
					c-3.215,3.973-9.441,4.347-14.041,2.125c-4.604-2.223-7.896-6.431-10.765-10.661c-6.264-9.237-11.34-19.28-15.061-29.804
					C506.019,139.908,501.037,140.833,495.68,141.532"/>
				<g>
					<g>
						<path style="fill:#94DCF8;" d="M563.966,436.457c-2.281,4.434-6.181,8.009-10.793,9.904c-1.78,0.734-3.681,1.232-5.305,2.27
							c-0.443,0.286-0.875,0.623-1.13,1.088c-0.492,0.906-0.15,2.095,0.568,2.837c0.714,0.743,1.726,1.126,2.723,1.39
							c2.277,0.606,4.674,0.739,7.002,0.379c4.595-0.701,8.747-3.239,13.333-3.985c1.037-0.171,2.13-0.264,3.012-0.828
							c0.856-0.552,1.396-1.481,1.773-2.427c1.303-3.288,0.951-6.967,0.585-10.483C571.848,435.6,567.677,435.718,563.966,436.457"
							/>
						<path style="fill:#36A9CE;" d="M552.61,456.46c0.48,0.034,0.953-0.272,1.424-0.163c0.287,0.067,0.536,0.233,0.796,0.371
							c1.231,0.65,2.792,0.624,4.003-0.067c0.923-0.533,1.824-1.461,2.854-1.207c0.278,0.071,0.527,0.22,0.797,0.309
							c0.923,0.312,1.938-0.126,2.701-0.733c0.764-0.607,1.387-1.384,2.2-1.922c0.813-0.537,1.931-0.796,2.743-0.26
							c0.307,0.202,0.542,0.497,0.837,0.717c1.184,0.873,2.992,0.188,3.797-1.049c0.128-0.195,0.267-0.424,0.497-0.471
							c0.201-0.046,0.399,0.069,0.592,0.146c1.046,0.415,2.365-0.529,2.313-1.657c0.507,0.315,1.215-0.065,1.453-0.612
							c0.238-0.55,0.148-1.179,0.051-1.77c-0.405-2.464-1.015-5.207-3.108-6.561c-0.16-0.106-0.338-0.203-0.528-0.212
							c-0.534-0.022-0.501,2.364-4.772,6.082c-0.962,0.839-2.301,1.095-3.489,1.556c-2.166,0.836-4.44,4.319-11.41,4.852
							c-2.511,0.192-7.451,0.287-9.786-2.977C546.516,450.746,544.479,455.891,552.61,456.46"/>
						<path style="fill:#D3405F;" d="M554.851,445.828c0.935,1.268,1.872,2.538,2.993,3.635c0.324,0.316,0.68,0.625,1.118,0.721
							c0.439,0.098,0.974-0.098,1.106-0.527c0.14-0.443-0.182-0.887-0.48-1.238c-0.802-0.951-1.607-1.899-2.411-2.851
							c-0.317-0.375-0.651-0.758-1.097-0.962c-0.447-0.2-1.047-0.157-1.347,0.226C554.432,445.218,554.668,445.934,554.851,445.828"
							/>
						<path style="fill:#D3405F;" d="M558.104,442.709c-0.447,0.222-0.967,0.59-0.858,1.079c0.039,0.163,0.147,0.303,0.258,0.433
							c0.472,0.568,0.988,1.101,1.506,1.626l2.224,2.282c0.283,0.29,0.619,0.601,1.023,0.589c0.563-0.02,0.911-0.699,0.803-1.247
							c-0.106-0.555-0.514-0.991-0.904-1.397c-0.934-0.969-1.866-1.937-2.802-2.904c-0.242-0.253-0.513-0.521-0.86-0.566
							C558.146,442.559,557.741,442.871,558.104,442.709"/>
						<path style="fill:#D3405F;" d="M560.763,440.866c-0.521,0.392-0.71,1.163-0.43,1.752c0.124,0.261,0.323,0.478,0.522,0.688
							c0.915,0.953,1.897,1.841,2.943,2.653c0.376,0.292,0.847,0.592,1.299,0.437c0.454-0.153,0.657-0.726,0.556-1.196
							c-0.101-0.472-0.419-0.862-0.726-1.233c-0.932-1.123-1.908-2.282-3.229-2.908c-0.236-0.114-0.495-0.21-0.759-0.178
							C560.682,440.911,560.421,441.106,560.763,440.866"/>
					</g>
					<g>
						<path style="fill:#0886A8;" d="M565.883,244.356c-18.84,61.15-1.984,128.351-6.454,192.261
							c9.484,3.327,11.012,2.952,21.004,1.854c6.318-64.76,12.637-129.529,18.12-194.37
							C587.696,244.732,576.839,245.36,565.883,244.356"/>
						<path style="fill:#027691;" d="M579.931,431.127c5.91-27.832-6.721-55.855-10.601-84.039
							c-2.982-21.688-0.676-44.091,6.668-64.716c1.013-2.84,3.202-6.243,6.104-5.439c1.504,0.415,2.454,1.869,3.182,3.249
							c6.858,13.032,6.17,28.58,5.31,43.284C588.502,359.278,586.404,395.178,579.931,431.127"/>
					</g>
					<g>
						<path style="fill:#94DCF8;" d="M636.185,434.668c-0.291,4.976-2.405,9.828-5.853,13.429c-1.332,1.391-2.866,2.616-3.927,4.223
							c-0.294,0.443-0.552,0.927-0.598,1.454c-0.081,1.027,0.714,1.975,1.672,2.364c0.956,0.39,2.032,0.326,3.053,0.165
							c2.324-0.367,4.572-1.223,6.553-2.488c3.918-2.506,6.684-6.51,10.574-9.052c0.879-0.578,1.84-1.104,2.418-1.978
							c0.56-0.848,0.678-1.916,0.637-2.935c-0.141-3.536-1.955-6.757-3.716-9.822C643.04,430.69,639.278,432.487,636.185,434.668"/>
						<path style="fill:#36A9CE;" d="M633.911,457.557c0.454-0.164,0.762-0.637,1.236-0.726c0.287-0.056,0.585-0.004,0.878,0.019
							c1.388,0.094,2.805-0.566,3.628-1.689c0.629-0.862,1.077-2.073,2.126-2.258c0.28-0.051,0.567-0.013,0.85-0.041
							c0.969-0.089,1.722-0.903,2.172-1.767c0.453-0.861,0.708-1.826,1.231-2.648c0.526-0.821,1.443-1.506,2.404-1.348
							c0.362,0.062,0.696,0.237,1.056,0.316c1.436,0.318,2.808-1.043,3.047-2.497c0.038-0.232,0.072-0.497,0.262-0.636
							c0.168-0.121,0.394-0.098,0.601-0.105c1.123-0.045,1.947-1.442,1.444-2.452c0.592,0.087,1.081-0.553,1.079-1.15
							c-0.004-0.6-0.344-1.136-0.671-1.635c-1.371-2.089-3.039-4.35-5.5-4.742c-0.191-0.027-0.392-0.049-0.57,0.023
							c-0.497,0.197,0.5,2.36-1.898,7.494c-0.538,1.158-1.656,1.933-2.558,2.836c-1.642,1.643-2.308,5.75-8.464,9.059
							c-2.219,1.193-6.696,3.282-10.15,1.248C626.021,454.807,626.246,460.333,633.911,457.557"/>
						<path style="fill:#D3405F;" d="M631.651,446.93c1.362,0.778,2.737,1.561,4.21,2.109c0.419,0.156,0.872,0.297,1.313,0.202
							c0.44-0.085,0.85-0.48,0.796-0.927c-0.051-0.463-0.524-0.736-0.942-0.942c-1.118-0.538-2.237-1.081-3.356-1.624
							c-0.441-0.214-0.903-0.432-1.392-0.434c-0.493-0.005-1.024,0.275-1.141,0.749C631.018,446.542,631.523,447.1,631.651,446.93"
							/>
						<path style="fill:#D3405F;" d="M633.356,442.76c-0.318,0.382-0.643,0.932-0.348,1.331c0.104,0.138,0.259,0.219,0.412,0.293
							c0.662,0.328,1.351,0.603,2.036,0.878c0.983,0.395,1.972,0.788,2.958,1.182c0.376,0.151,0.808,0.303,1.175,0.123
							c0.506-0.244,0.551-1.004,0.228-1.465c-0.32-0.462-0.871-0.697-1.394-0.909c-1.246-0.508-2.491-1.014-3.738-1.523
							c-0.324-0.131-0.68-0.263-1.015-0.167C633.335,442.603,633.094,443.054,633.356,442.76"/>
						<path style="fill:#D3405F;" d="M635.044,439.994c-0.319,0.57-0.182,1.354,0.315,1.783c0.219,0.185,0.489,0.303,0.755,0.41
							c1.226,0.505,2.486,0.918,3.77,1.236c0.461,0.114,1.013,0.196,1.363-0.128c0.356-0.326,0.306-0.929,0.023-1.318
							c-0.281-0.393-0.731-0.62-1.16-0.832c-1.313-0.651-2.674-1.318-4.134-1.355c-0.261-0.007-0.539,0.015-0.763,0.146
							C634.986,440.07,634.827,440.353,635.044,439.994"/>
					</g>
					<g>
						<path style="fill:#0886A8;" d="M580.786,236.922c-5.406,32.553,5.641,78.494,16.682,111.273
							c7.609,22.597,20.229,46.645,34.468,88.917c8.935-2.938,12.915-2.64,21.851-5.578c-1.848-15.173-4.999-24.02-7.994-35.09
							c-10.615-39.257-18.922-79.058-24.863-119.152c-2.043-13.787-3.865-27.816-9.649-40.647
							C601.513,238.727,591.341,239.157,580.786,236.922"/>
						<path style="fill:none;stroke:#1B5970;stroke-miterlimit:10;" d="M596.205,265.531c1.193,4.542,2.762,9.051,5.367,12.957
							c2.605,3.91,6.345,7.199,10.843,8.56"/>
						<path style="fill:none;stroke:#1B5970;stroke-miterlimit:10;" d="M642.692,433.774c-3.49-48.195-36.236-90.531-39.962-138.712
							"/>
					</g>
				</g>
				<g>
					<path style="fill:#36A9CE;" d="M560.505,145.754c-7.849,14.79-0.628,27.935,2.178,50.166
						c4.201,33.362-9.337,48.378-8.559,49.753c0.329,0.581-0.466,7.059,49.659,16.704c1.565-6.471,4.06-18.616,4.036-25.271
						c2.775,7.351,1.879,14.605,2.584,22.428c13.326-3.607,19.983-4.892,19.178-7.35c-4.493-13.722-14.1-33.411-16.565-47.633
						c-4.172-24.086,5.152-34.029,0.345-50.564c-0.897-3.081-2.107-6.14-4.163-8.605c-2.337-2.805-5.618-4.662-8.979-6.104
						C592.679,136.042,569.13,129.491,560.505,145.754"/>
					<path style="fill:#027691;" d="M584.761,240.438c-2.548-2.889-4.92-6.086-6.611-9.56c-3.311-6.794-3.687-14.165-2.995-21.589
						c1.213-13.026,2.703-26.07,1.461-39.164c-0.608-6.403,13.066-19.544-3.224-26.023c-9.421-3.748,3.253-6.74,3.026-8.635
						c-0.367-3.103-11.717,0.442-16.265,10.276c-7.027,15.199-0.627,27.936,2.176,50.167c4.205,33.361-9.336,48.378-8.556,49.752
						c0.331,0.581-0.115,7.068,50.01,16.714c0.051-0.21,0.311-1.315-0.136-2.605C599.931,249.046,588.613,244.811,584.761,240.438z"
						/>
				</g>
				<g>
					<path style="fill:#D3405F;" d="M564.622,167.552c-1.506-5.649-3.011-11.299-4.519-16.95c-0.129-0.486-0.259-1.001-0.122-1.485
						c0.138-0.487,0.651-0.902,1.131-0.746c0.436,0.145,0.619,0.651,0.741,1.097c1.704,6.167,3.228,12.387,4.566,18.645
						C565.734,168.674,564.503,167.906,564.622,167.552"/>
					<path style="fill:#0886A8;" d="M560.39,160.018c-0.381,3.541-0.273,7.133,0.319,10.645c0.219,1.29,0.506,2.58,1.053,3.766
						c0.7,1.526,1.827,2.853,3.214,3.791c1.336,0.906,3.029,1.456,4.575,0.99c2.307-0.693,3.42-3.263,4.116-5.572
						c1.264-4.193,2.146-8.533,2.176-12.915C570.824,161.519,565.676,161.474,560.39,160.018"/>
				</g>
				<path style="fill:none;stroke:#010148;stroke-width:3;stroke-miterlimit:10;" d="M515.216,154.27
					c0.784,6.007,1.121,12.148,3.156,17.857c2.037,5.704,6.155,11.072,11.977,12.754c5.816,1.68,13.018,1.852,18.142-1.371
					c15.148-9.522,18.525-34.143,19.108-35.132"/>
				<path style="fill:none;stroke:#010148;stroke-width:2;stroke-miterlimit:10;" d="M571.388,114.121
					c-11.56,7.645-11.32,26.781-6.896,31.869c0.902,1.04,1.847,2.27,3.218,2.397"/>
				<g>
					<g>
						<path style="fill:#FFB6B6;" d="M573.341,140.624c5.878,2.774,13.28,1.854,18.415-2.291c-2.006-6.927-0.089-17.257,1.614-24.31
							c-5.641-0.18-12.456,2.804-18.1,3.077c0.841,5.573,1.456,10.461,0.277,17.197
							C575.171,136.463,574.405,137.846,573.341,140.624"/>
						<path style="fill:#010148;" d="M575.9,132.36c2.741-0.022,6.938-2.17,9.308-5.224c0.941-1.21,1.616-2.573,2.123-3.995
							c-0.812,0.751-1.913,1.178-3,1.552c-1.849,0.632-3.744,1.164-5.669,1.588c-0.781,0.17-1.581,0.327-2.389,0.268
							C576.51,126.944,576.088,131.278,575.9,132.36"/>
					</g>
					<path style="fill:#FFB6B6;" d="M582.586,99.017c-7.339,0.983-10.003,5.094-12.238,12.926c-0.9,3.153-1.973,6.872-0.405,10.884
						c3.415,8.752,14.327,3.37,16.109,2.115c3.951-2.782,7.281-5.874,8.682-10.234c1.404-4.359,0.636-9.405-2.658-12.766
						C588.782,98.582,586.153,98.539,582.586,99.017"/>
					<g>
						<g>
							<path style="fill:#010148;" d="M575.281,109.058c0.164-0.503,0.692-0.782,1.182-0.622c0.487,0.159,0.749,0.697,0.585,1.199
								c-0.163,0.503-0.693,0.782-1.181,0.622C575.38,110.097,575.115,109.561,575.281,109.058"/>
							<path style="fill:#010148;" d="M583.051,113.412c0.163-0.504,0.693-0.781,1.18-0.622c0.487,0.159,0.751,0.697,0.587,1.199
								c-0.166,0.502-0.694,0.781-1.181,0.622C583.147,114.45,582.885,113.914,583.051,113.412"/>
						</g>
						<g>
							<path style="fill:none;stroke:#010148;stroke-width:0.25;stroke-linecap:round;stroke-miterlimit:10;" d="M579.854,110.267
								c-0.964,1.872-2.565,3.124-4.097,4.222c-0.139,0.098-0.287,0.213-0.359,0.392c-0.058,0.145-0.048,0.296-0.025,0.435
								c0.119,0.716,0.587,1.234,1.183,1.309"/>
							<path style="fill:none;stroke:#010148;stroke-width:0.5;stroke-miterlimit:10;" d="M575.326,107.689
								c0.162,0.522,0.518,0.976,0.98,1.25c0.461,0.274,1.025,0.366,1.553,0.253"/>
							<path style="fill:none;stroke:#010148;stroke-width:0.5;stroke-miterlimit:10;" d="M583.097,112.043
								c0.163,0.523,0.518,0.979,0.978,1.25c0.464,0.275,1.026,0.366,1.556,0.252"/>
							<path style="fill:none;stroke:#010148;stroke-linecap:round;stroke-miterlimit:10;" d="M573.106,118.949
								c0.574,0.602,1.215,1.168,1.986,1.462c0.775,0.293,1.707,0.273,2.383-0.23"/>
							<path style="fill:none;stroke:#010148;stroke-linecap:round;stroke-miterlimit:10;" d="M584.248,109.849
								c1.43-0.046,2.815,0.96,3.234,2.351"/>
							<path style="fill:none;stroke:#010148;stroke-linecap:round;stroke-miterlimit:10;" d="M576.291,105.685
								c1.257-0.116,2.533,0.629,3.07,1.789"/>
						</g>
					</g>
					<g>
						<g>
							<path style="fill:#CE3657;" d="M593.483,120.248c1.139,4.885,6.888,7.054,9.746,11.176c2.564,3.695,2.874,9.063,6.627,11.543
								c3.125,2.066,7.615,1.302,10.506,3.691c3.281,2.715,2.869,8.097,5.743,11.239c1.333,1.459,3.255,2.271,5.199,2.618
								c7.994,1.418,16.327-5.865,15.994-13.975c-0.122-2.975-1.209-5.824-1.566-8.779c-0.353-2.956,0.239-6.349,2.667-8.069
								c1.011-0.715,2.228-1.059,3.324-1.629c5.149-2.662,6.468-10.215,3.311-15.076c-3.161-4.858-9.64-6.879-15.332-5.792
								c-3.264,0.625-7.287,1.885-9.413-0.667c-0.807-0.967-1.072-2.262-1.644-3.384c-1.351-2.662-4.463-4.162-7.447-4.073
								c-2.983,0.088-5.803,1.572-7.988,3.609c-1.48,1.379-1.511,5.727-2.99,7.104c-3.496,3.262-7.771-1.107-10.313-0.535
								C598.347,109.602,592.665,116.727,593.483,120.248"/>
							<path style="fill:#CE3657;" d="M598.279,113.693c3.629,3.465,9.628,2.133,14.276,4.017c4.166,1.69,7.364,6.012,11.862,6.032
								c3.747,0.018,7.089-3.081,10.813-2.662c4.234,0.475,6.834,5.205,10.959,6.261c1.915,0.492,3.969,0.118,5.783-0.656
								c7.469-3.189,10.456-13.847,5.734-20.451c-1.731-2.422-4.198-4.213-6.114-6.489c-1.918-2.279-3.277-5.444-2.188-8.213
								c0.455-1.15,1.282-2.105,1.891-3.181c2.851-5.047-0.181-12.089-5.483-14.43c-5.305-2.335-11.832-0.479-16.001,3.547
								c-2.391,2.309-5.067,5.565-8.244,4.596c-1.201-0.369-2.133-1.308-3.224-1.933c-2.589-1.487-6.014-1.04-8.464,0.669
								c-2.449,1.708-3.996,4.492-4.71,7.394c-0.481,1.962,1.873,5.618,1.39,7.582c-1.142,4.644-7.112,3.328-8.927,5.198
								C596.522,102.122,595.669,111.195,598.279,113.693"/>
							<path style="fill:#CE3657;" d="M570.679,95.332c-1.481,0.246-2.432,1.796-2.816,3.289c-0.464,1.804-0.369,3.815,0.574,5.394
								c0.941,1.579,2.825,2.601,4.597,2.204c1.769-0.398,3.006-1.984,4.344-3.246c1.339-1.26,3.333-2.292,4.888-1.364
								c-1.023,0.631-1.633,1.913-1.479,3.12c0.152,1.209,1.053,2.271,2.199,2.589c1.28,0.356,2.625-0.177,3.903-0.584
								c1.276-0.408,2.775-0.663,3.845,0.139c1.093,0.815,1.296,2.455,0.924,3.796c-0.373,1.344-1.201,2.497-1.875,3.714
								c-0.18,0.327-0.356,0.714-0.226,1.064c0.194,0.527,0.932,0.565,1.434,0.323c0.499-0.24,0.925-0.663,1.464-0.782
								c1.036-0.228,1.968,0.728,3.021,0.808c1.004,0.077,1.902-0.652,2.571-1.436c3.346-3.928,3.397-10.232,0.466-14.429
								c-2.93-4.195-8.398-6.16-13.381-5.255c-1.178,0.214-2.467,0.554-3.503-0.041c-0.833-0.479-1.267-1.435-1.881-2.183
								c-1.359-1.659-3.805-2.26-5.769-1.419C572.012,91.873,570.955,96.285,570.679,95.332"/>
						</g>
					</g>
					<path style="fill:#FFB6B6;" d="M591.677,115.482c0.827-0.811,2.052-1.191,3.155-0.926c1.107,0.27,2.044,1.204,2.267,2.35
						c0.166,0.83-0.028,1.703-0.35,2.489c-1.133,2.794-3.955,4.787-6.885,4.865c-0.345,0.01-0.697-0.008-1.019-0.132
						c-0.61-0.24-1.028-0.861-1.162-1.521c-0.137-0.66-0.023-1.351,0.18-1.997C588.553,118.435,590.3,116.827,591.677,115.482"/>
					<path style="fill:#36A9CE;" d="M591.139,120.51c0.107,0.696,0.803,1.362,1.525,1.23c0.434-0.08,0.906-0.409,1.119-0.775
						c0.34-0.573-0.178-1.613-0.752-1.991C592.222,118.442,591.031,119.815,591.139,120.51"/>
					<path style="fill:none;stroke:#010148;stroke-width:2;stroke-miterlimit:10;" d="M592.963,121.125
						c3.023,4.852,1.552,14.549-2.813,18.246c-6.081,5.151-22.489,9.46-22.47,9.413"/>
				</g>
			</g>
			<g>
				<g>
					<g>
						<path style="fill:#F17185;" d="M472.934,134.211c3.563,0.152,7.157-1.128,9.768-3.474c3.609,1.945,7.865,2.722,11.934,2.172
							c2.075-0.278,5.451-1.047,6.617-2.737c4.532,4.865,7.684,6.701,11.441,9.667c3.797,2.996,9.245,5.337,10.879,7.07
							c0.987,1.042,1.967,2.133,2.528,3.438c0.087,0.203,0.163,0.434,0.072,0.634c-0.074,0.166-0.244,0.266-0.402,0.356
							c-4.148,2.348-8.315,4.704-12.78,6.421c-4.463,1.719-9.269,2.792-14.074,2.462c-2.17-0.15-4.317-0.582-6.412-1.17
							c-5.02-1.411-9.775-3.733-13.948-6.809c-2.434-1.794-4.721-3.911-6.046-6.586
							C470.699,142.012,470.938,137.491,472.934,134.211"/>
						<path style="fill:#F17185;" d="M504.016,133.937c-4.604-6.938-2.678-22.922-2.678-22.922l-22.255-5.464l2.01,30.746
							c0,0-0.576,5.781,11.675,3.355C505.018,137.226,506.08,137.05,504.016,133.937"/>
					</g>
					<path style="fill:#010148;" d="M501.575,127.845c-4.778-0.205-8.935-1.206-12.481-3.71c-3.546-2.506-6.905-5.654-7.621-9.332
						c5.052,3.639,12.649,3.757,19.487,3.227C500.738,118.732,501.06,124.546,501.575,127.845"/>
					<path style="fill:#F17185;" d="M493.324,87.709c4.158,0.756,8.214,1.776,8.558,12.885c0.276,8.985,4.166,10.712,2.104,17.279
						c-1.767,5.633-10.569,7.898-16.981,3.678c-3.904-2.571-6.315-4.586-9.55-16.082C473.042,89.798,488.77,86.881,493.324,87.709"
						/>
					<path style="fill:#010148;" d="M508.921,86.207c-0.346,3.521-2.309,6.933-6.491,9.629c-1.494,0.961-2.529,0.344-3.199-0.289
						c-3.506-3.308-9.348-3.769-13.316-1.053c-3.967,2.715-5.651,8.328-3.838,12.792c-4.674-0.156-9.028-3.753-10.066-8.319
						c-0.386-1.693-1.22-3.357-0.63-6.217c0.515-2.499,1.065-4.1,3.332-6.092c3.448-3.037,6.045-2.874,15.669-2.734
						c0,0,2.844,0.12,4.128-0.42c2.574-1.081,3.62-4.541,7.876-4.526C506.556,78.992,509.268,82.687,508.921,86.207"/>
					<path style="fill:#F17185;" d="M476.016,101.731c-1.444,0.231-2.036,1.832-1.903,3.144c0.213,2.114,0.88,3.733,2.51,5.676
						c1.103,1.316,1.916,1.636,3.304,1.738c1.194,0.088,2.366-0.798,2.668-2.045C483.32,107.243,479.881,101.117,476.016,101.731"/>
					<path style="fill:#CE3657;" d="M479.439,106.91c-0.547-0.951-1.459-1.454-2.039-1.122c-0.579,0.333-0.602,1.373-0.054,2.324
						c0.545,0.952,1.458,1.454,2.038,1.122C479.961,108.902,479.986,107.861,479.439,106.91"/>
					<g>
						<g>
							<path style="fill:#010148;" d="M491.145,104.72c-0.058-0.497-0.51-0.853-1.007-0.794c-0.496,0.058-0.851,0.506-0.792,1.005
								c0.058,0.496,0.51,0.852,1.007,0.795C490.851,105.667,491.203,105.218,491.145,104.72"/>
							<path style="fill:#010148;" d="M499.267,102.858c-0.059-0.498-0.51-0.854-1.007-0.795c-0.496,0.059-0.852,0.508-0.792,1.006
								c0.058,0.496,0.51,0.853,1.006,0.796C498.972,103.805,499.326,103.355,499.267,102.858"/>
						</g>
						<g>
							<path style="fill:none;stroke:#010148;stroke-width:0.25;stroke-miterlimit:10;" d="M494.515,103.675
								c2.257,4.393,1.91,3.596,3.51,6.434c0.501,0.888-2.774,0.882-3.621,0.089"/>
							<path style="fill:none;stroke:#010148;stroke-miterlimit:10;" d="M499.39,100.123c-1.081-0.406-2.479-0.073-3.213,0.764"/>
							<path style="fill:none;stroke:#010148;stroke-miterlimit:10;" d="M491.258,101.993c-1.261-0.385-2.916-0.022-3.795,0.832"/>
							<path style="fill:none;stroke:#010148;stroke-miterlimit:10;" d="M498.005,114.963c-0.836,0.158-1.701,0.268-2.539,0.107
								c-0.836-0.16-1.648-0.627-2.051-1.379"/>
						</g>
					</g>
				</g>
				<g>
					<g>
						<g>
							<path style="fill:#F17185;" d="M510.267,432.019c5.415-33.169,1.656-39.123-4.874-61.999
								c-11.379-39.852-0.798-82.788-5.085-124.011c-9.791-0.33-23.734-0.783-33.895,0.232c-6.2,38.071,3.63,77.632,12.681,115.127
								c5.966,24.71,17.956,45.999,16.615,72.196c-1.597,9.07-11.276,12.959-15.786,16.351c-1.065,0.802-4.231,6.287,0.353,7.905
								c6.475,2.284,12.399,0.186,17.571-5.058c2.014-2.039,4.004-4.188,6.363-5.521c1.594-0.898,5.983-3.347,6.994-7.816
								c0.678-3.001-0.95-3.27-0.931-7.33C510.273,432.068,510.269,432.047,510.267,432.019z"/>
							<path style="fill:none;stroke:#1B5970;stroke-linecap:round;stroke-miterlimit:10;" d="M482.763,364.03
								c2.212,1.475,5.713,0.079,6.308-2.513"/>
						</g>
						<g>
							<path style="fill:#36A9CE;" d="M477.593,454.224c-0.656,3.021,1.424,7.436,7.502,7.357c2.395-0.03,5.31-0.25,7.325-1.542
								c2.401-1.537,4.595-3.395,6.511-5.507c1.247-1.377,3.15-4.061,4.693-5.097c2.456-1.657,5.033-2.271,7.255-4.227
								c2.674-2.352,2.907-5.45,0.584-8.148c-2.377,6.133-9.121,9.087-14.429,12.967c-2.951,2.159-5.645,4.789-9.034,6.152
								C484.609,457.544,479.52,457.316,477.593,454.224"/>
							<path style="fill:#94DCF8;" d="M477.681,455.419c-0.394-2.097,0.439-4.279,1.743-5.954c1.308-1.672,3.049-2.919,4.761-4.146
								c2.653-1.893,5.303-3.786,7.955-5.686c3.713,2.693,8.036,4.503,12.536,5.24c-3.909,4.932-8.868,8.986-14.425,11.804
								c-2.123,1.074-4.411,1.987-6.774,1.908C481.115,458.514,478.063,457.465,477.681,455.419"/>
						</g>
					</g>
					<g>
						<g>
							<path style="fill:#F17185;" d="M469.081,264.673c0.004-0.905-0.804-1.594-1.703-1.48c-9.388,1.199-18.912,1.335-28.333,0.404
								c-0.877-0.085-1.705,0.593-1.652,1.476c0.008,0.136,0.036,0.247,0.09,0.323c0.267,0.373,0.308,0.826,0.241,1.284
								c-3.062,20.489-3.336,39.804-3.827,58.562c-0.319,12.239-1.795,24.416-3.269,36.574c-2.264,18.662-4.028,35.595-5.724,53.708
								c-0.032-0.012-0.074-0.021-0.105-0.035c-0.005,3.771-1.178,10.325-4.241,12.529c-3.063,2.201-6.725,3.378-10.32,4.52
								c-6.906,2.197-15.189,2.485-14.541,5.269c0.805,3.456,7.103,3.134,9.427,3.306c10.381,0.759,11.992,0.734,22.363-0.149
								c2.77-0.236,6.024-0.86,7.176-3.395c0.429-0.953,0.477-2.026,0.514-3.072c0.146-4.078,1.24-7.966,3.313-15.464
								c5.506-14.039,10.164-27.251,12.502-42.763c1.431-9.504,1.793-19.142,3.045-28.673
								C457.588,320.559,469.011,291.896,469.081,264.673z"/>
							<path style="fill:none;stroke:#1B5970;stroke-linecap:round;stroke-miterlimit:10;" d="M434.747,353.575
								c2.625,1.044,5.977-0.659,6.674-3.396"/>
							<path style="fill:#CE3657;" d="M453.186,353.152c3.552-27.036,14.976-55.7,15.047-82.921
								c0.002-0.906-0.805-1.598-1.705-1.482c-6.428,0.819-11.381,1.892-17.86,1.716c-3.274,19.281-2.313,38.459-0.38,73.317
								c0.833,15.051,1.471,40.578,1.853,38.046C451.572,372.321,451.935,362.685,453.186,353.152z"/>
						</g>
						<g>
							<path style="fill:#36A9CE;" d="M434.943,436.968c-0.176,2.219-0.525,5.079-2.315,6.306c-1.516,1.038-3.485,0.715-5.266,0.448
								c-2.388-0.357-4.801-0.542-7.216-0.591c-2.366-0.05-4.739,0.026-7.097,0.288c-2.623,0.288-5.23,0.804-7.864,0.906
								c-2.636,0.103-5.349-0.232-7.653-1.543c-0.938-0.533-1.819-1.255-2.307-2.251c-0.488-0.995-0.502-2.304,0.175-3.186
								c1.518,1.708,3.683,2.665,5.888,3.066c2.203,0.401,4.46,0.132,6.703,0.128C431.332,440.508,434.935,436.857,434.943,436.968"
								/>
							<path style="fill:#94DCF8;" d="M395.383,437.722c0.664-3.04,3.064-5.468,5.813-6.926c2.747-1.459,5.846-2.087,8.898-2.699
								l7.185-1.443c0.619-0.127,1.279-0.247,1.873-0.035c0.559,0.203,0.975,0.666,1.364,1.115
								c2.494,2.875,3.579,8.188,3.619,11.991c0.004,0.328-8.357,1.686-16.817,2.004c-3.545,0.134-7.283-0.053-10.301-1.916
								C396.073,439.228,395.28,438.184,395.383,437.722"/>
						</g>
					</g>
				</g>
				<g>
					<g>
						<path style="fill:#94DCF8;" d="M535.454,160.552c-1.825-6.404-16.792-16.566-16.942-16.482
							c-23.758,13.129-35.058,2.105-44.335-10.515c-0.414-0.565-13.67,1.517-19.283,11.208c-6.08,10.503-6.103,26.537-6.241,42.9
							c-0.105,12.191-0.648,21.688-2.518,33.756c0.02,0.01,0.04,0.02,0.061,0.029c-6.224,26.241-17.6,51.159-26.394,76.754
							c-0.428,1.253-0.847,2.657-0.294,3.862c0.454,0.984,1.454,1.587,2.407,2.107c18.335,9.982,55.988,20.679,65.52,7.499
							c1.639-2.268,2.45-5.109,4.399-7.174c0.789-0.836,1.886-1.612,3.103-1.397c1.462,0.262,2.473,1.704,2.806,3.046
							c0.472,1.922,0.068,4.005-0.035,5.943c-0.058,1.06-0.08,2.149,0.107,3.198c0.303,1.719,5.353-0.808,5.384-0.844
							c7.269-8.491,6.191-89.183,8.184-94.676c-2.528-0.24-5.511-0.682-8.749-1.238c2.312-5.292,6.178-10.437,11.774-17.551
							C524.096,188.662,539.204,173.711,535.454,160.552z"/>
						<path style="fill:#36A9CE;" d="M465.03,177.198c0.413-15.549,2.659-30.248,6.33-43.407
							c-4.292,0.915-12.394,3.936-16.466,10.972c-6.081,10.503-6.104,26.537-6.241,42.9c-0.106,12.191-0.649,21.688-2.52,33.756
							c0.02,0.01,0.04,0.02,0.061,0.029c-6.225,26.242-17.601,51.159-26.395,76.754c-0.428,1.253-0.847,2.657-0.294,3.862
							c0.454,0.984,1.454,1.587,2.407,2.107c18.336,9.982,55.988,20.679,65.52,7.499c1.639-2.268,2.45-5.109,4.399-7.174
							c0.789-0.836,1.886-1.612,3.103-1.397c1.462,0.262,2.474,1.704,2.806,3.046c0.472,1.922,0.066,4.005-0.035,5.943
							c-0.059,1.06-0.078,2.149,0.107,3.198c0.303,1.719,5.353-0.808,5.384-0.844c2.816-3.288,4.377-17.393,5.351-33.768
							C482.488,271.149,463.679,228.202,465.03,177.198z"/>
					</g>
					<path style="fill:#F17185;" d="M436.649,197.163c-3.103,12.844-3.348,26.37-0.715,39.318c0.928,4.549,2.223,9.074,4.466,13.139
						c3.996,7.249,11.36,13.451,15.194,22.148c0,0,5.168,9.38,7.572,9.846c2.25,0.435,0.198-0.997-0.19-3.661
						c1.619,3.744,4.44,4.696,5.04,3.898c1.101-1.469-1.425-4.414-2.731-6.316c1.628,2.781,5.834,6.811,7.394,5.873
						c1.152-0.696-2.879-5.347-4.319-8.02c1.665,2.875,5.994,7.705,7.185,6.686c1.69-1.444-4.283-6.25-4.961-10.013
						c2.518,0.998,7.698,0.54,7.017-1.664c-0.59-1.906-10.929-2.005-14.394-7.201c-4.117-6.164-6.808-11.443-10.393-16.814
						c-2.184-3.269-4.396-6.6-5.526-10.365c-1.433-4.756-1.04-9.845-0.596-14.793c0.543-6.028,1.145-12.05,1.805-18.067
						C444.342,200.199,440.28,198.843,436.649,197.163"/>
					<path style="fill:#36A9CE;" d="M467.17,135.635c-8.726,1.181-16.014,7.669-20.399,15.307
						c-4.384,7.641-15.689,47.667-13.784,50.363c1.238,1.756,17.842,5.528,20.978,4.604c1.277-0.376,2.531-0.99,3.366-2.024
						c1.295-1.602,1.339-3.84,1.342-5.899c0.019-17.585,1.264-35.168,3.724-52.58C462.875,142.02,463.545,138.362,467.17,135.635"/>
					<g>
						<path style="fill:none;stroke:#1B5970;stroke-linecap:round;stroke-miterlimit:10;" d="M453.301,173.372
							c0.428,16.784-1.048,33.758,1.931,50.268c2.98,16.512,11.007,32.961,27.233,43.414"/>
						<path style="fill:none;stroke:#1B5970;stroke-linecap:round;stroke-miterlimit:10;" d="M469.367,189.05
							c0.178,6.568,1.957,13.088,5.139,18.838"/>
						<path style="fill:none;stroke:#1B5970;stroke-linecap:round;stroke-miterlimit:10;" d="M474.409,171.093
							c-1.657,7.7,0.087,16.069,4.678,22.466"/>
						<path style="fill:none;stroke:#1B5970;stroke-linecap:round;stroke-miterlimit:10;" d="M444.759,271.532
							c-1.43,10.79,5.748,20.504,19.262,26.08"/>
					</g>
					<g>
						<path style="fill:#027691;" d="M522.256,221.065c-0.31,1.974-9.944-0.122-13.017-0.958
							c-16.423-4.465-21.814-17.747-15.531-21.323C502.822,195.639,524.263,205.939,522.256,221.065"/>
						<path style="fill:#F79A9A;" d="M514.586,217.29c-4.298-3.042-9.531-3.9-13.834-6.941c-3.385,7.582-6.89,15.348-12.592,21.284
							c-7.615,7.927-18.226,11.657-28.537,14.355c-1.493,0.39-3.03,0.751-4.528,0.542c-7.877-1.091-11.056-7.636-12.253-5.855
							c-0.761,1.126,0.837,3.571,2.33,5.438c-1.717-0.621-3.388-2.031-6.729-3.436c-0.508-0.213-0.661,0.813-0.411,1.302
							c0.251,0.491,0.673,0.868,1.087,1.231c0.751,0.664,1.503,1.328,2.255,1.993c-4.518-2.534-5.093-1.443-4.739-0.852
							c0.213,0.356,0.413,0.657,1.146,1.205c0.976,0.735,1.988,1.424,3.028,2.063c-5.801-1.598-5.177-0.276-3.374,1.019
							c0.944,0.679,2.215,0.833,3.067,1.623c-2.125,0.58-2.88-0.889-3.039,0.832c-0.05,0.542,5.546,3.297,11.821,3.982
							c-0.002,0.005-0.002,0.015-0.005,0.021c7.087,0.982,29.88-0.586,43.511-9.015c9.823-6.074,13.866-12.215,19.92-25.021
							C513.092,222.25,515.093,217.796,514.586,217.29"/>
						<path style="fill:#94DCF8;" d="M517.506,144.551c11.853-5.291,22.443,16.274,20.908,32.277
							c-2.35,24.426-14.364,44.448-16.421,44.404c-2.058-0.043-3.606-6.537-16.865-6.345c-12.374,0.181-17.806-6.975-15.135-16.431
							c4.03-14.278,3.768-14.617,11.537-30.862C504.269,161.873,513.718,146.245,517.506,144.551"/>
						<path style="fill:none;stroke:#1B5970;stroke-linecap:round;stroke-miterlimit:10;" d="M504.617,177.423
							c-3.694,13.504-7.73,21.368-10.884,26.49c-1.761,2.854-3.011,6.705,1.836,8.855c9.771,4.333,19.419,0.595,26.424,8.463"/>
					</g>
				</g>
			</g>
			<g>
				<path style="fill:#FFB6B6;" d="M596.953,157.445c-6.623,2.84-11.886,10.022-16.219,17.571
					c-4.333,7.549-10.634,23.101-15.526,24.089c-2.554,0.515-23.189-13.681-24.595-18.29c-0.729-2.393-0.237-5.216-0.579-7.788
					c-0.785-5.92-8.665-11.95-9.613-10.719c-1.484,1.929,2.138,4.5,3.208,6.752c-1.514-2.353-5.424-3.543-6.234-1.978
					c-1.28,2.47,3.423,3.476,5.414,5.866c-2.179-1.263-7.291-2.735-5.431-0.505c1.565,1.876,2.812,3.001,5.108,5.52
					c-2.049-1.539-6.493-0.866-4.227,0.505c9.694,5.86,22.898,41.405,34.339,43.344c12.948,2.195,27.807-17.588,36.064-31.699
					c4.146-7.077,7.822-17.666,6.872-26.382C605.052,159.311,599.13,156.514,596.953,157.445"/>
				<path style="fill:#36A9CE;" d="M592.808,141.783c-4.671,1.061-8.246,4.748-11.275,8.456c-5.717,6.99-10.554,14.7-14.363,22.887
					c-0.214,0.463-0.433,0.969-0.33,1.471c0.067,0.339,0.274,0.631,0.479,0.911c6.97,9.492,17.525,16.28,29.053,18.683
					c7.384-10.641,15.023-21.997,15.848-34.924c0.198-3.142-0.059-6.441-1.655-9.151c-1.164-1.975-2.96-3.497-4.837-4.814
					C601.623,142.427,596.502,140.943,592.808,141.783"/>
				<path style="fill:none;stroke:#1B5970;stroke-linecap:round;stroke-miterlimit:10;" d="M566.839,174.597
					c7.624,11.301,22.499,18.404,30.955,19.779c0.491,0.079,1.017,0.145,1.462-0.075c0.53-0.264,0.795-0.86,1.019-1.411
					c1.651-4.083,3.304-8.166,4.954-12.246c1.983-4.904,4.004-10.082,3.316-15.326"/>
			</g>
		</g>
		<g>
			<g>
				<rect x="183.669" y="89.316" style="fill:#027691;" width="223.416" height="311.747"/>
				<rect x="195.625" y="100.022" style="fill:#FFFFFF;" width="199.503" height="286.207"/>
				<g>
					<rect x="248.18" y="81.068" style="fill:#94DCF8;" width="97.612" height="29.775"/>
					<g>
						<rect x="265.972" y="87.58" style="fill:#027691;" width="62.598" height="16.997"/>
						<g>
							<path style="fill:#027691;" d="M262.616,96.078c0,2.892-2.345,5.237-5.237,5.237c-2.892,0-5.237-2.345-5.237-5.237
								c0-2.892,2.345-5.237,5.237-5.237C260.271,90.841,262.616,93.186,262.616,96.078z"/>
							<path style="fill:#027691;" d="M342.399,96.078c0,2.892-2.345,5.237-5.237,5.237c-2.893,0-5.237-2.345-5.237-5.237
								c0-2.892,2.344-5.237,5.237-5.237C340.054,90.841,342.399,93.186,342.399,96.078z"/>
						</g>
					</g>
				</g>
			</g>
			<g>
				<rect x="214.584" y="128.528" style="fill:#E9F8FF;" width="101.93" height="9.427"/>
				<rect x="214.584" y="147.379" style="fill:#E9F8FF;" width="101.93" height="9.428"/>
				<rect x="214.584" y="166.23" style="fill:#E9F8FF;" width="101.93" height="9.427"/>
			</g>
			<g>
				<path style="fill:#94DCF8;" d="M378.87,155.536c0,13.89-11.26,25.15-25.15,25.15c-13.89,0-25.15-11.26-25.15-25.15
					c0-13.89,11.26-25.15,25.15-25.15C367.61,130.385,378.87,141.645,378.87,155.536z"/>
				<polygon style="fill:#027691;" points="333.4,140.693 346.37,170.888 359.34,170.888 374.04,130.366 364.275,130.366 
					353.716,162.886 342.908,140.137 				"/>
			</g>
			<g>
				<g>
					<g>
						<rect x="223.557" y="223.126" style="fill:#E9F8FF;" width="71.411" height="5.393"/>
						<rect x="223.557" y="233.909" style="fill:#E9F8FF;" width="71.411" height="5.391"/>
						<rect x="223.557" y="244.69" style="fill:#E9F8FF;" width="71.411" height="5.393"/>
					</g>
					<g>
						<line style="fill:none;stroke:#36A9CE;stroke-miterlimit:10;" x1="294.967" y1="210.556" x2="218.289" y2="210.556"/>
						<path style="fill:#94DCF8;" d="M212.483,210.556c0,2.76,2.236,4.997,4.996,4.997c2.76,0,4.997-2.237,4.997-4.997
							c0-2.76-2.237-4.997-4.997-4.997C214.719,205.559,212.483,207.796,212.483,210.556z"/>
					</g>
				</g>
				<rect x="324.403" y="202.536" style="fill-rule:evenodd;clip-rule:evenodd;fill:#E9F8FF;" width="57.655" height="50.571"/>
			</g>
			<g>
				<g>
					<g>
						<rect x="223.557" y="281.359" style="fill:#E9F8FF;" width="71.411" height="5.392"/>
						<rect x="223.557" y="292.142" style="fill:#E9F8FF;" width="71.411" height="5.391"/>
						<rect x="223.557" y="302.923" style="fill:#E9F8FF;" width="71.411" height="5.392"/>
					</g>
					<g>
						<line style="fill:none;stroke:#36A9CE;stroke-miterlimit:10;" x1="294.967" y1="268.789" x2="218.289" y2="268.789"/>
						<path style="fill:#94DCF8;" d="M212.483,268.789c0,2.759,2.236,4.997,4.996,4.997c2.76,0,4.997-2.238,4.997-4.997
							c0-2.76-2.237-4.998-4.997-4.998C214.719,263.791,212.483,266.029,212.483,268.789z"/>
					</g>
				</g>
				<rect x="324.403" y="260.768" style="fill-rule:evenodd;clip-rule:evenodd;fill:#E9F8FF;" width="57.655" height="50.57"/>
			</g>
			<g>
				<g>
					<g>
						<rect x="223.557" y="339.594" style="fill:#E9F8FF;" width="71.411" height="5.392"/>
						<rect x="223.557" y="350.375" style="fill:#E9F8FF;" width="71.411" height="5.391"/>
						<rect x="223.557" y="361.156" style="fill:#E9F8FF;" width="71.411" height="5.392"/>
					</g>
					<g>
						<line style="fill:none;stroke:#36A9CE;stroke-miterlimit:10;" x1="294.967" y1="327.022" x2="218.289" y2="327.022"/>
						<path style="fill:#94DCF8;" d="M212.483,327.022c0,2.76,2.236,4.997,4.996,4.997c2.76,0,4.997-2.237,4.997-4.997
							c0-2.76-2.237-4.998-4.997-4.998C214.719,322.024,212.483,324.263,212.483,327.022z"/>
					</g>
				</g>
				<rect x="324.403" y="319.002" style="fill-rule:evenodd;clip-rule:evenodd;fill:#E9F8FF;" width="57.655" height="50.57"/>
			</g>
			<g>
				<path style="fill-rule:evenodd;clip-rule:evenodd;fill:#0886A8;" d="M366.649,231.826c-0.148,2.545,0.036,4.92-0.701,7.355
					c-2.351,0.648-5.869-1.732-7.218,1.151c-0.506,1.082-0.389,2.77-0.33,4.025c0.021,0.433,0.136,0.934,0.252,1.449h-15.723
					c-0.14-0.752,0.189-1.72,0.308-2.612c0.367-2.765,0.313-5.758-0.134-8.511c-0.382-2.355-2.292-4.506-3.573-6.554
					c-3.007-4.807-4.119-10.391-0.283-15.168c4.814-5.995,12.443-8.949,19.81-5.925c3.685,1.512,6.114,3.862,7.528,7.54
					c0.848,2.206,1.962,6.797,0.196,8.848l0.161,0.322c1.075,1.589,2.133,3.725,2.777,5.636
					C370.749,232.435,368.671,230.894,366.649,231.826z"/>
				<path style="fill-rule:evenodd;clip-rule:evenodd;fill:#E9F8FF;" d="M366.584,233.573c0,0-12.041-2.58-14.94-0.648
					c-2.01,1.34-1.609,2.898-1.771,5.636c-0.161,2.737,0,7.246,0,7.246h2.094c0,0,0.116-9.984,1.427-10.628
					c1.31-0.644,13.19,0.966,13.19,0.966V233.573z"/>
			</g>
			<g>
				<path style="fill-rule:evenodd;clip-rule:evenodd;fill:#0886A8;" d="M345.118,277.143c-5.03,1.074-8.469,4.698-10.319,9.427
					c-1.384,3.536-3.675,10.604-2.253,14.497c1.512,4.139,7.554,2.36,10.398,1.201c3.577-1.457,6.248-3.885,7.486-7.734
					c1.075-3.34,0.53-7.669-0.429-10.869c-0.503-1.68-1.107-3.386-2.221-4.836c-1.392-1.815-2.303-1.656-4.354-1.202"/>
				<path style="fill-rule:evenodd;clip-rule:evenodd;fill:#0886A8;" d="M361.67,277.143c5.03,1.074,8.469,4.698,10.319,9.427
					c1.384,3.536,3.675,10.604,2.253,14.497c-1.512,4.139-7.554,2.36-10.398,1.201c-3.577-1.457-6.248-3.885-7.486-7.734
					c-1.075-3.34-0.53-7.669,0.429-10.869c0.503-1.68,1.107-3.386,2.221-4.836c1.392-1.815,2.303-1.656,4.353-1.202"/>
				<path style="fill-rule:evenodd;clip-rule:evenodd;fill:#0886A8;" d="M345.359,283.181l6.869-4.348v-8.453
					c0,0,1.389-1.208,2.091,0c0.702,1.207,0,8.453,0,8.453l7.465,4.348l-1.932,2.174l-6.28-3.381l-6.763,3.381L345.359,283.181z"/>
			</g>
			<g>
				<g>
					<path style="fill:#0886A8;" d="M362.381,331.976c0,0.743-0.928,1.347-2.073,1.347h-9.04c-1.146,0-2.073-0.603-2.073-1.347
						v-6.27c0-0.743,0.926-1.348,2.073-1.348h9.04c1.145,0,2.073,0.605,2.073,1.348V331.976z"/>
					<path style="fill:#0886A8;" d="M352.011,328.84c0,1.207-0.979,2.187-2.186,2.187h-3.234c-1.207,0-2.184-0.979-2.184-2.187l0,0
						c0-1.207,0.978-2.186,2.184-2.186h3.234C351.031,326.654,352.011,327.633,352.011,328.84L352.011,328.84z"/>
				</g>
				<g>
					<path style="fill:#0886A8;" d="M362.381,345.424c0,0.744-0.928,1.348-2.073,1.348h-9.04c-1.146,0-2.073-0.604-2.073-1.348
						v-6.271c0-0.743,0.926-1.346,2.073-1.346h9.04c1.145,0,2.073,0.603,2.073,1.346V345.424z"/>
					<path style="fill:#0886A8;" d="M352.011,342.29c0,1.205-0.979,2.185-2.186,2.185h-3.234c-1.207,0-2.184-0.98-2.184-2.185l0,0
						c0-1.208,0.978-2.187,2.184-2.187h3.234C351.031,340.103,352.011,341.082,352.011,342.29L352.011,342.29z"/>
				</g>
				<g>
					<path style="fill:#0886A8;" d="M362.381,358.873c0,0.745-0.928,1.348-2.073,1.348h-9.04c-1.146,0-2.073-0.603-2.073-1.348
						v-6.268c0-0.746,0.926-1.348,2.073-1.348h9.04c1.145,0,2.073,0.602,2.073,1.348V358.873z"/>
					<path style="fill:#0886A8;" d="M352.011,355.738c0,1.207-0.979,2.185-2.186,2.185h-3.234c-1.207,0-2.184-0.978-2.184-2.185l0,0
						c0-1.207,0.978-2.186,2.184-2.186h3.234C351.031,353.553,352.011,354.531,352.011,355.738L352.011,355.738z"/>
				</g>
			</g>
		</g>
		<g>
			<g>
				<g>
					<path style="fill:#027691;" d="M213.94,440.9c2.282,4.433,6.182,8.009,10.794,9.905c1.78,0.733,3.68,1.23,5.305,2.268
						c0.443,0.287,0.875,0.623,1.128,1.089c0.494,0.906,0.151,2.095-0.566,2.838c-0.715,0.742-1.727,1.125-2.723,1.39
						c-2.278,0.605-4.674,0.737-7.003,0.379c-4.595-0.702-8.746-3.24-13.333-3.987c-1.036-0.17-2.129-0.262-3.012-0.826
						c-0.857-0.553-1.396-1.482-1.774-2.427c-1.302-3.289-0.951-6.967-0.585-10.484C206.059,440.042,210.229,440.161,213.94,440.9"
						/>
					<path style="fill:#D3405F;" d="M225.296,460.902c-0.481,0.034-0.953-0.271-1.425-0.162c-0.287,0.068-0.536,0.234-0.794,0.372
						c-1.232,0.649-2.792,0.624-4.004-0.068c-0.923-0.534-1.823-1.46-2.855-1.207c-0.277,0.071-0.526,0.221-0.796,0.31
						c-0.923,0.31-1.938-0.127-2.7-0.734c-0.764-0.605-1.387-1.383-2.2-1.921c-0.814-0.538-1.931-0.797-2.744-0.261
						c-0.306,0.202-0.542,0.496-0.838,0.717c-1.183,0.872-2.991,0.188-3.797-1.049c-0.126-0.194-0.266-0.425-0.496-0.47
						c-0.202-0.047-0.4,0.067-0.592,0.145c-1.045,0.415-2.365-0.53-2.312-1.659c-0.507,0.317-1.215-0.063-1.453-0.611
						c-0.24-0.549-0.149-1.179-0.051-1.77c0.406-2.465,1.016-5.206,3.108-6.562c0.161-0.107,0.338-0.203,0.528-0.211
						c0.534-0.022,0.502,2.362,4.77,6.082c0.962,0.837,2.302,1.094,3.491,1.555c2.167,0.836,4.441,4.319,11.411,4.854
						c2.51,0.19,7.45,0.284,9.786-2.979C231.392,455.189,233.427,460.335,225.296,460.902"/>
					<path style="fill:#94DCF8;" d="M223.057,450.273c-0.936,1.266-1.872,2.536-2.995,3.634c-0.323,0.315-0.679,0.623-1.117,0.72
						c-0.439,0.098-0.974-0.099-1.106-0.526c-0.14-0.444,0.181-0.888,0.48-1.24c0.802-0.951,1.608-1.898,2.412-2.85
						c0.317-0.375,0.651-0.758,1.096-0.962c0.447-0.2,1.047-0.157,1.347,0.227C223.476,449.662,223.238,450.377,223.057,450.273"/>
					<path style="fill:#94DCF8;" d="M219.803,447.152c0.447,0.223,0.966,0.591,0.859,1.079c-0.039,0.162-0.147,0.302-0.259,0.433
						c-0.472,0.567-0.989,1.1-1.506,1.626l-2.223,2.281c-0.283,0.291-0.619,0.603-1.023,0.589c-0.564-0.019-0.911-0.698-0.804-1.247
						c0.106-0.553,0.515-0.99,0.904-1.396c0.934-0.968,1.868-1.936,2.802-2.904c0.242-0.253,0.513-0.522,0.86-0.565
						C219.76,447.001,220.165,447.315,219.803,447.152"/>
					<path style="fill:#94DCF8;" d="M217.145,445.309c0.519,0.393,0.71,1.164,0.429,1.753c-0.123,0.261-0.323,0.478-0.523,0.689
						c-0.913,0.953-1.896,1.84-2.942,2.653c-0.377,0.293-0.847,0.593-1.3,0.437c-0.453-0.153-0.657-0.725-0.555-1.197
						c0.102-0.472,0.419-0.862,0.725-1.232c0.934-1.125,1.91-2.283,3.23-2.91c0.236-0.113,0.495-0.209,0.759-0.177
						C217.226,445.353,217.486,445.55,217.145,445.309"/>
				</g>
				<g>
					<path style="fill:#36A9CE;" d="M212.023,248.796c18.839,61.153,1.985,128.354,6.454,192.266
						c-9.484,3.326-11.011,2.953-21.003,1.853c-6.319-64.76-12.637-129.53-18.121-194.372
						C190.21,249.174,201.067,249.802,212.023,248.796"/>
					<path style="fill:#0886A8;" d="M197.977,435.572c-5.91-27.833,6.72-55.857,10.599-84.041
						c2.983-21.69,0.676-44.091-6.667-64.716c-1.013-2.838-3.202-6.244-6.104-5.44c-1.506,0.417-2.455,1.872-3.181,3.251
						c-6.859,13.032-6.17,28.581-5.312,43.284C189.404,363.721,191.502,399.621,197.977,435.572"/>
				</g>
			</g>
			<g>
				<g>
					<path style="fill:#027691;" d="M110.559,431.103c-0.693,4.939,0.428,10.108,3.104,14.316c1.032,1.627,2.296,3.129,3.021,4.912
						c0.2,0.492,0.358,1.017,0.3,1.543c-0.123,1.023-1.088,1.797-2.104,1.989c-1.013,0.194-2.057-0.079-3.024-0.438
						c-2.208-0.815-4.244-2.095-5.939-3.726c-3.35-3.227-5.276-7.694-8.591-10.951c-0.75-0.738-1.587-1.444-1.982-2.416
						c-0.383-0.94-0.288-2.01-0.049-3.002c0.833-3.44,3.244-6.24,5.572-8.901C104.616,425.855,107.953,428.357,110.559,431.103"/>
					<path style="fill:#D3405F;" d="M108.294,453.994c-0.413-0.251-0.622-0.775-1.07-0.956c-0.27-0.107-0.572-0.117-0.864-0.153
						c-1.379-0.181-2.638-1.105-3.227-2.368c-0.447-0.968-0.649-2.245-1.642-2.632c-0.265-0.104-0.553-0.123-0.825-0.206
						c-0.932-0.277-1.512-1.225-1.783-2.16c-0.274-0.933-0.334-1.929-0.685-2.839c-0.355-0.909-1.121-1.76-2.093-1.794
						c-0.368-0.01-0.73,0.098-1.098,0.104c-1.47,0.03-2.547-1.571-2.497-3.046c0.008-0.233,0.026-0.502-0.134-0.675
						c-0.14-0.151-0.366-0.174-0.566-0.221c-1.094-0.265-1.626-1.797-0.935-2.688c-0.597-0.032-0.951-0.755-0.833-1.34
						c0.121-0.589,0.561-1.047,0.979-1.472c1.753-1.779,3.833-3.668,6.323-3.57c0.192,0.012,0.394,0.028,0.555,0.136
						c0.449,0.291-0.953,2.216,0.391,7.72c0.3,1.242,1.246,2.221,1.951,3.283c1.287,1.935,1.134,6.092,6.52,10.545
						c1.942,1.605,5.923,4.532,9.709,3.215C116.568,452.846,115.265,458.22,108.294,453.994"/>
					<path style="fill:#94DCF8;" d="M112.594,444.016c-1.487,0.497-2.989,0.993-4.54,1.244c-0.441,0.069-0.913,0.119-1.328-0.061
						c-0.414-0.17-0.738-0.636-0.598-1.064c0.142-0.445,0.658-0.621,1.109-0.739c1.202-0.308,2.406-0.621,3.61-0.933
						c0.476-0.122,0.97-0.247,1.451-0.152c0.483,0.092,0.949,0.472,0.97,0.958C113.293,443.762,112.687,444.209,112.594,444.016"/>
					<path style="fill:#94DCF8;" d="M111.744,439.593c0.236,0.439,0.445,1.042,0.079,1.374c-0.129,0.115-0.298,0.164-0.462,0.206
						c-0.713,0.192-1.443,0.326-2.168,0.462c-1.043,0.194-2.089,0.387-3.132,0.579c-0.4,0.072-0.851,0.136-1.178-0.111
						c-0.447-0.34-0.341-1.093,0.064-1.481c0.405-0.391,0.992-0.513,1.545-0.618c1.323-0.253,2.643-0.504,3.964-0.759
						c0.343-0.063,0.719-0.125,1.028,0.035C111.794,439.444,111.943,439.933,111.744,439.593"/>
					<path style="fill:#94DCF8;" d="M110.63,436.549c0.202,0.623-0.087,1.365-0.659,1.688c-0.251,0.14-0.538,0.202-0.821,0.255
						c-1.3,0.255-2.617,0.413-3.938,0.474c-0.474,0.019-1.03-0.008-1.311-0.395c-0.285-0.391-0.117-0.972,0.236-1.298
						c0.353-0.329,0.837-0.465,1.302-0.587c1.415-0.382,2.881-0.768,4.319-0.516c0.257,0.044,0.524,0.119,0.719,0.291
						C110.672,436.636,110.771,436.945,110.63,436.549"/>
				</g>
				<g>
					<path style="fill:#36A9CE;" d="M203.698,248.077c-1.091,32.982-20.94,75.864-38.202,105.837
						c-11.897,20.663-28.992,41.765-51.252,80.42c-8.184-4.635-12.145-5.123-20.33-9.758c4.791-14.517,9.616-22.572,14.728-32.837
						c18.115-36.411,34.073-73.808,47.769-111.957c4.71-13.116,9.252-26.516,17.441-37.962
						C183.02,245.779,192.908,248.198,203.698,248.077"/>
					<path style="fill:none;stroke:#1B5970;stroke-miterlimit:10;" d="M104.352,428.95c12.882-46.572,53.304-81.657,66.415-128.169"
						/>
				</g>
			</g>
			<path style="fill:#94DCF8;" d="M234.503,311.821c-0.355,5.939-17.577,8.562-17.885,7.318c-1.77-7.161-0.941-55.445-4.67-55.445
				c-3.443-0.004-12.012,59.115-17.264,58.743c-14.058-1.004-51.924-7.779-60.62-12.675c-0.692-0.389,29.415-105.658,33.022-135.299
				c0.789-6.495-4.821-39.979,14.941-40.907c5.782-0.271,12.109-2.407,17.734-0.907c7.914,2.112,28.276-2.472,28.276,34.488
				c0,8.458,4.214,55.663,4.087,60.603L234.503,311.821z"/>
			<g>
				<path style="fill:#FFB6B6;" d="M249.77,209.559c3.346,1.273,7.031,1.453,10.241,0.496c1.58-0.468,3.17-1.21,4.872-0.849
					c0.227,0.049,0.462,0.122,0.624,0.287c0.198,0.206,0.238,0.5,0.198,0.751c-0.308,1.981-4.138,1.87-4.174,3.899
					c4.149-0.81,10.307-1.617,12.896,0.409c1.613,1.259-4.8,2.095-10.093,2.938c3.264,0.902,6.882-0.862,9.81,0.908
					c0.228,0.138,0.457,0.309,0.559,0.545c0.746,1.719-6.368,1.553-10.295,1.749c1.629,0.311,2.829,0.825,4.465,0.946
					c1.636,0.119,4.329,0.573,4.287,2.229c-0.038,1.47-7.063,1.068-10.786,0.468c2.41,0.851,3.225,1.332,5.786,2.372
					c1.481,0.602,0.474,2.274-0.766,2.206c-2.655-0.151-14.964-3.493-25.34-10.214C243.489,215.746,247.204,211.174,249.77,209.559"
					/>
				<path style="fill:#94DCF8;" d="M222.636,152.81c0.879,6.92,0.6,16.338,0.798,23.365c0.451,16.077,17.2,25.507,32.696,29.564
					c-12.837,18.928-14.241,21.661-14.92,21.998c-0.497,0.243-18.413-10.252-28.245-19.145c-9.307-8.416-9.61-15.225-10.697-21.637
					c-3.51-20.704,1.959-32.886,5.023-44.318c0.439-1.633,1.023-3.405,2.358-4.328C210.984,137.388,221.756,145.892,222.636,152.81z
					"/>
			</g>
			<path style="fill:#0886A8;" d="M212.24,166.074c-0.585,1.017-7.204,6.172-7.216,6.521c-0.007,0.29-18.915-37.679-18.426-37.915
				c1.68-0.812,8.605-3.195,12.435-2.642c12.196,1.757,15.226,11.273,14.994,18.919c-0.264,8.761-4.859,15.736-5.674,17.151"/>
			<path style="fill:#D7F1FF;" d="M210.042,137.42c-0.326-0.536-2.81-2.613-1.812-2.74c0.77-0.098,3.667,2.566,4.976,3.486
				c1.74,1.221,5.523,5.924,5.516,8.13c-0.006,2.027-3.678,1.636-4.896,1.266c1.132,5.599,6.54,6.193,5.999,7.052
				c-0.266,0.42-1.747,4.431-7.584,11.459c-2.026,2.442-3.879,3.831-7.227,6.871c1.102-1.061,5.751-8.827,7.486-15.073
				C214.599,150.302,212.716,141.821,210.042,137.42z"/>
			<path style="fill:none;stroke:#1B5970;stroke-miterlimit:10;" d="M210.042,179.59c5.297,27.155,6.267,55.108,2.863,82.528"/>
			<path style="fill:#C6E5FA;" d="M196.658,240.458c-0.817,6.806-1.706,13.841-5.247,19.733
				c-3.538,5.894-10.488,10.363-17.285,8.899c-6.968-1.502-11.44-8.744-11.997-15.756c-0.555-7.011,1.919-13.862,4.355-20.463
				C176.114,236.835,186.287,239.509,196.658,240.458"/>
			<g>
				<g>
					
						<rect x="267.77" y="157.851" transform="matrix(0.9805 -0.1964 0.1964 0.9805 -54.8473 60.2019)" style="fill:#CE3657;" width="16.59" height="297.489"/>
					
						<rect x="267.851" y="158.666" transform="matrix(0.9806 -0.1963 0.1963 0.9806 -55.0426 59.3611)" style="fill:#CE3657;" width="8.295" height="297.49"/>
				</g>
				
					<rect x="238.211" y="118.861" transform="matrix(0.9805 -0.1964 0.1964 0.9805 -19.4214 49.3729)" style="fill:#010148;" width="2.003" height="7.485"/>
				<path style="fill:#D3405F;" d="M237.816,157.871l-1.711-8.542c0,0-0.175-24.527,3.406-25.244
					c3.255-0.652,12.861,21.986,12.861,21.986l1.763,8.798L237.816,157.871z"/>
				
					<rect x="237.472" y="154.968" transform="matrix(0.9805 -0.1964 0.1964 0.9805 -26.6713 51.58)" style="fill:#94DCF8;" width="18.574" height="10.628"/>
			</g>
			<path style="fill:#D7F1FF;" d="M205.013,172.944c0,0-12.641-32.226-12.243-33.94c0.397-1.714,0.766-6.883,0.766-6.883
				s-6.288,0.571-7.461,2.556c-1.176,1.985,2.655,8.786,2.655,8.786s1.366,3.776,0,5.228
				C187.364,150.142,205.013,172.944,205.013,172.944z"/>
			<path style="fill:#36A9CE;" d="M231.886,222.417l-2.124-31.042l16.824,10.281c0,0-2.702,8.316-7.373,13.343
				C234.542,220.025,231.886,222.417,231.886,222.417z"/>
			<g>
				<path style="fill:#FFB6B6;" d="M227.491,194.82c3.766-2.327,7.367-6.126,9.144-10.15c1.14-2.576,5.102-10.595,8.429-10.114
					c2.459,0.359-2.023,6.029-1.025,5.531c1.271-0.634,2.621-1.087,4.045-1.283c3.959-0.542,9.916,0.4,10.526,4.297
					c0.309,1.96-4.733-1.14-6.54,0.296c3.07,1.304,6.88,1.057,7.101,4.308c0.211,3.078-4.391-1.523-6.84-0.555
					c3.634,2.523,8.263,4.008,6.89,5.989c-0.895,1.289-2.748-0.289-4.064-1.132c-1.316-0.846-3.337-1.653-4.863-1.246
					c2.513,1.081,5.477,2.24,6.998,4.495c0.179,0.266,0.357,0.574,0.302,0.891c-0.087,0.488-0.693,0.733-1.18,0.631
					c-0.487-0.104-0.878-0.442-1.272-0.739c-5.297-3.995-8.916-1.598-11.105,0.828c-3.753,4.161-7.027,6.493-11.611,6.021
					c-0.622-0.064-1.264-0.186-1.762-0.557c-0.638-0.475-0.932-1.268-1.195-2.017c-0.71-2.028-1.422-4.058-2.132-6.087
					C227.551,194.48,227.767,194.733,227.491,194.82"/>
				<g>
					<path style="fill:#C6E5FA;" d="M160.112,148.644c6.521-12.997,20.91-17.596,27.114-10.929
						c9.697,10.424,6.827,39.444,16.105,44.999c7.108,4.255,16.813,5.798,27.418,3.445c3.853,10.152,7.848,19.432,6.846,20.494
						c-8.261,8.759-24.814,13.528-40.165,10.877C166.655,212.213,147.787,173.206,160.112,148.644"/>
					<path style="fill:none;stroke:#1B5970;stroke-miterlimit:10;" d="M199.541,182.289c0.308,4.229-1.7,8.25-3.653,12.028"/>
					<path style="fill:none;stroke:#1B5970;stroke-miterlimit:10;" d="M197.871,181.138c-4.18,0.827-7.85,3.829-9.444,7.729"/>
					<path style="fill:none;stroke:#1B5970;stroke-miterlimit:10;" d="M196.039,179.06c-1.54-0.936-3.485-1.026-5.25-0.636
						c-1.766,0.392-3.393,1.223-4.999,2.047"/>
				</g>
			</g>
			<path style="fill:none;stroke:#1B5970;stroke-miterlimit:10;" d="M165.706,234.518c-1.97,6.406-4.732,15.972-3.859,22.457
				c1.181,8.778,10.403,19.063,23.904,9.307c8.214-5.935,10.99-21.331,10.907-23.068"/>
			<g>
				<g>
					<path style="fill:#FFB6B6;" d="M209.695,141.544c-6.048,2.855-17.817-0.095-17.011-4.024c1.895-9.214-0.313-16.06-2.064-23.317
						c5.803-0.185,12.815,2.886,18.623,3.167c-0.866,5.732-1.499,10.763-0.285,17.694
						C209.344,137.292,209.695,141.544,209.695,141.544z"/>
					<path style="fill:#010148;" d="M208.593,133.07c-2.819-0.023-7.137-2.232-9.576-5.374c-0.968-1.245-1.663-2.648-2.184-4.112
						c0.834,0.772,1.968,1.211,3.087,1.597c1.9,0.651,3.851,1.198,5.831,1.634c0.806,0.176,1.626,0.338,2.459,0.276
						C207.966,127.498,208.402,131.957,208.593,133.07"/>
				</g>
				<path style="fill:#FFB6B6;" d="M201.715,98.763c7.552,1.012,10.292,5.242,12.592,13.3c0.926,3.243,2.028,7.07,0.417,11.198
					c-3.514,9.006-14.741,3.467-16.575,2.176c-4.064-2.862-7.491-6.044-8.933-10.529c-1.443-4.485-0.653-9.676,2.736-13.134
					C195.34,98.316,198.044,98.271,201.715,98.763"/>
				<g>
					<g>
						<path style="fill:#010148;" d="M209.23,109.095c-0.168-0.518-0.713-0.806-1.215-0.641c-0.502,0.165-0.772,0.718-0.602,1.234
							c0.168,0.518,0.713,0.804,1.215,0.64C209.129,110.164,209.4,109.612,209.23,109.095"/>
						<path style="fill:#010148;" d="M201.237,113.574c-0.17-0.519-0.713-0.804-1.215-0.64c-0.5,0.164-0.773,0.717-0.604,1.234
							c0.171,0.517,0.713,0.803,1.215,0.641C201.137,114.642,201.407,114.091,201.237,113.574"/>
					</g>
					<g>
						<path style="fill:none;stroke:#010148;stroke-width:0.25;stroke-linecap:round;stroke-miterlimit:10;" d="M204.524,110.338
							c0.995,1.926,2.642,3.215,4.217,4.344c0.142,0.101,0.294,0.219,0.368,0.403c0.061,0.149,0.051,0.304,0.026,0.447
							c-0.122,0.736-0.604,1.27-1.215,1.347"/>
						<path style="fill:none;stroke:#010148;stroke-width:0.5;stroke-miterlimit:10;" d="M209.184,107.687
							c-0.166,0.537-0.532,1.005-1.008,1.286c-0.476,0.283-1.055,0.377-1.598,0.261"/>
						<path style="fill:none;stroke:#010148;stroke-width:0.5;stroke-miterlimit:10;" d="M201.189,112.165
							c-0.166,0.539-0.53,1.008-1.006,1.288c-0.476,0.282-1.055,0.377-1.6,0.258"/>
						<path style="fill:none;stroke:#010148;stroke-linecap:round;stroke-miterlimit:10;" d="M211.469,119.271
							c-0.591,0.62-1.25,1.203-2.044,1.506c-0.798,0.301-1.756,0.281-2.451-0.238"/>
						<path style="fill:none;stroke:#010148;stroke-linecap:round;stroke-miterlimit:10;" d="M200.005,109.908
							c-1.472-0.048-2.896,0.988-3.327,2.419"/>
						<path style="fill:none;stroke:#010148;stroke-linecap:round;stroke-miterlimit:10;" d="M208.191,105.624
							c-1.292-0.121-2.606,0.646-3.159,1.84"/>
					</g>
				</g>
				<path style="fill:#010148;" d="M178.701,109.639c0.893,1.657,2.055,2.531,3.451,3.488c2.229,1.53,1.304,2.193,2.501,4.352
					c0.947,1.71,8.195,6.025,8.742,2.272c0.274-1.881-2.626-3.482-3.306-5.203c-0.638-1.616-0.87-4.046,0.147-5.605
					c0.885-1.359,1.842-0.913,2.927-1.751c0.993-0.768,1.066-1.871,1.7-2.869c1.628-2.568,3.568-2.24,6.415-2.591
					c2.11-0.26,4.195-1.019,6.261,0.25c1.798,1.105,2.206,1.424,3.955,3.642c1.895-2.235,4.238-6.036,1.717-12.574
					c-1.391-3.61-5.531-8.646-9.792-6.58c-1.883,0.912-1.653,3.772-4.292,3.187c-1.957-0.435-2.215-2.798-4.869-2.056
					c-2.479,0.693-1.998,2.761-2.997,4.649c-1.379,2.61-2.34,1.351-4.621,1.521c-2.334,0.174-4.425,2.423-4.827,4.646
					C181.814,98.415,175.214,103.167,178.701,109.639z"/>
				<path style="fill:#FFB6B6;" d="M192.361,115.705c-0.851-0.834-2.111-1.227-3.246-0.953c-1.14,0.278-2.104,1.24-2.332,2.417
					c-0.172,0.855,0.028,1.752,0.358,2.562c1.166,2.875,4.07,4.924,7.085,5.005c0.355,0.009,0.717-0.008,1.047-0.136
					c0.628-0.247,1.059-0.887,1.194-1.565c0.142-0.678,0.025-1.39-0.185-2.054C195.575,118.743,193.778,117.088,192.361,115.705"/>
				<path style="fill:#010148;" d="M191.308,105.296c-2.317,3.525,2.008,5.777,3.447,8.398c1.544,2.808,1.045,5.427-2.234,3.134
					c-1.806-1.262-5.184-3.47-5.808-5.73c-0.815-2.952,1.434-5.417,4.07-5.771c0.058,0.306,0.062,0.618,0.041,0.935"/>
			</g>
		</g>
	</g>
</g>
</svg>
