<?xml version="1.0" encoding="utf-8"?>
<!-- Generator: Adobe Illustrator 27.5.0, SVG Export Plug-In . SVG Version: 6.00 Build 0)  -->
<svg version="1.1" xmlns="http://www.w3.org/2000/svg" xmlns:xlink="http://www.w3.org/1999/xlink" x="0px" y="0px"
	 viewBox="0 0 500 500" style="enable-background:new 0 0 500 500;" xml:space="preserve">
<g id="BACKGROUND">
	<rect style="fill:#FFFFFF;" width="500" height="500"/>
	<rect style="fill:#FCFBFA;" width="500" height="500"/>
</g>
<g id="OBJECTS">
	<g>
		<g>
			<linearGradient id="SVGID_1_" gradientUnits="userSpaceOnUse" x1="120.6202" y1="145.6798" x2="331.2321" y2="356.2917">
				<stop  offset="0" style="stop-color:#FFEDDC"/>
				<stop  offset="1" style="stop-color:#F9D8B7"/>
			</linearGradient>
			<path style="fill:url(#SVGID_1_);" d="M412.84,210.196c-21.194-17.067-37.91-39.033-48.932-63.912
				c-17.954-40.526-57.472-75.397-104.587-75.397c-41.081,0-77.124,21.549-97.453,53.959c-9.944,15.853-24.517,28.351-41.947,35.162
				c-46.452,18.15-79.061,63.934-77.61,117.142c1.74,63.825,56.652,117.868,120.496,118.647c2.639,0.032,5.259-0.019,7.857-0.152
				c41.337-2.114,82.793,3.847,121.076,19.584c13.615,5.596,28.482,8.767,44.065,8.975c66.721,0.89,121.845-53.4,121.927-120.127
				C457.782,266.126,440.254,232.273,412.84,210.196z"/>
			
				<linearGradient id="SVGID_00000065037301029852193330000002012084115575119025_" gradientUnits="userSpaceOnUse" x1="387.0341" y1="143.3306" x2="430.9291" y2="187.2256">
				<stop  offset="0" style="stop-color:#FFEDDC"/>
				<stop  offset="1" style="stop-color:#F9D8B7"/>
			</linearGradient>
			<path style="fill:url(#SVGID_00000065037301029852193330000002012084115575119025_);" d="M423.476,181.978
				c8.299-7.266,8.077-21.093-0.495-30.883c-8.572-9.79-22.249-11.836-30.547-4.57c-8.299,7.266-8.077,21.093,0.495,30.883
				C401.501,187.198,415.177,189.245,423.476,181.978z"/>
			<g>
				
					<linearGradient id="SVGID_00000120550263904062504720000006367707522476952976_" gradientUnits="userSpaceOnUse" x1="131.6357" y1="150.1812" x2="88.8462" y2="107.3917">
					<stop  offset="0" style="stop-color:#FFEDDC"/>
					<stop  offset="1" style="stop-color:#F9D8B7"/>
				</linearGradient>
				<path style="fill:url(#SVGID_00000120550263904062504720000006367707522476952976_);" d="M135.427,119.137
					c-5.015-7.96-18.648-8.385-30.452-0.949c-11.803,7.436-17.307,19.917-12.292,27.877c5.015,7.96,18.648,8.385,30.452,0.949
					C134.939,139.578,140.442,127.098,135.427,119.137z"/>
				
					<linearGradient id="SVGID_00000107572558665960435630000014785701329232022671_" gradientUnits="userSpaceOnUse" x1="99.2312" y1="101.3431" x2="82.7202" y2="84.8321" gradientTransform="matrix(0.8888 -0.4584 0.4584 0.8888 -31.9807 65.5457)">
					<stop  offset="0" style="stop-color:#FFEDDC"/>
					<stop  offset="1" style="stop-color:#F9D8B7"/>
				</linearGradient>
				<path style="fill:url(#SVGID_00000107572558665960435630000014785701329232022671_);" d="M100.386,103.678
					c1.434,2.78-0.472,6.616-4.257,8.568c-3.785,1.952-8.015,1.28-9.449-1.5c-1.434-2.78,0.472-6.616,4.257-8.568
					C94.721,100.226,98.952,100.898,100.386,103.678z"/>
			</g>
		</g>
		<g>
			<g>
				<g>
					
						<linearGradient id="SVGID_00000134236155280515028090000003543337220315342492_" gradientUnits="userSpaceOnUse" x1="117.3527" y1="164.0702" x2="364.846" y2="411.5635">
						<stop  offset="0" style="stop-color:#59667C"/>
						<stop  offset="1" style="stop-color:#2E3D5B"/>
					</linearGradient>
					
						<rect x="98.01" y="197.49" style="fill:url(#SVGID_00000134236155280515028090000003543337220315342492_);" width="293.004" height="187.477"/>
					
						<linearGradient id="SVGID_00000078007225997093758640000014813479685065339795_" gradientUnits="userSpaceOnUse" x1="138.6534" y1="179.9274" x2="313.522" y2="354.796">
						<stop  offset="0" style="stop-color:#78E4EA"/>
						<stop  offset="1" style="stop-color:#7FDEF4"/>
					</linearGradient>
					
						<rect x="110.698" y="210.178" style="fill:url(#SVGID_00000078007225997093758640000014813479685065339795_);" width="267.628" height="151.214"/>
				</g>
				<g>
					
						<linearGradient id="SVGID_00000092434140519880833430000001031824139710941571_" gradientUnits="userSpaceOnUse" x1="219.1878" y1="380.9738" x2="273.7546" y2="435.5406">
						<stop  offset="0" style="stop-color:#59667C"/>
						<stop  offset="1" style="stop-color:#2E3D5B"/>
					</linearGradient>
					
						<rect x="208.588" y="384.968" style="fill:url(#SVGID_00000092434140519880833430000001031824139710941571_);" width="71.848" height="42.66"/>
					<polygon style="fill:#0D1E3A;" points="280.435,394.323 280.435,384.968 208.588,384.968 208.588,402.93 					"/>
					
						<linearGradient id="SVGID_00000058562676486697135440000008146832492620064154_" gradientUnits="userSpaceOnUse" x1="244.5115" y1="438.876" x2="244.5115" y2="427.0564">
						<stop  offset="0" style="stop-color:#59667C"/>
						<stop  offset="1" style="stop-color:#2E3D5B"/>
					</linearGradient>
					<path style="fill:url(#SVGID_00000058562676486697135440000008146832492620064154_);" d="M297.979,430.382v3.849
						c0,1.522-1.235,2.749-2.749,2.749H193.793c-1.514,0-2.749-1.227-2.749-2.749v-3.849c0-1.523,1.235-2.758,2.749-2.758h101.436
						C296.744,427.625,297.979,428.859,297.979,430.382z"/>
				</g>
			</g>
			<g>
				<g>
					<g>
						<polygon style="fill:#FFFFFF;" points="253.021,182.964 229.722,182.756 181.673,275.144 186.4,292.871 186.4,361.415 
							240.763,361.415 295.126,361.415 295.126,292.871 299.853,275.144 						"/>
						
							<linearGradient id="SVGID_00000182503312139490605330000013093267242445771683_" gradientUnits="userSpaceOnUse" x1="359.8647" y1="393.6256" x2="192.8395" y2="226.6004">
							<stop  offset="0" style="stop-color:#34B2B2"/>
							<stop  offset="1" style="stop-color:#61DBDB"/>
						</linearGradient>
						<path style="fill:url(#SVGID_00000182503312139490605330000013093267242445771683_);" d="M274.761,361.415V188.791
							c-10.993-3.18-20.204-5.412-21.713-5.774l-0.027-0.054l-23.299-0.207c0,0-9.858,2.41-21.799,5.968v172.691h32.84H274.761z"/>
						<path style="fill:#43C6C9;" d="M253.05,183.016c-0.15-0.037-0.225-0.05-0.225-0.05h0.2L253.05,183.016z"/>
						<g>
							<g>
								<path style="fill:#FFFFFF;" d="M323.682,306.268c-4.866,4.203-26.191,1.538-48.918-2.852
									c-15.109-2.927-30.832-6.604-42.752-9.568H232c-11.832-2.927-19.9-5.116-19.9-5.116l1.764-19.187l0.901-9.769l24.027,4.528
									h0.013l30.519,5.754l5.441,1.026l21.538,4.065l-21.538-45.666v-40.688c17.086,4.94,38.462,12.17,41.926,18.236
									C316.69,207.031,335.114,296.412,323.682,306.268z"/>
								
									<linearGradient id="SVGID_00000054229728685628526950000015542761765464950942_" gradientUnits="userSpaceOnUse" x1="227.7556" y1="288.3132" x2="190.4052" y2="258.9862">
									<stop  offset="0.0856" style="stop-color:#FFA683"/>
									<stop  offset="1" style="stop-color:#FFD3B3"/>
								</linearGradient>
								<path style="fill:url(#SVGID_00000054229728685628526950000015542761765464950942_);" d="M214.843,269.335l-27.218,5.717
									c0.974-2.297,4.714-10.671,8.231-12.217c8.617-3.793,18.613-3.203,18.613-3.203L214.843,269.335z"/>
							</g>
							<g>
								
									<linearGradient id="SVGID_00000082360893156997415250000006179014025777899191_" gradientUnits="userSpaceOnUse" x1="258.9082" y1="243.9742" x2="295.7052" y2="284.9212">
									<stop  offset="0.0856" style="stop-color:#FFA683"/>
									<stop  offset="1" style="stop-color:#FFD3B3"/>
								</linearGradient>
								<path style="fill:url(#SVGID_00000082360893156997415250000006179014025777899191_);" d="M269.514,258.943
									c0,0,9.996-0.591,18.613,3.201c4.084,1.797,8.47,12.803,8.47,12.803l-27.727-4.832L269.514,258.943z"/>
								<path style="fill:#FFFFFF;" d="M269.723,257.813l-0.4,12.245l-0.388,11.882c0,0-16.598,5.779-36.923,11.907H232
									c-7.73,2.326-15.985,4.703-24.077,6.842c-22.276,5.841-43.239,9.781-48.117,5.578c-11.42-9.856,6.992-99.237,6.992-99.237
									c3.452-6.041,24.353-13.308,41.126-18.311v41.388l-20.738,45.04l20.738-4.353l5.941-1.251l24.928-5.241h0.013
									L269.723,257.813z"/>
							</g>
							<path style="opacity:0.58;fill:#DFE7E8;" d="M268.885,281.965l-68.63,37.949v41.501h-13.859v-55.71
								C218.416,299.451,267.034,282.603,268.885,281.965z"/>
						</g>
						<path style="opacity:0.58;fill:#DFE7E8;" d="M295.126,361.415v-54.557c-6.35-0.876-13.284-2.072-20.362-3.442
							c-10.494-2.039-21.288-4.428-30.907-6.704l-0.851-0.037l45.091,20.75v43.99H295.126z"/>
					</g>
				</g>
				<g>
					
						<linearGradient id="SVGID_00000107567648361690781740000005660708485669010342_" gradientUnits="userSpaceOnUse" x1="251.7399" y1="236.7178" x2="260.4734" y2="236.7178">
						<stop  offset="0" style="stop-color:#FFEDDC"/>
						<stop  offset="1" style="stop-color:#F9D8B7"/>
					</linearGradient>
					<path style="fill:url(#SVGID_00000107567648361690781740000005660708485669010342_);" d="M260.473,247.771h-2.16
						c-3.625,0-6.574-2.949-6.574-6.573v-15.533h0.962v15.533c0,3.094,2.518,5.612,5.612,5.612h2.16V247.771z"/>
					
						<linearGradient id="SVGID_00000083769579000375814490000007844168830071098292_" gradientUnits="userSpaceOnUse" x1="250.7782" y1="217.8755" x2="269.3374" y2="217.8755">
						<stop  offset="0" style="stop-color:#59667C"/>
						<stop  offset="1" style="stop-color:#2E3D5B"/>
					</linearGradient>
					<path style="fill:url(#SVGID_00000083769579000375814490000007844168830071098292_);" d="M253.663,225.665h-2.885
						c0-8.59,6.989-15.579,15.58-15.579h2.98v2.885h-2.98C259.358,212.971,253.663,218.665,253.663,225.665z"/>
					
						<linearGradient id="SVGID_00000088816867946536913710000007092516337846875325_" gradientUnits="userSpaceOnUse" x1="260.117" y1="247.1053" x2="262.8589" y2="247.1053">
						<stop  offset="0" style="stop-color:#59667C"/>
						<stop  offset="1" style="stop-color:#2E3D5B"/>
					</linearGradient>
					<path style="fill:url(#SVGID_00000088816867946536913710000007092516337846875325_);" d="M260.839,249.818h-0.136
						c-0.323,0-0.586-0.262-0.586-0.586v-4.254c0-0.323,0.262-0.586,0.586-0.586h0.136c1.116,0,2.02,0.904,2.02,2.02v1.385
						C262.859,248.913,261.954,249.818,260.839,249.818z"/>
					
						<linearGradient id="SVGID_00000111885288193972690950000002586397397957417615_" gradientUnits="userSpaceOnUse" x1="276.7844" y1="236.7178" x2="285.5179" y2="236.7178">
						<stop  offset="0" style="stop-color:#FFEDDC"/>
						<stop  offset="1" style="stop-color:#F9D8B7"/>
					</linearGradient>
					<path style="fill:url(#SVGID_00000111885288193972690950000002586397397957417615_);" d="M278.944,247.771h-2.16v-0.962h2.16
						c3.094,0,5.612-2.517,5.612-5.612v-15.533h0.962v15.533C285.518,244.822,282.569,247.771,278.944,247.771z"/>
					
						<linearGradient id="SVGID_00000083779000056314792380000012460951625186326679_" gradientUnits="userSpaceOnUse" x1="267.9203" y1="217.8755" x2="286.4795" y2="217.8755">
						<stop  offset="0" style="stop-color:#59667C"/>
						<stop  offset="1" style="stop-color:#2E3D5B"/>
					</linearGradient>
					<path style="fill:url(#SVGID_00000083779000056314792380000012460951625186326679_);" d="M286.479,225.665h-2.885
						c0-6.999-5.695-12.694-12.695-12.694h-2.98v-2.885h2.98C279.491,210.086,286.479,217.075,286.479,225.665z"/>
					
						<linearGradient id="SVGID_00000112590290740869859390000012572543696791621538_" gradientUnits="userSpaceOnUse" x1="274.3991" y1="247.1053" x2="277.141" y2="247.1053">
						<stop  offset="0" style="stop-color:#59667C"/>
						<stop  offset="1" style="stop-color:#2E3D5B"/>
					</linearGradient>
					<path style="fill:url(#SVGID_00000112590290740869859390000012572543696791621538_);" d="M276.419,249.818h0.136
						c0.323,0,0.586-0.262,0.586-0.586v-4.254c0-0.323-0.262-0.586-0.586-0.586h-0.136c-1.116,0-2.02,0.904-2.02,2.02v1.385
						C274.399,248.913,275.303,249.818,276.419,249.818z"/>
					
						<linearGradient id="SVGID_00000164498148982051471900000009271548109844859798_" gradientUnits="userSpaceOnUse" x1="211.2459" y1="203.2041" x2="270.5911" y2="203.2041">
						<stop  offset="0" style="stop-color:#59667C"/>
						<stop  offset="1" style="stop-color:#2E3D5B"/>
					</linearGradient>
					<path style="fill:url(#SVGID_00000164498148982051471900000009271548109844859798_);" d="M214.131,228.882h-2.885v-21.684
						c0-16.361,13.311-29.672,29.672-29.672c16.361,0,29.673,13.311,29.673,29.672v4.503h-2.885v-4.503
						c0-14.771-12.016-26.788-26.788-26.788c-14.77,0-26.787,12.017-26.787,26.788V228.882z"/>
					<g>
						
							<linearGradient id="SVGID_00000123436115854466684630000017993955788115371691_" gradientUnits="userSpaceOnUse" x1="203.4307" y1="236.2921" x2="221.7723" y2="236.2921">
							<stop  offset="0" style="stop-color:#59667C"/>
							<stop  offset="1" style="stop-color:#2E3D5B"/>
						</linearGradient>
						
							<circle style="fill:url(#SVGID_00000123436115854466684630000017993955788115371691_);" cx="212.601" cy="236.292" r="9.171"/>
						<path style="fill:#FFFFFF;" d="M216.293,236.292c0,2.039-1.653,3.692-3.692,3.692s-3.692-1.653-3.692-3.692
							s1.653-3.692,3.692-3.692S216.293,234.253,216.293,236.292z"/>
					</g>
				</g>
				<g>
					
						<linearGradient id="SVGID_00000137101273476233962910000008044129073731555210_" gradientUnits="userSpaceOnUse" x1="220.0741" y1="99.8633" x2="261.7249" y2="141.514">
						<stop  offset="0" style="stop-color:#59667C"/>
						<stop  offset="1" style="stop-color:#2E3D5B"/>
					</linearGradient>
					<path style="fill:url(#SVGID_00000137101273476233962910000008044129073731555210_);" d="M268.985,130.834
						c-1.351-2.101-3.177-1.501-4.34-0.775v-3.577c-3.264-1.051-8.167-8.18-8.167-8.18c-14.797,5.678-29.043,0.113-29.043,0.113
						c-4.228,5.791-8.443,9.243-8.443,9.243v2.451c-1.163-0.763-3.027-1.413-4.415,0.725c-0.275,0.413-1.939-21.044,10.569-27.442
						c0,0,4.24-5.979,16.886-5.766c12.645-0.213,16.898,5.766,16.898,5.766C272.162,109.933,269.736,131.985,268.985,130.834z"/>
					<g>
						<g>
							
								<linearGradient id="SVGID_00000062182263705096196140000004017253540266968761_" gradientUnits="userSpaceOnUse" x1="241.4508" y1="167.2678" x2="241.4508" y2="197.0419">
								<stop  offset="0.0856" style="stop-color:#FFA683"/>
								<stop  offset="1" style="stop-color:#FFD3B3"/>
							</linearGradient>
							<polygon style="fill:url(#SVGID_00000062182263705096196140000004017253540266968761_);" points="252.746,183.077 
								241.807,189.736 230.156,183.077 230.156,157.387 252.746,157.387 							"/>
							
								<linearGradient id="SVGID_00000098922325576370076430000014137368223226727297_" gradientUnits="userSpaceOnUse" x1="264.3707" y1="163.4678" x2="221.4688" y2="120.5658">
								<stop  offset="0" style="stop-color:#FFA683"/>
								<stop  offset="1" style="stop-color:#FFD3B3"/>
							</linearGradient>
							<path style="fill:url(#SVGID_00000098922325576370076430000014137368223226727297_);" d="M264.647,126.479v6.968v13.998
								c0,0-5.89,22.056-22.335,22.056c-19.942,0-23.323-22.144-23.323-22.144v-19.703c0,0,4.217-3.45,8.446-9.237
								c0,0,14.245,5.565,29.047-0.111C256.481,118.306,261.378,125.429,264.647,126.479z"/>
						</g>
					</g>
					<g>
						
							<linearGradient id="SVGID_00000181073040380799874760000015571145569880479906_" gradientUnits="userSpaceOnUse" x1="228.8954" y1="148.8659" x2="210.7308" y2="130.7014">
							<stop  offset="0.0856" style="stop-color:#FFA683"/>
							<stop  offset="1" style="stop-color:#FFD3B3"/>
						</linearGradient>
						<path style="fill:url(#SVGID_00000181073040380799874760000015571145569880479906_);" d="M219.018,147.552
							c-5.253-3.18-6.38-13.745-4.438-16.724c1.389-2.133,3.25-1.479,4.407-0.725v17.257
							C218.988,147.36,218.998,147.421,219.018,147.552z"/>
						
							<linearGradient id="SVGID_00000011722860243303949980000015852889647881489314_" gradientUnits="userSpaceOnUse" x1="261.153" y1="142.3966" x2="270.9216" y2="132.628">
							<stop  offset="0.0856" style="stop-color:#FFA683"/>
							<stop  offset="1" style="stop-color:#FFD3B3"/>
						</linearGradient>
						<path style="fill:url(#SVGID_00000011722860243303949980000015852889647881489314_);" d="M264.622,147.511
							c0.01-0.05,0.02-0.07,0.02-0.07v-17.378c1.167-0.734,2.988-1.328,4.347,0.765
							C270.911,133.796,269.804,144.271,264.622,147.511z"/>
					</g>
					<path style="opacity:0.3;fill:#F48260;" d="M252.748,166.036v2.096c-4.558,3.527-12.387,7.454-22.59,4.143v-6.299
						c3.139,2.113,7.124,3.522,12.156,3.522C246.429,169.498,249.88,168.12,252.748,166.036z"/>
					
						<linearGradient id="SVGID_00000049933793475090146850000001049110020250386324_" gradientUnits="userSpaceOnUse" x1="239.2475" y1="157.6333" x2="246.2571" y2="157.6333">
						<stop  offset="0" style="stop-color:#59667C"/>
						<stop  offset="1" style="stop-color:#2E3D5B"/>
					</linearGradient>
					<path style="fill:url(#SVGID_00000049933793475090146850000001049110020250386324_);" d="M241.809,160.177
						c-0.789,0-1.565-0.211-2.246-0.608c-0.304-0.178-0.406-0.568-0.229-0.874c0.178-0.303,0.57-0.404,0.873-0.228
						c0.485,0.284,1.039,0.434,1.601,0.434c1.749,0,3.172-1.423,3.172-3.173c0-0.353,0.285-0.638,0.638-0.638
						c0.353,0,0.638,0.285,0.638,0.638C246.257,158.182,244.261,160.177,241.809,160.177z"/>
					<g>
						<g>
							
								<linearGradient id="SVGID_00000135661510118997767270000017709506539986431619_" gradientUnits="userSpaceOnUse" x1="242.2189" y1="128.0698" x2="254.2854" y2="140.1362">
								<stop  offset="0" style="stop-color:#59667C"/>
								<stop  offset="1" style="stop-color:#2E3D5B"/>
							</linearGradient>
							<path style="fill:url(#SVGID_00000135661510118997767270000017709506539986431619_);" d="M251.593,135.965
								c0,0.865-0.662,1.566-1.479,1.566s-1.479-0.701-1.479-1.566c0-0.865,0.662-1.566,1.479-1.566S251.593,135.1,251.593,135.965z
								"/>
							
								<linearGradient id="SVGID_00000107558783630998962510000003775543591891375530_" gradientUnits="userSpaceOnUse" x1="243.5706" y1="126.718" x2="255.6371" y2="138.7845">
								<stop  offset="0" style="stop-color:#59667C"/>
								<stop  offset="1" style="stop-color:#2E3D5B"/>
							</linearGradient>
							<path style="fill:url(#SVGID_00000107558783630998962510000003775543591891375530_);" d="M246.721,133.862
								c-0.153,0-0.304-0.062-0.415-0.183c-0.21-0.229-0.193-0.585,0.035-0.795c3.531-3.232,7.172-0.435,7.21-0.407
								c0.243,0.192,0.286,0.544,0.094,0.788c-0.191,0.245-0.546,0.287-0.789,0.098c-0.12-0.092-2.941-2.227-5.755,0.351
								C246.993,133.813,246.858,133.862,246.721,133.862z"/>
						</g>
						<g>
							
								<linearGradient id="SVGID_00000119815673715332093760000007717376193008368557_" gradientUnits="userSpaceOnUse" x1="225.5399" y1="128.0698" x2="237.6064" y2="140.1362">
								<stop  offset="0" style="stop-color:#59667C"/>
								<stop  offset="1" style="stop-color:#2E3D5B"/>
							</linearGradient>
							<path style="fill:url(#SVGID_00000119815673715332093760000007717376193008368557_);" d="M234.914,135.965
								c0,0.865-0.662,1.566-1.479,1.566c-0.817,0-1.479-0.701-1.479-1.566c0-0.865,0.662-1.566,1.479-1.566
								C234.252,134.399,234.914,135.1,234.914,135.965z"/>
							
								<linearGradient id="SVGID_00000039098072700450370500000008688781978031308438_" gradientUnits="userSpaceOnUse" x1="226.8916" y1="126.718" x2="238.9581" y2="138.7845">
								<stop  offset="0" style="stop-color:#59667C"/>
								<stop  offset="1" style="stop-color:#2E3D5B"/>
							</linearGradient>
							<path style="fill:url(#SVGID_00000039098072700450370500000008688781978031308438_);" d="M230.042,133.862
								c-0.153,0-0.304-0.062-0.415-0.183c-0.21-0.229-0.194-0.585,0.035-0.795c3.531-3.232,7.172-0.435,7.21-0.407
								c0.243,0.192,0.286,0.544,0.094,0.788c-0.191,0.245-0.546,0.287-0.789,0.098c-0.12-0.092-2.941-2.227-5.755,0.351
								C230.314,133.813,230.179,133.862,230.042,133.862z"/>
						</g>
					</g>
					<path style="opacity:0.3;fill:#F48260;" d="M244.796,147.08c0,1.014-1.495,2.337-3.339,2.337s-3.339-1.323-3.339-2.337
						c0-1.014,1.495-0.278,3.339-0.278S244.796,146.066,244.796,147.08z"/>
				</g>
			</g>
			<g>
				
					<linearGradient id="SVGID_00000157288828602253521300000012939463638209427128_" gradientUnits="userSpaceOnUse" x1="281.0765" y1="98.2533" x2="398.3919" y2="215.5687">
					<stop  offset="0" style="stop-color:#F4AA16"/>
					<stop  offset="1" style="stop-color:#F98026"/>
				</linearGradient>
				<path style="fill:url(#SVGID_00000157288828602253521300000012939463638209427128_);" d="M349.068,98.893h-60.336
					c-4.953,0-9.005,4.052-9.005,9.005v39.753c0,0.37,0.03,0.734,0.074,1.093c0.161,3.08-0.09,9.558-3.53,13.846
					c-0.852,1.062,0.008,2.619,1.362,2.481c4.636-0.472,11.922-1.924,17.505-6.319c1.672-1.316,3.703-2.096,5.831-2.096h48.098
					c4.953,0,9.005-4.052,9.005-9.005v-39.753C358.072,102.945,354.02,98.893,349.068,98.893z"/>
				<g>
					<path style="fill:#FFFFFF;" d="M339.255,111.927h-40.404c-0.867,0-1.576,0.709-1.576,1.576v0.395
						c0,0.867,0.709,1.576,1.576,1.576h40.404c0.867,0,1.576-0.709,1.576-1.576v-0.395
						C340.832,112.636,340.122,111.927,339.255,111.927z"/>
					<path style="fill:#FFFFFF;" d="M339.255,125.928h-40.404c-0.867,0-1.576,0.709-1.576,1.576v0.395
						c0,0.867,0.709,1.576,1.576,1.576h40.404c0.867,0,1.576-0.709,1.576-1.576v-0.395
						C340.832,126.638,340.122,125.928,339.255,125.928z"/>
					<path style="fill:#FFFFFF;" d="M317.011,139.37h-18.159c-0.867,0-1.576,0.709-1.576,1.576v0.395
						c0,0.867,0.709,1.576,1.576,1.576h18.159c0.867,0,1.576-0.709,1.576-1.576v-0.395
						C318.587,140.079,317.878,139.37,317.011,139.37z"/>
				</g>
			</g>
			<g>
				<g>
					<g>
						<g>
							
								<linearGradient id="SVGID_00000070822658095304197340000010160853667823099290_" gradientUnits="userSpaceOnUse" x1="154.0903" y1="418.4457" x2="68.2772" y2="332.6326">
								<stop  offset="0.0102" style="stop-color:#18CCDE"/>
								<stop  offset="1" style="stop-color:#7FDEF4"/>
							</linearGradient>
							<path style="fill:url(#SVGID_00000070822658095304197340000010160853667823099290_);" d="M164.496,348.397l-54.158-11.225
								l-54.158,11.225c0,0-3.589,84.766,54.158,90.185C168.085,433.163,164.496,348.397,164.496,348.397z"/>
						</g>
					</g>
					<path style="fill:#18CCDE;" d="M56.181,348.397c0,0-3.589,84.766,54.158,90.185V337.172L56.181,348.397z"/>
					<g>
						
							<linearGradient id="SVGID_00000103259758607665058710000008369259476551553721_" gradientUnits="userSpaceOnUse" x1="65.0515" y1="387.9184" x2="155.6256" y2="387.9184">
							<stop  offset="0" style="stop-color:#F4AA16"/>
							<stop  offset="1" style="stop-color:#F98026"/>
						</linearGradient>
						<path style="fill:url(#SVGID_00000103259758607665058710000008369259476551553721_);" d="M110.339,429.935
							c-19.688-2.023-33.275-15.426-40.387-39.845c-4.15-14.249-4.829-28.385-4.901-34.803l45.287-9.386l45.287,9.386
							c-0.071,6.417-0.751,20.554-4.901,34.803C143.614,414.509,130.026,427.913,110.339,429.935z"/>
						<path style="opacity:0.34;fill:#E04110;" d="M110.339,429.935c19.688-2.023,33.275-15.426,40.386-39.845
							c4.15-14.249,4.829-28.386,4.901-34.803l-45.287-9.386l40.121,13.34C150.459,359.241,150.785,419.798,110.339,429.935z"/>
						<polygon style="fill:#FFFFFF;" points="127.179,384.344 113.871,384.344 113.871,371.037 106.806,371.037 106.806,384.344 
							93.499,384.344 93.499,391.41 106.806,391.41 106.806,404.717 113.871,404.717 113.871,391.41 127.179,391.41 						"/>
					</g>
				</g>
				<g>
					
						<linearGradient id="SVGID_00000113345684713205969170000006528868454544828298_" gradientUnits="userSpaceOnUse" x1="326.3189" y1="326.8976" x2="444.4533" y2="445.032">
						<stop  offset="0" style="stop-color:#F4AA16"/>
						<stop  offset="1" style="stop-color:#F98026"/>
					</linearGradient>
					
						<rect x="330.361" y="323.553" style="fill:url(#SVGID_00000113345684713205969170000006528868454544828298_);" width="98.866" height="113.639"/>
					<polygon style="fill:#F98026;" points="429.226,323.553 330.361,323.553 330.361,437.192 					"/>
					<rect x="336.214" y="329.797" style="fill:#FFFFFF;" width="87.159" height="101.152"/>
					<g>
						
							<linearGradient id="SVGID_00000121258863731430785260000011474785244202659507_" gradientUnits="userSpaceOnUse" x1="347.8353" y1="349.1969" x2="409.8096" y2="349.1969">
							<stop  offset="0" style="stop-color:#FFEDDC"/>
							<stop  offset="1" style="stop-color:#F9D8B7"/>
						</linearGradient>
						
							<rect x="347.835" y="347.827" style="fill:url(#SVGID_00000121258863731430785260000011474785244202659507_);" width="61.974" height="2.741"/>
						
							<linearGradient id="SVGID_00000029004916588367647140000004748910511516145825_" gradientUnits="userSpaceOnUse" x1="347.8353" y1="359.2084" x2="409.8096" y2="359.2084">
							<stop  offset="0" style="stop-color:#FFEDDC"/>
							<stop  offset="1" style="stop-color:#F9D8B7"/>
						</linearGradient>
						
							<rect x="347.835" y="357.838" style="fill:url(#SVGID_00000029004916588367647140000004748910511516145825_);" width="61.974" height="2.741"/>
						
							<linearGradient id="SVGID_00000096757336619704178090000007156647518582924426_" gradientUnits="userSpaceOnUse" x1="347.8353" y1="369.2199" x2="409.8096" y2="369.2199">
							<stop  offset="0" style="stop-color:#FFEDDC"/>
							<stop  offset="1" style="stop-color:#F9D8B7"/>
						</linearGradient>
						
							<rect x="347.835" y="367.85" style="fill:url(#SVGID_00000096757336619704178090000007156647518582924426_);" width="61.974" height="2.741"/>
						
							<linearGradient id="SVGID_00000089536586093987941920000016947843376828510626_" gradientUnits="userSpaceOnUse" x1="347.8353" y1="379.2314" x2="409.8096" y2="379.2314">
							<stop  offset="0" style="stop-color:#FFEDDC"/>
							<stop  offset="1" style="stop-color:#F9D8B7"/>
						</linearGradient>
						
							<rect x="347.835" y="377.861" style="fill:url(#SVGID_00000089536586093987941920000016947843376828510626_);" width="61.974" height="2.741"/>
						
							<linearGradient id="SVGID_00000170265092431068226460000016702839648364932483_" gradientUnits="userSpaceOnUse" x1="347.8353" y1="389.2429" x2="409.8096" y2="389.2429">
							<stop  offset="0" style="stop-color:#FFEDDC"/>
							<stop  offset="1" style="stop-color:#F9D8B7"/>
						</linearGradient>
						
							<rect x="347.835" y="387.873" style="fill:url(#SVGID_00000170265092431068226460000016702839648364932483_);" width="61.974" height="2.741"/>
						
							<linearGradient id="SVGID_00000041994264314675984320000005477010166003613114_" gradientUnits="userSpaceOnUse" x1="347.8353" y1="399.2544" x2="409.8096" y2="399.2544">
							<stop  offset="0" style="stop-color:#FFEDDC"/>
							<stop  offset="1" style="stop-color:#F9D8B7"/>
						</linearGradient>
						
							<rect x="347.835" y="397.884" style="fill:url(#SVGID_00000041994264314675984320000005477010166003613114_);" width="61.974" height="2.741"/>
						
							<linearGradient id="SVGID_00000032646746851564785470000007207965062375669926_" gradientUnits="userSpaceOnUse" x1="347.8353" y1="409.2659" x2="409.8096" y2="409.2659">
							<stop  offset="0" style="stop-color:#FFEDDC"/>
							<stop  offset="1" style="stop-color:#F9D8B7"/>
						</linearGradient>
						
							<rect x="347.835" y="407.896" style="fill:url(#SVGID_00000032646746851564785470000007207965062375669926_);" width="61.974" height="2.741"/>
						
							<linearGradient id="SVGID_00000109015704463411265570000005105459869219595157_" gradientUnits="userSpaceOnUse" x1="347.8353" y1="419.2774" x2="409.8096" y2="419.2774">
							<stop  offset="0" style="stop-color:#FFEDDC"/>
							<stop  offset="1" style="stop-color:#F9D8B7"/>
						</linearGradient>
						
							<rect x="347.835" y="417.907" style="fill:url(#SVGID_00000109015704463411265570000005105459869219595157_);" width="61.974" height="2.741"/>
					</g>
					
						<linearGradient id="SVGID_00000063634410396347123510000002133149315830183087_" gradientUnits="userSpaceOnUse" x1="354.3669" y1="321.5804" x2="405.2202" y2="321.5804">
						<stop  offset="0" style="stop-color:#F4AA16"/>
						<stop  offset="1" style="stop-color:#F98026"/>
					</linearGradient>
					<path style="fill:url(#SVGID_00000063634410396347123510000002133149315830183087_);" d="M393.218,316.735
						c-1.646,0-3.125-1.018-3.695-2.563c-1.46-3.958-5.265-6.78-9.73-6.78c-4.465,0-8.27,2.822-9.73,6.78
						c-0.57,1.544-2.049,2.563-3.695,2.563h-10.531c-0.812,0-1.471,0.659-1.471,1.471v16.093c0,0.812,0.659,1.471,1.471,1.471
						h47.912c0.812,0,1.471-0.659,1.471-1.471v-16.093c0-0.812-0.659-1.471-1.471-1.471H393.218z"/>
				</g>
				<g>
					
						<linearGradient id="SVGID_00000044870575714780642440000008019189517340498317_" gradientUnits="userSpaceOnUse" x1="386.1424" y1="448.7442" x2="338.2772" y2="400.879">
						<stop  offset="0.0102" style="stop-color:#18CCDE"/>
						<stop  offset="1" style="stop-color:#7FDEF4"/>
					</linearGradient>
					<path style="fill:url(#SVGID_00000044870575714780642440000008019189517340498317_);" d="M317.457,394.805v37.621
						c0,3.047,2.47,5.518,5.518,5.518h56.077c3.047,0,5.518-2.47,5.518-5.518v-37.621c0-3.047-2.47-5.518-5.518-5.518h-56.077
						C319.928,389.287,317.457,391.758,317.457,394.805z"/>
					<g>
						<g>
							<g>
								
									<linearGradient id="SVGID_00000170243791365866816350000005604366356678451348_" gradientUnits="userSpaceOnUse" x1="323.6443" y1="423.4724" x2="335.043" y2="423.4724">
									<stop  offset="0" style="stop-color:#F4AA16"/>
									<stop  offset="1" style="stop-color:#F98026"/>
								</linearGradient>
								<path style="fill:url(#SVGID_00000170243791365866816350000005604366356678451348_);" d="M329.344,417.773
									c3.148,0,5.699,2.552,5.699,5.699c0,3.148-2.552,5.699-5.699,5.699c-3.148,0-5.699-2.552-5.699-5.699
									C323.644,420.325,326.196,417.773,329.344,417.773z"/>
								
									<rect x="328.77" y="419.669" transform="matrix(0.7071 -0.7072 0.7072 0.7071 -202.9819 356.9461)" style="fill:#FFFFFF;" width="1.147" height="7.606"/>
							</g>
							<g>
								
									<linearGradient id="SVGID_00000074423771926503841740000004106348841426854544_" gradientUnits="userSpaceOnUse" x1="338.2202" y1="423.4724" x2="349.6189" y2="423.4724">
									<stop  offset="0" style="stop-color:#F4AA16"/>
									<stop  offset="1" style="stop-color:#F98026"/>
								</linearGradient>
								<path style="fill:url(#SVGID_00000074423771926503841740000004106348841426854544_);" d="M343.92,417.773
									c3.148,0,5.699,2.552,5.699,5.699c0,3.148-2.552,5.699-5.699,5.699c-3.148,0-5.699-2.552-5.699-5.699
									C338.22,420.325,340.772,417.773,343.92,417.773z"/>
								
									<rect x="343.346" y="419.669" transform="matrix(0.7071 -0.7072 0.7072 0.7071 -198.712 367.2535)" style="fill:#FFFFFF;" width="1.147" height="7.606"/>
							</g>
							<g>
								
									<linearGradient id="SVGID_00000146497094450686586110000010215415031927458442_" gradientUnits="userSpaceOnUse" x1="352.7962" y1="423.4724" x2="364.1949" y2="423.4724">
									<stop  offset="0" style="stop-color:#F4AA16"/>
									<stop  offset="1" style="stop-color:#F98026"/>
								</linearGradient>
								<path style="fill:url(#SVGID_00000146497094450686586110000010215415031927458442_);" d="M358.495,417.773
									c3.148,0,5.699,2.552,5.699,5.699c0,3.148-2.552,5.699-5.699,5.699c-3.148,0-5.699-2.552-5.699-5.699
									C352.796,420.325,355.348,417.773,358.495,417.773z"/>
								
									<rect x="357.922" y="419.669" transform="matrix(0.7071 -0.7072 0.7072 0.7071 -194.4422 377.5609)" style="fill:#FFFFFF;" width="1.147" height="7.606"/>
							</g>
							<g>
								
									<linearGradient id="SVGID_00000178924521405103329560000010668445641732045714_" gradientUnits="userSpaceOnUse" x1="367.3722" y1="423.4724" x2="378.7708" y2="423.4724">
									<stop  offset="0" style="stop-color:#F4AA16"/>
									<stop  offset="1" style="stop-color:#F98026"/>
								</linearGradient>
								<path style="fill:url(#SVGID_00000178924521405103329560000010668445641732045714_);" d="M373.071,417.773
									c3.148,0,5.699,2.552,5.699,5.699c0,3.148-2.552,5.699-5.699,5.699c-3.148,0-5.699-2.552-5.699-5.699
									C367.372,420.325,369.924,417.773,373.071,417.773z"/>
								
									<rect x="372.498" y="419.669" transform="matrix(0.7071 -0.7072 0.7072 0.7071 -190.1723 387.8683)" style="fill:#FFFFFF;" width="1.147" height="7.606"/>
							</g>
						</g>
						<g>
							<g>
								
									<linearGradient id="SVGID_00000149373624582486251580000012585976203540258742_" gradientUnits="userSpaceOnUse" x1="323.6443" y1="403.7582" x2="335.043" y2="403.7582">
									<stop  offset="0" style="stop-color:#F4AA16"/>
									<stop  offset="1" style="stop-color:#F98026"/>
								</linearGradient>
								<path style="fill:url(#SVGID_00000149373624582486251580000012585976203540258742_);" d="M329.344,398.059
									c3.148,0,5.699,2.552,5.699,5.699c0,3.148-2.552,5.699-5.699,5.699c-3.148,0-5.699-2.552-5.699-5.699
									C323.644,400.611,326.196,398.059,329.344,398.059z"/>
								
									<rect x="328.77" y="399.955" transform="matrix(0.7071 -0.7071 0.7071 0.7071 -189.0377 351.1391)" style="fill:#FFFFFF;" width="1.147" height="7.606"/>
							</g>
							<g>
								
									<linearGradient id="SVGID_00000134250268093562075290000018201078139911433091_" gradientUnits="userSpaceOnUse" x1="338.2202" y1="403.7582" x2="349.6189" y2="403.7582">
									<stop  offset="0" style="stop-color:#F4AA16"/>
									<stop  offset="1" style="stop-color:#F98026"/>
								</linearGradient>
								<path style="fill:url(#SVGID_00000134250268093562075290000018201078139911433091_);" d="M343.92,398.059
									c3.148,0,5.699,2.552,5.699,5.699c0,3.148-2.552,5.699-5.699,5.699c-3.148,0-5.699-2.552-5.699-5.699
									C338.22,400.611,340.772,398.059,343.92,398.059z"/>
								
									<rect x="343.346" y="399.955" transform="matrix(0.7071 -0.7071 0.7071 0.7071 -184.7685 361.4459)" style="fill:#FFFFFF;" width="1.147" height="7.606"/>
							</g>
							<g>
								
									<linearGradient id="SVGID_00000116919226656452744690000010939444476677976205_" gradientUnits="userSpaceOnUse" x1="352.7962" y1="403.7582" x2="364.1949" y2="403.7582">
									<stop  offset="0" style="stop-color:#F4AA16"/>
									<stop  offset="1" style="stop-color:#F98026"/>
								</linearGradient>
								<path style="fill:url(#SVGID_00000116919226656452744690000010939444476677976205_);" d="M358.495,398.059
									c3.148,0,5.699,2.552,5.699,5.699c0,3.148-2.552,5.699-5.699,5.699c-3.148,0-5.699-2.552-5.699-5.699
									C352.796,400.611,355.348,398.059,358.495,398.059z"/>
								
									<rect x="357.922" y="399.955" transform="matrix(0.7071 -0.7071 0.7071 0.7071 -180.4993 371.7527)" style="fill:#FFFFFF;" width="1.147" height="7.606"/>
							</g>
							<g>
								
									<linearGradient id="SVGID_00000053522482281076927730000002531180375063712144_" gradientUnits="userSpaceOnUse" x1="367.3722" y1="403.7582" x2="378.7708" y2="403.7582">
									<stop  offset="0" style="stop-color:#F4AA16"/>
									<stop  offset="1" style="stop-color:#F98026"/>
								</linearGradient>
								<path style="fill:url(#SVGID_00000053522482281076927730000002531180375063712144_);" d="M373.071,398.059
									c3.148,0,5.699,2.552,5.699,5.699c0,3.148-2.552,5.699-5.699,5.699c-3.148,0-5.699-2.552-5.699-5.699
									C367.372,400.611,369.924,398.059,373.071,398.059z"/>
								
									<rect x="372.498" y="399.955" transform="matrix(0.7071 -0.7071 0.7071 0.7071 -176.2301 382.0594)" style="fill:#FFFFFF;" width="1.147" height="7.606"/>
							</g>
						</g>
					</g>
					<path style="fill:#09B2BA;" d="M324.588,413.615L324.588,413.615c0,0.301,0.423,0.544,0.944,0.544h51.802
						c0.521,0,0.944-0.244,0.944-0.544l0,0c0-0.301-0.423-0.544-0.944-0.544h-51.802
						C325.011,413.071,324.588,413.315,324.588,413.615z"/>
				</g>
				<g>
					
						<linearGradient id="SVGID_00000103947807375219321720000003243034488062356357_" gradientUnits="userSpaceOnUse" x1="349.9719" y1="437.2177" x2="285.3545" y2="372.6003">
						<stop  offset="0" style="stop-color:#F4AA16"/>
						<stop  offset="1" style="stop-color:#F98026"/>
					</linearGradient>
					<path style="fill:url(#SVGID_00000103947807375219321720000003243034488062356357_);" d="M312.741,355.744h-4.889l-4.512,4.632
						c-1.537,1.577-2.396,3.692-2.396,5.894v62.161c0,5.243,4.29,9.695,9.532,9.597c5.083-0.095,9.175-4.246,9.175-9.352v-62.406
						c0-2.202-0.86-4.317-2.396-5.894L312.741,355.744z"/>
					
						<linearGradient id="SVGID_00000117669041044430910350000017489257594401012887_" gradientUnits="userSpaceOnUse" x1="377.6854" y1="409.5046" x2="313.0678" y2="344.8871">
						<stop  offset="0" style="stop-color:#F4AA16"/>
						<stop  offset="1" style="stop-color:#F98026"/>
					</linearGradient>
					<path style="fill:url(#SVGID_00000117669041044430910350000017489257594401012887_);" d="M307.852,329.5v26.244h4.889V329.5
						c0-1.35-1.095-2.445-2.445-2.445l0,0C308.946,327.055,307.852,328.15,307.852,329.5z"/>
					<rect x="307.852" y="350.986" style="fill:#E04110;" width="4.889" height="4.758"/>
					<path style="fill:#FFFFFF;" d="M312.064,417.853v-48.133c0-0.977-0.792-1.768-1.768-1.768c-0.976,0-1.768,0.792-1.768,1.768
						v48.133c-1.79,0.706-3.058,2.447-3.058,4.487c0,2.665,2.161,4.826,4.826,4.826c2.665,0,4.826-2.161,4.826-4.826
						C315.123,420.299,313.854,418.559,312.064,417.853z"/>
					
						<linearGradient id="SVGID_00000069357686361627654070000005270375492233732493_" gradientUnits="userSpaceOnUse" x1="310.2964" y1="426.0211" x2="310.2964" y2="398.5775">
						<stop  offset="0" style="stop-color:#78E4EA"/>
						<stop  offset="1" style="stop-color:#7FDEF4"/>
					</linearGradient>
					<path style="fill:url(#SVGID_00000069357686361627654070000005270375492233732493_);" d="M312.064,417.853v-18.906h-3.536
						v18.906c-1.79,0.706-3.058,2.447-3.058,4.487c0,2.665,2.161,4.826,4.826,4.826c2.665,0,4.826-2.161,4.826-4.826
						C315.123,420.299,313.854,418.558,312.064,417.853z"/>
				</g>
			</g>
		</g>
	</g>
</g>
</svg>
