<?xml version="1.0" standalone="no"?>
<svg viewBox="0 0 200 200" xmlns="http://www.w3.org/2000/svg">
  <path fill="#FF0066" d="M39.8,-66C48.4,-56.5,50,-40,51,-26.6C51.9,-13.2,52.3,-2.8,51.9,8.3C51.6,19.4,50.6,31.2,44.6,39.3C38.6,47.5,27.6,52.1,14.7,60.7C1.8,69.3,-13,81.9,-26.1,81.4C-39.2,80.9,-50.6,67.4,-62.1,53.9C-73.6,40.5,-85.1,27.2,-86.2,13C-87.4,-1.3,-78.3,-16.4,-69.1,-29.5C-59.9,-42.5,-50.7,-53.5,-39.1,-61.7C-27.6,-69.9,-13.8,-75.4,0.9,-76.8C15.6,-78.2,31.2,-75.6,39.8,-66Z" transform="translate(100 100)" />
</svg>
