<svg xmlns="http://www.w3.org/2000/svg" xmlns:xlink="http://www.w3.org/1999/xlink" width="800" height="400" viewBox="0 0 800 400"><defs><linearGradient id="linear-gradient" x1="355.428" y1="625.644" x2="498.985" y2="-9.456" gradientUnits="userSpaceOnUse"><stop offset="0" stop-color="#4c9aff"/><stop offset="0.166" stop-color="#4e9bff" stop-opacity="0.988"/><stop offset="0.297" stop-color="#549efe" stop-opacity="0.949"/><stop offset="0.416" stop-color="#5da2fc" stop-opacity="0.883"/><stop offset="0.528" stop-color="#6ba9fa" stop-opacity="0.791"/><stop offset="0.635" stop-color="#7cb1f6" stop-opacity="0.672"/><stop offset="0.738" stop-color="#92bcf3" stop-opacity="0.525"/><stop offset="0.838" stop-color="#abc8ee" stop-opacity="0.351"/><stop offset="0.933" stop-color="#c8d6e9" stop-opacity="0.155"/><stop offset="1" stop-color="#dfe1e5" stop-opacity="0"/></linearGradient><linearGradient id="New_Gradient_Swatch_6" x1="460.647" y1="809.785" x2="460.647" y2="734.429" gradientTransform="translate(-280.248 -555.485) rotate(4.869)" gradientUnits="userSpaceOnUse"><stop offset="0" stop-color="#ffab00"/><stop offset="1" stop-color="#ffe380"/></linearGradient><linearGradient id="linear-gradient-2" x1="47.177" y1="229.355" x2="47.177" y2="153.998" gradientTransform="translate(30.88 53.742) rotate(-0.492)" gradientUnits="userSpaceOnUse"><stop offset="0" stop-color="#00b8d9"/><stop offset="1" stop-color="#79e2f2"/></linearGradient><linearGradient id="New_Gradient_Swatch_14" x1="12664.95" y1="222.15" x2="12686.994" y2="200.106" gradientTransform="matrix(-1, 0, 0, 1, 12779.716, 0)" gradientUnits="userSpaceOnUse"><stop offset="0" stop-color="#0052cc"/><stop offset="1" stop-color="#2684ff"/></linearGradient><linearGradient id="New_Gradient_Swatch_14-2" x1="12670.635" y1="227.834" x2="12692.679" y2="205.79" xlink:href="#New_Gradient_Swatch_14"/><linearGradient id="New_Gradient_Swatch_14-3" x1="12675.273" y1="232.472" x2="12697.317" y2="210.429" xlink:href="#New_Gradient_Swatch_14"/><linearGradient id="linear-gradient-3" x1="322.807" y1="369.901" x2="391.419" y2="251.061" gradientTransform="translate(-285.003)" gradientUnits="userSpaceOnUse"><stop offset="0.596" stop-color="#ffab00"/><stop offset="0.97" stop-color="#ffc400"/></linearGradient><linearGradient id="linear-gradient-4" x1="310.929" y1="315.039" x2="401.774" y2="315.039" gradientTransform="translate(-285.003)" gradientUnits="userSpaceOnUse"><stop offset="0" stop-color="#fcb415"/><stop offset="0.709" stop-color="#ffe88e"/></linearGradient><linearGradient id="linear-gradient-5" x1="323.595" y1="664.558" x2="471.548" y2="10.013" xlink:href="#linear-gradient"/><linearGradient id="linear-gradient-6" x1="293.693" y1="685.887" x2="442.173" y2="29.013" xlink:href="#linear-gradient"/><linearGradient id="linear-gradient-7" x1="531.924" y1="366.756" x2="685.298" y2="366.756" gradientUnits="userSpaceOnUse"><stop offset="0.124" stop-color="#091e42"/><stop offset="1" stop-color="#091e42" stop-opacity="0"/></linearGradient><linearGradient id="linear-gradient-8" x1="293.478" y1="710.65" x2="441.957" y2="53.776" gradientUnits="userSpaceOnUse"><stop offset="0" stop-color="#b2d4ff"/><stop offset="0.431" stop-color="#daebff"/><stop offset="0.789" stop-color="#f5f9ff"/><stop offset="1" stop-color="#fff"/></linearGradient><linearGradient id="linear-gradient-9" x1="354.584" y1="434.658" x2="418.031" y2="161.279" gradientUnits="userSpaceOnUse"><stop offset="0" stop-color="#deebff"/><stop offset="0.638" stop-color="#ebf1fa"/><stop offset="1" stop-color="#f4f5f7"/></linearGradient><linearGradient id="linear-gradient-10" x1="264.503" y1="360.936" x2="384.581" y2="149.792" gradientUnits="userSpaceOnUse"><stop offset="0" stop-color="#00c7e5"/><stop offset="0.123" stop-color="#2fd3ec"/><stop offset="0.286" stop-color="#67e2f4"/><stop offset="0.426" stop-color="#90ecfa"/><stop offset="0.537" stop-color="#aaf3fe"/><stop offset="0.603" stop-color="#b3f5ff"/></linearGradient><linearGradient id="linear-gradient-11" x1="340.83" y1="404.344" x2="460.908" y2="193.2" xlink:href="#linear-gradient-10"/><linearGradient id="linear-gradient-12" x1="417.157" y1="447.751" x2="537.235" y2="236.607" xlink:href="#linear-gradient-10"/><linearGradient id="linear-gradient-13" x1="508.151" y1="280.798" x2="527.836" y2="280.798" gradientUnits="userSpaceOnUse"><stop offset="0" stop-color="#ff991f"/><stop offset="0.766" stop-color="#ffc400"/></linearGradient><linearGradient id="linear-gradient-14" x1="135.854" y1="359.141" x2="171.661" y2="359.141" gradientUnits="userSpaceOnUse"><stop offset="0" stop-color="#00c7e5"/><stop offset="0.058" stop-color="#12cbe7"/><stop offset="0.214" stop-color="#3ed5ec"/><stop offset="0.353" stop-color="#5edcef"/><stop offset="0.47" stop-color="#72e0f1"/><stop offset="0.55" stop-color="#79e2f2"/></linearGradient><linearGradient id="linear-gradient-15" x1="8468.582" y1="239.228" x2="8468.582" y2="235.635" gradientTransform="matrix(-1, 0, 0, 1, 8680.644, 0)" gradientUnits="userSpaceOnUse"><stop offset="0" stop-color="#ffc400"/><stop offset="1" stop-color="#ff991f"/></linearGradient><linearGradient id="linear-gradient-16" x1="8230.919" y1="641.3" x2="8230.919" y2="589.03" gradientTransform="matrix(-0.998, -0.058, -0.058, 0.998, 8466.451, 124.441)" gradientUnits="userSpaceOnUse"><stop offset="0.407" stop-color="#0057d8"/><stop offset="0.552" stop-color="#0059dd"/><stop offset="0.723" stop-color="#005eeb"/><stop offset="0.881" stop-color="#0065ff"/></linearGradient><linearGradient id="linear-gradient-17" x1="-2739.512" y1="1995.213" x2="-2739.512" y2="1940.91" gradientTransform="translate(3407.867 -803.457) rotate(17.34)" gradientUnits="userSpaceOnUse"><stop offset="0" stop-color="#0057d8"/><stop offset="1" stop-color="#0065ff"/></linearGradient><linearGradient id="linear-gradient-18" x1="193.195" y1="261.502" x2="278.12" y2="146.451" gradientUnits="userSpaceOnUse"><stop offset="0.329" stop-color="#c1c7d0" stop-opacity="0"/><stop offset="0.396" stop-color="#c1c7d0" stop-opacity="0.051"/><stop offset="0.514" stop-color="#c1c7d0" stop-opacity="0.189"/><stop offset="0.667" stop-color="#c1c7d0" stop-opacity="0.413"/><stop offset="0.849" stop-color="#c1c7d0" stop-opacity="0.719"/><stop offset="1" stop-color="#c1c7d0"/></linearGradient><linearGradient id="linear-gradient-19" x1="170.557" y1="217.684" x2="230.535" y2="145.983" gradientTransform="translate(-17.492 204.015) rotate(-43.511)" gradientUnits="userSpaceOnUse"><stop offset="0.321" stop-color="#ff991f"/><stop offset="0.766" stop-color="#ffc400"/></linearGradient><linearGradient id="linear-gradient-20" x1="613.999" y1="336.208" x2="649.671" y2="300.536" xlink:href="#linear-gradient-14"/><linearGradient id="linear-gradient-21" x1="568.359" y1="391.923" x2="464.222" y2="391.923" gradientUnits="userSpaceOnUse"><stop offset="0" stop-color="#091e42"/><stop offset="0.256" stop-color="#091e42" stop-opacity="0.943"/><stop offset="0.496" stop-color="#091e42" stop-opacity="0.771"/><stop offset="0.731" stop-color="#091e42" stop-opacity="0.483"/><stop offset="0.961" stop-color="#091e42" stop-opacity="0.081"/><stop offset="1" stop-color="#091e42" stop-opacity="0"/></linearGradient><clipPath id="clip-path"><path d="M431.575,392.713l-12.49-.172.11-7.94,4.067.236c.383,2.627,1.364,3.7,2.145,4.2,1.74,1.122,3.806.268,5.243,1.732A3.607,3.607,0,0,1,431.575,392.713Z" style="fill:#344563"/></clipPath><clipPath id="clip-path-2"><path d="M413.763,394.992l-12.4-1.5.957-7.883,4.019.67c.1,2.652.961,3.826,1.683,4.409,1.611,1.3,3.756.672,5.029,2.281A3.6,3.6,0,0,1,413.763,394.992Z" style="fill:#344563"/></clipPath><linearGradient id="linear-gradient-22" x1="16296.337" y1="303.243" x2="16304.945" y2="303.243" gradientTransform="matrix(-1, 0, 0, 1, 16714.555, 0)" gradientUnits="userSpaceOnUse"><stop offset="0.444" stop-color="#cf9e76"/><stop offset="1" stop-color="#dfb28b"/></linearGradient><linearGradient id="linear-gradient-23" x1="-10377.517" y1="330.075" x2="-10377.517" y2="304.008" gradientTransform="translate(10790.836)" gradientUnits="userSpaceOnUse"><stop offset="0" stop-color="#0052cc"/><stop offset="0.036" stop-color="#0055d3"/><stop offset="0.165" stop-color="#005ce7"/><stop offset="0.314" stop-color="#0061f4"/><stop offset="0.497" stop-color="#0064fd"/><stop offset="0.823" stop-color="#0065ff"/></linearGradient><linearGradient id="linear-gradient-24" x1="8240.324" y1="393.298" x2="8309.411" y2="393.298" gradientTransform="matrix(-1, 0, 0, 1, 8680.644, 0)" xlink:href="#linear-gradient-21"/><linearGradient id="linear-gradient-25" x1="9194.798" y1="-797.551" x2="9235.518" y2="-797.551" gradientTransform="matrix(-0.961, 0.277, 0.277, 0.961, 9609.831, -1429.936)" gradientUnits="userSpaceOnUse"><stop offset="0" stop-color="#172b4d"/><stop offset="0.968" stop-color="#0052cc"/><stop offset="1" stop-color="#253858"/></linearGradient><linearGradient id="linear-gradient-26" x1="546.982" y1="353.643" x2="529.054" y2="371.998" gradientUnits="userSpaceOnUse"><stop offset="0" stop-color="#00c7e5"/><stop offset="1" stop-color="#008da6"/></linearGradient><linearGradient id="linear-gradient-27" x1="454.934" y1="344.457" x2="561.05" y2="145.218" gradientUnits="userSpaceOnUse"><stop offset="0.119" stop-color="#fff" stop-opacity="0"/><stop offset="1" stop-color="#fff"/></linearGradient><linearGradient id="linear-gradient-30" x1="-5111.811" y1="-12662.197" x2="-5111.693" y2="-12672.446" gradientTransform="translate(14048.522 1053.624) rotate(-64.916)" gradientUnits="userSpaceOnUse"><stop offset="0" stop-color="#0052cc"/><stop offset="0.492" stop-color="#005be4"/><stop offset="0.971" stop-color="#0065ff"/></linearGradient><linearGradient id="linear-gradient-31" x1="711.654" y1="464.164" x2="486.505" y2="51.715" xlink:href="#linear-gradient-18"/><linearGradient id="linear-gradient-32" x1="568.911" y1="207.547" x2="576.631" y2="191.077" gradientUnits="userSpaceOnUse"><stop offset="0.287" stop-color="#ff991f"/><stop offset="1" stop-color="#ffab00"/></linearGradient><linearGradient id="linear-gradient-33" x1="1942.373" y1="57.603" x2="1965.316" y2="57.603" gradientTransform="translate(-1656.176)" gradientUnits="userSpaceOnUse"><stop offset="0" stop-color="#00b8d9"/><stop offset="1" stop-color="#b3f5ff"/></linearGradient><linearGradient id="linear-gradient-34" x1="313.324" y1="51.877" x2="336.845" y2="-0.017" gradientTransform="matrix(1, 0, 0, 1, 0, 0)" xlink:href="#linear-gradient-19"/><linearGradient id="linear-gradient-35" x1="-884.986" y1="-3576.556" x2="-808.655" y2="-3584.454" gradientTransform="matrix(0.89, -0.301, 0.548, 0.938, 3453.169, 3448.089)" gradientUnits="userSpaceOnUse"><stop offset="0.209" stop-color="#ffc400"/><stop offset="1" stop-color="#ffe380"/></linearGradient><linearGradient id="linear-gradient-36" x1="1188.488" y1="-24.687" x2="1188.488" y2="-108.745" gradientTransform="matrix(0.995, 0.105, -0.105, 0.995, -491.538, 110.353)" gradientUnits="userSpaceOnUse"><stop offset="0" stop-color="#99c1ff"/><stop offset="0.791" stop-color="#66a3ff"/></linearGradient><linearGradient id="linear-gradient-37" x1="735.026" y1="215.63" x2="798.426" y2="215.63" xlink:href="#linear-gradient"/><linearGradient id="linear-gradient-38" x1="735.026" y1="224.307" x2="798.426" y2="224.307" xlink:href="#linear-gradient"/><linearGradient id="linear-gradient-39" x1="735.026" y1="232.983" x2="783.187" y2="232.983" xlink:href="#linear-gradient"/><linearGradient id="linear-gradient-40" x1="125.408" y1="151.849" x2="179.325" y2="151.849" xlink:href="#linear-gradient"/><linearGradient id="linear-gradient-41" x1="125.408" y1="159.228" x2="166.365" y2="159.228" xlink:href="#linear-gradient"/><linearGradient id="linear-gradient-42" x1="-4569.495" y1="149.176" x2="-4536.139" y2="149.176" gradientTransform="matrix(-0.998, 0.067, 0.067, 0.998, -3952.287, 407.163)" gradientUnits="userSpaceOnUse"><stop offset="0.407" stop-color="#00a3bf"/><stop offset="0.525" stop-color="#00a7c4"/><stop offset="0.659" stop-color="#00b4d1"/><stop offset="0.785" stop-color="#00c7e5"/></linearGradient></defs><title>hero-confluence-dc-800x400px</title><g style="isolation:isolate"><g id="Layer_1" data-name="Layer 1"><rect x="250.179" y="13.123" width="423.607" height="282.242" style="opacity:0.7000000000000001;fill:url(#linear-gradient)"/><rect x="649.774" y="300.575" width="35.807" height="35.537" style="fill:#42526e"/><rect x="685.581" y="300.575" width="35.807" height="35.537" style="fill:#5e6c84"/><rect x="657.2" y="293.932" width="11.43" height="6.643" style="fill:#5e6c84"/><rect x="702.532" y="293.932" width="11.43" height="6.643" style="fill:#5e6c84"/><polygon points="113.059 215.108 119.738 215.677 114.539 197.736 116.397 204.147 111.624 203.74 106.381 214.54 113.059 215.108 113.059 215.108" style="fill:#feefd3"/><path d="M119.738,215.677l-6.679-.569-5,58.646a43.508,43.508,0,0,0,6.907-2.108Z" style="fill:url(#New_Gradient_Swatch_6)"/><polygon points="114.539 197.736 111.624 203.74 111.624 203.74 116.397 204.147 114.539 197.736" style="fill:#344563"/><path d="M113.059,215.108l-6.678-.568-5.157,60.535c2.577-.417,4.867-.862,6.839-1.321l5-58.646Z" style="fill:#fcb123"/><path d="M76.027,207.357l6.7-.057-6.852-17.377-6.552,17.492,6.7-.058Zm-.15-17.434,2.448,6.209-4.789.041Z" style="fill:#feefd3"/><path d="M76.027,207.357l.6,69.939c2.336-.082,4.562-.191,6.7-.321l-.6-69.675Z" style="fill:url(#linear-gradient-2)"/><polygon points="75.877 189.923 73.536 196.173 78.325 196.132 75.877 189.923" style="fill:#00b8d9"/><path d="M76.027,207.357l-6.7.058.6,70.026c2.311-.026,4.558-.071,6.7-.145l-.6-69.939Z" style="fill:#00b8d9"/><path d="M101.05,275.1V235.044H92.914v8.522a2.179,2.179,0,0,1-1.833,2.132v30.676C94.8,276.012,98.106,275.576,101.05,275.1Z" style="fill:#dfe1e5"/><path d="M96.065,199.167a5.787,5.787,0,0,0-5.745,5.205h11.491A5.787,5.787,0,0,0,96.065,199.167Z" style="fill:url(#New_Gradient_Swatch_14)"/><path d="M92.914,214.979h8.136v20.065h.821V208.152h-11.6v-1.013h11.6v-1.755h-11.6v-.526c0,.039-.011.075-.011.115v7h2.654Z" style="fill:url(#New_Gradient_Swatch_14-2)"/><rect x="92.914" y="214.979" width="8.136" height="20.064" style="fill:#dfe1e5"/><rect x="92.914" y="214.979" width="8.136" height="20.064" style="fill:url(#New_Gradient_Swatch_14-3)"/><path d="M92.914,243.566v-31.6H88.5v31.6a2.207,2.207,0,0,0,2.207,2.207,2.136,2.136,0,0,0,.374-.075A2.179,2.179,0,0,0,92.914,243.566Z" style="fill:#4c9aff"/><rect x="90.271" y="207.139" width="11.6" height="1.013" style="fill:#4c9aff"/><polygon points="101.871 205.384 101.871 204.973 101.871 204.372 101.811 204.372 90.32 204.372 90.271 204.372 90.271 204.858 90.271 205.384 101.871 205.384" style="fill:#4c9aff"/><path d="M44.738,285.221H23.261A15.886,15.886,0,0,0,7.793,304.729l7.543,32.214A15.886,15.886,0,0,0,30.8,349.208H44.738" style="fill:none;stroke:#ffab00;stroke-linecap:round;stroke-miterlimit:10;stroke-width:11.586778210584775px"/><polygon points="112.904 369.194 36.578 369.194 26.053 260.884 123.429 260.884 112.904 369.194" style="fill:url(#linear-gradient-3)"/><path d="M112.9,369.194l.03-.308c-9.327-19.269-19.311-29.748-27.222-35.8-17.459-13.368-29.779-9.3-42.495-24.056-11.477-13.321-15.553-33.009-17.16-48.142h0l10.525,108.31Z" style="opacity:0.6000000000000001;mix-blend-mode:multiply;fill:url(#linear-gradient-4)"/><rect x="217.601" y="32.723" width="431.624" height="292.003" style="opacity:0.5;fill:url(#linear-gradient-5)"/><rect x="185.022" y="52.323" width="437.759" height="292.003" style="opacity:0.7000000000000001;fill:url(#linear-gradient-6)"/><path d="M531.924,361.833H685.3a0,0,0,0,1,0,0v9.845a0,0,0,0,1,0,0H541.769a9.845,9.845,0,0,1-9.845-9.845v0A0,0,0,0,1,531.924,361.833Z" style="opacity:0.08;mix-blend-mode:multiply;fill:url(#linear-gradient-7)"/><line x1="209.01" y1="377.236" x2="239.582" y2="361.044" style="fill:none;stroke:#344563;stroke-linecap:round;stroke-miterlimit:10;stroke-width:2.7799932789597137px;opacity:0.1"/><line x1="171.331" y1="376.02" x2="201.903" y2="359.827" style="fill:none;stroke:#344563;stroke-linecap:round;stroke-miterlimit:10;stroke-width:2.7799932789597137px;opacity:0.1"/><circle cx="201.65" cy="65.375" r="5.004" style="fill:#ff8b00"/><circle cx="217.496" cy="65.375" r="5.004" style="fill:#ffc400"/><circle cx="233.342" cy="65.375" r="5.004" style="fill:#00c7e5"/><ellipse cx="527.533" cy="312.394" rx="3.339" ry="4.949" style="fill:#0065ff"/><rect x="184.807" y="77.087" width="437.759" height="292.003" style="fill:url(#linear-gradient-8)"/><rect x="184.807" y="77.087" width="437.759" height="292.003" style="fill:url(#linear-gradient-9)"/><rect x="293.85" y="353.419" width="219.672" height="3.946" style="fill:#b2d4ff"/><rect x="257.278" y="248.424" width="90.789" height="90.789" rx="0.652" style="fill:#fafbfc"/><rect x="263.129" y="254.275" width="79.088" height="79.088" style="fill:url(#linear-gradient-10)"/><rect x="358.291" y="248.424" width="90.789" height="90.789" rx="0.652" style="fill:#fafbfc"/><rect x="364.142" y="254.275" width="79.088" height="79.088" style="fill:url(#linear-gradient-11)"/><rect x="459.305" y="248.424" width="90.789" height="90.789" rx="0.652" style="fill:#fafbfc"/><rect x="465.155" y="254.275" width="79.088" height="79.088" style="fill:url(#linear-gradient-12)"/><polygon points="516.681 307.207 490.525 333.363 542.837 333.363 516.681 307.207" style="fill:#5e6c84"/><polygon points="516.681 307.207 490.525 333.363 542.837 333.363 516.681 307.207" style="fill:#5e6c84"/><polygon points="426.004 333.363 368.487 275.846 364.142 280.191 364.142 333.363 426.004 333.363" style="fill:#42526e"/><polygon points="426.004 333.363 368.487 275.846 364.142 280.191 364.142 333.363 426.004 333.363" style="fill:#42526e"/><polygon points="315.574 328.759 294.021 307.207 267.865 333.363 310.97 333.363 315.574 328.759" style="fill:#253858"/><polygon points="315.574 328.759 294.021 307.207 267.865 333.363 310.97 333.363 315.574 328.759" style="fill:#253858"/><polygon points="320.177 333.363 342.217 333.363 342.217 302.116 315.574 328.759 320.177 333.363" style="fill:#42526e"/><polygon points="320.177 333.363 342.217 333.363 342.217 302.116 315.574 328.759 320.177 333.363" style="fill:#42526e"/><polygon points="310.97 333.363 320.177 333.363 315.574 328.759 310.97 333.363" style="fill:#42526e"/><polygon points="310.97 333.363 320.177 333.363 315.574 328.759 310.97 333.363" style="fill:#42526e"/><polygon points="465.155 333.363 495.103 333.363 465.155 303.415 465.155 333.363" style="fill:#5e6c84"/><polygon points="465.155 333.363 495.103 333.363 465.155 303.415 465.155 333.363" style="fill:#5e6c84"/><polygon points="443.23 333.363 443.23 281.489 429.46 267.72 394.911 302.269 426.004 333.363 443.23 333.363" style="fill:#5e6c84"/><polygon points="443.23 333.363 443.23 281.489 429.46 267.72 394.911 302.269 426.004 333.363 443.23 333.363" style="fill:#5e6c84"/><circle cx="517.993" cy="280.798" r="9.843" style="fill:url(#linear-gradient-13)"/><g style="mix-blend-mode:multiply"><g style="opacity:0.14"><path d="M203.642,369.341l3.133-149.7a1.39,1.39,0,1,0-2.779-.058l-3.134,149.759Z" style="fill:#344563"/><path d="M241.347,369.341,245,219.645a1.39,1.39,0,0,0-2.779-.068l-3.655,149.764Z" style="fill:#344563"/><line x1="205.445" y1="235.944" x2="241.585" y2="235.944" style="fill:none;stroke:#344563;stroke-linecap:round;stroke-miterlimit:10;stroke-width:2.7799932789597137px"/><line x1="205.222" y1="249.844" x2="241.362" y2="249.844" style="fill:none;stroke:#344563;stroke-linecap:round;stroke-miterlimit:10;stroke-width:2.7799932789597137px"/><line x1="205" y1="263.744" x2="241.14" y2="263.744" style="fill:none;stroke:#344563;stroke-linecap:round;stroke-miterlimit:10;stroke-width:2.7799932789597137px"/><line x1="204.777" y1="277.644" x2="240.917" y2="277.644" style="fill:none;stroke:#344563;stroke-linecap:round;stroke-miterlimit:10;stroke-width:2.7799932789597137px"/><line x1="204.555" y1="291.544" x2="240.695" y2="291.544" style="fill:none;stroke:#344563;stroke-linecap:round;stroke-miterlimit:10;stroke-width:2.7799932789597137px"/><line x1="204.332" y1="305.444" x2="240.472" y2="305.444" style="fill:none;stroke:#344563;stroke-linecap:round;stroke-miterlimit:10;stroke-width:2.7799932789597137px"/><line x1="204.11" y1="319.344" x2="240.25" y2="319.344" style="fill:none;stroke:#344563;stroke-linecap:round;stroke-miterlimit:10;stroke-width:2.7799932789597137px"/><line x1="203.887" y1="333.244" x2="240.027" y2="333.244" style="fill:none;stroke:#344563;stroke-linecap:round;stroke-miterlimit:10;stroke-width:2.7799932789597137px"/><line x1="203.665" y1="347.144" x2="239.805" y2="347.144" style="fill:none;stroke:#344563;stroke-linecap:round;stroke-miterlimit:10;stroke-width:2.7799932789597137px"/><line x1="203.443" y1="361.044" x2="239.582" y2="361.044" style="fill:none;stroke:#344563;stroke-linecap:round;stroke-miterlimit:10;stroke-width:2.7799932789597137px"/></g></g><rect x="135.854" y="305.835" width="35.807" height="35.537" style="fill:#42526e"/><rect x="171.661" y="305.835" width="35.807" height="35.537" style="fill:#5e6c84"/><rect x="143.28" y="299.193" width="11.43" height="6.643" style="fill:#5e6c84"/><rect x="165.946" y="299.193" width="11.43" height="6.643" style="fill:#5e6c84"/><rect x="188.612" y="299.193" width="11.43" height="6.643" style="fill:#5e6c84"/><rect x="100.047" y="341.373" width="35.807" height="35.537" style="fill:#00b8d9"/><rect x="135.854" y="341.373" width="35.807" height="35.537" style="fill:url(#linear-gradient-14)"/><rect x="107.473" y="334.73" width="11.43" height="6.643" style="fill:#79e2f2"/><rect x="130.139" y="334.73" width="11.43" height="6.643" style="fill:#79e2f2"/><rect x="152.805" y="334.73" width="11.43" height="6.643" style="fill:#79e2f2"/><line x1="205.386" y1="219.611" x2="171.678" y2="375.639" style="fill:none;stroke:#344563;stroke-linecap:round;stroke-miterlimit:10;stroke-width:2.7799932789597137px"/><line x1="243.61" y1="219.611" x2="209.01" y2="377.236" style="fill:none;stroke:#344563;stroke-linecap:round;stroke-miterlimit:10;stroke-width:2.7799932789597137px"/><line x1="202.258" y1="235.944" x2="238.398" y2="235.944" style="fill:none;stroke:#344563;stroke-linecap:round;stroke-miterlimit:10;stroke-width:2.7799932789597137px"/><line x1="199.324" y1="249.844" x2="235.464" y2="249.844" style="fill:none;stroke:#344563;stroke-linecap:round;stroke-miterlimit:10;stroke-width:2.7799932789597137px"/><line x1="196.389" y1="263.744" x2="232.529" y2="263.744" style="fill:none;stroke:#344563;stroke-linecap:round;stroke-miterlimit:10;stroke-width:2.7799932789597137px"/><line x1="193.455" y1="277.644" x2="229.595" y2="277.644" style="fill:none;stroke:#344563;stroke-linecap:round;stroke-miterlimit:10;stroke-width:2.7799932789597137px"/><line x1="190.52" y1="291.544" x2="226.66" y2="291.544" style="fill:none;stroke:#344563;stroke-linecap:round;stroke-miterlimit:10;stroke-width:2.7799932789597137px"/><line x1="187.586" y1="305.444" x2="223.726" y2="305.444" style="fill:none;stroke:#344563;stroke-linecap:round;stroke-miterlimit:10;stroke-width:2.7799932789597137px"/><line x1="184.651" y1="319.344" x2="220.791" y2="319.344" style="fill:none;stroke:#344563;stroke-linecap:round;stroke-miterlimit:10;stroke-width:2.7799932789597137px"/><line x1="181.717" y1="333.244" x2="217.857" y2="333.244" style="fill:none;stroke:#344563;stroke-linecap:round;stroke-miterlimit:10;stroke-width:2.7799932789597137px"/><line x1="178.783" y1="347.144" x2="214.922" y2="347.144" style="fill:none;stroke:#344563;stroke-linecap:round;stroke-miterlimit:10;stroke-width:2.7799932789597137px"/><line x1="175.848" y1="361.044" x2="211.988" y2="361.044" style="fill:none;stroke:#344563;stroke-linecap:round;stroke-miterlimit:10;stroke-width:2.7799932789597137px"/><path d="M219.233,204.518a26.14,26.14,0,0,0,1.307,3.263,28.52,28.52,0,0,0,9.934,11.2,11.8,11.8,0,0,1-2.727,3.847c-5.313,4.928-13.431,2.824-14.316,2.581-5.28-3.766-6.883-10.472-4.286-15.242A11.554,11.554,0,0,1,219.233,204.518Z" style="fill:#fff"/><path d="M220.584,209.078a1.7,1.7,0,0,1-1.21-.277,1.842,1.842,0,0,1-.6-1.1,16.055,16.055,0,0,1-.482-2.688l-5.745.774c.064.406.137.883.215,1.419a4.5,4.5,0,0,1,.093,2.037,2.381,2.381,0,0,1-.665,1.016,11.553,11.553,0,0,0,8.4-1.182Z" style="fill:#a27f68"/><path d="M222.516,208.763q-2.71.267-5.616.682c-2.309.333-4.514.716-6.609,1.133l.668,3.279,9.169,1.369,3.285-5.283Z" style="fill:#a27f68"/><path d="M212.793,207.346a22.025,22.025,0,0,0,6.44-1.113c.407-.176,1.359-.6,1.416-1.248.024-.273-.123-.436-.129-1.024,0-.419.069-.506.059-.837a2.454,2.454,0,0,0-.318-1.1,3.45,3.45,0,0,0,.493-.368c.211-.189.316-.283.335-.364.079-.352-.638-.594-1.037-1.313a2.19,2.19,0,0,1-.262-.908,11,11,0,0,0-2.111-3.084h0a5.615,5.615,0,0,0-4.421-1.6h0a5.615,5.615,0,0,0-4.329,2.688l-.184.3a2.962,2.962,0,0,0-.4,1.1h0a5.617,5.617,0,0,0,2.388,5.464l1.042.712Z" style="fill:#b5917c"/><path d="M208.109,202.1c1,2.009,2.127,2.482,2.633,4.42a6.322,6.322,0,0,1-.451,4.055,6.743,6.743,0,0,0,4.924-.983c2.527-1.822,3.41-5.829,1.718-9.6,1.243-1.279,1.718-2.848,1.2-4.006a3.239,3.239,0,0,0-2.037-1.578c-2.347-.811-6.388-.373-7.947,2.658A5.861,5.861,0,0,0,208.109,202.1Z" style="fill:#fff"/><path d="M204.445,285.179a10.747,10.747,0,0,1,.195,4.963l-1.247.564-.278-.514-.435.863a11.073,11.073,0,0,1-2.391,1.037,7.3,7.3,0,0,1-2.006.375c-1.093.03-2.7-.223-2.791-.778-.054-.347.516-.545,1.74-1.517a12.675,12.675,0,0,0,2.1-2.133,8.938,8.938,0,0,0,1.355-2.67l.222-.684Z" style="fill:#172b4d"/><path d="M220.128,284.685a4.662,4.662,0,0,0,.951,2.67c1.843,2.272,5.964,1.967,6,2.947a.478.478,0,0,1-.15.34c-4.625.41-6.332.2-6.891-.143a1.718,1.718,0,0,0-1.134-.3,1.521,1.521,0,0,0-.779.383H215.05a19.82,19.82,0,0,1,.093-3.471c.078-.674.185-1.3.309-1.881Z" style="fill:#172b4d"/><polygon points="208.601 235.635 208.601 239.228 215.524 236.144 208.601 235.635" style="fill:url(#linear-gradient-15)"/><path d="M223.06,234.493c.106,1.509.239,3.736.307,6.431.232,9.231-.7,15.4-1.335,24.548-.366,5.3-.864,12.05-1.524,19.921l-5.337.037c.051-1.341.093-3.424-.019-5.972-.238-5.39-.928-7.489-.8-11.63a35.022,35.022,0,0,1,.9-6.829q-1.446-7.212-2.891-14.424a9.141,9.141,0,0,1-5.717-4.807,8.936,8.936,0,0,1,1.2-9.125Z" style="fill:url(#linear-gradient-16)"/><polygon points="208.813 234.684 207.349 234.303 206.079 234.128 207.324 236.016 208.813 234.684" style="fill:#b5917c"/><path d="M219.766,234.422q-1.593,4.262-3.157,8.616-3.195,8.905-6.035,17.572l-4.647,25.568-5.331-.853q1.221-13.242,2.44-26.485c.211-2.78,1.524-20.035,2.039-22.472.092-.435.212-.85.212-.85a12.987,12.987,0,0,1,1.581-3.393l.97.518Z" style="fill:url(#linear-gradient-17)"/><path d="M201.865,241.389l.912-2.311-4.361,1.427.185.75a1.726,1.726,0,0,0,.276.432,1.388,1.388,0,0,0,2.127.106.672.672,0,0,0,.561-.033A.658.658,0,0,0,201.865,241.389Z" style="fill:#a27f68"/><path d="M201.862,235.855a9.883,9.883,0,0,1,.915,3.223l-4.361,1.427c.027-.236.057-.477.09-.72.043-.316.088-.625.137-.928a5.349,5.349,0,0,1,.838-3.921l2.287-.307Z" style="fill:#a27f68"/><path d="M266.449,183.317l-9.128-11.208a3.775,3.775,0,0,0-5.309-.543l-11.207,9.127a3.774,3.774,0,0,0-.544,5.31l5.018,6.161c-1.086,1.424-1.315,3.531-2.168,5.107-.037.068-.065.115-.1.176l-.088-.033c-1.265,2.088-2.548,4.382-3.8,6.881-1.366,2.724-2.517,5.334-3.49,7.779q-3.084.417-6.246.8-3.924.474-7.746.866c-.032.356-.307,3.051-2.15,3.864-.912.4-1.812.168-3.305-.242a16.5,16.5,0,0,1-4.558-2.045,32.473,32.473,0,0,0-4.658,2.64c-4.166,2.839-7.756,5.086-8.9,9.015-.355,1.217-.262,3-.074,6.567a72.11,72.11,0,0,0,.746,7.248,5.232,5.232,0,0,0,3.137.445,5.072,5.072,0,0,0,1.8-.7q-.172-2.862-.408-5.82t-.521-5.809a24.742,24.742,0,0,1,6.847-5.459,26.956,26.956,0,0,0,1.759,8.3q-.864,1.474-1.8,2.987-.676,1.089-1.354,2.135a20.255,20.255,0,0,0,10.463,3.266,19.7,19.7,0,0,0,6.463-.944q-.327-4.884-.655-9.767a13.181,13.181,0,0,0,1.313-2.121,6.344,6.344,0,0,0,.93-2.9,9.226,9.226,0,0,0-.565-2.41c-.278-.907-.544-1.649-.738-2.165,1.269-.158,3.081-.405,5.249-.779,6.432-1.108,7.531-1.869,8.143-2.4.945-.814,1.625-2.319,2.972-5.335a68.319,68.319,0,0,0,2.555-6.833c.7-2.122,1.3-4.077,1.8-5.828l-.293-.113c.428-.317.777-.72,1.228-1.057.525-.392,1.015-.829,1.532-1.234l.784.961a3.772,3.772,0,0,0,5.309.543l2.886-2.35,4.1.807a1.409,1.409,0,0,0,1.681-1.369l.041-4.181,2.5-2.034A3.773,3.773,0,0,0,266.449,183.317Z" style="mix-blend-mode:multiply;fill:url(#linear-gradient-18)"/><path d="M250.675,166.828l-11.207,9.127a3.775,3.775,0,0,0-.543,5.31l9.127,11.207a3.775,3.775,0,0,0,5.31.543l2.886-2.35,4.1.807a1.409,1.409,0,0,0,1.681-1.37l.041-4.18,2.5-2.034a3.775,3.775,0,0,0,.543-5.31l-9.127-11.207A3.775,3.775,0,0,0,250.675,166.828Z" style="fill:url(#linear-gradient-19)"/><path d="M247.038,189.657a6.239,6.239,0,0,0,1.91-.428.6.6,0,0,1,.457-.056.378.378,0,0,1,.164.45.97.97,0,0,1-.307.415,20.577,20.577,0,0,1-1.717,1.251c-.628.459-1.189.993-1.808,1.456-.682.509-1.111,1.187-1.969,1.455-.943.3-2.261.213-2.5-.354-.129-.3.117-.591.508-1.314.878-1.621,1.087-3.812,2.258-5.235.45-.546,1.044-.952,1.517-1.475.655-.725,1.274-1.487,1.91-2.229.052-.06.118-.126.2-.114s.121.092.15.164a1.959,1.959,0,0,1-.058,1.537,13.644,13.644,0,0,0-1.631,3.767.773.773,0,0,0-.006.314c.085.338.527.417.876.4Z" style="fill:#cf9e76"/><path d="M234.3,207.336q-3.085.417-6.247.8-3.924.472-7.746.866c-.032.355-.306,3.051-2.149,3.863-.913.4-1.813.169-3.305-.241a16.56,16.56,0,0,1-4.558-2.045,32.534,32.534,0,0,0-4.659,2.64c-4.166,2.839-7.755,5.086-8.9,9.014-.355,1.217-.261,3-.074,6.568a72.408,72.408,0,0,0,.746,7.248,5.239,5.239,0,0,0,3.137.445,5.072,5.072,0,0,0,1.8-.7q-.173-2.864-.408-5.82t-.52-5.809a24.757,24.757,0,0,1,6.846-5.459,27,27,0,0,0,1.76,8.3q-.864,1.473-1.8,2.986-.676,1.09-1.353,2.135a20.237,20.237,0,0,0,10.463,3.267,19.736,19.736,0,0,0,6.463-.944q-.329-4.884-.656-9.767a13.155,13.155,0,0,0,1.313-2.121,6.344,6.344,0,0,0,.93-2.9,9.133,9.133,0,0,0-.565-2.41c-.277-.907-.543-1.649-.738-2.166,1.27-.157,3.081-.405,5.25-.778,6.431-1.108,7.53-1.869,8.143-2.4.944-.815,1.625-2.319,2.971-5.335A68.091,68.091,0,0,0,243,199.742c.7-2.121,1.3-4.076,1.8-5.828l-3.213-1.239c-1.265,2.089-2.549,4.383-3.8,6.882C236.421,202.281,235.27,204.891,234.3,207.336Z" style="fill:#0057d8"/><rect x="613.931" y="265.067" width="35.807" height="35.537" style="fill:#c1c7d0"/><rect x="618.923" y="258.822" width="11.078" height="6.438" style="fill:#ebecf0"/><rect x="649.738" y="265.067" width="35.807" height="35.537" style="fill:#ebecf0"/><rect x="644.024" y="258.424" width="11.43" height="6.643" style="fill:#ebecf0"/><rect x="666.69" y="258.424" width="11.43" height="6.643" style="fill:#ebecf0"/><rect x="578.124" y="300.604" width="35.807" height="35.537" style="fill:#00b8d9"/><rect x="613.931" y="300.604" width="35.807" height="35.537" style="fill:url(#linear-gradient-20)"/><rect x="585.55" y="293.961" width="11.43" height="6.643" style="fill:#79e2f2"/><rect x="608.216" y="293.961" width="11.43" height="6.643" style="fill:#79e2f2"/><rect x="630.883" y="293.961" width="11.43" height="6.643" style="fill:#79e2f2"/><rect x="542.317" y="336.141" width="35.807" height="35.537" style="fill:#c1c7d0"/><rect x="578.124" y="336.141" width="35.807" height="35.537" style="fill:#ebecf0"/><rect x="549.743" y="329.498" width="11.43" height="6.643" style="fill:#c1c7d0"/><rect x="572.409" y="329.498" width="11.43" height="6.643" style="fill:#c1c7d0"/><rect x="595.076" y="329.498" width="11.43" height="6.643" style="fill:#c1c7d0"/><rect x="685.381" y="336.141" width="35.807" height="35.537" style="fill:#c1c7d0"/><rect x="721.188" y="336.141" width="35.807" height="35.537" style="fill:#ebecf0"/><rect x="692.808" y="329.498" width="11.43" height="6.643" style="fill:#c1c7d0"/><polygon points="719.684 336.141 704.274 336.141 702.732 329.498 692.81 329.498 704.906 371.678 719.684 371.678 719.684 336.141" style="fill:#091e42;opacity:0.15"/><rect x="715.474" y="329.498" width="11.43" height="6.643" style="fill:#c1c7d0"/><rect x="738.14" y="329.498" width="11.43" height="6.643" style="fill:#c1c7d0"/><rect x="613.931" y="336.141" width="35.807" height="35.537" style="fill:#c1c7d0"/><rect x="666.69" y="329.498" width="11.43" height="6.643" style="fill:#c1c7d0"/><ellipse cx="519.239" cy="391.923" rx="58.859" ry="7.07" style="opacity:0.15;fill:url(#linear-gradient-21)"/><path d="M431.575,392.713l-12.49-.172.11-7.94,4.067.236c.383,2.627,1.364,3.7,2.145,4.2,1.74,1.122,3.806.268,5.243,1.732A3.607,3.607,0,0,1,431.575,392.713Z" style="fill:#344563"/><g style="clip-path:url(#clip-path)"><rect x="418.841" y="391.774" width="12.983" height="1.272" transform="translate(5.466 -5.843) rotate(0.792)" style="fill:#344563"/></g><circle cx="421.732" cy="388.816" r="0.939" style="fill:#344563"/><path d="M413.763,394.992l-12.4-1.5.957-7.883,4.019.67c.1,2.652.961,3.826,1.683,4.409,1.611,1.3,3.756.672,5.029,2.281A3.6,3.6,0,0,1,413.763,394.992Z" style="fill:#344563"/><g style="clip-path:url(#clip-path-2)"><rect x="401.098" y="393.389" width="12.983" height="1.272" transform="translate(50.459 -46.251) rotate(6.922)" style="fill:#344563"/></g><polygon points="419.191 384.838 423.262 384.837 423.313 379.352 418.783 379.352 419.191 384.838" style="fill:#b2d4ff"/><path d="M424.176,351.748q-.432,13.8-.863,27.6l-4.5.057a117.828,117.828,0,0,1-1.405-21.969q.078-2.586.262-5.055Z" style="fill:#8c715d"/><path d="M413.322,352.5l-6.267,29.763-4.4-1.123a127.7,127.7,0,0,1,2.416-23.756q.544-2.754,1.182-5.363Z" style="fill:#8c715d"/><path d="M418.218,304.09a5.561,5.561,0,0,1-3.076,3.779,5.351,5.351,0,0,1-5.533-.887,15.126,15.126,0,0,0,.028-8.775l7.377,1.82a16.526,16.526,0,0,0-.1,2.263c.024.962.12,1.327.4,1.561A1.268,1.268,0,0,0,418.218,304.09Z" style="fill:url(#linear-gradient-22)"/><path d="M428.569,320.608a4.749,4.749,0,0,0,1.1.7c.449.189.907.22,1.36.439a30.639,30.639,0,0,1,2.693,1.47c2.487,1.521,3.537,2.631,6.3,4.2,1.057.6,1.95,1.021,2.512,1.273l-2.175,2.031a89.32,89.32,0,0,1-10.179-2.835,12.39,12.39,0,0,1-2.985-1.492c-1.115-.762-4.06-2.775-3.6-4.64a2.591,2.591,0,0,1,1.061-1.395c.228-.166.473-.3.676-.479s.313-.359.634-.4a2.369,2.369,0,0,1,.806.078,2.834,2.834,0,0,1,.884.3,3.579,3.579,0,0,1,.494.4C428.287,320.372,428.425,320.491,428.569,320.608Z" style="fill:#dfb28b"/><path d="M429.188,326.81a4.544,4.544,0,0,1-1.894.18c-1.535-.191-2.54-1.18-3.621-2.274-1.985-2.009-3.465-3.529-4.676-4.786l.1-10.444a22.3,22.3,0,0,1,2.315,2.682c3.11,4.251,3.41,4.213,4.587,5.345,2.4,2.314,3.206,2.2,3.814,3.563C430.664,322.991,429.965,325.188,429.188,326.81Z" style="fill:#0049b0"/><path d="M401.363,388.159c.012-.2,3.775-39.381,4.383-45.622.387-3.967.8-10.311,1.237-14.18l15.32-.131c.749,5.963,1.35,14.639,1.751,21.16.166,2.7.415,33.749.505,36.36a6.966,6.966,0,0,1-3.665,1.055c-1.609,0-1.558.157-2.111-.149-.518-3.689-2.405-35.831-2.923-40.639-1.027,6.008-8.165,41.962-8.3,42.573A14.919,14.919,0,0,1,401.363,388.159Z" style="fill:#0747a6"/><path d="M419.8,304.013c-.788.046-1.483.044-2.061.024a4.533,4.533,0,0,1-5.868.983l-1.6-.983-5.2,3.194a2.7,2.7,0,0,0-1.263,2.665c.111.812.24,1.743.386,2.77.586,4.118.833,6.186,1.216,7.884a59.293,59.293,0,0,1,1.2,5.871c.252,1.826.34.92.374,1.943a17.381,17.381,0,0,0,15.32-.138,22.687,22.687,0,0,0-.238-2.968c-.052-.345-.153,1.408-.179.51a8.912,8.912,0,0,1,.272-2.442c.955-4.025-1.14-5.479-.195-9.832a30.709,30.709,0,0,0,.8-3.964,9.546,9.546,0,0,0-.08-2.963A2.654,2.654,0,0,0,419.8,304.013Z" style="fill:url(#linear-gradient-23)"/><path d="M414.832,301.922c3.226.437,3.543.515,3.907.2a6.246,6.246,0,0,0,.84-2.282c.193-.692.336-1.274.434-1.688.223.065.844.226,1.029-.028.129-.177-.025-.464-.2-.914a12.376,12.376,0,0,1-.531-1.728c.014-.116.025-.235.031-.359a5.571,5.571,0,0,0-2.087-4.61,6,6,0,0,0-6.489-.772,5.76,5.76,0,0,0-2.885,4.469,11.85,11.85,0,0,0,.647,3.76l.008.021c.047.133.078.233.08.239.142.444.853.875.853.875.622.376.749.229,1.091.474.617.442.413,1.07.862,1.634C412.765,301.65,413.221,301.7,414.832,301.922Z" style="fill:#dfb28b"/><path d="M414.777,294.692a8.846,8.846,0,0,0-.381,2.092h-.97c-.294-.342-.646-.652-.937-.57-.661.186-.282,2.187-1.136,2.6-.648.313-1.614-.478-1.738-.579a5.008,5.008,0,0,1-1.179-5.255,5.891,5.891,0,0,1,2.932-3.251,6.9,6.9,0,0,1,5.152-.49,6.6,6.6,0,0,1,3.933,3.253c.122.242.579,1.149.284,1.439-.151.148-.481.119-1.775-.444-2.057-.893-2.324-1.3-2.839-1.135C415.436,292.567,415.139,293.526,414.777,294.692Z" style="fill:#172b4d"/><path d="M535.771,323.641l-3.749-.09s1.773-12.131,4.759-14.843c6.8-6.173,3.153,4.125,3.153,4.125Z" style="fill:#0052cc"/><path d="M534.657,325.167c-1.14,1.36-10.9,2.991-10.9,2.991l-1.146-3.326,10.73-3.7S538.782,320.245,534.657,325.167Z" style="fill:#0052cc"/><ellipse cx="405.777" cy="393.298" rx="34.543" ry="4.708" style="opacity:0.15;fill:url(#linear-gradient-24)"/><path d="M552.824,386.341a.742.742,0,0,1,.691.144c.3.3.157.848.153,1.846-.008,1.688.4,2.149.049,2.712-.233.378-.6.473-1.089.6a3.52,3.52,0,0,1-2.218-.189,7.33,7.33,0,0,1-1.742.676,7.122,7.122,0,0,1-3.335,0,1.036,1.036,0,0,1-.262-.75c.076-.443.651-.622,1.007-.759a10.526,10.526,0,0,0,2.612-1.847,8.79,8.79,0,0,0,2-2.438Z" style="fill:#344563"/><path d="M528.463,385.935c.185.614.362,1.277.522,1.988.214.95.366,1.851.474,2.686a.7.7,0,0,1-.562.831l-7.792.521a1.024,1.024,0,0,1-.279-.742c.068-.455.658-.662.99-.79a8.9,8.9,0,0,0,3.555-2.355,5.491,5.491,0,0,0,.964-2.073Z" style="fill:#344563"/><path d="M545.315,325.205c-.211-.18-2.5-2.068-5.033-1.348-2.3.65-3.955,3.216-7.222,13.872-1.6,5.226-2.792,9.8-4.7,17.709-1.66,6.889-2.561,10.632-3.742,16.193-1.209,5.7-2.151,10.672-2.862,14.649l7.55,2.981c1.966-7.414,5.111-18.717,9.028-30.487,3.128-9.4,4.692-14.1,5.859-16.019,1.814-2.981,3.727-5.2,3.939-9.086C548.177,332.87,548.386,327.824,545.315,325.205Z" style="fill:url(#linear-gradient-25)"/><path d="M546.608,322.471c-1.765-.642-3.855.376-5.128,1.845-.989,1.141-2.5,3.792-.638,17.16.3,2.154.79,5.322,3.457,17.963,1.481,7.016,1.814,8.337,2.732,12.85,1.313,6.458,2.25,11.724,2.829,15.113l7.262-.554c-.411-4.446-3.594-38.716-6.164-54.783C550.48,329.076,549.539,323.537,546.608,322.471Z" style="fill:#0052cc"/><path d="M553.886,343.143a47.9,47.9,0,0,1-11.134.675,49.092,49.092,0,0,1-13.068-2.558A68.546,68.546,0,0,0,534.93,330.7s3.4-8.634,1.975-11.117a8.3,8.3,0,0,1-1.037-2.676,4.452,4.452,0,0,1-.125-.9c-.032-.673-.4-.941.232-4.178.463-2.375.932-2.556,1.106-2.866s.975-1.574,4.124-1.876a14.673,14.673,0,0,1,8.576,2.113,26.238,26.238,0,0,1-.594,6.753c-.5,2.228-1.105,3.4-.913,5.343a8.958,8.958,0,0,0,1.555,4.112C551.227,327.59,552.852,332.263,553.886,343.143Z" style="fill:#0065ff"/><path d="M535.291,301.551a1.407,1.407,0,0,0,.362.3,3.968,3.968,0,0,0,.452.281c.01.3.03.615.062.942a15.07,15.07,0,0,0,.273,1.733,12.063,12.063,0,0,0,1.822.267,9.4,9.4,0,0,0,3.3-.247,5.98,5.98,0,0,0,2.077-.91,4.867,4.867,0,0,0-4.824-8.4,4.112,4.112,0,0,0-2.061,2.036c-.218.559-.09.618-.45,1.567-.086.226-.2.514-.378.887C535.5,300.893,535.134,301.265,535.291,301.551Z" style="fill:#f1dbcb"/><path d="M544.327,302.211a8.191,8.191,0,0,0-.658,2.507c-.146,1.542.269,2.033.391,2.163a1.5,1.5,0,0,0,.244.209c.22.016.455.042.7.08.275.042.53.093.765.149a7.979,7.979,0,0,1-2.4,3.357c-.246.2-3.534,2.816-5.213,1.429-.911-.753-1.863-3.25-.29-4.318.59-.4,1.352-.426,1.593-1.07a1.668,1.668,0,0,0-.322-1.679Q541.732,303.624,544.327,302.211Z" style="fill:#f1dbcb"/><path d="M538.143,299.433c1.031.547,1.264,1.282,1.795,1.169.384-.082.444-.452.679-.486.4-.058,1.091.869,2.4,5.153l.849.056a3.087,3.087,0,0,1,.057-.691,3.3,3.3,0,0,1,.5-1.2c.066-.1,1.1-1.683,1.386-2.224a4.784,4.784,0,0,0,.028-4.025,5.377,5.377,0,0,0-2.947-2.652,9.419,9.419,0,0,0-3.631-.628c-1.34,0-2.522.245-3.26-.47-.154-.149-.363-.412-.6-.369-.308.055-.52.6-.547,1.068-.054.9.582,1.516.377,1.718-.151.149-.523-.167-.731,0-.232.188-.072.823.166,1.263a2.867,2.867,0,0,0,1.061,1.035A22.248,22.248,0,0,0,538.143,299.433Z" style="fill:#505f79"/><path d="M524.857,336.343l-2.065-2.279c-2.6-2.874-6.706-3.4-9.165-1.172h0c-2.459,2.227-2.342,6.362.261,9.236l2.065,2.28a15.368,15.368,0,0,1,3.551,6.607h0a15.366,15.366,0,0,0,3.551,6.608l27.5,30.361c4.166,4.6,10.734,5.44,14.669,1.876h0c3.936-3.564,3.749-10.183-.418-14.783l-27.5-30.361a15.353,15.353,0,0,0-6.224-4.186h0A15.358,15.358,0,0,1,524.857,336.343Z" style="fill:url(#linear-gradient-26)"/><path d="M474.527,249.239a48.767,48.767,0,0,0-43.046,42.275A46.882,46.882,0,0,1,436.567,290c15.568-3.665,28.289,1.717,34.47,4.436,18.544,8.159,21.23,19.5,33.782,28.083a46,46,0,0,0,12.738,6.036c.1-.121.2-.235.3-.357a48.744,48.744,0,0,0-43.332-78.957Z" style="fill:url(#linear-gradient-27)"/><path d="M474.527,249.239a48.767,48.767,0,0,0-43.046,42.275A46.882,46.882,0,0,1,436.567,290c15.568-3.665,28.289,1.717,34.47,4.436,18.544,8.159,21.23,19.5,33.782,28.083a46,46,0,0,0,12.738,6.036c.1-.121.2-.235.3-.357a48.744,48.744,0,0,0-43.332-78.957Z" style="fill:url(#linear-gradient-27)"/><path d="M474.527,249.239a48.767,48.767,0,0,0-43.046,42.275A46.882,46.882,0,0,1,436.567,290c15.568-3.665,28.289,1.717,34.47,4.436,18.544,8.159,21.23,19.5,33.782,28.083a46,46,0,0,0,12.738,6.036c.1-.121.2-.235.3-.357a48.744,48.744,0,0,0-43.332-78.957Z" style="fill:url(#linear-gradient-27)"/><path d="M517.456,263.714A49.909,49.909,0,0,0,482.7,247.262h0a50.235,50.235,0,1,0,34.753,16.452Z" style="fill:none;stroke:#344563;stroke-miterlimit:10;stroke-width:5.232294044074178px"/><path d="M417.258,316.119a1.991,1.991,0,0,1,1.37-.161,30.675,30.675,0,0,1,3.16-2.877c2.206-1.74,3.56-2.318,5.9-4.294.894-.755,1.574-1.421,1.991-1.845q.554,1.323,1.108,2.645a86.035,86.035,0,0,1-5.963,8.255,11.993,11.993,0,0,1-2.347,2.2c-1.061.753-3.866,2.743-5.4,1.7C415.569,320.717,415.674,317,417.258,316.119Z" style="fill:#dfb28b"/><path d="M429.351,305.853,432,303.1a.431.431,0,0,1,.778.067.564.564,0,0,1,.564-.017.578.578,0,0,1,.248.669.519.519,0,0,1,.389.139.769.769,0,0,1-.2.978.683.683,0,0,1,.289.364.77.77,0,0,1-.069.549,8.259,8.259,0,0,1-1.128,1.963,6.748,6.748,0,0,1-1.228,1.089,6.535,6.535,0,0,1-.624.382c-.158.584-.437.692-.5.712-.455.154-1.211-.385-1.682-1.486Z" style="fill:#dfb28b"/><path d="M428.391,307.507l.124-.694a4.4,4.4,0,0,1,.685-1.691l1.489-2.206h0a1,1,0,0,1,.368,1.307l-.472.924.041,3.326-1.583.482h0A1.408,1.408,0,0,1,428.391,307.507Z" style="fill:#dfb28b"/><path d="M405.162,308.073a3.225,3.225,0,0,0-1.014,2.533,3.864,3.864,0,0,0,1.28,2.41c2.724,2.791,4.046,3.192,6.283,5.447a10.831,10.831,0,0,0,3.951,3.057,8.313,8.313,0,0,0,1.352.4,6.344,6.344,0,0,1,.655-1.728,7.578,7.578,0,0,1,1.278-1.606c.514-.54.934-1.646.441-4.147a7.685,7.685,0,0,1-1.022-.149c-4.083-.884-4.6-4.6-8.734-6.2C407.875,307.417,405.969,307.312,405.162,308.073Z" style="fill:url(#linear-gradient-30)"/><path d="M521.826,326.649a1.341,1.341,0,0,0-1.1-.437,3.228,3.228,0,0,0-2.134.848q-2.895.811-2.86,1.1.03.25,2.266.108a17.707,17.707,0,0,0-1.689.738c-.192.1-.38.194-.562.293a.888.888,0,0,0,.254.662.55.55,0,0,0,.388.133.505.505,0,0,0,.022.321c.14.274.62.186,1.262.085,1.743-.275,1.663-.175,1.926-.313.411-.218.475-.394,1.392-1.27.5-.477.915-.841,1.178-1.066A1.873,1.873,0,0,0,521.826,326.649Z" style="fill:#f1dbcb"/><path d="M545.536,309.647l-11.163,8.623-13.542,8.16.865,2.5a113.786,113.786,0,0,0,13.621-5.953,120.272,120.272,0,0,0,14.111-8.583Q547.481,312.02,545.536,309.647Z" style="fill:#0065ff"/><rect x="623.087" y="330.041" width="11.078" height="6.438" style="fill:#c1c7d0"/><rect x="715.04" y="59.892" width="13.003" height="13.003" rx="2.2" style="fill:#4c9aff;opacity:0.05"/><rect x="686.236" y="56.876" width="22.474" height="22.474" rx="1.301" style="fill:#4c9aff;opacity:0.1"/><rect x="483.551" y="48.393" width="36.709" height="36.709" rx="2.125" style="fill:#deebff"/><path d="M497.807,65.415h4.1c.689,0,2.732,0,2.732-2.084s-2.732-2.049-2.732-2.049h-4.1Zm0,6.8h4.782c1.366,0,2.732-.341,2.732-2.049s-1.508-2.05-2.732-2.05h-4.782Zm-2.733-12.979a.681.681,0,0,1,.679-.684h7.289c1.47,0,4.329.683,4.329,4.1,0,2.733-1.366,3.416-1.366,3.416a3.971,3.971,0,0,1,2.732,4.1c0,.683,0,4.782-5.465,4.782h-7.527a.682.682,0,0,1-.671-.684Z" style="fill:#4c9aff;fill-rule:evenodd"/><rect x="530.52" y="43.947" width="45.599" height="45.599" rx="2.64" style="fill:#4c9aff"/><path d="M556.714,59.958,553.32,73.536h4.242a.84.84,0,0,1,.849.857v1.681a.859.859,0,0,1-.849.856H545.683a.841.841,0,0,1-.85-.856V74.393a.86.86,0,0,1,.85-.857h4.242l3.4-13.578h-4.243a.84.84,0,0,1-.849-.856V57.42a.86.86,0,0,1,.849-.856h11.879a.84.84,0,0,1,.85.856V59.1a.86.86,0,0,1-.85.856Z" style="fill:#deebff;fill-rule:evenodd"/><rect x="586.157" y="43.947" width="45.599" height="45.599" rx="2.64" style="fill:#deebff"/><path d="M611.5,65.9l-2.546-7.637c-.725,2.374-2.546,7.637-2.546,7.637Zm.848,2.546h-6.789l-1.7,4.243h-3.394l6.474-16.972h4.024l6.474,16.972h-3.394Zm-13.578,6.8a.858.858,0,0,1,.85-.856h18.668a.84.84,0,0,1,.849.856v1.681a.858.858,0,0,1-.849.857H599.623a.841.841,0,0,1-.85-.857Z" style="fill:#4c9aff;fill-rule:evenodd"/><rect x="642.28" y="48.393" width="36.709" height="36.709" rx="2.125" style="fill:#4c9aff;opacity:0.2"/><rect x="293.85" y="230.268" width="123.499" height="3.946" style="fill:#b2d4ff"/><rect x="293.85" y="218.811" width="219.672" height="3.946" style="fill:#b2d4ff"/><rect x="293.85" y="218.811" width="182.937" height="3.946" style="fill:#ffc400"/><rect x="293.85" y="95.294" width="129.409" height="3.946" style="fill:#b2d4ff;opacity:0.75"/><rect x="293.85" y="207.355" width="219.672" height="3.946" style="fill:#b2d4ff"/><rect x="382.304" y="207.355" width="131.218" height="3.946" style="fill:#ffc400"/><rect x="295.84" y="115.208" width="71.337" height="24.327" style="fill:#deebff;opacity:0.75"/><rect x="367.835" y="115.208" width="71.337" height="24.327" style="fill:#deebff;opacity:0.75"/><rect x="439.83" y="115.208" width="71.337" height="24.327" style="fill:#deebff;opacity:0.75"/><rect x="439.83" y="140.977" width="71.337" height="24.327" style="fill:#fff0b2;opacity:0.75"/><rect x="295.629" y="114.339" width="215.67" height="76.761" style="fill:none;stroke:#b2d4ff;stroke-miterlimit:10;stroke-width:4px"/><rect x="295.629" y="139.926" width="215.67" height="25.587" style="fill:none;stroke:#b2d4ff;stroke-miterlimit:10;stroke-width:4px"/><rect x="367.519" y="114.339" width="71.889" height="76.761" style="fill:none;stroke:#b2d4ff;stroke-miterlimit:10;stroke-width:4px"/><path d="M514.744,160.233l-1.045-.819-4.033,5.15,1.418,1.11a13.088,13.088,0,0,1,4.727,7.556l.079.369a13.088,13.088,0,0,0,4.727,7.556l92.758,72.638a10.01,10.01,0,0,0,14.053-1.71h0a10.01,10.01,0,0,0-1.709-14.053l-92.386-72.345a13.083,13.083,0,0,0-9.294-2.726h0A13.094,13.094,0,0,1,514.744,160.233Z" style="mix-blend-mode:multiply;fill:url(#linear-gradient-31)"/><path d="M586.015,196.873c.031-.06.082-.132.155-.139.221-.021.478.564.581.8a10.406,10.406,0,0,1,.642,2.984c.038.288.1.766.194,1.368a1.666,1.666,0,0,1-1.206.457,1.86,1.86,0,0,1-1.46-1.409c-.164-.626.16-.833-.02-1.722a6.148,6.148,0,0,0-.121-.88c-.029-.141-.11-.513,0-.563.091-.038.268.125.362.237.241.285.157.492.4.845.02.028.232.339.331.307.071-.023.1-.228-.093-1.084q-.6-1.258-.368-1.419Q585.559,196.558,586.015,196.873Z" style="fill:#f1dad5"/><path d="M585.883,202.088a48.481,48.481,0,0,0,9.889,20.416c.55.253,9.178,4.091,13.338.165,1.657-1.564,2.856-4.6,1.925-5.648-.577-.651-1.809-.35-3.592,0-2.158.427-5.314.969-9.356,1.365-1.3-1.75-2.615-3.606-3.918-5.573a123.584,123.584,0,0,1-6.639-11.278Z" style="fill:#f1dad5"/><path d="M513.626,157.732l-1.139-.682-3.356,5.614,1.545.924a13.082,13.082,0,0,1,5.635,6.906l.125.355a13.083,13.083,0,0,0,5.635,6.906l101.116,60.464a10.009,10.009,0,0,0,13.728-3.454h0a10.01,10.01,0,0,0-3.454-13.729l-100.709-60.22a13.088,13.088,0,0,0-9.563-1.542h0A13.093,13.093,0,0,1,513.626,157.732Z" style="fill:url(#linear-gradient-32)"/><path d="M570.645,183.48c2.2,4.922,4.758,11.663,6.72,16.836,2.037,5.374,3.792,9.919,5.358,13.712l7.864,4.7c-2.713-5.648-5.993-14.3-8.267-20.294-1.5-3.958-2.82-7.4-4.006-10.371Z" style="fill:#ffc400"/><path d="M619.718,236.15c-11.383-26.78-16.564-31.752-20.963-30.637-3.939,1-4.438,6.465-4.967,12.251-.072.786-.16,1.755-.27,2.72l4.94,2.953c.274-1.567.438-3.335.608-5.191a37.956,37.956,0,0,1,1.108-7.267c1.3,1.007,4.7,4.977,11.7,20.478Z" style="fill:#ffc400"/><path d="M568.549,205.552c-.827-12.489-.83-19.612-.573-23.668l-5.013-3c-.566,4.359-.631,11.526.068,23.367Z" style="fill:#ffc400"/><path d="M506.087,155.971l-.487,2.87a.975.975,0,0,0,.462,1l3.5,2.1,2.394-4L507.55,155.3A.976.976,0,0,0,506.087,155.971Z" style="fill:#ffe380"/><path d="M314.869,25.21a3.059,3.059,0,0,0,1.956.373,9.887,9.887,0,0,0,2.655-.33l1.543-2.761,3.616-.326-.057-.762c-.97-.166-2-.307-3.1-.406q-.615-.057-1.207-.092a14.49,14.49,0,0,0-2.587.388,18.291,18.291,0,0,0-3.338,1.045A2.546,2.546,0,0,0,314.869,25.21Z" style="fill:#ecc19c"/><path d="M282.049,3.483c3.125,4.442-3.732,14.963-7.96,14.482-2.884-.329-4.476-5.7-4.621-6.19-.437-1.475-1.319-4.458.371-7.234A7.648,7.648,0,0,1,274.4,1.247C277.23.531,280.619,1.451,282.049,3.483Z" style="fill:#172b4d"/><path d="M263.138,49.125c-.795.547-1.664,1.1-2.607,1.658-.991.581-1.948,1.087-2.854,1.529-.309.315-.524.594-.451.711.061.1.3.06.306.094s-.477.042-.591.286a.193.193,0,0,0-.018.138c.058.179.48.147.489.236.007.061-.188.079-.367.258-.04.041-.219.221-.174.362.052.164.36.134.384.253.034.165-.534.341-.513.5.016.118.371.2.776.2,1.292.021,2.208-.7,3.5-1.307a11.9,11.9,0,0,1,2.278-.8,6.827,6.827,0,0,1-1.094,1.489,2.791,2.791,0,0,0-.8,1.142.96.96,0,0,0-.005.7.851.851,0,0,0,.287.35,16.154,16.154,0,0,0,1.937-1.7c1.447-1.49,3.026-3.116,2.595-4.415C265.787,49.522,263.6,49.188,263.138,49.125Z" style="fill:#ecc19c"/><path d="M295.452,67.778l-.714,9.1,1.894.652.931-1.087.537,1.52a15.4,15.4,0,0,0,8.349,1.943,15.223,15.223,0,0,0-1.013-1.231,13.327,13.327,0,0,0-1.51-1.392c-1.878-1.5-2.583-1.33-3.113-2.268a3.954,3.954,0,0,1-.31-2.055,12.868,12.868,0,0,1,.706-4.218Z" style="fill:#42526e"/><path d="M305.568,62.159l2.92,8.645,2-.145.429-1.365,1.09,1.187a15.41,15.41,0,0,0,8.441-1.5,14.982,14.982,0,0,0-1.415-.733,13.28,13.28,0,0,0-1.936-.687c-2.315-.638-2.9-.208-3.754-.861a3.968,3.968,0,0,1-1.093-1.769,12.865,12.865,0,0,1-1.009-4.155Z" style="fill:#42526e"/><path d="M281.409,19.576l-3.587.89-2.243-9.041,7.1-1.762a8.1,8.1,0,0,1,4.04,5.156,4.4,4.4,0,0,1-.518,3.657A4.476,4.476,0,0,1,281.409,19.576Z" style="fill:#172b4d"/><path d="M287.456,27.178l11.333,2.764a3.92,3.92,0,0,0,2.067-.057c4.834-1.466,9.557-3.358,14.39-4.824-.5-2.052-.182-.767-.685-2.819l-13.853,2.607-13.044-5.741Z" style="fill:#ecc19c"/><path d="M291.939,20.989a20.438,20.438,0,0,0-4.264-2.189,11.253,11.253,0,0,0-6.405-.893,4.832,4.832,0,0,0-3.434,2.926,4.749,4.749,0,0,0,.563,4.1l12.06,3.173q.288-1.668.649-3.422Q291.5,22.775,291.939,20.989Z" style="fill:#00b8d9"/><path d="M288.305,26.9c-.478-1.986-1.453-1.662-2.9-4.949a7.187,7.187,0,0,0-1.632-2.8A5.574,5.574,0,0,0,281.5,17.9l-4.736.025a3.98,3.98,0,0,1-1.352,1.41c-1.312.794-2.41.386-4.132.784l-.091.02a5.133,5.133,0,0,0-2.478,1.448,4.449,4.449,0,0,0-1.249,2.593l0,.017a13.233,13.233,0,0,0,1.479,7.146,28.792,28.792,0,0,1,2.129,8.927q-.579,1.6-1.16,3.207l18.89,1.677c-2.03-6.164-1.724-10.33-1-13.055C288.77,28.4,288.579,28.042,288.305,26.9Z" style="fill:#00b8d9"/><path d="M281.133,19.193a9.125,9.125,0,0,1-3.068.52,9.017,9.017,0,0,1-3.6-.745,7.438,7.438,0,0,0,.833-1.88,6.742,6.742,0,0,0,.225-2.47l5.821.779Z" style="fill:#ecc19c"/><path d="M280.709,3.968a19.6,19.6,0,0,1,1.849,4.468,7.659,7.659,0,0,0,.5.612c.718.792,1.4,1.221,1.27,1.464-.012.021-.649.391-.75.5-.213.231.256,2.271-.079,3.188-.679,1.859-6.2,3.132-8.4.869a3.534,3.534,0,0,1-.922-1.98,2.388,2.388,0,0,1,.277-.16,2.928,2.928,0,0,1,2.108-.086,3.563,3.563,0,0,1-.041-2.514c.3-.733.705-.816,2.489-2.642a5.633,5.633,0,0,0,1.39-1.8A4.316,4.316,0,0,0,280.709,3.968Z" style="fill:#ecc19c"/><path d="M271.215,50.383a8.6,8.6,0,0,0,4.462,2.933,8.934,8.934,0,0,0,5.347-.135l20.139-6.876c.217,1.66.515,3.456.922,5.363.446,2.084.932,3.765,1.583,6.028.45,1.561,1.141,3.962,1.816,6.313q2.289-.489,4.7-1.113,1.071-.279,2.108-.572c-.68-3.029-1.658-7.251-2.924-12.287-2.226-8.856-2.691-9.689-3.565-10.472-2.286-2.052-5.723-2.289-21.778.884-5.773,1.141-10.6,2.214-14.118,3.028a6.5,6.5,0,0,0-.418,1.884A7.442,7.442,0,0,0,271.215,50.383Z" style="fill:#79e2f2"/><path d="M274.546,20.893a3.871,3.871,0,0,1-4.158-.084,3.646,3.646,0,0,1-1.217-2.555c-.1-1.54.82-2.084.923-3.73a5.32,5.32,0,0,0-.626-2.749,16.621,16.621,0,0,0,2.769-.635,16.7,16.7,0,0,0,3.52-1.6,4.569,4.569,0,0,0,.206,2.261c.835,2.234,3.121,2.25,3.9,4.336a3.9,3.9,0,0,1-.518,3.657A4.476,4.476,0,0,1,274.546,20.893Z" style="fill:#172b4d"/><path d="M281.024,53.181c2.435.123,5.066.151,7.867.034,1.77-.073,3.463-.2,5.073-.362h1.3c-.214,1.322-.42,2.872-.568,4.615-.118,1.4-.171,2.6-.195,3.517-.021.8-.022,1.394-.022,1.626,0,1.266-.047,3.335-.234,6.841a9.022,9.022,0,0,0,7.406.821q1.122-8.6,2.245-17.2l.075-4.379a4.874,4.874,0,0,0-2.548-3.593,5.8,5.8,0,0,0-3.114-.593Z" style="fill:url(#linear-gradient-33)"/><path d="M296.25,45.54l-12.341,6.193a23.235,23.235,0,0,1-1.84,1.489c1.97.076,4.059.087,6.259.01A24.348,24.348,0,0,0,296.25,45.54Z" style="fill:#dfe1e5;opacity:0.49;mix-blend-mode:multiply"/><path d="M264.872,36.726l-2.08,14.41,2.549.6q2.151-6.531,4.3-13.062c1.287-3.2,3.385-8.418,4.673-11.62a4.162,4.162,0,0,0,.371-.975H267.1Z" style="fill:#ecc19c"/><path d="M273.605,22.181a4.326,4.326,0,0,0-1.6-.831,3.862,3.862,0,0,0-4.56,3.07l-1.6,7.652a5.736,5.736,0,0,1,5.627,2.052q1.3-3.231,2.6-6.463a4.942,4.942,0,0,0,.532-3.962A3.688,3.688,0,0,0,273.605,22.181Z" style="fill:#00c7e5"/><path d="M333.471,4.981l-14.065,3.33a3.774,3.774,0,0,0-2.8,4.542l3.33,14.065a3.774,3.774,0,0,0,4.542,2.8l3.622-.857,3.341,2.514a1.41,1.41,0,0,0,2.11-.5l1.858-3.745,3.134-.742a3.774,3.774,0,0,0,2.8-4.542l-3.33-14.065A3.774,3.774,0,0,0,333.471,4.981Z" style="fill:url(#linear-gradient-34)"/><path d="M321.333,24.205a6.392,6.392,0,0,1-1.779.324,20.367,20.367,0,0,1-2.4.115l-1.334-.931-3.265.2.068-.3c.882-.153,1.822-.3,2.815-.44q.558-.078,1.093-.146c.661-.05,1.457-.09,2.333-.086,1.12,0,2.326.021,3,.1C322.272,23.446,321.929,23.938,321.333,24.205Z" style="fill:#ecc19c"/><path d="M772.639,377.094l-56.131-.025a2.872,2.872,0,0,1-2.535-2.046l-16.892-58.905a1.458,1.458,0,0,1,1.363-2.045l56.131.026a2.869,2.869,0,0,1,2.535,2.046L774,375.05A1.458,1.458,0,0,1,772.639,377.094Z" style="fill:url(#linear-gradient-35)"/><polygon points="718.196 371.611 703.262 319.534 752.887 319.556 767.82 371.633 718.196 371.611" style="fill:#fffae5"/><polygon points="740.35 363.328 727.725 358.973 729.379 347.801 742.004 352.156 740.35 363.328" style="fill:#ffe380"/><polygon points="743.283 329.933 737.179 341.146 753.949 341.838 743.283 329.933" style="fill:#ffe380"/><ellipse cx="720.94" cy="335.126" rx="5.564" ry="7.408" transform="translate(-3.986 661.539) rotate(-49.172)" style="fill:#ffe380"/><path d="M657.572,202.111l16.214,7.162v-52.82l-17.26,42.769A2.226,2.226,0,0,0,657.572,202.111Z" style="fill:#0747a6;opacity:0.1"/><path d="M711.63,212.054l-54.058-23.876a2.227,2.227,0,0,1-1.046-2.889l23.946-59.336a2.06,2.06,0,0,1,2.709-1.231L737.24,148.6a2.227,2.227,0,0,1,1.045,2.889l-23.946,59.336A2.06,2.06,0,0,1,711.63,212.054Z" style="fill:url(#linear-gradient-36)"/><polygon points="662.924 184.063 684.095 131.605 731.887 152.713 710.717 205.171 662.924 184.063" style="fill:#fff"/><polygon points="673.35 173.573 689.66 166.158 695.957 183.558 673.35 173.573" style="fill:#99c1ff"/><polygon points="681.282 177.076 702.457 167.451 710.631 190.039 681.282 177.076" style="fill:#cce0ff"/><ellipse cx="694.264" cy="152.626" rx="4.585" ry="4.208" transform="translate(402.735 800.937) rotate(-78.186)" style="fill:#99c1ff"/><rect x="679.866" y="293.932" width="11.43" height="6.643" style="fill:#5e6c84"/><rect x="657.242" y="293.932" width="11.43" height="6.643" style="fill:#5e6c84"/><rect x="644.091" y="329.808" width="11.078" height="6.438" style="fill:#c1c7d0"/><rect x="649.738" y="336.141" width="35.807" height="35.537" style="fill:#ebecf0"/><line x1="735.026" y1="215.63" x2="798.426" y2="215.63" style="fill:none;stroke-miterlimit:10;stroke-width:3.25630773908464px;opacity:0.6000000000000001;stroke:url(#linear-gradient-37)"/><line x1="735.026" y1="224.307" x2="798.426" y2="224.307" style="fill:none;stroke-miterlimit:10;stroke-width:3.25630773908464px;opacity:0.6000000000000001;stroke:url(#linear-gradient-38)"/><line x1="735.026" y1="232.983" x2="783.187" y2="232.983" style="fill:none;stroke-miterlimit:10;stroke-width:3.25630773908464px;opacity:0.6000000000000001;stroke:url(#linear-gradient-39)"/><line x1="125.408" y1="151.849" x2="179.325" y2="151.849" style="fill:none;stroke-miterlimit:10;stroke-width:3.25630773908464px;opacity:0.6000000000000001;stroke:url(#linear-gradient-40)"/><line x1="125.408" y1="159.228" x2="166.365" y2="159.228" style="fill:none;stroke-miterlimit:10;stroke-width:3.25630773908464px;opacity:0.6000000000000001;stroke:url(#linear-gradient-41)"/><rect x="125.413" y="96.523" width="20.29" height="40.653" rx="2.25" style="fill:#4c9aff;opacity:0.2"/><rect x="149.166" y="112.287" width="20.152" height="24.888" rx="2.25" style="fill:#4c9aff;opacity:0.1"/><rect x="172.78" y="122.775" width="20.093" height="14.401" rx="2.25" style="fill:#4c9aff;opacity:0.05"/><rect x="125.413" y="96.523" width="20.29" height="40.653" rx="2.25" style="fill:#4c9aff;opacity:0.2"/><rect x="149.166" y="112.287" width="20.152" height="24.888" rx="2.25" style="fill:#4c9aff;opacity:0.1"/><rect x="172.78" y="122.775" width="20.093" height="14.401" rx="2.25" style="fill:#4c9aff;opacity:0.05"/><path d="M593.017,289.7s-.268-.487-2.67-1.075a12.527,12.527,0,0,0-3.538-.492,3.1,3.1,0,0,0,2.106,1.842A6.827,6.827,0,0,0,593.017,289.7Z" style="fill:#505f79"/><path d="M610.147,285.628a7.519,7.519,0,0,0-3.187-.306,10.419,10.419,0,0,0-3.288.66s.779,1.63,3.614,1.44S610.147,285.628,610.147,285.628Z" style="fill:#505f79"/><path d="M573.915,205.751c1.208,1.02,2.237,1.8,2.955,2.323a23.493,23.493,0,0,1,3.979,3.13,12.073,12.073,0,0,1,1.582,2.178l3.425,2.5a4.573,4.573,0,0,1-.32.564c-.229.345-1.38,2.082-3.153,2.07a3.5,3.5,0,0,1-2.476-1.264l-7.247-10.38Z" style="fill:#f1dad5"/><path d="M609.531,234.422a9.652,9.652,0,0,0-.524-1.263,10.04,10.04,0,0,0-.831-1.377c-.3.1-.777.261-1.384.409-.52.127-.927.19-1.141.232-1.232.242-3.583.652-9.938,1.512a17.023,17.023,0,0,0-1.1,1.575,16.636,16.636,0,0,0-2.166,5.57c-3.268,16.086-3.72,22.323-3.72,22.323s-.949,11.847-1.761,25.263a14.348,14.348,0,0,0,2.866,1.231,8.569,8.569,0,0,0,2.173.305,30.2,30.2,0,0,0,3.1-19.4A54.948,54.948,0,0,1,597.32,261c.754-2.324,3.111-9.559,4.562-9.381,1.378.169.772,6.976,1.5,19.574.392,6.777.8,12.33,1.081,16.024a3.927,3.927,0,0,0,3.035.1,4.194,4.194,0,0,0,1.871-1.17,60.72,60.72,0,0,0,.592-6.117c.051-1.115.045-2.016.031-3.291-.023-2.141-.085-5.147-.26-8.9.125-7.556.119-10.143.078-10.869a16.381,16.381,0,0,1,.02-1.95c.014-.22.04-.441.086-.794.3-2.314,1.674-12.163.9-15.652A26.023,26.023,0,0,0,609.531,234.422Z" style="fill:#f0d0b4"/><path d="M610,278.771c-.006.412-.017.822-.037,1.265a60.72,60.72,0,0,1-.592,6.117,4.194,4.194,0,0,1-1.871,1.17,3.923,3.923,0,0,1-3.034-.1c-.164-2.111-.365-4.832-.582-8.04Z" style="fill:#00b8d9"/><path d="M595.315,279.778c-.116.927-.278,1.888-.5,2.879a30.2,30.2,0,0,1-2.807,7.545,8.569,8.569,0,0,1-2.173-.305,14.348,14.348,0,0,1-2.866-1.231c.173-2.858.352-5.643.527-8.259C590.109,280.246,592.725,279.992,595.315,279.778Z" style="fill:#00b8d9"/><path d="M586.878,285.415a11.8,11.8,0,0,0,6.649,1.9c-.662,2.286-1.3,4.112-1.762,5.355-.986,2.663-1.834,4.495-2.105,7.339-.059.613-.075,1.118-.081,1.448l-3.2-.059-.526-.5-.853.452-4.652-.11c-.508-.007-.863-.42-.7-.815,3.26-.578,4.514-2.046,5-2.78.4-.6.644-1.76,1.14-4.084a45.052,45.052,0,0,0,1.052-5.556A22.106,22.106,0,0,0,586.878,285.415Z" style="fill:#253858"/><path d="M610.147,285.628a9.521,9.521,0,0,1-6.475.354c.217.557,3.467,9.188-.311,12.539a4.661,4.661,0,0,1-1.282.8l-.235,1.085,3.543.429.561-.381,1.688.828,1.7-.314c.014-.375.036-.938.07-1.623.056-1.116.114-1.941.126-2.122C609.6,296.21,609.766,293.222,610.147,285.628Z" style="fill:#253858"/><path d="M610.146,234.517c1.141,3.453,2.243,7.067,3.282,10.837,1.933,7.014,3.412,13.705,4.543,19.986a29.7,29.7,0,0,1-4.588,2.262,32.444,32.444,0,0,1-21.943.221,31.417,31.417,0,0,1-6.971-3.536c1.761-10.3,3.415-17.806,4.016-19.656a30.671,30.671,0,0,1,2.032-4.928,31.3,31.3,0,0,1,5.09-7.078Z" style="fill:url(#linear-gradient-42)"/><path d="M607.35,201.191c-.964-1.5-3.973-2.061-5.746-1.075a4.675,4.675,0,0,0-.5.347c-2.553,1.887-4.655,3.387-4.824,5.528a4.736,4.736,0,0,0,.044,1.115,2.681,2.681,0,0,0-1.456.615c-1.148,1.008-1.1,3-.394,4.285a4.49,4.49,0,0,0,5.361,1.792,6.378,6.378,0,0,0,.923-.494c.33-.274.824-.7,1.387-1.261C604.893,209.313,608.993,203.743,607.35,201.191Z" style="fill:#172b4d"/><path d="M603.82,200.275a15.878,15.878,0,0,0-3.721,3.1c-.121.158-.165.237-.587.315s-.935,0-.926.3.428.822.412,1.071l-1.369,2.867a.987.987,0,0,0,.268,1.19l.71.577,4.443,3.594a43.4,43.4,0,0,1-.134-6.16q.028-.574.071-1.134a4.612,4.612,0,0,1-.623-2.3,4.9,4.9,0,0,1,.539-2.149A5.052,5.052,0,0,1,603.82,200.275Z" style="fill:#f1dad5"/><path d="M599.722,215.93l6.278.144a18.819,18.819,0,0,1,.15-6.523l-6.278-.145Z" style="fill:#f1dad5"/><path d="M579.993,216.229l0-.065a2.7,2.7,0,0,1,3.237-2.8,50.349,50.349,0,0,0,4.99.751,65.148,65.148,0,0,0,6.981.24c5.54-.028,8.96-.308,13.108.934a4.031,4.031,0,0,1,2.352,1.407c1.271,1.814-.053,4.5-.725,6.782a20.693,20.693,0,0,0,.252,11.6,52.958,52.958,0,0,1-8.159,1.159c-6.551.44-8.9-.808-8.9-.808a35.722,35.722,0,0,0-.481-6.971c-.388-2.174-.81-2.922-.53-4.474a7.258,7.258,0,0,1,.972-2.5,61.483,61.483,0,0,1-9.06-2.135c-.659-.209-1.408-.447-2.219-.725A2.7,2.7,0,0,1,579.993,216.229Z" style="fill:#f1dad5"/><path d="M610.613,232.386c1.171-.516,1.694-2.1,1.846-4.076a3.581,3.581,0,0,0-.709.063,9.878,9.878,0,0,1-5.144-1.048,30.069,30.069,0,0,0-1.878,4.86C604.928,232.787,607.269,233.857,610.613,232.386Z" style="fill:#f1dad5"/><path d="M611.75,228.373a3.581,3.581,0,0,1,.709-.063,36.841,36.841,0,0,0-1.378-10.971s-2.6,5.651-4.475,9.986A9.878,9.878,0,0,0,611.75,228.373Z" style="fill:#00b8d9"/><path d="M581.682,218.579l-.135-2.04a2.75,2.75,0,0,1,3.218-2.886c1.063.181,2.217.342,3.451.465a63.38,63.38,0,0,0,6.981.24c4.942-.008,10-.455,13.4.678a3.966,3.966,0,0,1,1.849,1.089c.273.309.9,1.147.936,3.393a12.377,12.377,0,0,1-.509,3.736c-.6,1.827-1.1,5.171-.693,11.829a52.958,52.958,0,0,1-8.159,1.159c-6.551.44-8.9-.808-8.9-.808a35.722,35.722,0,0,0-.481-6.971c-.388-2.174-.81-2.922-.53-4.474a7.258,7.258,0,0,1,.972-2.5,61.483,61.483,0,0,1-9.06-2.135C583.374,219.145,582.576,218.89,581.682,218.579Z" style="fill:#00c7e5"/><path d="M604.569,200.345a6.419,6.419,0,0,0-1.051,3.637c-.09,1.956-1.132,2.655-2.183,5.748-.732,2.154-1.1,3.231-.783,4.162.948,2.8,6.61,4.7,8.825,2.444,1.237-1.261.977-3.392.853-4.129a9.309,9.309,0,0,0,1.489-4.715,8.564,8.564,0,0,0-.1-1.564C611.272,203.857,608.532,199.871,604.569,200.345Z" style="fill:#172b4d"/><path d="M570.916,200.82a.272.272,0,0,0-.249-.034c-.235.128-.1.886-.041,1.193a12.575,12.575,0,0,0,1.368,3.418c.156.314.413.836.728,1.5a2.005,2.005,0,0,0,1.514-.355,2.244,2.244,0,0,0,.511-2.393c-.257-.736-.721-.725-1.139-1.736a7.132,7.132,0,0,1-.472-.962c-.067-.16-.236-.587-.385-.559-.116.022-.183.305-.2.48-.049.448.174.6.17,1.114,0,.04,0,.495-.123.53-.087.024-.258-.158-.637-1.147q-.247-1.663-.589-1.668C571.231,200.2,571.079,200.405,570.916,200.82Z" style="fill:#f1dad5"/></g></g></svg>