<svg xmlns="http://www.w3.org/2000/svg" xmlns:xlink="http://www.w3.org/1999/xlink" viewBox="0 0 392.6 465.27"><defs><style>.cls-1{fill:#f4f5f7;}.cls-2{fill:url(#linear-gradient);}.cls-3{fill:url(#linear-gradient-2);}.cls-4{fill:url(#linear-gradient-3);}.cls-5{fill:#ebecf0;}.cls-15,.cls-6{fill:#42526e;}.cls-7{fill:#ffc400;}.cls-27,.cls-28,.cls-8{fill:#fafbfc;}.cls-9{isolation:isolate;}.cls-10{opacity:0.3;}.cls-11{fill:url(#linear-gradient-4);}.cls-12,.cls-21,.cls-98{fill:#5e6c84;}.cls-100,.cls-12,.cls-13,.cls-15,.cls-21,.cls-24,.cls-27,.cls-28,.cls-32,.cls-33,.cls-37,.cls-38,.cls-40,.cls-41,.cls-44,.cls-45,.cls-47,.cls-48,.cls-51,.cls-52,.cls-54,.cls-55,.cls-57,.cls-58,.cls-60,.cls-61,.cls-63,.cls-64,.cls-66,.cls-67,.cls-69,.cls-70,.cls-73,.cls-74,.cls-76,.cls-77,.cls-83,.cls-84,.cls-87,.cls-88,.cls-89,.cls-90{stroke-miterlimit:10;}.cls-12,.cls-13,.cls-15,.cls-21{stroke-width:1.41px;}.cls-12{stroke:url(#linear-gradient-5);}.cls-13,.cls-24,.cls-32,.cls-33,.cls-37,.cls-38,.cls-40,.cls-41,.cls-44,.cls-45,.cls-47,.cls-48,.cls-54,.cls-55,.cls-57,.cls-58,.cls-60,.cls-61,.cls-63,.cls-64,.cls-66,.cls-67,.cls-69,.cls-70,.cls-73,.cls-74,.cls-76,.cls-77,.cls-83,.cls-84{fill:none;}.cls-13{stroke:#42526e;}.cls-14{opacity:0.5;fill:url(#linear-gradient-6);}.cls-15{stroke:#5e6c84;}.cls-16{fill:url(#linear-gradient-7);}.cls-17{fill:url(#linear-gradient-8);}.cls-18{fill:url(#linear-gradient-9);}.cls-19{fill:#8993a4;}.cls-20{fill:#505f79;}.cls-21{stroke:url(#linear-gradient-10);}.cls-22{fill:url(#linear-gradient-11);}.cls-23{fill:url(#linear-gradient-12);}.cls-24,.cls-83{stroke:#dfe1e5;}.cls-24,.cls-84,.cls-87,.cls-88,.cls-89,.cls-90{stroke-linecap:round;}.cls-24,.cls-84{stroke-width:2.2px;}.cls-100,.cls-25{fill:#dfe1e5;}.cls-26{clip-path:url(#clip-path);}.cls-27,.cls-28,.cls-32,.cls-33,.cls-37,.cls-38,.cls-40,.cls-41,.cls-44,.cls-45,.cls-47,.cls-48,.cls-51,.cls-52,.cls-54,.cls-55,.cls-57,.cls-58,.cls-60,.cls-61,.cls-63,.cls-64,.cls-66,.cls-67,.cls-69,.cls-70{stroke-width:1.84px;}.cls-100,.cls-101,.cls-27,.cls-28,.cls-32,.cls-33,.cls-37,.cls-38,.cls-40,.cls-41,.cls-44,.cls-45,.cls-47,.cls-48,.cls-51,.cls-52,.cls-54,.cls-55,.cls-57,.cls-58,.cls-60,.cls-61,.cls-63,.cls-64,.cls-66,.cls-67,.cls-69,.cls-70,.cls-73,.cls-74,.cls-76,.cls-77{mix-blend-mode:multiply;}.cls-27{stroke:url(#linear-gradient-13);}.cls-28{stroke:url(#linear-gradient-14);}.cls-29{fill:#a5adba;}.cls-30{fill:#0065ff;}.cls-31{clip-path:url(#clip-path-2);}.cls-32{stroke:url(#linear-gradient-15);}.cls-33{stroke:url(#linear-gradient-16);}.cls-34{fill:#f0fbfd;}.cls-35{fill:#c1c7d0;}.cls-36{clip-path:url(#clip-path-3);}.cls-37{stroke:url(#linear-gradient-17);}.cls-38{stroke:url(#linear-gradient-18);}.cls-39{clip-path:url(#clip-path-4);}.cls-40{stroke:url(#linear-gradient-19);}.cls-41{stroke:url(#linear-gradient-20);}.cls-42{fill:#ff991f;}.cls-43{clip-path:url(#clip-path-5);}.cls-44{stroke:url(#linear-gradient-21);}.cls-45{stroke:url(#linear-gradient-22);}.cls-46{clip-path:url(#clip-path-6);}.cls-47{stroke:url(#linear-gradient-23);}.cls-48{stroke:url(#linear-gradient-24);}.cls-49{fill:url(#linear-gradient-25);}.cls-50{clip-path:url(#clip-path-7);}.cls-51{fill:url(#linear-gradient-27);stroke:url(#linear-gradient-28);}.cls-52{fill:url(#linear-gradient-29);stroke:url(#linear-gradient-30);}.cls-53{clip-path:url(#clip-path-8);}.cls-54{stroke:url(#linear-gradient-31);}.cls-55{stroke:url(#linear-gradient-32);}.cls-56{clip-path:url(#clip-path-9);}.cls-57{stroke:url(#linear-gradient-33);}.cls-58{stroke:url(#linear-gradient-34);}.cls-59{clip-path:url(#clip-path-10);}.cls-60{stroke:url(#linear-gradient-35);}.cls-61{stroke:url(#linear-gradient-36);}.cls-62{clip-path:url(#clip-path-11);}.cls-63{stroke:url(#linear-gradient-37);}.cls-64{stroke:url(#linear-gradient-38);}.cls-65{clip-path:url(#clip-path-12);}.cls-66{stroke:url(#linear-gradient-39);}.cls-67{stroke:url(#linear-gradient-40);}.cls-68{clip-path:url(#clip-path-13);}.cls-69{stroke:url(#linear-gradient-42);}.cls-70{stroke:url(#linear-gradient-43);}.cls-71{fill:url(#linear-gradient-44);}.cls-72{clip-path:url(#clip-path-14);}.cls-73,.cls-74,.cls-76,.cls-77{stroke-width:6.12px;}.cls-73{stroke:url(#linear-gradient-46);}.cls-74{stroke:url(#linear-gradient-47);}.cls-75{clip-path:url(#clip-path-15);}.cls-76{stroke:url(#linear-gradient-48);}.cls-77{stroke:url(#linear-gradient-49);}.cls-78{clip-path:url(#clip-path-16);}.cls-79,.cls-96{fill:#091e42;}.cls-79{opacity:0.05;}.cls-80{fill:#ffab00;}.cls-81{fill:#b3bac5;}.cls-82{fill:#0049b0;opacity:0.6;}.cls-83{stroke-width:0;}.cls-84{stroke:url(#linear-gradient-50);}.cls-85{fill:#cea28b;}.cls-86{fill:#0052cc;}.cls-87,.cls-88,.cls-89,.cls-90{fill:#00b8d9;}.cls-87,.cls-88{stroke:#ffab00;}.cls-87{stroke-width:3.04px;}.cls-88,.cls-89{stroke-width:1.67px;}.cls-89,.cls-90{stroke:#ffc400;}.cls-90{stroke-width:3.89px;}.cls-91{clip-path:url(#clip-path-17);}.cls-92{fill:#253858;}.cls-93{fill:#8c715d;}.cls-94{fill:#344563;}.cls-95{fill:url(#linear-gradient-51);}.cls-97{fill:#6c798f;}.cls-99{clip-path:url(#clip-path-18);}.cls-100{stroke:#ffe380;stroke-width:0.71px;}.cls-101{fill:#ffe380;}.cls-102{fill:#172b4d;}.cls-103{fill:url(#linear-gradient-52);}.cls-104{fill:url(#linear-gradient-53);}</style><linearGradient id="linear-gradient" x1="174.91" y1="292.36" x2="179.92" y2="263.94" gradientUnits="userSpaceOnUse"><stop offset="0" stop-color="#f4f5f7" stop-opacity="0"/><stop offset="0.74" stop-color="#f4f5f7"/></linearGradient><linearGradient id="linear-gradient-2" x1="313.06" y1="299.04" x2="317.4" y2="274.45" gradientUnits="userSpaceOnUse"><stop offset="0" stop-color="#ebecf0" stop-opacity="0"/><stop offset="0.89" stop-color="#ebecf0"/></linearGradient><linearGradient id="linear-gradient-3" x1="303.03" y1="447.71" x2="289.1" y2="391.84" gradientUnits="userSpaceOnUse"><stop offset="0.15" stop-color="#dfe1e5" stop-opacity="0"/><stop offset="1" stop-color="#dfe1e5"/></linearGradient><linearGradient id="linear-gradient-4" x1="374.48" y1="297.11" x2="374.48" y2="79.5" gradientTransform="matrix(-1, 0, 0, 1, 679.81, 0)" gradientUnits="userSpaceOnUse"><stop offset="0" stop-color="#5e6c84" stop-opacity="0"/><stop offset="0.74" stop-color="#5e6c84"/></linearGradient><linearGradient id="linear-gradient-5" x1="274.29" y1="165.88" x2="274.29" y2="114.28" gradientTransform="matrix(1, 0, 0, 1, 0, 0)" xlink:href="#linear-gradient-4"/><linearGradient id="linear-gradient-6" x1="226.1" y1="289.46" x2="226.1" y2="194.3" gradientTransform="matrix(1, 0, 0, 1, 0, 0)" xlink:href="#linear-gradient-4"/><linearGradient id="linear-gradient-7" x1="49.26" y1="260.27" x2="49.26" y2="42.66" gradientTransform="matrix(1, 0, 0, 1, 0, 0)" xlink:href="#linear-gradient-4"/><linearGradient id="linear-gradient-8" x1="66" y1="278.38" x2="63.74" y2="267.75" gradientTransform="matrix(-1, 0, 0, 1, 161.71, 0)" gradientUnits="userSpaceOnUse"><stop offset="0" stop-color="#5e6c84" stop-opacity="0"/><stop offset="0.31" stop-color="#5e6c84" stop-opacity="0.38"/><stop offset="0.62" stop-color="#5e6c84" stop-opacity="0.72"/><stop offset="0.86" stop-color="#5e6c84" stop-opacity="0.92"/><stop offset="1" stop-color="#5e6c84"/></linearGradient><linearGradient id="linear-gradient-9" x1="95.71" y1="278.38" x2="97.97" y2="267.75" gradientTransform="matrix(-1, 0, 0, 1, 161.71, 0)" gradientUnits="userSpaceOnUse"><stop offset="0.03" stop-color="#42526e" stop-opacity="0"/><stop offset="0.08" stop-color="#42526e" stop-opacity="0.1"/><stop offset="0.3" stop-color="#42526e" stop-opacity="0.49"/><stop offset="0.49" stop-color="#42526e" stop-opacity="0.77"/><stop offset="0.66" stop-color="#42526e" stop-opacity="0.94"/><stop offset="0.78" stop-color="#42526e"/></linearGradient><linearGradient id="linear-gradient-10" x1="359.64" y1="185.87" x2="359.64" y2="111.43" gradientUnits="userSpaceOnUse"><stop offset="0.26" stop-color="#5e6c84"/><stop offset="1" stop-color="#5e6c84" stop-opacity="0"/></linearGradient><linearGradient id="linear-gradient-11" x1="-213.33" y1="292.38" x2="-215.59" y2="281.75" xlink:href="#linear-gradient-8"/><linearGradient id="linear-gradient-12" x1="-183.62" y1="292.38" x2="-181.36" y2="281.75" xlink:href="#linear-gradient-9"/><clipPath id="clip-path"><polygon id="_Clipping_Path_" data-name="&lt;Clipping Path&gt;" class="cls-8" points="201.81 113.78 201.81 97.29 153.02 86.46 153.02 102.95 201.81 113.78"/></clipPath><linearGradient id="linear-gradient-13" x1="188.66" y1="4580.94" x2="188.66" y2="4564.48" gradientTransform="matrix(1, 0, 0, -1, 0, 4676.46)" gradientUnits="userSpaceOnUse"><stop offset="0" stop-color="#dfe1e5" stop-opacity="0"/><stop offset="1" stop-color="#dfe1e5"/></linearGradient><linearGradient id="linear-gradient-14" x1="193.17" y1="4579.83" x2="193.17" y2="4563.37" xlink:href="#linear-gradient-13"/><clipPath id="clip-path-2"><polygon id="_Clipping_Path_2" data-name="&lt;Clipping Path&gt;" class="cls-1" points="201.81 178.87 201.81 162.38 153.02 151.55 153.02 168.04 201.81 178.87"/></clipPath><linearGradient id="linear-gradient-15" x1="188.66" y1="4515.85" x2="188.66" y2="4499.39" gradientTransform="matrix(1, 0, 0, -1, 0, 4676.46)" gradientUnits="userSpaceOnUse"><stop offset="0" stop-color="#dfe1e5" stop-opacity="0"/><stop offset="0.77" stop-color="#dce5e9" stop-opacity="0.77"/><stop offset="1" stop-color="#dfe1e5"/></linearGradient><linearGradient id="linear-gradient-16" x1="193.17" y1="4514.74" x2="193.17" y2="4498.28" xlink:href="#linear-gradient-15"/><clipPath id="clip-path-3"><polygon id="_Clipping_Path_3" data-name="&lt;Clipping Path&gt;" class="cls-1" points="201.81 200.4 201.81 183.91 153.02 173.08 153.02 189.57 201.81 200.4"/></clipPath><linearGradient id="linear-gradient-17" x1="188.66" y1="4494.32" x2="188.66" y2="4477.86" xlink:href="#linear-gradient-15"/><linearGradient id="linear-gradient-18" x1="193.17" y1="4493.21" x2="193.17" y2="4476.75" xlink:href="#linear-gradient-15"/><clipPath id="clip-path-4"><polygon id="_Clipping_Path_4" data-name="&lt;Clipping Path&gt;" class="cls-1" points="201.84 221.94 201.84 205.46 153.04 194.62 153.04 211.11 201.84 221.94"/></clipPath><linearGradient id="linear-gradient-19" x1="188.69" y1="4472.78" x2="188.69" y2="4456.32" xlink:href="#linear-gradient-15"/><linearGradient id="linear-gradient-20" x1="193.19" y1="4471.67" x2="193.19" y2="4455.21" xlink:href="#linear-gradient-15"/><clipPath id="clip-path-5"><polygon id="_Clipping_Path_5" data-name="&lt;Clipping Path&gt;" class="cls-1" points="201.81 243.46 201.81 226.97 153.02 216.13 153.02 232.62 201.81 243.46"/></clipPath><linearGradient id="linear-gradient-21" x1="188.66" y1="4451.26" x2="188.66" y2="4434.8" xlink:href="#linear-gradient-15"/><linearGradient id="linear-gradient-22" x1="193.17" y1="4450.16" x2="193.17" y2="4433.69" xlink:href="#linear-gradient-15"/><clipPath id="clip-path-6"><polygon id="_Clipping_Path_6" data-name="&lt;Clipping Path&gt;" class="cls-1" points="201.81 264.98 201.81 248.49 153.02 237.65 153.02 254.14 201.81 264.98"/></clipPath><linearGradient id="linear-gradient-23" x1="188.66" y1="4429.74" x2="188.66" y2="4413.28" xlink:href="#linear-gradient-15"/><linearGradient id="linear-gradient-24" x1="193.17" y1="4428.63" x2="193.17" y2="4412.17" xlink:href="#linear-gradient-15"/><linearGradient id="linear-gradient-25" x1="131.26" y1="300.53" x2="125.99" y2="263" gradientUnits="userSpaceOnUse"><stop offset="0.23" stop-color="#dfe1e5" stop-opacity="0"/><stop offset="0.28" stop-color="#dfe1e5" stop-opacity="0.11"/><stop offset="0.48" stop-color="#dfe1e5" stop-opacity="0.49"/><stop offset="0.64" stop-color="#dfe1e5" stop-opacity="0.76"/><stop offset="0.76" stop-color="#dfe1e5" stop-opacity="0.93"/><stop offset="0.82" stop-color="#dfe1e5"/></linearGradient><clipPath id="clip-path-7"><polygon id="_Clipping_Path_7" data-name="&lt;Clipping Path&gt;" class="cls-2" points="201.81 297.11 201.81 270.03 153.02 259.2 153.02 286.27 201.81 297.11"/></clipPath><linearGradient id="linear-gradient-27" x1="188.66" y1="282.37" x2="188.66" y2="265.91" gradientUnits="userSpaceOnUse"><stop offset="0.48" stop-color="#b3f5ff" stop-opacity="0"/><stop offset="1" stop-color="#b3f5ff"/></linearGradient><linearGradient id="linear-gradient-28" x1="188.66" y1="4410.56" x2="188.66" y2="4394.09" gradientTransform="matrix(1, 0, 0, -1, 0, 4676.46)" gradientUnits="userSpaceOnUse"><stop offset="0.07" stop-color="#d1f2f8"/><stop offset="0.74" stop-color="#d1f2f8" stop-opacity="0.03"/><stop offset="1" stop-color="#d1f2f8" stop-opacity="0"/></linearGradient><linearGradient id="linear-gradient-29" x1="193.17" y1="283.48" x2="193.17" y2="267.02" xlink:href="#linear-gradient-27"/><linearGradient id="linear-gradient-30" x1="193.17" y1="4409.45" x2="193.17" y2="4392.98" xlink:href="#linear-gradient-28"/><clipPath id="clip-path-8"><polygon id="_Clipping_Path_8" data-name="&lt;Clipping Path&gt;" class="cls-1" points="336.48 201 336.48 186.74 294.26 177.36 294.26 191.63 336.48 201"/></clipPath><linearGradient id="linear-gradient-31" x1="325.1" y1="4491.26" x2="325.1" y2="4477.01" xlink:href="#linear-gradient-15"/><linearGradient id="linear-gradient-32" x1="329" y1="4490.3" x2="329" y2="4476.05" xlink:href="#linear-gradient-15"/><clipPath id="clip-path-9"><polygon id="_Clipping_Path_9" data-name="&lt;Clipping Path&gt;" class="cls-1" points="336.46 219.62 336.46 205.35 294.24 195.98 294.24 210.25 336.46 219.62"/></clipPath><linearGradient id="linear-gradient-33" x1="325.08" y1="4472.64" x2="325.08" y2="4458.4" xlink:href="#linear-gradient-15"/><linearGradient id="linear-gradient-34" x1="328.98" y1="4471.68" x2="328.98" y2="4457.44" xlink:href="#linear-gradient-15"/><clipPath id="clip-path-10"><polygon id="_Clipping_Path_10" data-name="&lt;Clipping Path&gt;" class="cls-1" points="336.34 238.07 336.34 223.8 294.12 214.43 294.12 228.69 336.34 238.07"/></clipPath><linearGradient id="linear-gradient-35" x1="324.96" y1="4454.19" x2="324.96" y2="4439.95" xlink:href="#linear-gradient-15"/><linearGradient id="linear-gradient-36" x1="328.86" y1="4453.23" x2="328.86" y2="4438.99" xlink:href="#linear-gradient-15"/><clipPath id="clip-path-11"><polygon id="_Clipping_Path_11" data-name="&lt;Clipping Path&gt;" class="cls-1" points="336.34 256.7 336.34 242.43 294.12 233.05 294.12 247.32 336.34 256.7"/></clipPath><linearGradient id="linear-gradient-37" x1="324.96" y1="4435.57" x2="324.96" y2="4421.32" xlink:href="#linear-gradient-15"/><linearGradient id="linear-gradient-38" x1="328.86" y1="4434.61" x2="328.86" y2="4420.36" xlink:href="#linear-gradient-15"/><clipPath id="clip-path-12"><polygon id="_Clipping_Path_12" data-name="&lt;Clipping Path&gt;" class="cls-1" points="336.34 275.33 336.34 261.06 294.12 251.69 294.12 265.95 336.34 275.33"/></clipPath><linearGradient id="linear-gradient-39" x1="324.96" y1="4416.93" x2="324.96" y2="4402.69" xlink:href="#linear-gradient-15"/><linearGradient id="linear-gradient-40" x1="328.86" y1="4415.97" x2="328.86" y2="4401.73" xlink:href="#linear-gradient-15"/><clipPath id="clip-path-13"><polygon id="_Clipping_Path_13" data-name="&lt;Clipping Path&gt;" class="cls-3" points="336.34 303.14 336.34 279.72 294.12 270.35 294.12 293.77 336.34 303.14"/></clipPath><linearGradient id="linear-gradient-42" x1="324.96" y1="4398.27" x2="324.96" y2="4384.03" xlink:href="#linear-gradient-15"/><linearGradient id="linear-gradient-43" x1="328.86" y1="4397.31" x2="328.86" y2="4383.07" xlink:href="#linear-gradient-15"/><linearGradient id="linear-gradient-44" x1="127.4" y1="446.52" x2="139.75" y2="393.03" gradientUnits="userSpaceOnUse"><stop offset="0" stop-color="#c1c7d0" stop-opacity="0"/><stop offset="0.08" stop-color="#c1c7d0" stop-opacity="0.13"/><stop offset="0.32" stop-color="#c1c7d0" stop-opacity="0.5"/><stop offset="0.51" stop-color="#c1c7d0" stop-opacity="0.77"/><stop offset="0.66" stop-color="#c1c7d0" stop-opacity="0.94"/><stop offset="0.74" stop-color="#c1c7d0"/></linearGradient><clipPath id="clip-path-14"><polygon id="_Clipping_Path_14" data-name="&lt;Clipping Path&gt;" class="cls-4" points="377.31 374.28 377.31 429.19 214.82 465.27 214.82 410.36 377.31 374.28"/></clipPath><linearGradient id="linear-gradient-46" x1="333.51" y1="434.11" x2="333.51" y2="379.29" gradientTransform="matrix(1, 0, 0, 1, 0, 0)" xlink:href="#linear-gradient-13"/><linearGradient id="linear-gradient-47" x1="348.52" y1="430.42" x2="348.52" y2="375.6" gradientTransform="matrix(1, 0, 0, 1, 0, 0)" xlink:href="#linear-gradient-13"/><clipPath id="clip-path-15"><polygon id="_Clipping_Path_15" data-name="&lt;Clipping Path&gt;" class="cls-5" points="377.31 302.59 377.31 357.5 214.82 393.58 214.82 338.68 377.31 302.59"/></clipPath><linearGradient id="linear-gradient-48" x1="333.51" y1="363.4" x2="333.51" y2="308.58" gradientTransform="matrix(1, 0, 0, 1, 0, 0)" xlink:href="#linear-gradient-13"/><linearGradient id="linear-gradient-49" x1="348.52" y1="359.71" x2="348.52" y2="304.89" gradientTransform="matrix(1, 0, 0, 1, 0, 0)" xlink:href="#linear-gradient-13"/><clipPath id="clip-path-16"><polygon id="_Clipping_Path_16" data-name="&lt;Clipping Path&gt;" class="cls-1" points="214.82 266.51 52.33 302.59 214.82 338.68 377.31 302.59 214.82 266.51"/></clipPath><linearGradient id="linear-gradient-50" x1="152.04" y1="65.3" x2="152.04" gradientUnits="userSpaceOnUse"><stop offset="0" stop-color="#dfe1e5"/><stop offset="0.1" stop-color="#dfe1e5" stop-opacity="0.98"/><stop offset="0.24" stop-color="#dfe1e5" stop-opacity="0.9"/><stop offset="0.38" stop-color="#dfe1e5" stop-opacity="0.79"/><stop offset="0.55" stop-color="#dfe1e5" stop-opacity="0.62"/><stop offset="0.72" stop-color="#dfe1e5" stop-opacity="0.42"/><stop offset="0.9" stop-color="#dfe1e5" stop-opacity="0.16"/><stop offset="1" stop-color="#dfe1e5" stop-opacity="0"/></linearGradient><clipPath id="clip-path-17"><circle id="_Ellipse_" data-name="&lt;Ellipse&gt;" class="cls-6" cx="215.16" cy="216.99" r="0.89"/></clipPath><linearGradient id="linear-gradient-51" x1="3868.07" y1="221.2" x2="3873.9" y2="221.2" gradientTransform="translate(-3619.52)" gradientUnits="userSpaceOnUse"><stop offset="0" stop-color="#72594b"/><stop offset="0.56" stop-color="#8c715d"/></linearGradient><clipPath id="clip-path-18"><path id="_Clipping_Path_17" data-name="&lt;Clipping Path&gt;" class="cls-7" d="M245.32,225q.15-1.69.37-3.3a8.31,8.31,0,0,1,3.66-1,9.25,9.25,0,0,0-.3,3.41,9.4,9.4,0,0,0,1.79,4.6,12.44,12.44,0,0,0,2.64-4.86,12.27,12.27,0,0,0,.44-3.49c.85.44,1.73.93,2.62,1.49l.71.46a3.88,3.88,0,0,1,1.24,1.21c.67,1.06.6,2.22.29,4.4-.13.91-.17.82-.26,1.62a16.1,16.1,0,0,0,0,3.87,23.11,23.11,0,0,1-.82,7.53,10,10,0,0,1-2.93.77,10.12,10.12,0,0,1-4.4-.52,5.3,5.3,0,0,1-4.92-.47A78.79,78.79,0,0,1,245.32,225Z"/></clipPath><linearGradient id="linear-gradient-52" x1="192.12" y1="231.85" x2="205.52" y2="231.85" gradientUnits="userSpaceOnUse"><stop offset="0.3" stop-color="#0052cc"/><stop offset="0.63" stop-color="#0065ff"/></linearGradient><linearGradient id="linear-gradient-53" x1="194.37" y1="226.57" x2="216.68" y2="226.57" gradientUnits="userSpaceOnUse"><stop offset="0" stop-color="#0052cc"/><stop offset="1" stop-color="#0065ff"/></linearGradient></defs><title>Data Center</title><g class="cls-9"><g id="Layer_2" data-name="Layer 2"><g id="Layer_1-2" data-name="Layer 1"><g class="cls-10"><path class="cls-11" d="M301.07,114.28h-45l4.39-6.85h64l.78-27.93h7.14l.78,27.93h14.56a6.85,6.85,0,0,1,6.85,6.85h-9.77a3,3,0,0,1,3,3v4.31a3,3,0,0,1-3,3h-4.31a3,3,0,0,1-3-3v-4.31a3,3,0,0,1,3-3h0a6.94,6.94,0,0,0-6.94,7.14l4.91,175.69H319.19l5-179.25a3.49,3.49,0,0,0-3.49-3.58H301.07Z"/><line class="cls-12" x1="274.29" y1="114.28" x2="274.29" y2="165.88"/><line class="cls-13" x1="332.08" y1="86.39" x2="348.22" y2="107.9"/><line class="cls-13" x1="327.69" y1="84.95" x2="274.29" y2="108.06"/></g><polygon class="cls-14" points="226.1 222.95 226.1 194.3 198.23 194.3 198.23 276.16 226.1 276.16 226.1 289.46 253.98 289.46 253.98 222.95 226.1 222.95"/><g class="cls-10"><line class="cls-15" x1="49.83" y1="178.91" x2="80.31" y2="151.87"/><line class="cls-15" x1="80.31" y1="77.43" x2="80.31" y2="151.87"/><line class="cls-15" x1="80.31" y1="151.87" x2="112.82" y2="178.43"/><path class="cls-16" d="M53.52,77.43h45l-4.39-6.85h-64l-.78-27.93H22.19l-.78,27.93H6.85A6.85,6.85,0,0,0,0,77.43H9.77a3,3,0,0,0-3,3v4.31a3,3,0,0,0,3,3h4.31a3,3,0,0,0,3-3V80.47a3,3,0,0,0-3-3h0A6.94,6.94,0,0,1,21,84.57L16.11,260.27H35.4L30.4,81a3.49,3.49,0,0,1,3.49-3.58H53.52Z"/><line class="cls-13" x1="22.52" y1="49.55" x2="6.38" y2="71.06"/><line class="cls-13" x1="26.9" y1="48.1" x2="80.31" y2="71.21"/><polygon class="cls-17" points="112.82 282.02 112.82 271.22 80.85 264.12 80.85 274.92 112.82 282.02"/><polygon id="_Clipping_Path_18" data-name="&lt;Clipping Path&gt;" class="cls-18" points="48.89 282.02 48.89 271.22 80.85 264.12 80.85 274.92 48.89 282.02"/><polygon class="cls-19" points="112.82 189.24 112.82 178.43 80.85 171.34 80.85 182.14 112.82 189.24"/><polygon id="_Clipping_Path_19" data-name="&lt;Clipping Path&gt;" class="cls-20" points="48.89 189.24 48.89 178.43 80.85 171.34 80.85 182.14 48.89 189.24"/><polygon class="cls-20" points="80.85 196.34 112.82 189.24 80.85 182.14 48.89 189.24 80.85 196.34"/><polygon class="cls-19" points="112.82 203.42 112.82 192.61 80.85 185.52 80.85 196.32 112.82 203.42"/><polygon id="_Clipping_Path_20" data-name="&lt;Clipping Path&gt;" class="cls-20" points="48.89 203.42 48.89 192.61 80.85 185.52 80.85 196.32 48.89 203.42"/><polygon class="cls-20" points="80.85 211.73 111.27 204.98 80.85 198.22 50.44 204.98 80.85 211.73"/><polygon class="cls-20" points="80.85 184.18 80.85 185.46 112.82 192.56 111.38 190.84 80.85 184.18"/><polygon class="cls-20" points="111.38 190.84 112.82 189.26 80.85 182.16 80.85 184.18 111.38 190.84"/><polygon class="cls-19" points="112.82 253.65 112.82 242.84 80.85 235.75 80.85 246.55 112.82 253.65"/><polygon id="_Clipping_Path_21" data-name="&lt;Clipping Path&gt;" class="cls-20" points="48.89 253.65 48.89 242.84 80.85 235.75 80.85 246.55 48.89 253.65"/><polygon class="cls-20" points="80.85 260.75 112.82 253.65 80.85 246.55 48.89 253.65 80.85 260.75"/><polygon class="cls-20" points="111.38 205.03 112.82 203.44 80.85 196.34 80.85 198.36 111.38 205.03"/><polygon class="cls-20" points="50.34 205.01 48.89 203.43 80.86 196.33 80.86 198.35 50.34 205.01"/><polygon class="cls-19" points="112.82 267.83 112.82 257.03 80.85 249.93 80.85 260.73 112.82 267.83"/><polygon id="_Clipping_Path_22" data-name="&lt;Clipping Path&gt;" class="cls-20" points="48.89 267.83 48.89 257.03 80.85 249.93 80.85 260.73 48.89 267.83"/><polygon class="cls-20" points="80.85 248.59 80.85 249.87 112.82 256.97 111.38 255.26 80.85 248.59"/><polygon class="cls-20" points="111.38 255.26 112.82 253.67 80.85 246.57 80.85 248.59 111.38 255.26"/><polygon class="cls-20" points="80.86 248.58 80.86 249.86 48.89 256.96 50.34 255.24 80.86 248.58"/><polygon class="cls-20" points="50.34 255.24 48.89 253.66 80.86 246.56 80.86 248.58 50.34 255.24"/><polygon class="cls-20" points="80.85 262.78 80.85 264.06 112.82 271.16 111.38 269.44 80.85 262.78"/><polygon class="cls-20" points="111.38 269.44 112.82 267.86 80.85 260.76 80.85 262.78 111.38 269.44"/><polygon class="cls-20" points="80.86 262.76 80.86 264.05 48.89 271.14 50.34 269.43 80.86 262.76"/><polygon class="cls-20" points="50.34 269.43 48.89 267.84 80.86 260.75 80.86 262.76 50.34 269.43"/><line class="cls-15" x1="329.16" y1="212.91" x2="359.64" y2="185.87"/><line class="cls-21" x1="359.64" y1="111.43" x2="359.64" y2="185.87"/><line class="cls-15" x1="359.64" y1="185.87" x2="392.15" y2="212.43"/><polygon class="cls-22" points="392.15 296.02 392.15 285.22 360.18 278.12 360.18 288.92 392.15 296.02"/><polygon id="_Clipping_Path_23" data-name="&lt;Clipping Path&gt;" class="cls-23" points="328.21 296.02 328.21 285.22 360.18 278.12 360.18 288.92 328.21 296.02"/><polygon class="cls-19" points="392.15 223.24 392.15 212.43 360.18 205.34 360.18 216.14 392.15 223.24"/><polygon id="_Clipping_Path_24" data-name="&lt;Clipping Path&gt;" class="cls-20" points="328.21 223.24 328.21 212.43 360.18 205.34 360.18 216.14 328.21 223.24"/><polygon class="cls-20" points="360.18 230.34 392.15 223.24 360.18 216.14 328.21 223.24 360.18 230.34"/><polygon class="cls-19" points="392.15 267.65 392.15 256.84 360.18 249.75 360.18 260.55 392.15 267.65"/><polygon id="_Clipping_Path_25" data-name="&lt;Clipping Path&gt;" class="cls-20" points="328.21 267.65 328.21 256.84 360.18 249.75 360.18 260.55 328.21 267.65"/><polygon class="cls-20" points="360.18 274.75 392.15 267.65 360.18 260.55 328.21 267.65 360.18 274.75"/><polygon class="cls-19" points="392.15 281.83 392.15 271.03 360.18 263.93 360.18 274.73 392.15 281.83"/><polygon id="_Clipping_Path_26" data-name="&lt;Clipping Path&gt;" class="cls-20" points="328.21 281.83 328.21 271.03 360.18 263.93 360.18 274.73 328.21 281.83"/><polygon class="cls-20" points="360.18 262.59 360.18 263.87 392.15 270.97 390.7 269.26 360.18 262.59"/><polygon class="cls-20" points="390.7 269.26 392.15 267.67 360.18 260.57 360.18 262.59 390.7 269.26"/><polygon class="cls-20" points="360.19 262.58 360.19 263.86 328.22 270.96 329.66 269.24 360.19 262.58"/><polygon class="cls-20" points="329.66 269.24 328.22 267.66 360.19 260.56 360.19 262.58 329.66 269.24"/><polygon class="cls-20" points="360.18 276.78 360.18 278.06 392.15 285.16 390.7 283.44 360.18 276.78"/><polygon class="cls-20" points="390.7 283.44 392.15 281.86 360.18 274.76 360.18 276.78 390.7 283.44"/><polygon class="cls-20" points="360.19 276.76 360.19 278.05 328.22 285.14 329.66 283.43 360.19 276.76"/><polygon class="cls-20" points="329.66 283.43 328.22 281.84 360.19 274.75 360.19 276.76 329.66 283.43"/></g><line class="cls-24" x1="105.72" y1="98.17" x2="152.04" y2="64.2"/><line class="cls-24" x1="152.04" y1="64.2" x2="199.93" y2="99.11"/><polygon class="cls-25" points="104.22 113.78 104.22 97.29 153.02 86.46 153.02 102.95 104.22 113.78"/><polygon id="_Clipping_Path_27" data-name="&lt;Clipping Path&gt;" class="cls-8" points="201.81 113.78 201.81 97.29 153.02 86.46 153.02 102.95 201.81 113.78"/><g class="cls-26"><line class="cls-27" x1="188.66" y1="111.98" x2="188.66" y2="95.52"/><line class="cls-28" x1="193.17" y1="113.09" x2="193.17" y2="96.63"/></g><polygon class="cls-29" points="153.01 126.55 106.42 116.2 153.01 105.85 199.6 116.2 153.01 126.55"/><path class="cls-30" d="M161.43,96.26a2.39,2.39,0,0,0-1.82-2.38,1.62,1.62,0,0,0-2.05,1.52,2.39,2.39,0,0,0,1.82,2.38A1.62,1.62,0,0,0,161.43,96.26Z"/><path class="cls-30" d="M168,97.71a2.39,2.39,0,0,0-1.82-2.38,1.62,1.62,0,0,0-2.05,1.52,2.39,2.39,0,0,0,1.82,2.38A1.62,1.62,0,0,0,168,97.71Z"/><polygon class="cls-25" points="104.22 178.87 104.22 162.38 153.02 151.55 153.02 168.04 104.22 178.87"/><polygon id="_Clipping_Path_28" data-name="&lt;Clipping Path&gt;" class="cls-1" points="201.81 178.87 201.81 162.38 153.02 151.55 153.02 168.04 201.81 178.87"/><g class="cls-31"><line class="cls-32" x1="188.66" y1="177.07" x2="188.66" y2="160.61"/><line class="cls-33" x1="193.17" y1="178.18" x2="193.17" y2="161.72"/></g><polygon class="cls-34" points="153.02 189.71 104.22 178.87 153.02 168.04 201.81 178.87 153.02 189.71"/><path class="cls-30" d="M161.43,161.35a2.39,2.39,0,0,0-1.82-2.38,1.62,1.62,0,0,0-2.05,1.52,2.39,2.39,0,0,0,1.82,2.38A1.62,1.62,0,0,0,161.43,161.35Z"/><path class="cls-30" d="M168,162.8a2.39,2.39,0,0,0-1.82-2.38,1.62,1.62,0,0,0-2.05,1.52,2.39,2.39,0,0,0,1.82,2.38A1.62,1.62,0,0,0,168,162.8Z"/><polygon class="cls-1" points="153.02 149.5 153.02 151.46 104.22 162.29 106.43 159.68 153.02 149.5"/><polygon class="cls-35" points="106.43 116.2 104.22 113.78 153.02 102.95 153.02 106.03 106.43 116.2"/><polygon class="cls-8" points="153.01 149.48 153.01 151.44 201.81 162.27 199.6 159.65 153.01 149.48"/><polygon class="cls-25" points="199.61 116.2 201.81 113.78 153.02 102.95 153.02 106.03 199.61 116.2"/><polygon class="cls-25" points="104.22 200.4 104.22 183.91 153.02 173.08 153.02 189.57 104.22 200.4"/><polygon id="_Clipping_Path_29" data-name="&lt;Clipping Path&gt;" class="cls-1" points="201.81 200.4 201.81 183.91 153.02 173.08 153.02 189.57 201.81 200.4"/><g class="cls-36"><line class="cls-37" x1="188.66" y1="198.6" x2="188.66" y2="182.14"/><line class="cls-38" x1="193.17" y1="199.71" x2="193.17" y2="183.25"/></g><polygon class="cls-34" points="153.02 211.24 104.22 200.4 153.02 189.57 201.81 200.4 153.02 211.24"/><path class="cls-30" d="M161.43,182.88a2.39,2.39,0,0,0-1.82-2.38,1.62,1.62,0,0,0-2.05,1.52,2.39,2.39,0,0,0,1.82,2.38A1.62,1.62,0,0,0,161.43,182.88Z"/><path class="cls-30" d="M168,184.33a2.39,2.39,0,0,0-1.82-2.38,1.62,1.62,0,0,0-2.05,1.52,2.39,2.39,0,0,0,1.82,2.38A1.62,1.62,0,0,0,168,184.33Z"/><polygon class="cls-1" points="153.02 171.12 153.02 173.07 104.22 183.91 106.43 181.29 153.02 171.12"/><polygon class="cls-29" points="106.43 181.29 104.22 178.87 153.02 168.04 153.02 171.12 106.43 181.29"/><polygon class="cls-8" points="153.02 171.12 153.02 173.07 201.81 183.91 199.61 181.29 153.02 171.12"/><polygon class="cls-25" points="199.61 181.29 201.81 178.87 153.02 168.04 153.02 171.12 199.61 181.29"/><polygon class="cls-25" points="104.25 221.94 104.25 205.46 153.04 194.62 153.04 211.11 104.25 221.94"/><polygon id="_Clipping_Path_30" data-name="&lt;Clipping Path&gt;" class="cls-1" points="201.84 221.94 201.84 205.46 153.04 194.62 153.04 211.11 201.84 221.94"/><g class="cls-39"><line class="cls-40" x1="188.69" y1="220.15" x2="188.69" y2="203.68"/><line class="cls-41" x1="193.19" y1="221.25" x2="193.19" y2="204.79"/></g><polygon class="cls-34" points="153.04 232.78 104.25 221.94 153.04 211.11 201.84 221.94 153.04 232.78"/><path class="cls-30" d="M161.45,204.42a2.39,2.39,0,0,0-1.82-2.38,1.62,1.62,0,0,0-2.05,1.52,2.39,2.39,0,0,0,1.82,2.38A1.62,1.62,0,0,0,161.45,204.42Z"/><path class="cls-42" d="M168,205.87a2.39,2.39,0,0,0-1.82-2.38,1.62,1.62,0,0,0-2.05,1.52,2.39,2.39,0,0,0,1.82,2.38A1.62,1.62,0,0,0,168,205.87Z"/><polygon class="cls-1" points="153.02 192.65 153.02 194.6 104.22 205.44 106.43 202.82 153.02 192.65"/><polygon class="cls-29" points="106.43 202.82 104.22 200.4 153.02 189.57 153.02 192.65 106.43 202.82"/><polygon class="cls-8" points="153.02 192.65 153.02 194.6 201.81 205.44 199.61 202.82 153.02 192.65"/><polygon class="cls-25" points="199.61 202.82 201.81 200.4 153.02 189.57 153.02 192.65 199.61 202.82"/><polygon class="cls-25" points="104.22 243.46 104.22 226.97 153.02 216.13 153.02 232.62 104.22 243.46"/><polygon id="_Clipping_Path_31" data-name="&lt;Clipping Path&gt;" class="cls-1" points="201.81 243.46 201.81 226.97 153.02 216.13 153.02 232.62 201.81 243.46"/><g class="cls-43"><line class="cls-44" x1="188.66" y1="241.66" x2="188.66" y2="225.2"/><line class="cls-45" x1="193.17" y1="242.77" x2="193.17" y2="226.31"/></g><polygon class="cls-34" points="153.02 254.29 104.22 243.46 153.02 232.62 201.81 243.46 153.02 254.29"/><path class="cls-30" d="M161.43,225.94a2.39,2.39,0,0,0-1.82-2.38,1.62,1.62,0,0,0-2.05,1.52,2.39,2.39,0,0,0,1.82,2.38A1.62,1.62,0,0,0,161.43,225.94Z"/><path class="cls-30" d="M168,227.38a2.39,2.39,0,0,0-1.82-2.38,1.62,1.62,0,0,0-2.05,1.52,2.39,2.39,0,0,0,1.82,2.38A1.62,1.62,0,0,0,168,227.38Z"/><polygon class="cls-1" points="153.02 214.17 153.02 216.13 104.22 226.97 106.42 224.35 153.02 214.17"/><polygon class="cls-29" points="106.42 224.35 104.22 221.93 153.02 211.09 153.02 214.17 106.42 224.35"/><polygon class="cls-8" points="153.02 214.17 153.02 216.13 201.81 226.97 199.61 224.35 153.02 214.17"/><polygon class="cls-25" points="199.61 224.35 201.81 221.93 153.02 211.09 153.02 214.17 199.61 224.35"/><polygon class="cls-25" points="104.22 264.98 104.22 248.49 153.02 237.65 153.02 254.14 104.22 264.98"/><polygon id="_Clipping_Path_32" data-name="&lt;Clipping Path&gt;" class="cls-1" points="201.81 264.98 201.81 248.49 153.02 237.65 153.02 254.14 201.81 264.98"/><g class="cls-46"><line class="cls-47" x1="188.66" y1="263.18" x2="188.66" y2="246.72"/><line class="cls-48" x1="193.17" y1="264.29" x2="193.17" y2="247.83"/></g><path class="cls-30" d="M161.43,247.46a2.39,2.39,0,0,0-1.82-2.38,1.62,1.62,0,0,0-2.05,1.52,2.39,2.39,0,0,0,1.82,2.38A1.62,1.62,0,0,0,161.43,247.46Z"/><path class="cls-42" d="M168,248.91a2.39,2.39,0,0,0-1.82-2.38A1.62,1.62,0,0,0,164.1,248a2.39,2.39,0,0,0,1.82,2.38A1.62,1.62,0,0,0,168,248.91Z"/><polygon class="cls-1" points="153.02 235.71 153.02 237.66 104.22 248.5 106.43 245.88 153.02 235.71"/><polygon class="cls-29" points="106.43 245.88 104.22 243.46 153.02 232.62 153.02 235.71 106.43 245.88"/><polygon class="cls-8" points="153.01 235.71 153.01 237.66 201.81 248.5 199.6 245.88 153.01 235.71"/><polygon class="cls-25" points="199.6 245.88 201.81 243.46 153.01 232.62 153.01 235.71 199.6 245.88"/><polygon class="cls-49" points="104.22 304.33 104.22 270.03 153.02 259.2 153.02 293.49 104.22 304.33"/><polygon id="_Clipping_Path_33" data-name="&lt;Clipping Path&gt;" class="cls-2" points="201.81 297.11 201.81 270.03 153.02 259.2 153.02 286.27 201.81 297.11"/><g class="cls-50"><line class="cls-51" x1="188.66" y1="282.37" x2="188.66" y2="265.91"/><line class="cls-52" x1="193.17" y1="283.48" x2="193.17" y2="267.02"/></g><polygon class="cls-1" points="153.02 257.23 153.02 259.19 104.22 270.02 106.43 267.4 153.02 257.23"/><polygon class="cls-29" points="106.43 267.4 104.22 264.98 153.02 254.15 153.02 257.23 106.43 267.4"/><polygon class="cls-8" points="153.02 257.23 153.02 259.19 201.81 270.02 199.61 267.4 153.02 257.23"/><polygon class="cls-25" points="199.61 267.4 201.81 264.98 153.02 254.15 153.02 257.23 199.61 267.4"/><polygon class="cls-5" points="252.04 201 252.04 186.74 294.26 177.36 294.26 191.63 252.04 201"/><polygon id="_Clipping_Path_34" data-name="&lt;Clipping Path&gt;" class="cls-1" points="336.48 201 336.48 186.74 294.26 177.36 294.26 191.63 336.48 201"/><g class="cls-53"><line class="cls-54" x1="325.1" y1="199.45" x2="325.1" y2="185.2"/><line class="cls-55" x1="329" y1="200.41" x2="329" y2="186.16"/></g><polygon class="cls-1" points="294.26 210.38 252.04 201 294.26 191.63 336.48 201 294.26 210.38"/><path class="cls-42" d="M301.54,185.84a2.07,2.07,0,0,0-1.58-2.06,1.4,1.4,0,0,0-1.77,1.31,2.07,2.07,0,0,0,1.58,2.06A1.4,1.4,0,0,0,301.54,185.84Z"/><path class="cls-42" d="M307.2,187.1a2.07,2.07,0,0,0-1.58-2.06,1.4,1.4,0,0,0-1.77,1.31,2.07,2.07,0,0,0,1.58,2.06A1.4,1.4,0,0,0,307.2,187.1Z"/><polygon class="cls-5" points="252.02 219.62 252.02 205.35 294.24 195.98 294.24 210.25 252.02 219.62"/><polygon id="_Clipping_Path_35" data-name="&lt;Clipping Path&gt;" class="cls-1" points="336.46 219.62 336.46 205.35 294.24 195.98 294.24 210.25 336.46 219.62"/><g class="cls-56"><line class="cls-57" x1="325.08" y1="218.07" x2="325.08" y2="203.82"/><line class="cls-58" x1="328.98" y1="219.03" x2="328.98" y2="204.78"/></g><polygon class="cls-1" points="294.24 229 252.02 219.62 294.24 210.25 336.46 219.62 294.24 229"/><path class="cls-30" d="M301.52,204.46a2.07,2.07,0,0,0-1.58-2.06,1.4,1.4,0,0,0-1.77,1.31,2.07,2.07,0,0,0,1.58,2.06A1.4,1.4,0,0,0,301.52,204.46Z"/><path class="cls-30" d="M307.18,205.72a2.07,2.07,0,0,0-1.58-2.06,1.4,1.4,0,0,0-1.77,1.31,2.07,2.07,0,0,0,1.58,2.06A1.4,1.4,0,0,0,307.18,205.72Z"/><polygon class="cls-25" points="294.26 194.3 294.26 195.99 252.04 205.37 253.94 203.1 294.26 194.3"/><polygon class="cls-5" points="253.94 203.1 252.04 201.01 294.26 191.63 294.26 194.3 253.94 203.1"/><polygon class="cls-25" points="294.26 194.3 294.26 195.99 336.48 205.37 334.57 203.1 294.26 194.3"/><polygon class="cls-5" points="334.57 203.1 336.48 201.01 294.26 191.63 294.26 194.3 334.57 203.1"/><polygon class="cls-5" points="251.9 238.07 251.9 223.8 294.12 214.43 294.12 228.69 251.9 238.07"/><polygon id="_Clipping_Path_36" data-name="&lt;Clipping Path&gt;" class="cls-1" points="336.34 238.07 336.34 223.8 294.12 214.43 294.12 228.69 336.34 238.07"/><g class="cls-59"><line class="cls-60" x1="324.96" y1="236.51" x2="324.96" y2="222.27"/><line class="cls-61" x1="328.86" y1="237.47" x2="328.86" y2="223.23"/></g><polygon class="cls-1" points="294.12 247.45 251.9 238.07 294.12 228.69 336.34 238.07 294.12 247.45"/><path class="cls-30" d="M301.39,222.91a2.07,2.07,0,0,0-1.58-2.06,1.4,1.4,0,0,0-1.77,1.31,2.07,2.07,0,0,0,1.58,2.06A1.4,1.4,0,0,0,301.39,222.91Z"/><path class="cls-30" d="M307.06,224.16a2.07,2.07,0,0,0-1.58-2.06,1.4,1.4,0,0,0-1.77,1.31,2.07,2.07,0,0,0,1.58,2.06A1.4,1.4,0,0,0,307.06,224.16Z"/><polygon class="cls-25" points="294.11 212.74 294.11 214.43 251.89 223.81 253.8 221.54 294.11 212.74"/><polygon class="cls-5" points="253.8 221.54 251.89 219.45 294.11 210.07 294.11 212.74 253.8 221.54"/><polygon class="cls-25" points="294.11 212.74 294.11 214.43 336.33 223.81 334.42 221.54 294.11 212.74"/><polygon class="cls-5" points="334.42 221.54 336.33 219.45 294.11 210.07 294.11 212.74 334.42 221.54"/><polygon class="cls-5" points="251.9 256.7 251.9 242.43 294.12 233.05 294.12 247.32 251.9 256.7"/><polygon id="_Clipping_Path_37" data-name="&lt;Clipping Path&gt;" class="cls-1" points="336.34 256.7 336.34 242.43 294.12 233.05 294.12 247.32 336.34 256.7"/><g class="cls-62"><line class="cls-63" x1="324.96" y1="255.14" x2="324.96" y2="240.9"/><line class="cls-64" x1="328.86" y1="256.1" x2="328.86" y2="241.86"/></g><polygon class="cls-1" points="294.12 266.07 251.9 256.7 294.12 247.32 336.34 256.7 294.12 266.07"/><path class="cls-30" d="M301.39,241.54a2.07,2.07,0,0,0-1.58-2.06,1.4,1.4,0,0,0-1.77,1.31,2.07,2.07,0,0,0,1.58,2.06A1.4,1.4,0,0,0,301.39,241.54Z"/><path class="cls-42" d="M307.06,242.79a2.07,2.07,0,0,0-1.58-2.06A1.4,1.4,0,0,0,303.7,242a2.07,2.07,0,0,0,1.58,2.06A1.4,1.4,0,0,0,307.06,242.79Z"/><polygon class="cls-25" points="294.12 231.36 294.12 233.05 251.9 242.43 253.81 240.16 294.12 231.36"/><polygon class="cls-5" points="253.81 240.16 251.9 238.07 294.12 228.69 294.12 231.36 253.81 240.16"/><polygon class="cls-25" points="294.12 231.36 294.12 233.05 336.34 242.43 334.43 240.16 294.12 231.36"/><polygon class="cls-5" points="334.43 240.16 336.34 238.07 294.12 228.69 294.12 231.36 334.43 240.16"/><polygon class="cls-5" points="251.9 275.33 251.9 261.06 294.12 251.69 294.12 265.95 251.9 275.33"/><polygon id="_Clipping_Path_38" data-name="&lt;Clipping Path&gt;" class="cls-1" points="336.34 275.33 336.34 261.06 294.12 251.69 294.12 265.95 336.34 275.33"/><g class="cls-65"><line class="cls-66" x1="324.96" y1="273.77" x2="324.96" y2="259.53"/><line class="cls-67" x1="328.86" y1="274.73" x2="328.86" y2="260.49"/></g><path class="cls-30" d="M301.39,260.17a2.07,2.07,0,0,0-1.58-2.06,1.4,1.4,0,0,0-1.77,1.31,2.07,2.07,0,0,0,1.58,2.06A1.4,1.4,0,0,0,301.39,260.17Z"/><path class="cls-30" d="M307.06,261.42a2.07,2.07,0,0,0-1.58-2.06,1.4,1.4,0,0,0-1.77,1.31,2.07,2.07,0,0,0,1.58,2.06A1.4,1.4,0,0,0,307.06,261.42Z"/><polygon class="cls-25" points="294.12 249.99 294.12 251.68 251.9 261.06 253.81 258.79 294.12 249.99"/><polygon class="cls-5" points="253.81 258.79 251.9 256.7 294.12 247.32 294.12 249.99 253.81 258.79"/><polygon class="cls-25" points="294.12 249.99 294.12 251.68 336.34 261.06 334.43 258.79 294.12 249.99"/><polygon class="cls-5" points="334.43 258.79 336.34 256.7 294.12 247.32 294.12 249.99 334.43 258.79"/><polygon class="cls-5" points="251.9 309.39 251.9 279.72 294.12 270.35 294.12 300.02 251.9 309.39"/><polygon id="_Clipping_Path_39" data-name="&lt;Clipping Path&gt;" class="cls-3" points="336.34 303.14 336.34 279.72 294.12 270.35 294.12 293.77 336.34 303.14"/><g class="cls-68"><line class="cls-69" x1="324.96" y1="292.43" x2="324.96" y2="278.19"/><line class="cls-70" x1="328.86" y1="293.39" x2="328.86" y2="279.15"/></g><path class="cls-30" d="M301.39,278.83a2.07,2.07,0,0,0-1.58-2.06,1.4,1.4,0,0,0-1.77,1.31,2.07,2.07,0,0,0,1.58,2.06A1.4,1.4,0,0,0,301.39,278.83Z"/><path class="cls-30" d="M307.06,280.08a2.07,2.07,0,0,0-1.58-2.06,1.4,1.4,0,0,0-1.77,1.31,2.07,2.07,0,0,0,1.58,2.06A1.4,1.4,0,0,0,307.06,280.08Z"/><polygon class="cls-25" points="294.12 268.65 294.12 270.34 251.9 279.72 253.81 277.45 294.12 268.65"/><polygon class="cls-5" points="253.81 277.45 251.9 275.36 294.12 265.99 294.12 268.65 253.81 277.45"/><polygon class="cls-25" points="294.12 268.65 294.12 270.35 336.34 279.72 334.43 277.45 294.12 268.65"/><polygon class="cls-5" points="334.43 277.45 336.34 275.36 294.12 265.99 294.12 268.65 334.43 277.45"/><polygon class="cls-71" points="52.33 374.28 52.33 429.19 214.82 465.27 214.82 410.36 52.33 374.28"/><polygon id="_Clipping_Path_40" data-name="&lt;Clipping Path&gt;" class="cls-4" points="377.31 374.28 377.31 429.19 214.82 465.27 214.82 410.36 377.31 374.28"/><g class="cls-72"><line class="cls-73" x1="333.51" y1="379.29" x2="333.51" y2="434.11"/><line class="cls-74" x1="348.52" y1="375.6" x2="348.52" y2="430.42"/></g><polygon class="cls-1" points="214.82 338.19 52.33 374.28 214.82 410.36 377.31 374.28 214.82 338.19"/><polygon class="cls-35" points="52.33 302.59 52.33 357.5 214.82 393.58 214.82 338.68 52.33 302.59"/><polygon id="_Clipping_Path_41" data-name="&lt;Clipping Path&gt;" class="cls-5" points="377.31 302.59 377.31 357.5 214.82 393.58 214.82 338.68 377.31 302.59"/><g class="cls-75"><line class="cls-76" x1="333.51" y1="308.58" x2="333.51" y2="363.4"/><line class="cls-77" x1="348.52" y1="304.89" x2="348.52" y2="359.71"/></g><polygon id="_Clipping_Path_42" data-name="&lt;Clipping Path&gt;" class="cls-1" points="214.82 266.51 52.33 302.59 214.82 338.68 377.31 302.59 214.82 266.51"/><g class="cls-78"><ellipse class="cls-79" cx="214.91" cy="274.27" rx="20.74" ry="4.2"/></g><path class="cls-30" d="M242.83,360.94a8,8,0,0,1-6.07,7.91,5.4,5.4,0,0,1-6.83-5.06,8,8,0,0,1,6.07-7.91A5.4,5.4,0,0,1,242.83,360.94Z"/><path class="cls-30" d="M264.62,356.12a8,8,0,0,1-6.07,7.91,5.4,5.4,0,0,1-6.83-5.06,8,8,0,0,1,6.07-7.91A5.4,5.4,0,0,1,264.62,356.12Z"/><path class="cls-80" d="M286.41,351.29a8,8,0,0,1-6.07,7.91,5.4,5.4,0,0,1-6.83-5.06,8,8,0,0,1,6.07-7.91A5.4,5.4,0,0,1,286.41,351.29Z"/><polygon class="cls-81" points="214.82 400.1 214.82 393.58 52.33 357.5 59.67 366.23 214.82 400.1"/><polygon class="cls-29" points="59.67 366.23 52.33 374.28 214.82 410.36 214.82 400.1 59.67 366.23"/><polygon class="cls-81" points="214.8 400.16 214.8 393.65 377.29 357.57 369.95 366.29 214.8 400.16"/><polygon class="cls-35" points="369.95 366.29 377.29 374.35 214.8 410.43 214.8 400.16 369.95 366.29"/><path class="cls-82" d="M242.83,431.76a8,8,0,0,1-6.07,7.91,5.4,5.4,0,0,1-6.83-5.06A8,8,0,0,1,236,426.7,5.4,5.4,0,0,1,242.83,431.76Z"/><path class="cls-82" d="M264.62,426.93a8,8,0,0,1-6.07,7.91,5.4,5.4,0,0,1-6.83-5.06,8,8,0,0,1,6.07-7.91A5.4,5.4,0,0,1,264.62,426.93Z"/><path class="cls-82" d="M286.41,422.11a8,8,0,0,1-6.07,7.91,5.4,5.4,0,0,1-6.83-5.06,8,8,0,0,1,6.07-7.91A5.4,5.4,0,0,1,286.41,422.11Z"/><line class="cls-83" x1="80.31" y1="124.55" x2="80.31" y2="149.53"/><line class="cls-84" x1="152.04" y1="64.2" x2="152.04" y2="1.1"/><path class="cls-85" d="M210.58,219.66l0-.74.3-.9a7,7,0,0,0-.21-2,6.9,6.9,0,0,0-.3-.9l-.33,0-.33-.05a.63.63,0,0,0-.23.06,1.31,1.31,0,0,0-.53,1.16c0,.44.17.74,0,1l-.08.09a.88.88,0,0,0-.49-.65.71.71,0,0,0-.38,0l.14.28a6.26,6.26,0,0,1,.36,1l.34.92.24,1.19Z"/><path class="cls-86" d="M200.3,223.1a3.13,3.13,0,0,1,2.61.17,14.11,14.11,0,0,1,2,1.22l2,1.32c.65.45,1.29.93,1.91,1.43l-2.35,1.09a15.1,15.1,0,0,0,.82-2.24c.23-.76.4-1.52.58-2.29.38-1.53.68-3.07.93-4.63l2.18.43c-.05.79-.08,1.59-.18,2.37s-.17,1.57-.29,2.35-.21,1.56-.38,2.33a12.12,12.12,0,0,1-.67,2.27,1.62,1.62,0,0,1-1.61,1l-.5,0c-.43,0-.83-.12-1.25-.18l-1.19-.29a18.08,18.08,0,0,1-2.27-.78,9.61,9.61,0,0,1-2-1.19,8.34,8.34,0,0,1-1.85-1.54Z"/><line class="cls-87" x1="215.7" y1="230.03" x2="215.7" y2="258.82"/><line class="cls-88" x1="215.7" y1="258.82" x2="215.7" y2="269.84"/><line class="cls-89" x1="230.02" y1="275.74" x2="216.31" y2="228.2"/><line class="cls-90" x1="226.32" y1="262.92" x2="216.31" y2="228.2"/><line class="cls-89" x1="201.27" y1="275.74" x2="214.98" y2="228.2"/><line class="cls-90" x1="204.97" y1="262.92" x2="214.98" y2="228.2"/><path class="cls-80" d="M217.65,224.5h-2.8V212.26a.32.32,0,0,1,.32-.32h2.15a.32.32,0,0,1,.32.32Zm1.31,0V211.84a.77.77,0,0,0-.77-.77h-3.91a.77.77,0,0,0-.77.77V224.5Z"/><path class="cls-7" d="M209.67,223v-8l3.44-2.3V224.5h-1.9A1.53,1.53,0,0,1,209.67,223Z"/><path class="cls-80" d="M222.39,223v-8l-3.44-2.3V224.5h1.9A1.53,1.53,0,0,0,222.39,223Z"/><path class="cls-7" d="M220.84,223v-8l-3.44-2.3V224.5h1.9A1.53,1.53,0,0,0,220.84,223Z"/><path class="cls-7" d="M216.81,224.5h-3.27V212.32a.38.38,0,0,1,.38-.38h2.5a.38.38,0,0,1,.38.38Zm.84,0V211.84a.77.77,0,0,0-.77-.77h-3.42a.77.77,0,0,0-.77.77V224.5Z"/><rect class="cls-25" x="213.91" y="214.25" width="2.48" height="5.98"/><rect class="cls-81" x="216.39" y="214.25" width="0.43" height="5.98"/><circle id="_Ellipse_2" data-name="&lt;Ellipse&gt;" class="cls-6" cx="215.16" cy="216.99" r="0.89"/><g class="cls-91"><circle class="cls-92" cx="215.59" cy="216.99" r="0.89"/></g><rect class="cls-7" x="212.69" y="222.02" width="5.17" height="2.48"/><rect class="cls-80" x="212.69" y="224.5" width="6.13" height="2.48"/><rect class="cls-92" x="210.58" y="226.98" width="10.09" height="1.79"/><path class="cls-93" d="M267.77,222.89l1.37-1a1.2,1.2,0,0,0,.52-1l-.11-2.59a1.2,1.2,0,0,0-.76-1.07l-1.49-.59a.32.32,0,0,0-.38.11h0a.32.32,0,0,0-.06.19v.17h-.11a.27.27,0,0,0-.25.17h0a.27.27,0,0,0,0,.26l.25.32h-.2a.39.39,0,0,0,.13.43l.31.24.25,1-.1.17a3,3,0,0,0-.38,1.14h0a1.89,1.89,0,0,0,.58,1.62Z"/><ellipse class="cls-79" cx="251.28" cy="284.05" rx="19.58" ry="3.41"/><rect class="cls-94" x="243.67" y="239.69" width="3.7" height="5.04" rx="0.62" ry="0.62" transform="translate(491.04 484.42) rotate(-180)"/><path class="cls-95" d="M248.55,221.22c0,.17.2,3.14,1.85,3.84,1.24.53,2.92-1,4-1.89a10.25,10.25,0,0,1,0-5.94l-5,1.23a11.14,11.14,0,0,1,.07,1.53c0,.65-.08.9-.27,1.06A.86.86,0,0,1,248.55,221.22Z"/><path class="cls-93" d="M230.49,224.64,229,222.08a.33.33,0,0,0-.6-.09.44.44,0,0,0-.42-.12.45.45,0,0,0-.31.46.4.4,0,0,0-.32,0,.59.59,0,0,0,0,.77.52.52,0,0,0-.28.22.53.53,0,0,0-.05.43c.32,1,.48,1.68.48,1.68a4.9,4.9,0,0,0,2.05,2.09.74.74,0,0,0,1-.82Z"/><path id="_Path_" data-name="&lt;Path&gt;" class="cls-30" d="M239.24,233.31a3.47,3.47,0,0,0,1.55.12,4.33,4.33,0,0,0,2.3-1.36c1.26-1.17,2.33-2.21,3.22-3.11l-.3-7.26-1.75,1.72q-2.95,2.93-5.61,5.83Z"/><path class="cls-96" d="M251.25,285.73a2,2,0,0,1,.12-1.49c.43-.7,1.31-.66,2.28-1.09A5.32,5.32,0,0,0,256,281h2.79a7.33,7.33,0,0,1,.62,3.06l-1.76.34-1.22.36a14.19,14.19,0,0,1-5.19,1Z"/><path class="cls-96" d="M240.1,284.26a2,2,0,0,1,.31-1.46c.51-.63,1.38-.49,2.4-.79a5.32,5.32,0,0,0,2.62-1.87l2.77.37a7.33,7.33,0,0,1,.23,3.12l-1.79.12-1.26.2a14.19,14.19,0,0,1-5.28.33Z"/><path id="_Path_2" data-name="&lt;Path&gt;" class="cls-97" d="M245.89,238.43c-.56,4.25-1,8.74-1.28,13.45a190.42,190.42,0,0,0,.44,28.47,4.94,4.94,0,0,0,3.6.14q0-2.62.09-5.23.1-6.74.15-13.49.34-2.21.62-4.56c.31-2.65.52-5.19.65-7.61q1.22,6.21,2.3,12.75,1.61,9.74,2.69,18.9a9.27,9.27,0,0,0,4.21,0,119.28,119.28,0,0,0-.57-12.93c-.22-2.28-.51-4.47-.83-6.56,0-4.74-.1-9.76-.46-15q-.26-3.82-.65-7.44Z"/><path id="_Path_3" data-name="&lt;Path&gt;" class="cls-30" d="M246.77,239.52a13.31,13.31,0,0,0,7.61.71l-.44-19.8-3,2-1.59-1.63q-.2.62-.39,1.26A55.78,55.78,0,0,0,246.77,239.52Z"/><rect class="cls-98" x="245.5" y="240.03" width="11.33" height="3.08" transform="translate(502.33 483.15) rotate(-180)"/><path id="_Clipping_Path_43" data-name="&lt;Clipping Path&gt;" class="cls-7" d="M245.32,225q.15-1.69.37-3.3a8.31,8.31,0,0,1,3.66-1,9.25,9.25,0,0,0-.3,3.41,9.4,9.4,0,0,0,1.79,4.6,12.44,12.44,0,0,0,2.64-4.86,12.27,12.27,0,0,0,.44-3.49c.85.44,1.73.93,2.62,1.49l.71.46a3.88,3.88,0,0,1,1.24,1.21c.67,1.06.6,2.22.29,4.4-.13.91-.17.82-.26,1.62a16.1,16.1,0,0,0,0,3.87,23.11,23.11,0,0,1-.82,7.53,10,10,0,0,1-2.93.77,10.12,10.12,0,0,1-4.4-.52,5.3,5.3,0,0,1-4.92-.47A78.79,78.79,0,0,1,245.32,225Z"/><g class="cls-99"><line class="cls-100" x1="250.89" y1="228.19" x2="250.45" y2="242.47"/></g><path class="cls-101" d="M250.53,228.32l.32.46.39-.47-.41,13.09-.44-.14-.26.1Z"/><path class="cls-93" d="M230.9,226.06l0-.54a3.41,3.41,0,0,0-.2-1.4l-.71-1.93h0a.77.77,0,0,0-.52.91l.18.78-.65,2.49,1.1.66h0A1.09,1.09,0,0,0,230.9,226.06Z"/><path id="_Path_4" data-name="&lt;Path&gt;" class="cls-30" d="M264.65,234.82a1.45,1.45,0,0,1-1.05-.09,11,11,0,0,1-4-2.65c-.79-.75-1.69-1.62-2.65-2.62a10.58,10.58,0,0,1-.35-1.71,11.14,11.14,0,0,1,.67-5.2,1.6,1.6,0,0,1,.92.56L260,225a52.66,52.66,0,0,1,5.08,5.86l.05.08a3.34,3.34,0,0,1,.2.37C265.49,231.57,265.85,234.33,264.65,234.82Z"/><path id="_Path_5" data-name="&lt;Path&gt;" class="cls-93" d="M250.85,219.75c-2.18.3-2.4.35-2.64.14a4.24,4.24,0,0,1-.57-1.54c-.13-.47-.23-.86-.29-1.14-.15,0-.57.15-.7,0s0-.31.14-.62a8.37,8.37,0,0,0,.36-1.17q0-.12,0-.24a3.77,3.77,0,0,1,1.41-3.12,4.06,4.06,0,0,1,4.39-.52,3.9,3.9,0,0,1,2,3,8,8,0,0,1-.44,2.55h0l-.05.16c-.1.3-.58.59-.58.59-.42.25-.51.15-.74.32-.42.3-.28.72-.58,1.11S251.94,219.6,250.85,219.75Z"/><path class="cls-96" d="M253.2,217.65c-.58-.28-.32-1.63-.77-1.76-.2-.06-.44.15-.63.39h-.66a6,6,0,0,0-.26-1.42c-.24-.79-.45-1.44-.91-1.58s-.53.16-1.92.77a5.74,5.74,0,0,1-.88.33,3.61,3.61,0,0,1,.13-.55,4.23,4.23,0,0,1,1.24-1.79,4.06,4.06,0,0,1,4.39-.52,3.9,3.9,0,0,1,2,3,8,8,0,0,1-.44,2.55h0l-.05.16C254.29,217.32,253.64,217.86,253.2,217.65Z"/><path id="_Path_6" data-name="&lt;Path&gt;" class="cls-30" d="M262.43,233.52c-.92-1.84,1.17-3.9,3.69-10.24.29-.74.52-1.36.68-1.79a3.29,3.29,0,0,1,2.12.81c-.17,1.77-.39,3.23-.56,4.3a17.91,17.91,0,0,1-1.91,6.33c-.95,1.68-1.56,1.91-1.94,1.95A2.38,2.38,0,0,1,262.43,233.52Z"/><path class="cls-30" d="M239.94,229.29c-.82-.79-1.59-1-3.65-1.62-1.13-.36-2.89-.94-5.09-1.71l-1.88,2.2a39,39,0,0,0,9.25,4.91c1.22.44,2.3.74,2.77.25C242,232.64,241.26,230.54,239.94,229.29Z"/><rect class="cls-94" x="254.8" y="240.86" width="4.48" height="6.11" rx="0.76" ry="0.76" transform="translate(514.09 487.83) rotate(-180)"/><rect class="cls-80" x="253.25" y="241.19" width="1.62" height="5.43" rx="0.81" ry="0.81" transform="translate(508.12 487.8) rotate(180)"/><ellipse class="cls-30" cx="257.26" cy="227.1" rx="1.37" ry="4.72"/><path class="cls-80" d="M246.65,213.22a4.33,4.33,0,1,1,8.56,1.37Z"/><rect class="cls-42" x="246.33" y="213.13" width="9.5" height="0.79" transform="matrix(0.99, 0.16, -0.16, 0.99, 37.04, -37.11)"/><path class="cls-85" d="M215.77,223.92l.78-.24,1,0a7.64,7.64,0,0,0,2-1,7.56,7.56,0,0,0,.82-.63l-.07-.36-.07-.36a.69.69,0,0,0-.14-.22,1.43,1.43,0,0,0-1.39-.12c-.45.16-.71.45-1.07.34l-.12-.05a1,1,0,0,0,.49-.75.78.78,0,0,0-.11-.41l-.24.25a6.86,6.86,0,0,1-.85.72l-.82.69-1.14.68Z"/><ellipse class="cls-79" cx="190.33" cy="282.04" rx="18.49" ry="3.22"/><path class="cls-102" d="M180.07,276.22a6.21,6.21,0,0,0-2.84,1.92c.09.25.19.5.31.76a10.4,10.4,0,0,0,2.35,3.24l3.09,0a.76.76,0,0,0,0-.25c-.13-.79-1.53-1.09-1.62-1.11a3.92,3.92,0,0,1,0-3.34Z"/><circle class="cls-92" cx="192.12" cy="226.89" r="6.11"/><path class="cls-94" d="M193.93,235.79c2.06-1.72,6.82-.92,8.26,1.53s-.67,6.81-3.26,11.81c-.71,1.38-1.8,3.4-6.73,11.24-2.73,4.36-3.29,5.16-5,8-2.48,4-4.39,7.34-5.6,9.48l-2.65-1.24c1.29-3,2.23-5.49,2.85-7.18,1.31-3.57,1.85-5.5,3.25-8.55.92-2,1.8-3.59,2.38-4.58q.83-2.44,1.63-5,1.57-4.89,2.91-9.62a8,8,0,0,1,.38-3.21A6.21,6.21,0,0,1,193.93,235.79Z"/><path class="cls-102" d="M199,278.38c-.12.43-.23.89-.33,1.38a17.13,17.13,0,0,0-.25,1.86.5.5,0,0,0,.5.54l6.38,0a1.15,1.15,0,0,0-.21-.85c-.26-.3-.64-.28-1.09-.36a4.9,4.9,0,0,1-2.37-1.24,3.85,3.85,0,0,1-.89-1.37Z"/><path class="cls-98" d="M197.77,233.19a5.45,5.45,0,0,1,4.16.61c1.56,1.07,2.29,3.17,2.19,11-.05,3.91-.3,8.16-1,14.51-.51,4.78-.76,5.9-1.14,10.15-.36,3.95-.53,7.19-.62,9.33l-3.18.18c-.7-3.95-1.15-7.29-1.46-9.85a24.89,24.89,0,0,1-.21-6.2,31.4,31.4,0,0,1,1-4.88c.15-.5.31-1,.46-1.38-.2-1.06-.52-2.72-1-4.74-.56-2.51-1.06-4.72-1.87-7.5-1.36-4.66-1.91-5.15-1.58-6.68A6.16,6.16,0,0,1,197.77,233.19Z"/><path class="cls-92" d="M204.52,216.38a5,5,0,0,1,.12,3.46,4.31,4.31,0,0,1-1.81,2.3,3.13,3.13,0,0,1-1.17.39,2.26,2.26,0,0,1-1.12-.08c-1.26-.68.17-6,2-7.38a1.11,1.11,0,0,1,.85-.28C204,214.89,204.33,215.83,204.52,216.38Z"/><path class="cls-7" d="M205.78,237.25a7.54,7.54,0,0,1-2.17,2.19,8.4,8.4,0,0,1-6.42,1V221.54h3.89a5.45,5.45,0,0,1,3.28,1.75,5.68,5.68,0,0,1,1.15,2.68c.53,2.77-.66,4-.68,6.79A11,11,0,0,0,205.78,237.25Z"/><path class="cls-103" d="M192.12,239a10.62,10.62,0,0,0,13.4-.19,9,9,0,0,1-1-2,9.65,9.65,0,0,1-.12-5.88c.42-1.31.83-1.46.85-2.48a11.65,11.65,0,0,0-.68-2.87c-.45-1.62-.46-1.71-.61-1.92s-.84-1.05-3.42-1.19a13.7,13.7,0,0,0-6.94,1.65,43.78,43.78,0,0,0,.68,4.61c.5,2.44.93,3.48.45,4.92a17.64,17.64,0,0,1-1.19,2.21A28,28,0,0,0,192.12,239Z"/><path id="_Path_7" data-name="&lt;Path&gt;" class="cls-85" d="M204.39,218.39a1,1,0,0,1-.25.22,2.91,2.91,0,0,1-.32.21c0,.22,0,.44,0,.68a10.83,10.83,0,0,1-.15,1.26,8.78,8.78,0,0,1-1.31.24,6.8,6.8,0,0,1-2.39-.09,4.33,4.33,0,0,1-1.52-.6,3.51,3.51,0,0,1,3.26-6.18,3,3,0,0,1,1.54,1.42c.17.4.08.44.36,1.12a7,7,0,0,0,.29.63C204.23,217.92,204.5,218.18,204.39,218.39Z"/><path class="cls-85" d="M198.22,219.18a3.8,3.8,0,0,1,.15,3.55q.89.59,1.81,1.23,1.31.92,2.51,1.84l-1.06-2.71a9,9,0,0,1,.21-2.11Z"/><path class="cls-7" d="M201.78,241.78a19.38,19.38,0,0,1-11.29-1.36,9.75,9.75,0,0,0,2.36-4.51c.42-2.05-.2-3.46-.42-5.84a46.1,46.1,0,0,1-.06-7.63h6.49a2.92,2.92,0,0,1,2.92,2.92ZM197.31,224c-1.19.12-2,1.39-2.2,2.23a4.16,4.16,0,0,0,1.14,3.78,2.19,2.19,0,0,0,1.39.92c1.3.06,2.89-2,2.61-4C200,225.52,198.76,223.89,197.31,224Z"/><path class="cls-104" d="M195.73,223a5.35,5.35,0,0,1,3.49.4,26.14,26.14,0,0,1,3,1.49l2.94,1.59,1.45.83,1.43.87-1.69.21c3.16-2.39,5.33-3.87,8.5-6.27a3.52,3.52,0,0,1,1.84,1.48,23.8,23.8,0,0,1-2.44,2.55,46.82,46.82,0,0,1-6,4.61l-.17.06a2.9,2.9,0,0,1-1.35.13,25.38,25.38,0,0,1-3.35-.71q-1.63-.45-3.2-1a19.87,19.87,0,0,1-3-1.46c-.49-.27-1-.54-1.45-.83a10.46,10.46,0,0,1-1.38-1Z"/><path class="cls-92" d="M202.08,217.37c-.36.44-.54.22-.88.61-.72.82,0,1.85-.67,2.61-.32.36-.64.11-.9.46-.38.52.23,1.09,0,2a2.13,2.13,0,0,1-1.39,1.45c-.77.22-1.12-.34-1.69-.12-.83.31-.48,1.66-1.29,2.47-1.07,1.06-3.56,1.15-5.19-.17a4.72,4.72,0,0,1-1.36-4.82,5.26,5.26,0,0,1,2.37-3.1c1.11-.65,1.78-.41,2.83-1.29a5.17,5.17,0,0,0,1.39-1.73,6.73,6.73,0,0,1,2.24-2.34,5,5,0,0,1,3.17-.46c.7.09,2,.27,2.47,1.18a1.51,1.51,0,0,1,.08,1.24c-.09.16-.16.19-.33.36C202.36,216.29,202.53,216.81,202.08,217.37Z"/><path class="cls-80" d="M195.19,215.46a4.72,4.72,0,0,1,9.45.06Z"/><rect class="cls-42" x="194.83" y="214.62" width="10.35" height="0.87" transform="translate(1.29 -1.19) rotate(0.34)"/></g></g></g></svg>