<svg width="934" height="552" viewBox="0 0 934 552" fill="none" xmlns="http://www.w3.org/2000/svg">
<g clip-path="url(#clip0_293_2715)">
<path opacity="0.1" d="M268.788 13.4619H245.942C244.828 13.4619 243.924 14.3688 243.924 15.4875V38.423C243.924 39.5417 244.828 40.4485 245.942 40.4485H268.788C269.902 40.4485 270.805 39.5417 270.805 38.423V15.4875C270.805 14.3688 269.902 13.4619 268.788 13.4619Z" fill="#4C9AFF"/>
<path opacity="0.05" d="M233.278 19.144H219.796C219.224 19.144 218.761 19.6091 218.761 20.1828V33.7176C218.761 34.2913 219.224 34.7564 219.796 34.7564H233.278C233.849 34.7564 234.312 34.2913 234.312 33.7176V20.1828C234.312 19.6091 233.849 19.144 233.278 19.144Z" fill="#4C9AFF"/>
<path opacity="0.05" d="M558.951 19.144H573.333V32.6477C573.333 33.7904 572.402 34.7252 571.264 34.7252H558.951C558.31 34.7252 557.782 34.1955 557.782 33.5515V20.3178C557.782 19.6738 558.31 19.144 558.951 19.144Z" fill="#4C9AFF"/>
<path opacity="0.1" d="M548.191 15.5293H525.345C524.231 15.5293 523.328 16.4362 523.328 17.5549V40.4904C523.328 41.609 524.231 42.5159 525.345 42.5159H548.191C549.305 42.5159 550.208 41.609 550.208 40.4904V17.5549C550.208 16.4362 549.305 15.5293 548.191 15.5293Z" fill="#4C9AFF"/>
<path opacity="0.2" d="M321.484 5.33936H284.173C282.35 5.33936 280.873 6.8229 280.873 8.65296V46.1101C280.873 47.9402 282.35 49.4237 284.173 49.4237H321.484C323.306 49.4237 324.784 47.9402 324.784 46.1101V8.65296C324.784 6.8229 323.306 5.33936 321.484 5.33936Z" fill="#4C9AFF"/>
<path fill-rule="evenodd" clip-rule="evenodd" d="M297.924 25.7817H302.828C303.656 25.7817 306.098 25.7817 306.098 23.2783C306.098 20.7749 302.828 20.7749 302.828 20.7749H297.924V25.7817ZM297.924 33.9462H303.646C305.281 33.9462 306.915 33.5307 306.915 31.4844C306.915 29.4381 305.115 29.0226 303.646 29.0226H297.924V33.9462ZM294.654 18.365C294.654 17.908 295.017 17.5444 295.472 17.5444H304.194C305.953 17.5444 309.367 18.365 309.367 22.4681C309.367 25.7505 307.733 26.5711 307.733 26.5711C309.833 27.2567 311.178 29.2927 311.002 31.4948C311.002 32.3154 311.002 37.2391 304.463 37.2391H295.461C295.017 37.2287 294.665 36.8651 294.654 36.4185V18.365Z" fill="#4C9AFF"/>
<path d="M387.496 0H341.163C338.894 0 337.055 1.8463 337.055 4.12382V50.6389C337.055 52.9164 338.894 54.7627 341.163 54.7627H387.496C389.764 54.7627 391.603 52.9164 391.603 50.6389V4.12382C391.603 1.8463 389.764 0 387.496 0Z" fill="#4C9AFF"/>
<path fill-rule="evenodd" clip-rule="evenodd" d="M368.396 19.2273L364.329 35.5356H369.378C369.948 35.5356 370.413 36.003 370.413 36.5743V38.5895C370.413 39.1608 369.948 39.6283 369.378 39.6283H355.193C354.624 39.6283 354.158 39.1608 354.158 38.5895V36.564C354.158 35.9927 354.624 35.5252 355.193 35.5252H360.273L364.329 19.2169H359.259C358.69 19.2169 358.225 18.7495 358.225 18.1782V16.1838C358.225 15.6125 358.69 15.145 359.259 15.145H373.517C374.086 15.145 374.552 15.6125 374.552 16.1838V18.1989C374.552 18.7702 374.086 19.2377 373.517 19.2377H368.396V19.2273Z" fill="#DEEBFF"/>
<path opacity="0.2" d="M454.046 0H407.713C405.445 0 403.605 1.8463 403.605 4.12382V50.6389C403.605 52.9164 405.445 54.7627 407.713 54.7627H454.046C456.314 54.7627 458.153 52.9164 458.153 50.6389V4.12382C458.153 1.8463 456.314 0 454.046 0Z" fill="#4C9AFF"/>
<path fill-rule="evenodd" clip-rule="evenodd" d="M433.932 26.3634L430.879 17.1913C430.021 20.0374 427.838 26.3634 427.838 26.3634H433.932ZM434.966 29.4173H426.844L424.775 34.5175H420.709L428.458 14.127H433.27L441.009 34.5175H436.953L434.966 29.4173ZM418.722 37.5818C418.722 37.0105 419.188 36.5431 419.757 36.5431H442.085C442.654 36.5431 443.12 37.0105 443.12 37.5818V39.597C443.12 40.1683 442.654 40.6357 442.085 40.6357H419.715C419.146 40.6357 418.681 40.1683 418.681 39.597L418.722 37.5818Z" fill="#4C9AFF"/>
<path opacity="0.2" d="M511.356 5.33936H474.046C472.223 5.33936 470.745 6.8229 470.745 8.65296V46.1101C470.745 47.9402 472.223 49.4237 474.046 49.4237H511.356C513.179 49.4237 514.657 47.9402 514.657 46.1101V8.65296C514.657 6.8229 513.179 5.33936 511.356 5.33936Z" fill="#4C9AFF"/>
<path fill-rule="evenodd" clip-rule="evenodd" d="M486.162 20.7751V25.6988H491.066V20.7751H486.162ZM494.336 28.9812V33.9049H499.23V29.0228L494.336 28.9812ZM494.336 20.7751V25.6988H499.23V20.7751H494.336ZM486.162 28.9812V33.9049H491.066V29.0228L486.162 28.9812ZM482.893 20.7855C482.893 18.9677 484.362 17.4927 486.173 17.4927H499.22C501.03 17.4927 502.489 18.9677 502.5 20.7855V33.9256C502.5 35.7434 501.041 37.2185 499.23 37.2288C499.23 37.2288 499.23 37.2288 499.22 37.2288H486.173C484.362 37.2288 482.893 35.7434 482.893 33.9256V20.7855Z" fill="#4C9AFF"/>
<path d="M73.9896 414.75H38.9866C37.8437 414.75 36.9172 415.681 36.9172 416.828V505.412C36.9172 506.56 37.8437 507.49 38.9866 507.49H73.9896C75.1325 507.49 76.0589 506.56 76.0589 505.412V416.828C76.0589 415.681 75.1325 414.75 73.9896 414.75Z" fill="#FFC400"/>
<path d="M125.123 368.381H90.1201C88.9773 368.381 88.0508 369.311 88.0508 370.458V505.423C88.0508 506.57 88.9773 507.5 90.1201 507.5H125.123C126.266 507.5 127.192 506.57 127.192 505.423V370.458C127.192 369.311 126.266 368.381 125.123 368.381Z" fill="#4C9AFF"/>
<path d="M176.267 309.079H141.264C140.121 309.079 139.195 310.009 139.195 311.157V505.423C139.195 506.57 140.121 507.5 141.264 507.5H176.267C177.41 507.5 178.336 506.57 178.336 505.423V311.157C178.336 310.009 177.41 309.079 176.267 309.079Z" fill="#505F79"/>
<path d="M844.832 349.559H730.583C721.788 314.844 724.479 288.906 728.514 271.767C736.884 235.879 756.077 216.568 749.963 187.006C746.641 170.946 737.381 159.302 730.625 152.322H906.747C917.528 187.951 912.53 210.917 906.747 224.764C888.692 267.924 839.865 277.563 836.203 315.519C834.785 330.155 840.703 342.547 844.832 349.559Z" fill="url(#paint0_linear_293_2715)"/>
<path d="M906.374 493.404C906.509 491.95 906.385 490.485 906.002 489.073C904.988 485.759 902.732 482.965 899.701 481.282C900.787 481.282 901.873 481.199 902.949 481.043C908.909 480.046 914.3 476.909 918.118 472.214C914.414 468.007 909.551 465.005 904.139 463.592C904.45 463.436 904.75 463.291 905.05 463.125C910.265 460.071 914.196 455.22 916.11 449.465C911.558 447.055 906.436 445.944 901.304 446.256C901.915 445.736 902.494 445.186 903.043 444.604C907.099 440.117 909.375 434.289 909.458 428.233C903.829 427.205 898.035 427.922 892.83 430.311C894.393 426.976 895.231 423.341 895.303 419.653C890.006 418.708 884.553 419.3 879.587 421.357C882.153 416.516 883.084 410.969 882.225 405.547C876.327 405.526 870.575 407.375 865.794 410.834L865.898 410.554C867.708 404.778 867.367 398.536 864.925 392.989C858.831 394.547 853.451 398.13 849.664 403.168C849.084 403.958 848.546 404.778 848.06 405.63C847.998 404.602 847.884 403.584 847.698 402.576C846.446 396.645 843.083 391.379 838.241 387.764C836.016 389.914 834.164 392.407 832.747 395.16C831.236 389.831 828.018 385.146 823.6 381.833C820.062 385.26 817.475 389.561 816.099 394.297C813.574 391.534 810.481 389.343 807.046 387.868C804.997 391.233 803.652 394.973 803.093 398.878C802.079 398.265 801.024 397.725 799.927 397.268C796.792 402.327 795.343 408.248 795.788 414.189C793.647 412.268 791.194 410.71 788.546 409.577C785.214 414.927 783.786 421.253 784.5 427.527C786.093 440.387 796.482 446.983 797.889 447.834C798.178 447.461 798.437 447.066 798.706 446.681C793.843 471.217 809.705 495.066 834.154 499.948C850.067 503.127 866.457 497.486 877.072 485.177C878.604 495.44 886.705 502.192 894.341 501.631C901.573 501.122 905.836 494.246 906.374 493.404Z" fill="url(#paint1_linear_293_2715)"/>
<path d="M3.18677 506.576H930.813" stroke="url(#paint2_linear_293_2715)" stroke-width="4" stroke-miterlimit="10"/>
<path d="M834.216 384.336H863.735C875.789 384.336 885.577 394.131 885.588 406.233C885.588 407.957 885.391 409.671 884.988 411.343L874.641 455.791C872.302 465.68 863.487 472.65 853.368 472.629H834.216" stroke="url(#paint3_linear_293_2715)" stroke-width="20" stroke-miterlimit="10" stroke-linecap="round"/>
<path d="M709.3 391.95C711.938 394.692 713.573 398.255 713.925 402.057V402.296C714.411 407.448 717.225 412.091 721.55 414.896C724.872 417.046 727.334 420.297 728.503 424.089V424.276C729.993 429.116 733.573 433.022 738.25 434.913L739.492 435.422C742.492 436.647 745.089 438.714 746.952 441.374L753.232 450.379V439.379C753.253 436.128 754.205 432.949 755.984 430.228L756.719 429.096C759.481 424.868 760.206 419.612 758.685 414.782V414.595C757.495 410.814 757.671 406.731 759.181 403.065C761.158 398.286 760.837 392.864 758.312 388.356L758.188 388.148C756.357 384.814 755.715 380.95 756.346 377.2C757.195 371.965 755.539 366.625 751.866 362.803C749.228 360.05 747.603 356.487 747.241 352.685V352.446C746.765 347.294 743.951 342.651 739.616 339.857C736.294 337.707 733.832 334.455 732.673 330.664L732.611 330.477C731.121 325.636 727.541 321.731 722.864 319.83L721.623 319.331C718.622 318.106 716.036 316.038 714.173 313.369L707.851 304.353L707.789 315.342C707.779 318.594 706.827 321.783 705.047 324.504L704.302 325.626C701.54 329.864 700.815 335.12 702.336 339.95L702.399 340.127C703.588 343.918 703.413 348.001 701.892 351.667C699.926 356.446 700.246 361.868 702.771 366.376L702.885 366.584C704.747 369.908 705.43 373.772 704.82 377.543C703.971 382.788 705.627 388.127 709.3 391.95Z" fill="url(#paint4_linear_293_2715)"/>
<path d="M703.009 419.01C705.803 420.339 708.069 422.572 709.424 425.356L709.507 425.522C711.359 429.293 714.825 432.004 718.912 432.877C722.047 433.552 724.851 435.307 726.827 437.852L726.931 437.977C729.445 441.218 733.284 443.15 737.381 443.233H738.416C741.044 443.295 743.61 444.116 745.783 445.601L753.139 450.619L750.035 442.257C749.114 439.784 748.928 437.084 749.497 434.508L749.725 433.469C750.604 429.459 749.652 425.263 747.117 422.043L747.014 421.918C745.027 419.383 743.993 416.236 744.086 413.016C744.21 408.819 742.41 404.789 739.202 402.099L739.047 401.974C736.677 399.99 735.053 397.248 734.432 394.215C733.573 389.997 730.78 386.424 726.9 384.585C724.106 383.266 721.84 381.033 720.485 378.249L720.402 378.073C718.55 374.302 715.084 371.591 710.986 370.718C707.851 370.053 705.047 368.288 703.071 365.753L702.968 365.628C700.453 362.387 696.615 360.455 692.518 360.362H691.431C688.803 360.31 686.237 359.489 684.064 358.004L676.708 352.987L679.812 361.349C680.733 363.821 680.919 366.522 680.35 369.098L680.122 370.136C679.243 374.146 680.195 378.343 682.73 381.563L682.833 381.687C684.82 384.222 685.854 387.369 685.761 390.589C685.637 394.786 687.437 398.806 690.645 401.507L690.8 401.631C693.169 403.615 694.794 406.358 695.415 409.391C696.294 413.618 699.108 417.192 703.009 419.01Z" fill="url(#paint5_linear_293_2715)"/>
<path d="M178.336 508.165H0C4.89401 500.831 12.7472 491.784 24.6356 487.888C37.6828 483.619 42.8562 489.706 56.9381 486.06C75.9554 481.126 75.4588 467.695 91.6824 464.569C109.913 461.068 115.325 477.106 131.383 472.421C142.35 469.222 143.406 460.694 165.693 445.643C170.969 442.08 175.47 439.483 178.336 437.894V508.165Z" fill="url(#paint6_linear_293_2715)"/>
<path d="M834.589 505.776H736.843L722.378 349.559H856.213L834.589 505.776Z" fill="#4C9AFF"/>
<path d="M755.726 83.6089H178.336V506.576H755.726V83.6089Z" fill="url(#paint7_linear_293_2715)"/>
<mask id="mask0_293_2715" style="mask-type:luminance" maskUnits="userSpaceOnUse" x="178" y="83" width="578" height="424">
<path d="M755.726 83.6089H178.336V506.576H755.726V83.6089Z" fill="white"/>
</mask>
<g mask="url(#mask0_293_2715)">
<path d="M833.792 505.776H736.843L722.378 349.559H856.213L833.792 505.776Z" fill="#2684FF"/>
<path d="M844.832 349.559H730.583C721.788 314.844 724.479 288.906 728.514 271.767C736.884 235.879 756.077 216.568 749.963 187.006C746.641 170.946 737.381 159.302 730.625 152.322H906.747C917.528 187.951 912.53 210.917 906.747 224.764C888.692 267.924 839.865 277.563 836.203 315.519C834.785 330.155 840.703 342.547 844.832 349.559Z" fill="url(#paint8_linear_293_2715)"/>
</g>
<path d="M755.664 83.6089H178.336V124.12H755.664V83.6089Z" fill="#DEEBFF"/>
<path d="M203.748 115.654C210.234 115.654 215.491 110.375 215.491 103.864C215.491 97.3527 210.234 92.0742 203.748 92.0742C197.262 92.0742 192.004 97.3527 192.004 103.864C192.004 110.375 197.262 115.654 203.748 115.654Z" fill="#B2D4FF"/>
<path d="M228.052 103.719H324.143" stroke="#B2D4FF" stroke-width="6" stroke-miterlimit="10"/>
<path opacity="0.6" d="M714.339 96.0737H585.956C584.836 96.0737 583.928 96.9853 583.928 98.1097V109.619C583.928 110.743 584.836 111.655 585.956 111.655H714.339C715.459 111.655 716.367 110.743 716.367 109.619V98.1097C716.367 96.9853 715.459 96.0737 714.339 96.0737Z" fill="white"/>
<path d="M591.833 180.825H335.927V187.151H591.833V180.825Z" fill="#B2D4FF"/>
<path d="M434.573 149.153H377.79V155.479H434.573V149.153Z" fill="#B2D4FF"/>
<path d="M591.833 198.598H335.927V204.924H591.833V198.598Z" fill="#B2D4FF"/>
<path d="M591.833 216.381H335.927V222.707H591.833V216.381Z" fill="#B2D4FF"/>
<path d="M591.833 234.154H335.927V240.48H591.833V234.154Z" fill="#B2D4FF"/>
<path d="M499.613 251.927H335.927V258.253H499.613V251.927Z" fill="#B2D4FF"/>
<path d="M461.289 414.761L413.145 366.417L364.991 414.761H461.289Z" fill="url(#paint9_linear_293_2715)"/>
<path d="M572.661 421.367L494.45 342.849L416.249 421.367H572.661Z" fill="url(#paint10_linear_293_2715)"/>
<path d="M755.726 508.663H178.378V443.544C237.778 384.263 296.465 410.782 335.783 415.332C361.505 418.313 380.729 410.138 393.58 405.911C435.463 392.126 452.556 417.898 510.394 419.3C571.347 420.785 578.683 392.459 633.272 391.95C663.619 391.669 705.296 399.73 755.539 435.972C755.57 459.531 755.653 483.017 755.726 508.663Z" fill="url(#paint11_linear_293_2715)"/>
<path opacity="0.1" d="M585.956 507.5H334.2C333.061 507.5 332.13 506.565 332.13 505.423V280.971C332.13 279.828 333.061 278.893 334.2 278.893H585.956C587.095 278.893 588.026 279.828 588.026 280.971V505.423C588.026 506.565 587.095 507.5 585.956 507.5ZM580.059 499.502V286.891H340.087V499.502H580.059Z" fill="url(#paint12_linear_293_2715)"/>
<path d="M615.238 449.601H362.519C361.608 449.569 360.842 448.905 360.698 448.001L336.155 275.974C336.021 275.237 336.517 274.53 337.252 274.395C337.345 274.375 337.428 274.375 337.521 274.375H590.24C591.151 274.406 591.916 275.07 592.061 275.974L616.603 448.001C616.738 448.738 616.241 449.445 615.507 449.58C615.414 449.601 615.331 449.601 615.238 449.601ZM607.726 441.602L584.963 282.373H345.033L367.744 441.602H607.726Z" fill="white"/>
<path d="M411.407 335.754C419.887 335.754 426.762 328.852 426.762 320.339C426.762 311.825 419.887 304.924 411.407 304.924C402.927 304.924 396.052 311.825 396.052 320.339C396.052 328.852 402.927 335.754 411.407 335.754Z" fill="#FFAB00"/>
<path d="M351.282 167.737C359.762 167.737 366.637 160.835 366.637 152.322C366.637 143.808 359.762 136.907 351.282 136.907C342.802 136.907 335.927 143.808 335.927 152.322C335.927 160.835 342.802 167.737 351.282 167.737Z" fill="#B2D4FF"/>
<path d="M755.664 508.175H934C929.116 500.842 921.253 491.794 909.364 487.899C896.317 483.63 891.144 489.717 877.062 486.071C858.044 481.137 858.541 467.706 842.317 464.579C824.087 461.079 818.675 477.117 802.617 472.432C791.649 469.233 790.594 460.715 768.307 445.653C763.03 442.09 758.53 439.494 755.664 437.904V508.175Z" fill="url(#paint13_linear_293_2715)"/>
<path d="M178.336 180.409C175.429 179.879 172.47 179.609 169.511 179.609L113.142 179.682C85.7744 179.713 63.6221 202.005 63.6531 229.48C63.6841 256.944 85.8986 279.184 113.255 279.152C120.902 279.152 128.02 283.068 132.128 289.54L135.604 295.024L139.07 289.529C143.178 283.058 150.286 279.142 157.922 279.142H169.686C172.604 279.132 175.512 278.862 178.388 278.353L178.336 180.409Z" fill="#FFC400"/>
<path d="M219.113 229.293C219.082 205.246 201.917 184.658 178.336 180.409V278.301C201.958 274.031 219.134 253.391 219.113 229.293Z" fill="#FF991F"/>
<path opacity="0.6" d="M519.593 176.722H376.921V190.859H519.593V176.722Z" fill="#FFC400"/>
<path d="M636.749 85.8937C637.752 87.5245 637.287 89.6747 635.672 90.7239C634.058 91.773 631.917 91.3263 630.841 89.7371L619.366 71.9537C618.311 70.3125 618.776 68.1208 620.411 67.0612C622.046 66.0017 624.229 66.4692 625.284 68.1104L636.759 85.8937H636.749Z" fill="#2684FF"/>
<path d="M519.613 178.353L518.578 179.641L524.911 184.959L526.37 183.214C528.842 180.233 532.288 178.228 536.085 177.543L536.561 177.46C540.358 176.764 543.793 174.759 546.277 171.788L641.643 57.3701C646.133 52.0102 645.44 44.0015 640.091 39.5037C640.08 39.5037 640.07 39.4829 640.06 39.4725C634.71 34.9851 626.754 35.6915 622.273 41.0618L527.249 155.012C524.538 158.264 523.172 162.439 523.431 166.667C523.69 170.905 522.324 175.091 519.613 178.353Z" fill="#FFAB00"/>
<path d="M538.993 140.968C545.563 139.202 554.513 137.343 561.3 135.92C568.398 134.445 574.41 133.157 579.448 131.952L586.867 123.06C579.293 125.325 567.87 127.703 559.966 129.355C554.792 130.394 550.188 131.432 546.246 132.295L538.993 140.968Z" fill="#FFE380"/>
<path d="M614.358 90.0903C578.734 98.9924 571.502 104.477 572.019 110.2C572.485 115.332 579.2 117.046 586.298 118.864C587.26 119.103 588.45 119.414 589.629 119.736L594.296 114.148C592.392 113.493 590.23 112.932 587.943 112.351C585.377 111.696 580.897 110.554 579.117 109.525C580.628 108.092 586.246 104.633 606.95 98.9716L614.358 90.0903Z" fill="#FFE380"/>
<path d="M566.07 147.99C550.353 146.536 541.476 145.123 536.478 143.991L531.74 149.663C537.058 151.242 545.977 152.779 560.866 154.233L566.07 147.99Z" fill="#FFE380"/>
<path d="M515.919 187.431L519.406 188.615C519.893 188.782 520.42 188.615 520.741 188.231L524.042 184.273L519.53 180.482L515.392 185.468C514.957 185.987 515.019 186.766 515.537 187.213C515.65 187.306 515.785 187.379 515.919 187.431Z" fill="#FF8B00"/>
<path d="M784.821 175.683C784.821 163.634 794.547 153.87 806.549 153.87H831.278C843.28 153.87 853.006 163.634 853.006 175.683C853.006 187.733 843.28 197.497 831.278 197.497C827.925 197.497 824.801 199.211 823 202.047L821.479 204.457L819.958 202.047C818.158 199.2 815.033 197.476 811.681 197.466H806.508C794.536 197.445 784.841 187.702 784.821 175.683Z" fill="#4C9AFF"/>
<path d="M156.101 135.172C156.101 123.123 146.375 113.358 134.373 113.358H109.644C97.6422 113.358 87.9163 123.123 87.9163 135.172C87.9163 147.222 97.6422 156.986 109.644 156.986C112.997 156.986 116.121 158.7 117.922 161.535L119.443 163.945L120.964 161.535C122.764 158.689 125.878 156.955 129.241 156.955H134.414C146.386 156.934 156.081 147.19 156.101 135.172Z" fill="#4C9AFF"/>
<g opacity="0.1">
<path d="M698.177 167.56H574.43C572.716 167.56 571.326 168.955 571.326 170.676V264.963C571.326 266.684 572.716 268.079 574.43 268.079H698.177C699.892 268.079 701.281 266.684 701.281 264.963V170.676C701.281 168.955 699.892 167.56 698.177 167.56Z" fill="#172B4D"/>
</g>
<path d="M703.123 162.117H579.376C577.662 162.117 576.272 163.512 576.272 165.233V259.52C576.272 261.241 577.662 262.637 579.376 262.637H703.123C704.837 262.637 706.227 261.241 706.227 259.52V165.233C706.227 163.512 704.837 162.117 703.123 162.117Z" fill="url(#paint14_linear_293_2715)"/>
<mask id="mask1_293_2715" style="mask-type:luminance" maskUnits="userSpaceOnUse" x="576" y="162" width="131" height="101">
<path d="M703.123 162.117H579.376C577.662 162.117 576.272 163.512 576.272 165.233V259.52C576.272 261.241 577.662 262.637 579.376 262.637H703.123C704.837 262.637 706.227 261.241 706.227 259.52V165.233C706.227 163.512 704.837 162.117 703.123 162.117Z" fill="white"/>
</mask>
<g mask="url(#mask1_293_2715)">
<path d="M583.411 151.158H576.272V270.894H583.411V151.158Z" fill="#FFAB00"/>
</g>
<path d="M594.048 242.911H655.249" stroke="#B2D4FF" stroke-width="7" stroke-miterlimit="10"/>
<path d="M594.048 224.909H695.063" stroke="#B2D4FF" stroke-width="7" stroke-miterlimit="10"/>
<path d="M615.289 171.715H598.507C596.221 171.715 594.368 173.575 594.368 175.87V192.718C594.368 195.013 596.221 196.873 598.507 196.873H615.289C617.575 196.873 619.428 195.013 619.428 192.718V175.87C619.428 173.575 617.575 171.715 615.289 171.715Z" fill="#B2D4FF"/>
<path d="M797.733 27.9526L741.313 28.0461C713.946 28.0773 691.793 50.3688 691.824 77.8436C691.824 79.7757 691.948 81.7077 692.176 83.6294H755.726V132.7C757.505 134.185 759.057 135.93 760.299 137.894L763.775 143.378L767.242 137.883C771.349 131.412 778.457 127.496 786.093 127.496H797.806C825.163 127.465 847.315 105.163 847.284 77.6982C847.284 50.2234 825.101 27.9526 797.733 27.9526Z" fill="#57D9A3"/>
<path d="M692.197 83.6089C695.156 108.663 716.315 127.527 741.447 127.506C746.672 127.506 751.732 129.345 755.746 132.7V83.6089H692.197Z" fill="#36B37E"/>
<path d="M754.66 329.542L741.964 361.608L766.631 361.889L754.66 329.542Z" fill="#FEEFD3"/>
<path d="M740.381 500.842L765.048 501.122L764.903 514.294C764.831 520.692 759.606 525.824 753.222 525.751L751.649 525.73C745.275 525.658 740.164 520.412 740.237 514.003L740.381 500.832V500.842Z" fill="#253858"/>
<path d="M741.95 361.626L740.377 500.83L765.042 501.111L766.615 361.907L741.95 361.626Z" fill="url(#paint15_linear_293_2715)"/>
<path d="M758.933 341.103L754.66 329.542L750.128 340.999L758.933 341.103Z" fill="#344563"/>
<path d="M741.962 361.622L740.389 500.826L752.722 500.967L754.295 361.763L741.962 361.622Z" fill="#FCB123"/>
<path d="M237.375 430.831C228.28 440.252 217.416 447.772 205.414 452.966C214.374 427.984 233.36 407.916 257.758 397.643C253.205 409.941 246.283 421.222 237.375 430.831Z" fill="url(#paint16_linear_293_2715)"/>
<path d="M175.45 433.053C186.272 437.218 196.164 443.493 204.565 451.512C181.151 452.893 158.233 444.355 141.398 427.963C152.976 427.392 164.544 429.116 175.45 433.053Z" fill="url(#paint17_linear_293_2715)"/>
<path d="M182.547 418.781C192.708 428.223 200.903 439.597 206.666 452.228C180.095 443.295 158.471 423.59 147.058 397.902C160.147 402.441 172.201 409.536 182.547 418.781Z" fill="url(#paint18_linear_293_2715)"/>
<path d="M204.865 409.328C207.142 423.85 206.552 438.673 203.106 452.956C186.852 428.078 181.72 397.497 188.973 368.651C196.888 381.022 202.289 394.848 204.865 409.328Z" fill="url(#paint19_linear_293_2715)"/>
<path d="M229.16 422.126C223.345 433.874 215.274 444.355 205.414 452.966C206.386 426.426 218.389 401.517 238.523 384.294C237.913 397.403 234.726 410.253 229.16 422.126Z" fill="url(#paint20_linear_293_2715)"/>
<path d="M194.622 413.556C200.768 425.855 204.431 439.244 205.414 452.966C183.872 435.442 170.638 409.64 168.941 381.854C179.495 390.621 188.228 401.392 194.622 413.556Z" fill="url(#paint21_linear_293_2715)"/>
<path d="M243.014 441.353C231.922 448.302 219.579 452.977 206.687 455.116C221.369 433.033 244.618 418.147 270.754 414.086C263.387 424.92 253.961 434.186 243.014 441.353Z" fill="url(#paint22_linear_293_2715)"/>
<path d="M219.93 412.943C217.778 427.111 212.853 440.719 205.445 452.966C197.685 425.013 201.948 395.077 217.209 370.438C220.892 384.284 221.824 398.733 219.93 412.943Z" fill="url(#paint23_linear_293_2715)"/>
<path d="M229.315 508.664H175.232L160.468 444.978H244.08L229.315 508.664Z" fill="white"/>
<path d="M493.664 96.2192H429.907C428.655 96.2192 427.641 97.2377 427.641 98.4941V109.214C427.641 110.47 428.655 111.489 429.907 111.489H493.664C494.915 111.489 495.929 110.47 495.929 109.214V98.4941C495.929 97.2377 494.915 96.2192 493.664 96.2192Z" fill="#0065FF"/>
<path d="M301.115 95.7997C300.344 94.0845 298.336 93.3203 296.63 94.0929C294.924 94.8654 294.166 96.8822 294.937 98.5974L299.451 108.644C300.222 110.359 302.229 111.123 303.935 110.351C305.641 109.578 306.399 107.561 305.629 105.846L301.115 95.7997Z" fill="#E38651"/>
<path d="M313.589 109.37L310.795 108.965L307.464 106.181C306.191 105.36 304.794 105.422 303.584 106.326L303.18 106.627L298.493 106.118C297.913 106.098 297.427 106.544 297.406 107.126L297.231 111.759L316.3 112.476C316.279 110.917 315.13 109.598 313.589 109.37Z" fill="#42526E"/>
<path d="M286.269 111.837C286.369 109.958 284.936 108.353 283.067 108.252C281.199 108.151 279.602 109.593 279.501 111.472L278.911 122.477C278.811 124.356 280.244 125.961 282.113 126.062C283.981 126.163 285.578 124.721 285.679 122.842L286.269 111.837Z" fill="#E38651"/>
<path d="M293.351 125.273L290.567 124.857L287.246 122.063C285.973 121.242 284.577 121.294 283.356 122.188L282.952 122.479L278.265 121.949C277.686 121.928 277.199 122.375 277.179 122.956L276.992 127.589L296.051 128.379C296.03 126.821 294.892 125.501 293.351 125.262V125.273Z" fill="#42526E"/>
<path d="M250.763 61.8058C245.952 61.6915 242.01 65.618 242.083 70.4482C242.165 75.2576 246.19 79.8904 250.981 79.6515L286.884 77.1169C290.857 77.0026 294.013 73.6994 293.951 69.7003C293.889 65.7011 290.629 62.5018 286.656 62.5121L250.774 61.7954L250.763 61.8058Z" fill="#0065FF"/>
<path d="M249.129 43.3159C241.1 41.5293 234.798 59.1776 236.92 73.2214C237.323 75.891 238.906 78.1451 240.189 80.2953C241.255 82.0819 258.379 85.3332 261.948 79.3708C264.732 74.738 265.952 68.973 264.142 63.7792C259.755 51.2208 256.527 44.9572 249.129 43.3056V43.3159Z" fill="url(#paint24_linear_293_2715)"/>
<path d="M249.594 59.7178C244.555 58.918 239.061 68.4329 238.471 73.5228C237.882 78.5918 241.472 84.0141 246.532 84.44L284.587 86.8187C288.777 87.255 292.544 84.2322 293.04 80.0253C293.537 75.8184 290.547 72.0062 286.377 71.4557L249.594 59.7282V59.7178Z" fill="url(#paint25_linear_293_2715)"/>
<path d="M290.609 81.6248C290.712 77.5321 289.471 73.8445 285.363 73.5952C281.255 73.3459 277.696 76.4102 277.303 80.4925L275.306 121.222L290.309 120.858L290.609 81.6144V81.6248Z" fill="url(#paint26_linear_293_2715)"/>
<path d="M293.558 66.9891C291.799 63.3431 287.443 61.7226 283.718 63.3846C279.993 65.0362 280.376 68.0694 281.876 71.8296L294.416 109.682L307.67 99.8342L293.547 66.9891H293.558Z" fill="url(#paint27_linear_293_2715)"/>
<path d="M287.277 41.6122C287.919 42.8379 286.594 44.77 285.808 45.279L268.467 58.5541C267.215 59.1566 265.445 58.1906 264.473 56.352C263.511 54.5134 263.718 52.4983 264.928 51.8127L284.618 41.259C285.477 40.8955 287.277 41.6226 287.277 41.6226V41.6122Z" fill="#E38651"/>
<path d="M255.606 27.0488C253.36 27.8383 255.337 35.7016 256.175 37.8933L261.855 54.7937L261.876 56.2376C262.548 58.0346 264.918 57.3906 266.77 56.7466C268.622 56.1026 269.843 49.2364 269.243 47.4082L268.146 46.2968C268.146 46.2968 257.768 26.3009 255.523 27.0904L255.616 27.0488H255.606Z" fill="#36B37E"/>
<path d="M258.979 25.979L263.438 36.0341L262.404 37.3325L254.706 33.8319L252.75 25.979H258.979Z" fill="#DB8A66"/>
<path d="M259.6 29.4587L252.109 29.386V15.2798C252.109 13.2023 253.785 11.5195 255.854 11.5195C257.923 11.5195 259.6 13.2023 259.6 15.2798V29.4587Z" fill="#DB8A66"/>
<path fill-rule="evenodd" clip-rule="evenodd" d="M282.424 43.1807C282.424 43.1807 283.014 40.0437 286.056 39.5659C286.056 39.5659 287.815 39.2023 288.301 39.2335C288.788 39.2646 290.795 38.2363 291.24 38.9426C291.685 39.649 289.553 40.3034 288.043 40.7085C288.043 40.7085 287.929 41.1863 288.446 41.1552C288.964 41.124 292.119 41.2694 292.119 41.2694L294.406 40.8124C294.716 40.7501 295.027 40.9578 295.079 41.2694C295.141 41.5707 294.944 41.8719 294.644 41.9446L292.626 42.4224C292.626 42.4224 294.24 42.3393 294.499 43.2327C294.499 43.2327 294.354 43.6793 293.433 43.7209C292.513 43.7624 291.043 43.9806 291.043 43.9806L290.35 44.7596C290.35 44.7596 288.664 45.0193 288.105 44.905C288.105 44.905 286.708 45.3101 285.86 45.2374C285.86 45.2374 284.535 46.4528 282.704 44.9466C280.872 43.43 282.414 43.2119 282.414 43.2119L282.424 43.1807Z" fill="#E38651"/>
<path d="M266.677 39.7425C266.408 38.3713 259.568 25.9168 259.568 25.9168C258.492 27.4126 263.2 35.4836 261.803 35.4421C258.917 35.3486 252.564 26.1765 251.819 24.6807C251.177 24.5352 239.879 23.8705 237.882 40.5735C237.551 43.3054 236.795 48.7069 236.682 50.4935L246.604 53.7759C250.95 55.2094 255.647 55.2094 259.993 53.7552C260.479 51.7504 261.265 50.3585 262.321 48.7588C263.718 46.6398 267.411 43.3573 266.687 39.7321L266.677 39.7425Z" fill="#57D9A3"/>
<path d="M260.231 6.52356C260.231 6.52356 264.111 7.71812 264.193 11.3745C264.193 11.3745 264.38 12.164 264.845 12.7664C265.311 13.3689 264.618 14.7712 264.618 14.7712C264.618 14.7712 266.284 16.3917 265.063 18.7392C263.842 21.0868 263.293 21.575 263.242 22.4164C263.19 23.2578 263.324 24.5458 261.803 24.5977C260.282 24.6497 256.702 23.6213 254.768 19.5494C252.843 15.4879 250.556 4.63304 260.231 6.51317V6.52356Z" fill="#DB8A66"/>
<path d="M241.193 29.9679L241.317 29.9056C245.104 25.8233 245.89 10.6576 251.291 6.62725C256.796 2.5242 263.024 6.3364 263.769 7.67638C264.007 9.7331 262.362 7.38553 261.152 7.45825C257.954 7.666 257.209 11.4159 256.433 15.5916C255.657 19.7674 257.147 28.6694 257.758 36.7924C258.368 44.9258 255.958 48.3225 254.612 49.0185C253.443 49.6209 249.967 48.416 248.932 46.6501C249.801 43.4508 251.033 36.8651 249.832 30.9547C249.512 29.355 247.949 28.3059 246.335 28.524C244.317 28.7941 241.834 29.2511 241.193 29.9575V29.9679Z" fill="#274364"/>
<path fill-rule="evenodd" clip-rule="evenodd" d="M258.73 63.7269C258.73 63.5711 259.351 59.8628 261.193 60.4861C262.61 60.9639 263.324 61.5871 263.542 62.3766C263.676 62.8856 263.945 63.353 264.369 63.675C264.918 64.1009 265.539 64.7034 265.332 65.1812C264.969 66.0018 262.683 64.7034 262.683 64.7034L265.766 67.0717C265.766 67.0717 266.977 67.2379 267.97 66.7081C268.912 66.1992 269.243 66.1992 269.243 66.1992C269.243 66.1992 269.926 66.7081 269.305 67.1652C268.684 67.6222 267.763 68.2974 267.763 68.2974L269.46 67.8819C269.698 67.8196 269.957 67.9235 270.081 68.1312C270.277 68.4532 270.133 68.8687 269.77 68.9934L269.388 69.118L270.288 69.44C270.577 69.5439 270.733 69.8763 270.619 70.1672C270.526 70.3957 270.298 70.5411 270.05 70.5203L265.745 70.0841C265.549 70.0633 265.363 69.9906 265.207 69.8659L263.862 68.7856C263.718 68.6714 263.552 68.5987 263.366 68.5883L262.848 68.5467C262.6 68.5259 262.372 68.4117 262.197 68.2351L258.358 64.2879L258.72 63.7166L258.73 63.7269Z" fill="#E38651"/>
<path d="M240.789 52.7993C239.31 52.3422 237.644 52.4357 236.951 54.4924C236.257 56.5491 236.878 58.6266 238.337 59.1668L258.813 64.7033C260.314 65.2123 261.41 65.6382 262.104 63.5503C262.807 61.4624 262.373 61.4624 260.634 60.8392L240.779 52.7993H240.789Z" fill="#E38651"/>
<path d="M246.345 29.1783C243.79 28.5031 241.296 29.6769 240.82 31.7751L236.175 50.6284L235.368 51.7191C234.964 53.4226 237.561 54.2848 239.651 54.8353C241.751 55.3858 244.659 56.0506 245.145 54.3575L244.752 52.924L249.894 34.1746C250.505 32.1179 248.901 29.8638 246.345 29.1887V29.1783Z" fill="#57D9A3"/>
<path opacity="0.3" d="M282.766 74.5195L284.018 111.447L290.402 109.037L290.485 97.8082L282.766 74.5195Z" fill="#253858"/>
<path d="M664.758 151.464L664.024 147.491C663.924 146.95 663.406 146.592 662.866 146.693L649.346 149.211C648.807 149.311 648.451 149.832 648.551 150.373L649.285 154.346C649.385 154.888 649.903 155.245 650.443 155.145L663.963 152.627C664.502 152.526 664.858 152.006 664.758 151.464Z" fill="#CE8655"/>
<path d="M658.18 154.701L656.767 147.051L652.921 147.767L654.335 155.417L658.18 154.701Z" fill="#FFAB00"/>
<path d="M637.949 122.468C639.625 119.518 642.832 116.236 649.361 119.643L648.606 119.84C656.107 123.621 652.92 131.287 651.037 134.092L630.261 158.939C628.751 161.296 625.636 162.003 623.256 160.517C620.877 159.032 620.152 155.905 621.591 153.506L637.928 122.468H637.949Z" fill="#FFAB00"/>
<path d="M626.785 161.909C624.074 162.314 621.508 160.486 621.012 157.765C620.515 155.043 622.253 152.405 624.923 151.813L653.759 147.138L655.28 155.791L626.785 161.909Z" fill="#FFAB00"/>
<path d="M664.488 145.362L666.32 157.692L664.281 162.003C664.281 162.003 663.402 162.491 662.46 162.221L664.85 157.609L662.398 145.757L664.478 145.373L664.488 145.362Z" fill="#7A869A"/>
<path d="M662.771 156.56L659.491 153.735C660.36 153.07 660.846 151.948 660.629 150.795C660.412 149.642 659.232 146.983 658.187 146.671C658.187 146.671 658.591 146.474 659.118 146.38L663.122 145.632L664.861 157.609" fill="#42526E"/>
<path d="M662.771 156.56L662.543 157.204C662.233 158.118 661.343 161.577 662.171 162.044L662.471 162.21L664.861 157.598L662.771 156.549V156.56Z" fill="#42526E"/>
<path d="M648.968 110.388L652.807 123.123C653.076 124.026 653.252 124.982 653.221 125.917C653.096 129.397 651.193 134.133 648.006 134.715C642.315 135.775 636.852 131.994 635.828 126.281L633.469 113.203L648.978 110.388H648.968Z" fill="#FFC400"/>
<path d="M628.833 114.044C628.833 114.044 629.009 116.921 629.795 120.619C631.42 128.275 635.352 133.988 645.729 134.871L641.187 111.8L628.833 114.044Z" fill="#FFC400"/>
<path d="M626.919 161.038L630.478 159.152C630.964 158.895 631.149 158.292 630.893 157.805L624.476 145.595C624.22 145.108 623.619 144.922 623.134 145.179L619.574 147.064C619.089 147.322 618.903 147.925 619.159 148.412L625.577 160.621C625.833 161.108 626.434 161.295 626.919 161.038Z" fill="#CE8655"/>
<path d="M621.162 153.466L628.016 149.835L626.191 146.362L619.337 149.993L621.162 153.466Z" fill="#FFC400"/>
<path d="M644.974 116.818C652.879 116.194 653.396 125.824 653.396 125.824C653.965 133.095 649.082 135.172 645.729 134.871L609.992 128.337C607.209 128.15 605.087 125.751 605.232 122.946C605.377 120.142 607.757 117.991 610.551 118.106L644.974 116.828V116.818Z" fill="#FFC400"/>
<path d="M604.984 125.553C603.794 123.081 604.767 120.079 607.209 118.781C609.65 117.482 612.672 118.376 614.037 120.754L627.054 147.004L619.283 151.034L604.984 125.553Z" fill="#FFC400"/>
<path d="M630.654 162.294L614.927 162.325C614.927 162.325 614.617 161.359 615.051 160.497L630.665 160.466V162.294H630.654Z" fill="#7A869A"/>
<path d="M614.886 160.829C614.907 159.863 618.383 159.063 619.335 158.928L620.008 158.835L623.381 156.124C623.877 157.11 624.881 157.786 626.05 157.786C627.219 157.786 630.044 157.11 630.541 156.124C630.541 156.124 630.654 156.56 630.654 157.1V161.193L614.876 161.172V160.829H614.886Z" fill="#42526E"/>
<path d="M637.018 80.6795C639.356 80.7937 641.136 82.8193 640.96 85.1669L639.284 106.378C639.149 108.289 637.525 109.764 635.6 109.66C633.676 109.557 632.196 107.947 632.258 106.025L632.662 84.7514C632.713 82.4038 634.69 80.5548 637.028 80.6691L637.018 80.6795Z" fill="#FFAB00"/>
<path d="M629.868 83.214L636.976 83.2867L637.235 69.8869C637.276 67.9133 635.714 66.2825 633.748 66.2513C631.782 66.2097 630.158 67.7783 630.127 69.7519L629.858 83.214H629.868Z" fill="#CE8655"/>
<path d="M626.629 61.0163C626.629 61.0163 621.466 63.6651 623.691 69.7729C623.691 69.7729 622.139 72.536 622.315 73.1696C622.491 73.8033 623.36 73.7721 624.188 73.6267C624.188 73.6267 624.995 74.977 625.057 76.1093C625.088 76.5663 625.181 78.4568 626.412 78.3114C626.412 78.3114 633.241 77.9167 633.013 70.0118C632.827 63.4885 633.282 58.9076 626.619 61.0267L626.629 61.0163Z" fill="#CE8655"/>
<path d="M633.51 77.1167L642.098 80.6069C646.247 82.2897 647.633 87.5042 644.871 91.0463L637.38 100.624L629.62 95.1597C625.998 92.9056 625.284 89.6855 628.212 86.5797L633.52 77.1271L633.51 77.1167Z" fill="#CE8655"/>
<path d="M626.195 105.859C626.009 105.111 621.777 103.906 624.219 94.8896C624.632 93.3627 628.119 83.3907 630.634 81.1055C633.789 78.2489 636.976 77.2725 643.277 83.7543C647.799 88.4079 649.651 110.98 649.651 110.98C649.651 110.98 635.941 115.498 628.368 115.436C628.368 115.436 628.44 114.875 626.195 105.859Z" fill="#2684FF"/>
<path d="M624.043 103.137C624.829 104.924 626.091 105.454 626.185 105.859C628.306 114.418 628.368 115.353 628.368 115.426C629.361 115.426 630.447 115.363 631.606 115.239L639.315 92.563L634.09 94.4535L624.032 103.127L624.043 103.137Z" fill="#0065FF"/>
<path d="M637.069 77.0542L628.999 79.2148L630.365 83.7229L638.145 82.009L637.069 77.0542Z" fill="#2684FF"/>
<path d="M641.363 84.6686C643.236 86.0813 643.567 88.7716 642.108 90.6102L628.844 107.209C627.664 108.716 625.491 109.006 623.96 107.843C622.429 106.68 622.108 104.509 623.225 102.95L635.476 85.5827C636.831 83.6714 639.501 83.2559 641.374 84.6686H641.363Z" fill="#2684FF"/>
<path d="M630.354 59.2196C634.534 58.8872 638.259 61.3386 639.573 64.9535C640.867 67.4464 641.094 70.2199 640.66 72.1935C640.701 75.1851 639.542 75.798 638.921 73.7309C638.27 74.8631 637.545 75.5175 637.1 75.3617C636.987 73.949 637.245 72.3286 637.473 71.0197C637.452 71.0093 637.431 70.999 637.4 70.9886C637.442 70.2303 637.245 69.5447 636.676 69.2746C635.124 68.5475 635.486 69.6382 635.445 69.607C634.286 68.7345 628.771 69.9706 628.026 64.0705C627.912 63.9563 627.737 64.0497 627.55 64.2575C626.909 64.9535 626.216 64.1121 625.222 64.3094C623.67 64.6211 623.029 66.979 623.029 66.979C622.574 62.4709 625.667 59.6039 630.365 59.23L630.354 59.2196Z" fill="#0E1F40"/>
<path d="M636.655 63.634C636.697 63.7379 636.738 63.8314 636.769 63.9353C638.063 66.4282 638.29 69.2017 637.856 71.1753C637.897 74.1669 636.738 74.7798 636.117 72.7127C635.466 73.8449 635.662 75.0083 635.207 74.8525C635.093 73.4398 631.689 68.8381 631.637 68.807C630.478 67.9344 625.429 69.316 624.374 63.6756C624.26 63.5613 624.922 63.0315 624.736 63.2393L624.86 63.0212C627.53 58.2429 634.596 58.5753 636.645 63.6444L636.655 63.634Z" fill="#0E1F40"/>
<path d="M630.572 65.5659L633.075 65.6593L629.765 59.2918C636.728 58.1388 641.591 64.5271 641.115 70.3649C642.615 71.2997 645.181 73.7823 645.512 76.1715C645.885 78.8826 644.974 79.0696 645.326 80.9705C645.543 82.165 646.226 83.0687 648.12 84.4503C649.258 85.2813 649.072 88.0651 647.758 89.779C647.892 91.306 647.447 92.7914 646.133 93.5185C644.809 94.256 643.277 94.2456 642.005 93.6328C641.312 94.2145 640.442 94.5884 639.48 94.6715C636.997 94.8689 634.824 92.9991 634.628 90.5061C634.555 89.6336 634.752 88.7922 635.124 88.0755C634.214 87.3172 633.583 86.2057 633.489 84.9281C633.396 83.7543 633.614 81.9677 634.121 80.3888C633.893 78.2178 635.652 76.1299 634.421 74.3329C632.506 71.5075 630.975 67.1032 630.603 65.5762L630.572 65.5659Z" fill="url(#paint28_linear_293_2715)"/>
<path d="M629.33 68.807L630.272 72.9931C631.896 72.8684 633.024 70.4689 632.91 69.0043C632.796 67.5397 630.706 66.5529 629.33 68.807Z" fill="#CE8655"/>
<path d="M608.854 92.563C608.854 92.563 608.74 87.1615 605.812 85.4372C602.894 83.7129 600.98 82.1548 600.98 82.1548C600.98 82.1548 599.004 83.3909 602.853 86.0085C602.853 86.0085 601.228 86.0397 600.049 84.9386C600.049 84.9386 598.9 83.983 598.745 82.9962C598.745 82.9962 597.99 82.5911 597.845 83.2974C597.7 84.0038 598.155 85.8839 598.155 85.8839L597.617 87.0992L598.021 87.8471L597.638 88.73L598.445 89.5922L598.807 90.2258C599.573 91.5451 600.887 92.4591 602.387 92.7292L609.071 93.9342L608.843 92.563H608.854Z" fill="#CE8655"/>
<path d="M604.574 89.6404L604.551 89.6748C603.712 90.9126 604.031 92.599 605.264 93.4415L612.594 98.4503C613.827 99.2928 615.507 98.9723 616.346 97.7345L616.369 97.7002C617.208 96.4624 616.889 94.7759 615.656 93.9334L608.326 88.9246C607.093 88.0821 605.413 88.4026 604.574 89.6404Z" fill="#CE8655"/>
<path d="M628.119 102.078C629.671 103.199 630.054 105.37 628.957 106.949C627.861 108.539 625.709 108.944 624.115 107.884L606.753 95.8452C605.15 94.7337 604.746 92.5316 605.853 90.9215C606.96 89.3115 609.154 88.9064 610.757 90.0178L628.119 102.067V102.078Z" fill="#2684FF"/>
<path d="M350.382 354.462C351.779 353.444 353.413 352.104 353.031 351.636C352.503 350.982 347.071 355.324 347.174 354.939C347.278 354.555 352.213 351.273 351.261 350.836C350.309 350.4 345.54 354.358 345.54 354.358C346.347 352.353 344.753 351.283 344.753 351.283C344.598 350.681 343.667 354.524 343.667 354.524C341.918 356.3 341.629 359.427 341.629 359.427C341.67 361.93 344.567 363.27 346.492 361.691L347.671 360.725C348.468 360.424 351.396 357.287 352.099 356.56C352.803 355.833 351.996 355.521 351.996 355.521C348.468 358.159 348.53 357.879 348.53 357.879C348.53 357.879 353.455 353.921 353.082 353.215C352.906 352.893 351.561 353.672 350.392 354.441L350.382 354.462Z" fill="#91562D"/>
<path d="M345.34 361.289C346.245 360.381 346.247 358.909 345.343 358.002C344.44 357.096 342.975 357.097 342.069 358.006L335.463 364.639C334.558 365.547 334.556 367.019 335.459 367.926C336.362 368.832 337.828 368.831 338.733 367.922L345.34 361.289Z" fill="#91562D"/>
<path d="M303.356 391.327C304.598 393.414 307.308 394.058 309.347 392.76L327.805 380.929C329.481 379.869 330.02 377.667 329.006 375.953C327.992 374.239 325.798 373.668 324.08 374.655L304.949 385.343C302.839 386.528 302.125 389.228 303.366 391.316L303.356 391.327Z" fill="#FFC400"/>
<path d="M340.573 359.843C339.756 359.105 338.483 359.219 337.686 359.978L323.015 373.803C321.67 375.372 321.804 377.74 323.346 379.122C324.888 380.514 327.329 381.739 328.737 380.233L343.739 365.659C344.402 364.787 341.339 360.673 340.521 359.946L340.553 359.843H340.573Z" fill="#FFC400"/>
<path d="M305.198 394.827C306.638 394.827 307.805 393.655 307.805 392.209C307.805 390.764 306.638 389.592 305.198 389.592C303.758 389.592 302.59 390.764 302.59 392.209C302.59 393.655 303.758 394.827 305.198 394.827Z" fill="white"/>
<path d="M326.046 394.827C327.486 394.827 328.654 393.655 328.654 392.209C328.654 390.764 327.486 389.592 326.046 389.592C324.606 389.592 323.439 390.764 323.439 392.209C323.439 393.655 324.606 394.827 326.046 394.827Z" fill="white"/>
<path d="M325.26 437.717C327.694 437.717 329.668 435.736 329.668 433.292C329.668 430.848 327.694 428.867 325.26 428.867C322.826 428.867 320.852 430.848 320.852 433.292C320.852 435.736 322.826 437.717 325.26 437.717Z" fill="#FFC10E"/>
<path d="M311.199 437.717C313.633 437.717 315.607 435.736 315.607 433.292C315.607 430.848 313.633 428.867 311.199 428.867C308.765 428.867 306.791 430.848 306.791 433.292C306.791 435.736 308.765 437.717 311.199 437.717Z" fill="#FFC10E"/>
<path d="M313.972 492.885C313.972 491.164 312.582 489.769 310.868 489.769C309.153 489.769 307.764 491.164 307.764 492.885V502.981C307.764 504.702 309.153 506.098 310.868 506.098C312.582 506.098 313.972 504.702 313.972 502.981V492.885Z" fill="#91562D"/>
<path d="M335.721 492.885C335.721 491.164 334.331 489.769 332.617 489.769C330.902 489.769 329.513 491.164 329.513 492.885V502.981C329.513 504.702 330.902 506.098 332.617 506.098C334.331 506.098 335.721 504.702 335.721 502.981V492.885Z" fill="#91562D"/>
<path d="M305.539 419.103L303.966 430.487C303.853 431.297 303.853 432.128 304.06 432.918C304.825 435.847 307.64 439.576 310.992 439.576L321.856 439.618V419.103H305.539Z" fill="#2684FF"/>
<path d="M326.874 418.75L330.744 426.686C331.354 429.573 332.037 439.545 324.774 439.545L314.23 439.597V419.113L326.864 418.76L326.874 418.75Z" fill="#2684FF"/>
<path d="M316.176 380.43L305.663 387.504C301.845 390.122 304.194 394.038 307.764 396.998L317.427 405.007L327.174 388.553L316.176 380.43Z" fill="#91562D"/>
<path d="M320.283 386.631L311.789 386.559V371.985C311.789 369.845 313.692 368.1 316.031 368.1C318.379 368.1 320.273 369.835 320.273 371.985V386.631H320.283Z" fill="#91562D"/>
<path d="M310.299 370.095C310.444 365.057 313.496 363.312 317.769 363.135C322.042 362.958 324.577 366.345 324.846 371.372C324.846 371.372 324.908 371.964 324.929 372.266C324.97 372.92 325.467 373.481 325.56 374.686C325.664 376.057 325.157 376.4 325.001 378.145C324.66 381.895 323.532 381.677 321.939 381.677C319.476 381.677 317.241 380.389 315.369 378.114C312.978 376.047 310.112 376.171 310.288 370.105L310.299 370.095Z" fill="#91562D"/>
<path d="M308.591 371.788C311.5 371.788 313.858 369.421 313.858 366.501C313.858 363.581 311.5 361.213 308.591 361.213C305.683 361.213 303.325 363.581 303.325 366.501C303.325 369.421 305.683 371.788 308.591 371.788Z" fill="#1D304E"/>
<path d="M317.955 371.954C317.955 371.954 320.542 373.377 320.397 371.663C320.252 369.949 320.956 366.843 322.704 364.652C322.704 364.652 316.569 356.373 307.515 365.69C307.515 365.69 303.17 374.593 311.944 379.381C311.944 379.381 315.441 378.758 314.613 376.545C313.796 374.364 313.32 369.773 316.383 370.832L317.945 371.964L317.955 371.954Z" fill="#1D304E"/>
<path d="M320.025 432.305C320.169 428.805 314.282 425.886 310.785 425.886C307.308 425.886 303.749 428.784 303.863 432.264L305.436 465.452C305.477 468.35 307.815 470.676 310.713 470.676C313.61 470.676 315.948 468.339 315.989 465.452L320.025 432.305Z" fill="#2684FF"/>
<path d="M307.07 418.033C307.07 418.033 298.483 429.282 299.931 438.288C301.38 447.284 304.701 451.273 305.312 460.58L309.047 460.819L307.081 418.033H307.07Z" fill="#2684FF"/>
<path d="M315.969 465.451C315.865 462.616 313.537 460.341 310.681 460.341C307.826 460.341 305.498 462.616 305.394 465.451L306.098 498.837L315.141 498.764L315.969 465.451Z" fill="#2684FF"/>
<path d="M334.665 435.764C334.148 432.066 333.082 428.452 331.375 425.138C328.654 419.84 325.964 418.365 323.418 418.989L315.089 419.726C311.706 420.547 311.106 431.35 312.037 434.715L327.961 463.509C328.674 466.314 331.499 468.028 334.313 467.353C337.128 466.677 338.856 463.852 338.225 461.027L334.676 435.775L334.665 435.764Z" fill="#2684FF"/>
<path d="M338.245 462.585C338.142 459.749 335.814 457.474 332.958 457.474C330.102 457.474 327.774 459.749 327.671 462.585L328.374 495.97L337.417 495.897L338.245 462.585Z" fill="#2684FF"/>
<path d="M318.307 505.371L317.614 505.267C317.614 505.267 314.106 498.401 314.437 502.462H307.619C307.07 502.462 306.615 502.909 306.615 503.47V507.697H320.79V507.344C320.759 506.347 319.279 505.516 318.296 505.371H318.307Z" fill="#FFF2FB"/>
<path d="M306.605 508.611L320.739 508.663C320.739 508.663 321.059 507.666 320.614 506.773L306.605 506.721V508.611Z" fill="#FCC6EB"/>
<path d="M340.221 505.371L339.528 505.267C339.528 505.267 336.02 498.401 336.351 502.462H329.533C328.985 502.462 328.529 502.909 328.529 503.47V507.697H342.704V507.344C342.673 506.347 341.194 505.516 340.211 505.371H340.221Z" fill="#FFF2FB"/>
<path d="M328.519 508.611L342.653 508.663C342.653 508.663 342.974 507.666 342.529 506.773L328.519 506.721V508.611Z" fill="#FCC6EB"/>
<path d="M328.664 410.544C328.84 409.764 333.496 409.318 331.427 401.662C331.365 401.434 330.526 392.916 328.519 389.665C327.536 388.075 325.953 387.452 325.56 387.276C319.362 387.348 307.94 388.356 307.577 386.195C305.653 387.286 303.097 387.888 302.694 388.823C300.076 395.004 305.374 418.604 305.374 418.604C313.03 420.214 318.752 420.713 326.377 418.978C326.377 418.978 327.66 414.937 328.664 410.523V410.544Z" fill="#FFC400"/>
<path d="M327.091 416.506C319.859 417.222 316.134 417.908 304.939 416.225C304.629 416.173 305.125 419.425 305.508 419.497C312.637 420.723 319.704 420.796 326.771 419.435C327.278 419.341 327.495 416.464 327.091 416.506Z" fill="#0065FF"/>
<path d="M359.777 370.136C360.863 368.786 362.105 367.072 361.618 366.719C360.936 366.22 356.797 371.819 356.807 371.425C356.807 371.03 360.739 366.584 359.704 366.407C358.68 366.231 355.079 371.289 355.079 371.289C355.348 369.15 353.538 368.526 353.538 368.526C353.289 368.101 353.165 370.999 353.124 372.204C353.113 372.546 353.01 372.868 352.875 373.18C351.975 375.195 352.606 377.2 352.606 377.2C353.289 379.599 356.424 380.16 357.883 378.135L358.773 376.899C359.466 376.4 361.494 372.619 361.981 371.726C362.467 370.843 361.608 370.76 361.608 370.76C358.866 374.219 358.866 373.938 358.866 373.938C358.866 373.938 362.612 368.838 362.063 368.256C361.815 367.986 360.718 369.087 359.777 370.136Z" fill="#91562D"/>
<path d="M356.939 378.801C357.462 377.628 356.941 376.253 355.775 375.729C354.609 375.206 353.24 375.732 352.718 376.905L348.902 385.467C348.38 386.641 348.901 388.016 350.067 388.539C351.233 389.063 352.602 388.536 353.124 387.363L356.939 378.801Z" fill="#91562D"/>
<path d="M320.159 390.839C319.362 393.134 319.456 399.554 321.763 400.302L343.087 404.259H343.222C345.095 404.882 347.692 402.628 348.344 400.748C348.995 398.868 348.033 396.811 346.181 396.126L325.746 388.242C323.491 387.38 320.966 388.553 320.159 390.849V390.839Z" fill="#FFC400"/>
<path d="M352.7 377.48C351.675 377.086 350.527 377.543 350.051 378.529L340.221 399.398C339.518 401.34 340.49 403.501 342.415 404.249C344.339 404.997 347.071 405.267 347.847 403.356L357.718 381.666C358.018 380.617 353.703 377.875 352.679 377.48H352.7Z" fill="#FFC400"/>
<path d="M345.54 341.758L349.213 367.508L356.166 360.465L353.103 340.438L345.54 341.758Z" fill="white"/>
<path d="M761.541 387.723C761.541 387.723 758.385 382.269 760.247 378.769C762.11 375.268 763.072 372.546 763.072 372.546C763.072 372.546 765.783 372.567 763.548 377.522C763.548 377.522 765.183 376.556 765.69 374.749C765.69 374.749 766.259 373.087 765.814 372.017C765.814 372.017 766.321 371.154 766.89 371.767C767.459 372.38 768.152 374.53 768.152 374.53L769.425 375.413L769.466 376.4L770.387 377.055L770.108 378.405L770.128 379.257C770.159 381.043 769.414 382.747 768.09 383.931L762.172 389.208L761.561 387.702L761.541 387.723Z" fill="#CE8655"/>
<path d="M755.632 393.227C754.908 394.832 755.617 396.721 757.215 397.448C758.813 398.174 760.695 397.463 761.419 395.858L765.665 386.443C766.389 384.838 765.68 382.949 764.082 382.222C762.484 381.496 760.602 382.208 759.878 383.812L755.632 393.227Z" fill="#CE8655"/>
<path d="M720.536 410.949C721.199 407.126 723.713 404.405 726.103 404.924L746.279 409.494C748.235 409.91 751.504 411.811 750.956 414.948C750.407 418.085 748.007 421.637 744.303 420.993L723.765 418.511C721.333 418.189 719.874 414.782 720.536 410.959V410.949Z" fill="#008759"/>
<path d="M750.076 417.566C748.659 419.872 745.576 419.612 743.237 418.22C740.899 416.828 740.123 413.836 741.447 411.479L757.205 387.006C758.602 384.637 760.961 384.627 762.648 385.344C765.172 386.424 765.327 388.896 763.92 391.265L751.008 416.236L750.066 417.555L750.076 417.566Z" fill="#008759"/>
<path d="M728.596 415.333C730.374 415.333 731.814 413.886 731.814 412.102C731.814 410.318 730.374 408.872 728.596 408.872C726.819 408.872 725.379 410.318 725.379 412.102C725.379 413.886 726.819 415.333 728.596 415.333Z" fill="white"/>
<path d="M701.581 415.333C703.358 415.333 704.799 413.886 704.799 412.102C704.799 410.318 703.358 408.872 701.581 408.872C699.804 408.872 698.363 410.318 698.363 412.102C698.363 413.886 699.804 415.333 701.581 415.333Z" fill="white"/>
<path d="M705.979 404.862L717.05 404.779V387.868C717.05 385.385 714.566 383.36 711.514 383.36C708.462 383.36 705.979 385.375 705.979 387.868V404.862Z" fill="#CE8655"/>
<path d="M735.518 399.741C735.518 399.741 735.55 399.741 735.571 399.741C735.56 399.741 735.539 399.762 735.518 399.741Z" fill="#F8D2BE"/>
<path d="M705.275 378.665C705.658 378.229 708.162 375.528 711.793 375.839C711.793 375.839 711.804 375.839 711.814 375.839C711.825 375.839 711.824 375.839 711.835 375.839C715.467 376.245 717.391 379.371 717.691 379.87C719.698 383.256 718.157 391.109 716.584 394.111C715.725 395.752 708.296 399.647 705.151 397.643C703.899 396.843 703.93 395.825 703.547 394.017C702.688 389.935 702.264 389.385 703.206 386.985C703.382 386.538 703.144 385.894 703.175 385.437C703.402 382.155 703.92 380.171 705.275 378.654V378.665Z" fill="#CE8655"/>
<path d="M688.149 461.999C688.772 460.883 688.376 459.471 687.264 458.846C686.152 458.22 684.746 458.618 684.123 459.734L680.471 466.276C679.848 467.392 680.244 468.804 681.355 469.429C682.467 470.055 683.873 469.657 684.496 468.541L688.149 461.999Z" fill="#CE8655"/>
<path d="M679.791 466.169L674.08 472.993C673.738 473.409 673.573 473.949 673.645 474.479L674.193 477.294L675.735 480.161C675.87 480.41 676.232 480.41 676.366 480.161C676.697 479.486 677.091 478.249 676.542 476.868L677.059 475.777L679.801 474.022C679.801 474.022 678.032 477.315 678.994 478.914C679.129 479.132 679.46 479.143 679.615 478.925C680.308 477.979 682.016 475.279 682.678 474.624C683.505 473.814 684.913 466.667 684.913 466.667C684.913 466.667 682.936 461.453 679.791 466.169Z" fill="#CE8655"/>
<path d="M718.653 549.684V549.642C720.712 549.642 722.368 548.011 722.368 545.944V532.066C722.368 529.999 720.702 528.337 718.653 528.337C716.594 528.337 714.939 530.01 714.939 532.066V545.944C714.939 548.011 716.605 549.673 718.653 549.673V549.684Z" fill="#CE8655"/>
<path d="M701.757 549.58H701.767C703.819 549.58 705.482 547.91 705.482 545.851V533.75C705.482 531.69 703.819 530.02 701.767 530.02H701.757C699.706 530.02 698.043 531.69 698.043 533.75V545.851C698.043 547.91 699.706 549.58 701.757 549.58Z" fill="#CE8655"/>
<path d="M702.233 469.305C705.153 469.305 707.52 466.929 707.52 463.997C707.52 461.066 705.153 458.689 702.233 458.689C699.313 458.689 696.946 461.066 696.946 463.997C696.946 466.929 699.313 469.305 702.233 469.305Z" fill="white"/>
<path d="M719.109 469.388C722.029 469.388 724.396 467.012 724.396 464.08C724.396 461.149 722.029 458.772 719.109 458.772C716.189 458.772 713.821 461.149 713.821 464.08C713.821 467.012 716.189 469.388 719.109 469.388Z" fill="white"/>
<path d="M711.545 397.539L721.385 404.031C725.927 407.168 725.772 413.847 721.53 417.389L710.055 426.987L700.34 417.441C696.594 413.753 697.122 407.521 701.436 404.529L711.545 397.539Z" fill="#CE8655"/>
<path d="M693.097 464.32C692.983 458.98 697.318 454.618 702.637 454.722C707.934 454.825 712.094 459.313 711.804 464.621L709.817 497.653C709.672 502.057 706.03 505.547 701.633 505.464C697.225 505.381 693.728 501.756 693.749 497.341L693.087 464.309L693.097 464.32Z" fill="#344563"/>
<path d="M693.8 498.328C693.956 494.007 697.505 490.548 701.85 490.548C706.196 490.548 709.755 494.007 709.9 498.328L709.114 533.791C709.072 535.671 707.531 537.167 705.668 537.146L698.539 537.084C696.708 537.063 695.218 535.609 695.145 533.78L693.8 498.328Z" fill="#344563"/>
<path d="M709.89 464.32C709.776 458.98 714.111 454.618 719.429 454.722C724.727 454.825 728.886 459.313 728.597 464.621L726.61 497.653C726.465 502.057 722.823 505.547 718.426 505.464C714.018 505.381 710.521 501.756 710.542 497.341L709.879 464.309L709.89 464.32Z" fill="#344563"/>
<path d="M710.593 498.328C710.748 494.007 714.297 490.548 718.643 490.548C722.989 490.548 726.548 494.007 726.693 498.328L725.524 533.77C725.462 535.629 723.93 537.104 722.078 537.094L714.949 537.032C713.107 537.011 711.607 535.536 711.556 533.687L710.593 498.318V498.328Z" fill="#344563"/>
<path d="M726.413 439.764L728.41 458.98C728.555 460.352 728.555 461.754 728.286 463.094C727.314 468.038 723.734 474.323 719.471 474.323L705.658 474.395V439.764H726.413Z" fill="#344563"/>
<path d="M695.239 439.764L693.242 458.98C693.097 460.352 693.097 461.754 693.366 463.094C694.338 468.038 697.918 474.323 702.181 474.323L715.994 474.395V439.764H695.239Z" fill="#344563"/>
<path d="M692.611 420.35C693.821 411.448 696.48 405.308 704.013 402.026C704.085 401.995 703.082 398.764 703.154 398.733L719.76 396.24C719.76 396.24 719.316 400.624 719.45 400.665C723.858 402.14 730.48 405.973 730.697 406.43C734.484 414.449 730.418 461.951 730.418 461.951C712.031 470.531 691.348 464.465 691.348 464.465L692.611 420.35Z" fill="#36B37E"/>
<path d="M692 441.478C697.577 436.055 702.078 431.672 702.078 431.672L701.612 466.252C695.446 465.67 691.348 464.475 691.348 464.475L692.01 441.488L692 441.478Z" fill="#008759"/>
<path d="M703.64 405.828C706.837 406.669 708.71 409.983 707.789 413.172L699.853 440.013H699.843C699.108 442.62 696.429 444.168 693.811 443.472C691.193 442.786 689.61 440.117 690.241 437.478L696.439 410.18C697.194 406.95 700.443 404.986 703.64 405.828Z" fill="#36B37E"/>
<path d="M690.334 437.001C691.514 434.56 694.411 433.51 696.873 434.643C699.336 435.775 700.422 438.683 699.346 441.166L687.551 466.916C686.403 469.42 683.454 470.511 680.96 469.368C678.467 468.225 677.38 465.254 678.518 462.751L690.314 437.011H690.324L690.334 437.001Z" fill="#36B37E"/>
<path d="M717.712 394.236C717.536 394.984 712.383 396.053 711.152 388.523C711.059 387.951 710.852 387.39 710.479 386.944C709.786 386.123 708.545 385.479 707.044 388.523L706.289 388.377C706.289 388.377 706.817 383.215 706.382 382.03C706.123 381.314 705.347 380.742 704.561 380.327C703.547 379.797 703.413 378.384 704.261 377.616C705.875 376.151 708.462 374.385 711.442 374.583C719.202 375.081 722.73 382.186 720.743 387.879C718.757 393.56 717.701 394.246 717.701 394.246L717.712 394.236Z" fill="#344563"/>
<path d="M702.957 391.389C703.847 391.753 704.861 391.846 705.306 390.735C706.082 388.772 706.279 388.543 706.372 388.003L707.106 388.107C707.106 388.107 705.999 396.697 705.947 397.954C705.947 397.964 705.937 397.985 705.927 397.996C705.647 397.913 704.551 397.902 704.292 397.798C702.274 397.009 703.112 392.085 702.957 391.389Z" fill="#344563"/>
<path d="M711.338 548.344L712.114 548.23C712.114 548.23 716.005 540.626 715.632 545.113H723.185C723.796 545.113 724.292 545.612 724.292 546.225V550.91H708.576V550.515C708.617 549.414 710.252 548.489 711.338 548.334V548.344Z" fill="#FFAB00"/>
<path d="M724.303 551.938L708.638 552C708.638 552 708.276 550.899 708.772 549.902L724.303 549.84V551.938Z" fill="#FFC400"/>
<path d="M694.183 548.344L694.959 548.23C694.959 548.23 698.85 540.626 698.477 545.113H706.03C706.641 545.113 707.137 545.612 707.137 546.225V550.91H691.421V550.515C691.462 549.414 693.097 548.489 694.183 548.334V548.344Z" fill="#FFAB00"/>
<path d="M707.148 551.938L691.483 552C691.483 552 691.121 550.899 691.617 549.902L707.148 549.84V551.938Z" fill="#FFC400"/>
<path d="M706.858 542.558L706.134 533.261L697.422 533.355L697.205 542.755C697.205 542.755 704.654 546.152 706.858 542.558Z" fill="#344563"/>
<path d="M723.744 542.558L723.02 533.261L714.308 533.355L714.09 542.755C714.09 542.755 721.54 546.152 723.744 542.558Z" fill="#344563"/>
</g>
<defs>
<linearGradient id="paint0_linear_293_2715" x1="818.913" y1="349.559" x2="818.913" y2="152.322" gradientUnits="userSpaceOnUse">
<stop offset="0.19" stop-color="#DEEBFF" stop-opacity="0.5"/>
<stop offset="0.74" stop-color="#DEEBFF" stop-opacity="0"/>
</linearGradient>
<linearGradient id="paint1_linear_293_2715" x1="826.337" y1="492.525" x2="886.946" y2="401.419" gradientUnits="userSpaceOnUse">
<stop offset="0.4" stop-color="#36B37E"/>
<stop offset="0.58" stop-color="#63CD9E"/>
<stop offset="0.76" stop-color="#8BE4BB"/>
<stop offset="0.91" stop-color="#A4F3CD"/>
<stop offset="1" stop-color="#ADF8D3"/>
</linearGradient>
<linearGradient id="paint2_linear_293_2715" x1="nan" y1="nan" x2="nan" y2="nan" gradientUnits="userSpaceOnUse">
<stop offset="0.1" stop-color="#57D9A3"/>
<stop offset="0.6" stop-color="#57D9A3"/>
</linearGradient>
<linearGradient id="paint3_linear_293_2715" x1="823.869" y1="428.483" x2="895.934" y2="428.483" gradientUnits="userSpaceOnUse">
<stop offset="0.53" stop-color="#0049B0"/>
<stop offset="1" stop-color="#2684FF"/>
</linearGradient>
<linearGradient id="paint4_linear_293_2715" x1="749.843" y1="457.341" x2="703.611" y2="311.554" gradientUnits="userSpaceOnUse">
<stop offset="0.22" stop-color="#00875A"/>
<stop offset="1" stop-color="#57D9A3"/>
</linearGradient>
<linearGradient id="paint5_linear_293_2715" x1="740.206" y1="390.157" x2="691.334" y2="405.534" gradientUnits="userSpaceOnUse">
<stop stop-color="#2DB07C"/>
<stop offset="1" stop-color="#64E6A4"/>
</linearGradient>
<linearGradient id="paint6_linear_293_2715" x1="89.1682" y1="508.165" x2="89.1682" y2="437.894" gradientUnits="userSpaceOnUse">
<stop stop-color="#57D9A3"/>
<stop offset="0.46" stop-color="#45C48F"/>
<stop offset="0.94" stop-color="#36B37E"/>
</linearGradient>
<linearGradient id="paint7_linear_293_2715" x1="217.354" y1="545.747" x2="718.67" y2="46.407" gradientUnits="userSpaceOnUse">
<stop offset="0.19" stop-color="#DEEBFF"/>
<stop offset="0.74" stop-color="white"/>
<stop offset="0.83" stop-color="#F9FCFF"/>
<stop offset="0.94" stop-color="#E9F2FF"/>
<stop offset="1" stop-color="#DEEBFF"/>
</linearGradient>
<linearGradient id="paint8_linear_293_2715" x1="818.913" y1="349.559" x2="818.913" y2="152.322" gradientUnits="userSpaceOnUse">
<stop offset="0.19" stop-color="#EBECF0"/>
<stop offset="0.74" stop-color="white"/>
</linearGradient>
<linearGradient id="paint9_linear_293_2715" x1="364.991" y1="390.589" x2="461.289" y2="390.589" gradientUnits="userSpaceOnUse">
<stop stop-color="#253858"/>
<stop offset="1" stop-color="#253858"/>
</linearGradient>
<linearGradient id="paint10_linear_293_2715" x1="416.249" y1="382.103" x2="572.661" y2="382.103" gradientUnits="userSpaceOnUse">
<stop stop-color="#42526E"/>
<stop offset="1" stop-color="#A5ADBA"/>
</linearGradient>
<linearGradient id="paint11_linear_293_2715" x1="467.052" y1="508.663" x2="467.052" y2="391.939" gradientUnits="userSpaceOnUse">
<stop stop-color="#ABF5D1"/>
<stop offset="1" stop-color="#36B37E"/>
</linearGradient>
<linearGradient id="paint12_linear_293_2715" x1="460.078" y1="507.5" x2="460.078" y2="278.893" gradientUnits="userSpaceOnUse">
<stop stop-color="#253858" stop-opacity="0"/>
<stop offset="0.02" stop-color="#253858" stop-opacity="0.05"/>
<stop offset="0.19" stop-color="#253858" stop-opacity="0.39"/>
<stop offset="0.36" stop-color="#253858" stop-opacity="0.66"/>
<stop offset="0.54" stop-color="#253858" stop-opacity="0.85"/>
<stop offset="0.74" stop-color="#253858" stop-opacity="0.96"/>
<stop offset="1" stop-color="#253858"/>
</linearGradient>
<linearGradient id="paint13_linear_293_2715" x1="844.832" y1="508.175" x2="844.832" y2="437.904" gradientUnits="userSpaceOnUse">
<stop stop-color="#57D9A3"/>
<stop offset="0.71" stop-color="#57D9A3"/>
<stop offset="0.82" stop-color="#45C48F"/>
<stop offset="0.94" stop-color="#36B37E"/>
</linearGradient>
<linearGradient id="paint14_linear_293_2715" x1="584.642" y1="269.212" x2="698.301" y2="155.988" gradientUnits="userSpaceOnUse">
<stop stop-color="#DEEBFF"/>
<stop offset="0.16" stop-color="#EEF5FF"/>
<stop offset="0.35" stop-color="#FBFCFF"/>
<stop offset="0.54" stop-color="white"/>
</linearGradient>
<linearGradient id="paint15_linear_293_2715" x1="752.709" y1="500.97" x2="754.295" y2="361.766" gradientUnits="userSpaceOnUse">
<stop stop-color="#FFAB00"/>
<stop offset="1" stop-color="#FFE380"/>
</linearGradient>
<linearGradient id="paint16_linear_293_2715" x1="231.581" y1="452.966" x2="231.581" y2="397.643" gradientUnits="userSpaceOnUse">
<stop stop-color="#00875A"/>
<stop offset="0.19" stop-color="#058C5E"/>
<stop offset="0.42" stop-color="#149A6B"/>
<stop offset="0.68" stop-color="#2DB17F"/>
<stop offset="0.94" stop-color="#4FD19C"/>
<stop offset="1" stop-color="#57D9A3"/>
</linearGradient>
<linearGradient id="paint17_linear_293_2715" x1="195.706" y1="461.041" x2="150.094" y2="418.621" gradientUnits="userSpaceOnUse">
<stop stop-color="#00875A"/>
<stop offset="0.24" stop-color="#109768"/>
<stop offset="0.72" stop-color="#3BBF8C"/>
<stop offset="1" stop-color="#57D9A3"/>
</linearGradient>
<linearGradient id="paint18_linear_293_2715" x1="191.021" y1="458.835" x2="162.498" y2="391.368" gradientUnits="userSpaceOnUse">
<stop stop-color="#00875A"/>
<stop offset="0.23" stop-color="#1A9F70"/>
<stop offset="0.66" stop-color="#46C995"/>
<stop offset="0.88" stop-color="#57D9A3"/>
</linearGradient>
<linearGradient id="paint19_linear_293_2715" x1="220.861" y1="431.713" x2="171.057" y2="390.086" gradientUnits="userSpaceOnUse">
<stop stop-color="#00875A"/>
<stop offset="0.02" stop-color="#038A5D"/>
<stop offset="0.31" stop-color="#27AC7B"/>
<stop offset="0.57" stop-color="#42C591"/>
<stop offset="0.81" stop-color="#51D49E"/>
<stop offset="1" stop-color="#57D9A3"/>
</linearGradient>
<linearGradient id="paint20_linear_293_2715" x1="221.969" y1="452.966" x2="221.969" y2="384.294" gradientUnits="userSpaceOnUse">
<stop stop-color="#00875A"/>
<stop offset="0.26" stop-color="#129869"/>
<stop offset="0.77" stop-color="#40C390"/>
<stop offset="1" stop-color="#57D9A3"/>
</linearGradient>
<linearGradient id="paint21_linear_293_2715" x1="200.654" y1="454.701" x2="173.43" y2="380.208" gradientUnits="userSpaceOnUse">
<stop stop-color="#00875A"/>
<stop offset="0.45" stop-color="#2FB381"/>
<stop offset="0.8" stop-color="#4CCF9A"/>
<stop offset="1" stop-color="#57D9A3"/>
</linearGradient>
<linearGradient id="paint22_linear_293_2715" x1="224.344" y1="463.868" x2="253.274" y2="405.438" gradientUnits="userSpaceOnUse">
<stop stop-color="#00875A"/>
<stop offset="0.22" stop-color="#13996A"/>
<stop offset="1" stop-color="#57D9A3"/>
</linearGradient>
<linearGradient id="paint23_linear_293_2715" x1="211.27" y1="452.966" x2="211.27" y2="370.438" gradientUnits="userSpaceOnUse">
<stop stop-color="#00875A"/>
<stop offset="0.26" stop-color="#20A675"/>
<stop offset="0.56" stop-color="#3EC28E"/>
<stop offset="0.82" stop-color="#50D39E"/>
<stop offset="1" stop-color="#57D9A3"/>
</linearGradient>
<linearGradient id="paint24_linear_293_2715" x1="257.075" y1="92.9265" x2="243.942" y2="44.3286" gradientUnits="userSpaceOnUse">
<stop stop-color="#0049B0"/>
<stop offset="1" stop-color="#0065FF"/>
</linearGradient>
<linearGradient id="paint25_linear_293_2715" x1="263.573" y1="90.7971" x2="267.702" y2="64.4698" gradientUnits="userSpaceOnUse">
<stop stop-color="#0049B0"/>
<stop offset="1" stop-color="#0065FF"/>
</linearGradient>
<linearGradient id="paint26_linear_293_2715" x1="271.353" y1="102.493" x2="294.807" y2="94.6439" gradientUnits="userSpaceOnUse">
<stop stop-color="#0049B0"/>
<stop offset="1" stop-color="#0065FF"/>
</linearGradient>
<linearGradient id="paint27_linear_293_2715" x1="284.763" y1="90.8595" x2="298.902" y2="78.7403" gradientUnits="userSpaceOnUse">
<stop stop-color="#0049B0"/>
<stop offset="1" stop-color="#0065FF"/>
</linearGradient>
<linearGradient id="paint28_linear_293_2715" x1="645.694" y1="103.196" x2="637.181" y2="71.5376" gradientUnits="userSpaceOnUse">
<stop stop-color="#79F2C0"/>
<stop offset="0.07" stop-color="#6EDDB3"/>
<stop offset="0.32" stop-color="#4C9A8B"/>
<stop offset="0.55" stop-color="#31656A"/>
<stop offset="0.75" stop-color="#1E3F53"/>
<stop offset="0.9" stop-color="#122745"/>
<stop offset="1" stop-color="#0E1F40"/>
</linearGradient>
<clipPath id="clip0_293_2715">
<rect width="934" height="552" fill="white"/>
</clipPath>
</defs>
</svg>
