<?xml version="1.0" encoding="utf-8"?>
<!-- Generator: Adobe Illustrator 27.5.0, SVG Export Plug-In . SVG Version: 6.00 Build 0)  -->
<svg version="1.1" xmlns="http://www.w3.org/2000/svg" xmlns:xlink="http://www.w3.org/1999/xlink" x="0px" y="0px"
	 viewBox="0 0 500 500" style="enable-background:new 0 0 500 500;" xml:space="preserve">
<g id="BACKGROUND">
	<rect style="fill:#FFFFFF;" width="500" height="500"/>
</g>
<g id="OBJECTS">
	<path style="fill:#E3FBFF;" d="M138.309,397.786c0,0-75.837-18.715-68.472-81.923s25.769-65.128,26.416-83.063
		c0.648-17.935,4.668-81.052,46.88-88.69s46.336-13.267,60.556-29.75c14.22-16.483,78.142-32.564,109.499-2.01
		s47.439,62.715,66.736,69.148c19.297,6.432,32.564,44.818,22.915,70.049c-9.648,25.23-2.948,42.048,8.442,69.051
		c11.391,27.002-6.432,79.6-50.253,81.61c-43.82,2.01-43.82,2.01-43.82,2.01L138.309,397.786z"/>
	<g>
		<g>
			<path style="fill:#2CBF7B;" d="M430.62,351.885c-4.738,3.208-8.633,5.392-11.739,7.288l-4.11,22.747l8.205-4.756
				c0,0,1.189-0.686,3.081-1.978c12.454-8.505,18.136-17.343,18.136-17.343c3.424-5.25,9.482-14.537,6.406-23.903
				c-1.002-3.051-2.699-5.275-4.018-6.702c-0.754,2.018-3.683,9.7-7.56,16.002c-1.947,3.164-3.608,5.127-5.675,6.75
				C432.85,350.378,432.105,350.879,430.62,351.885z"/>
		</g>
		<g>
			<path style="fill:#2DA66D;" d="M416.284,373.548c2.999,1.371,6.415,1.855,9.774,1.637c4.32-2.948,12.3-9.052,18.136-17.343
				c-2.231-0.733-4.617-1.261-6.214-1.892c-2.783-1.101-5.148-2.481-7.359-4.065c-4.738,3.208-8.634,5.392-11.739,7.288
				L416.284,373.548z"/>
		</g>
		<g>
			<path style="fill:#2CBF7B;" d="M271.583,230.372c-0.418,9.86,1.372,18.049,4.69,23.494l13.75,5.767
				c0.778-0.804,1.491-1.911,2.143-3.255c5.899-12.162,6.858-43.549,6.858-43.549s-1.183-5.903-4.143-13.088
				c-2.328-5.656-5.754-12.105-10.571-17.096c-0.341-0.352-9.094,19.228-12.078,40.642
				C271.893,225.728,271.679,228.094,271.583,230.372z"/>
		</g>
		<g>
			<path style="fill:#2DA66D;" d="M282.933,223.364c-0.007,0.012-0.014,0.024-0.021,0.036c-1.058,1.786-2.225,3.574-3.9,4.803
				c-2.12,1.554-4.759,2.023-7.429,2.169c-0.418,9.86,1.372,18.049,4.69,23.494l11.304,4.741c1.592-0.577,3.127-1.331,4.589-2.229
				c5.899-12.162,6.858-43.549,6.858-43.549s-1.183-5.903-4.143-13.088c-2.022,4.124-4.042,8.249-6.064,12.373
				c-0.169,0.344-0.338,0.689-0.507,1.033c-0.271-5.799-1.216-20.89-3.999-30.498c0.035,0.31,2.089,18.344,1.047,32.898
				C285.16,218.303,284.34,220.984,282.933,223.364z"/>
		</g>
		<g>
			<g>
				<path style="fill:#027369;" d="M285.719,187.118l-0.554,0.123c5.999,27.095,4.749,50.541-3.714,69.686l0.519,0.229
					c4.54-10.271,7.036-21.934,7.418-34.667C289.718,211.506,288.484,199.605,285.719,187.118z"/>
			</g>
		</g>
		<g>
			<path style="fill:#2CBF7B;" d="M289.695,240.014c-0.163,0.641-0.311,1.263-0.442,1.866c-0.71,3.248-0.979,5.953-0.962,8.208
				l9.778,6.982l27.195-18.449c0,0,0.834-2.599,1.497-6.856c0.046-0.296,0.092-0.602,0.135-0.914
				c1.244-8.801,1.557-23.738-6.668-37.705c-0.269-0.455-0.547-0.911-0.835-1.364c0-0.002,0-0.002,0-0.002
				c-0.639-1.011-12.526,6.197-25.074,35.117C292.116,231.976,290.637,236.312,289.695,240.014z"/>
		</g>
		<g>
			<path style="fill:#2DA66D;" d="M299.108,239.231c-2.969,0.385-5.942,0.64-8.907,0.764c-0.169,0.007-0.337,0.014-0.506,0.018
				c-0.163,0.641-0.311,1.263-0.442,1.866c-0.71,3.248-0.979,5.953-0.962,8.208l9.778,6.982l27.195-18.449
				c0,0,0.834-2.599,1.497-6.856c0.046-0.296,0.092-0.602,0.135-0.914c-0.806,0.494-1.634,0.963-2.489,1.403
				c-3.794,1.956-7.815,3.27-11.852,4.337c-0.335,0.088-0.671,0.176-1.008,0.26c1.68-6.194,7.619-28.875,8.68-43.705
				c-0.269-0.455-0.547-0.911-0.835-1.364c-0.041,0.233-4.628,25.956-11.788,41.268C306.026,236.43,302.809,238.752,299.108,239.231
				z"/>
		</g>
		<g>
			<g>
				<path style="fill:#027369;" d="M320.051,194.347l-0.567-0.021c-0.71,19.293-5.628,38.668-14.225,56.031l0.508,0.252
					c4.287-8.66,7.694-17.926,10.125-27.542C318.301,213.538,319.701,203.875,320.051,194.347z"/>
			</g>
		</g>
		<g>
			<path style="fill:#2CBF7B;" d="M450.784,355.004c-8.4,3.411-13.731,11.449-18.282,19.702c-2.085,3.781-6.361,11.847-9.005,19.598
				c-0.014,0.04-0.028,0.079-0.041,0.119c-0.843,2.485-1.51,4.931-1.887,7.193h29.903c2.47-2.555,4.772-5.233,6.91-8.034
				c0.401-0.526,0.798-1.058,1.188-1.593c0.677-0.926,1.335-1.865,1.976-2.817c0.42-0.621,0.831-1.247,1.235-1.878
				c8.872-13.851,14.283-30.226,16.772-48.61C470.61,345.613,461.06,350.833,450.784,355.004z"/>
		</g>
		<g>
			<path style="fill:#2DA66D;" d="M434.008,393.965c-1.857,2.846-3.507,5.434-4.899,7.651h22.36
				c2.239-2.336,4.191-4.864,6.266-7.321c0.206-0.243,0.421-0.481,0.647-0.713c0.401-0.526,0.798-1.058,1.188-1.593
				c0.677-0.926,1.335-1.865,1.976-2.817c-3.258,1.394-6.738,2.263-10.268,2.56c-0.035,0.003-0.071,0.006-0.108,0.009
				c-3.633,0.294-6.216-0.953-5.91-4.881c0.226-2.88,1.713-5.739,3.154-8.13c2.98-4.949,7.016-9.529,10.594-14.058
				c3.212-4.069,6.495-8.081,9.837-12.045c3.341-3.964,6.719-7.902,10.212-11.733C464.949,348.848,445.543,376.28,434.008,393.965z"
				/>
		</g>
		<g>
			<g>
				<path style="fill:#2DA66D;" d="M429.109,401.616c1.393-2.217,3.042-4.805,4.899-7.651c-3.496,0.295-7.004,0.408-10.512,0.339
					c-0.014,0.04-0.028,0.079-0.041,0.119c-0.843,2.485-1.51,4.931-1.887,7.193H429.109z"/>
			</g>
		</g>
		<g>
			<g>
				<path style="fill:#027369;" d="M415.722,371.808l-0.12,0.663c9.911-4.063,20.49-9.402,26.87-18.395
					c3.196-4.506,5.455-10.037,7.108-17.406l-0.553-0.124c-1.636,7.294-3.866,12.76-7.017,17.202
					C435.787,362.519,425.463,367.792,415.722,371.808z"/>
			</g>
		</g>
		<g>
			<g>
				<path style="fill:#027369;" d="M478.683,340.466c-15.74,13.861-41.913,47.36-48.727,61.15h0.633
					c10.567-21.287,26.788-41.631,48.469-60.724L478.683,340.466z"/>
			</g>
		</g>
		<g>
			<path style="fill:#2CBF7B;" d="M101.714,208.579c8.503,5.009,16.571,7.285,22.936,6.92l11.56-9.418
				c-0.344-1.065-0.985-2.215-1.863-3.423c-7.954-10.929-35.197-26.547-35.197-26.547s-5.765-1.735-13.498-2.505
				c-6.086-0.608-13.389-0.62-20.059,1.281c-0.471,0.135,12.685,17.074,30.175,29.784C97.763,206.12,99.75,207.423,101.714,208.579z
				"/>
		</g>
		<g>
			<path style="fill:#2DA66D;" d="M100.873,195.267c0.007,0.012,0.014,0.024,0.022,0.035c1.078,1.774,2.107,3.645,2.403,5.702
				c0.373,2.602-0.455,5.151-1.583,7.575c8.503,5.009,16.571,7.285,22.936,6.92l9.503-7.742c0.24-1.676,0.297-3.386,0.193-5.098
				c-7.954-10.929-35.197-26.547-35.197-26.547s-5.765-1.735-13.498-2.505c2.687,3.725,5.375,7.449,8.063,11.173
				c0.224,0.311,0.448,0.622,0.673,0.934c-5.245-2.49-19.004-8.758-28.792-10.825c0.29,0.115,17.168,6.79,29.519,14.559
				C97.456,190.92,99.436,192.905,100.873,195.267z"/>
		</g>
		<g>
			<g>
				<path style="fill:#027369;" d="M70.203,175.749l-0.153,0.546c26.73,7.459,46.829,19.596,59.738,36.074l0.447-0.35
					c-6.925-8.84-16.042-16.531-27.096-22.861C93.604,183.699,82.523,179.187,70.203,175.749z"/>
			</g>
		</g>
		<g>
			<path style="fill:#2CBF7B;" d="M118.746,197.137c0.489,0.446,0.968,0.869,1.439,1.268c2.531,2.155,4.792,3.666,6.789,4.711
				l10.763-5.342l-3.479-32.678c0,0-1.9-1.959-5.345-4.548c-0.24-0.18-0.488-0.364-0.743-0.55
				c-7.179-5.24-20.212-12.546-36.406-11.862c-0.528,0.023-1.061,0.053-1.597,0.094c-0.002-0.001-0.002-0.001-0.002-0.001
				c-1.193,0.088-0.427,13.969,19.183,38.651C112.793,191.217,115.924,194.563,118.746,197.137z"/>
		</g>
		<g>
			<path style="fill:#2DA66D;" d="M122.486,188.463c-1.058,2.801-2.232,5.544-3.518,8.218c-0.073,0.152-0.147,0.304-0.222,0.455
				c0.489,0.446,0.968,0.869,1.439,1.268c2.531,2.155,4.792,3.666,6.789,4.711l10.763-5.342l-3.479-32.678
				c0,0-1.9-1.959-5.345-4.548c-0.24-0.18-0.488-0.364-0.743-0.55c0.057,0.944,0.081,1.895,0.067,2.856
				c-0.06,4.268-0.793,8.435-1.751,12.498c-0.08,0.337-0.161,0.675-0.245,1.012c-4.675-4.398-21.891-20.312-34.477-28.228
				c-0.528,0.023-1.061,0.053-1.597,0.094c0.186,0.146,20.723,16.3,30.864,29.824C123.27,181.041,123.805,184.972,122.486,188.463z"
				/>
		</g>
		<g>
			<g>
				<path style="fill:#027369;" d="M92.74,148.86l-0.285,0.49c16.689,9.706,31.469,23.165,42.742,38.921l0.461-0.33
					c-5.623-7.858-12.196-15.225-19.536-21.896C108.849,159.435,100.982,153.653,92.74,148.86z"/>
			</g>
		</g>
	</g>
	<g>
		<path style="fill-rule:evenodd;clip-rule:evenodd;fill:#CC293D;" d="M184.317,362.389v6.855c0,17.618,14.396,32.027,32.047,32.027
			h96.296v-38.882H184.317z"/>
		<path style="fill-rule:evenodd;clip-rule:evenodd;fill:#CC293D;" d="M312.66,401.271h96.332c17.619,0,32.015-14.409,32.015-32.027
			v-6.855H312.66V401.271z"/>
		<path style="fill-rule:evenodd;clip-rule:evenodd;fill:#CC293D;" d="M312.66,221.114h-42.88v-0.073h-17.177v0.073h-36.239
			c-17.65,0-32.047,12.191-32.047,29.81v11.364H312.66V221.114z"/>
		<path style="fill-rule:evenodd;clip-rule:evenodd;fill:#CC293D;" d="M408.992,221.114h-36.255h-17.164H312.66v41.174h128.347
			v-11.364C441.007,233.304,426.611,221.115,408.992,221.114z"/>
		<polygon style="fill-rule:evenodd;clip-rule:evenodd;fill:#FD5B68;" points="312.66,344.698 302.355,344.698 302.355,324.075 
			281.741,324.075 281.741,298.31 302.355,298.31 302.355,277.703 312.66,277.703 312.66,262.288 184.317,262.288 184.317,362.389 
			312.66,362.389 		"/>
		<polygon style="fill-rule:evenodd;clip-rule:evenodd;fill:#FD5B68;" points="312.66,277.703 322.97,277.703 322.97,298.31 
			343.585,298.31 343.585,324.075 322.961,324.075 322.961,344.698 312.66,344.698 312.66,362.389 441.007,362.389 441.007,262.288 
			312.66,262.288 		"/>
		<g>
			<polygon style="fill-rule:evenodd;clip-rule:evenodd;fill:#CC293D;" points="302.355,298.31 281.741,298.31 281.741,324.075 
				302.355,324.075 302.355,344.698 312.66,344.698 312.66,277.703 302.355,277.703 			"/>
			<polygon style="fill-rule:evenodd;clip-rule:evenodd;fill:#CC293D;" points="322.961,344.698 322.961,324.075 343.585,324.075 
				343.585,298.31 322.97,298.31 322.97,277.703 312.66,277.703 312.66,344.698 			"/>
		</g>
		<path style="fill-rule:evenodd;clip-rule:evenodd;fill:#D2F3F7;" d="M279.711,217.461c0,2.134-1.729,3.862-3.859,3.862h-15.138
			c-2.126,0-3.862-1.727-3.862-3.861c0-2.127,1.736-3.854,3.862-3.854h15.138C277.982,213.608,279.71,215.335,279.711,217.461z"/>
		<path style="fill-rule:evenodd;clip-rule:evenodd;fill:#D2F3F7;" d="M368.246,217.461c0,2.134-1.732,3.862-3.854,3.862H349.25
			c-2.134,0-3.859-1.727-3.859-3.861c0.001-2.127,1.724-3.854,3.859-3.854h15.142C366.515,213.608,368.246,215.335,368.246,217.461z
			"/>
		<rect x="264.335" y="198.849" style="fill-rule:evenodd;clip-rule:evenodd;fill:#D2F3F7;" width="7.898" height="17.247"/>
		<rect x="352.871" y="198.849" style="fill-rule:evenodd;clip-rule:evenodd;fill:#D2F3F7;" width="7.893" height="17.247"/>
		<path style="fill-rule:evenodd;clip-rule:evenodd;fill:#D2F3F7;" d="M261.645,200.485c0,0,4.763-25.138,51.574-25.138
			c46.8-0.001,52.506,25.138,52.506,25.138h-16.668c0,0-2.34-15.053-35.37-15.053c-33.034,0-35.375,15.053-35.375,15.053H261.645z"
			/>
		<polygon style="fill-rule:evenodd;clip-rule:evenodd;" points="486.273,354.266 489.148,353.872 486.268,354.266 		"/>
	</g>
	<g>
		<polygon style="fill:#A5C8E4;" points="277.451,164.208 277.451,407.179 277.45,407.179 104.038,407.179 104.036,407.179 
			104.036,164.208 104.038,164.208 277.45,164.208 		"/>
		<rect x="111.517" y="172.702" style="fill:#FFFFFF;" width="157.489" height="225.728"/>
		<g>
			<path style="fill:#293F60;" d="M191.752,141.521L191.752,141.521c-5.085,0-9.208,4.122-9.208,9.208v25.401h18.416v-25.401
				C200.96,145.644,196.838,141.521,191.752,141.521z M191.752,154.222c-2.513,0-4.551-2.038-4.551-4.551s2.038-4.551,4.551-4.551
				c2.513,0,4.551,2.038,4.551,4.551S194.266,154.222,191.752,154.222z"/>
			<path style="fill:#293F60;" d="M224.433,162.806v11.756c0,1.638-1.426,2.966-3.184,2.966h-59.967
				c-1.758,0-3.184-1.328-3.184-2.966v-11.756c0-1.637,1.426-2.966,3.184-2.966h59.967
				C223.007,159.84,224.433,161.169,224.433,162.806z"/>
		</g>
		<g>
			<g>
				<rect x="148.481" y="261.053" style="fill:#D1EAF3;" width="82.97" height="2.38"/>
				<rect x="148.481" y="268.667" style="fill:#D1EAF3;" width="82.97" height="2.38"/>
				<rect x="148.481" y="276.282" style="fill:#D1EAF3;" width="82.97" height="2.38"/>
			</g>
			<g>
				<rect x="148.481" y="292.41" style="fill:#D1EAF3;" width="82.97" height="2.38"/>
				<rect x="148.481" y="300.025" style="fill:#D1EAF3;" width="82.97" height="2.38"/>
				<rect x="148.481" y="307.639" style="fill:#D1EAF3;" width="82.97" height="2.38"/>
			</g>
			<g>
				<rect x="148.481" y="324.632" style="fill:#D1EAF3;" width="82.97" height="2.38"/>
				<rect x="148.481" y="332.246" style="fill:#D1EAF3;" width="82.97" height="2.38"/>
				<rect x="148.481" y="339.86" style="fill:#D1EAF3;" width="82.97" height="2.38"/>
			</g>
			<g>
				<path style="fill:#D1EAF3;" d="M234.677,373.852c-7.091,3.486-15.696,0.553-19.183-6.538
					c-3.486-7.091-0.553-15.696,6.538-19.183c7.091-3.486,15.696-0.553,19.183,6.538C244.7,361.761,241.768,370.366,234.677,373.852
					z M222.493,349.071c-6.573,3.232-9.292,11.209-6.061,17.782s11.209,9.292,17.782,6.061c6.574-3.232,9.292-11.209,6.061-17.782
					C237.044,348.558,229.067,345.839,222.493,349.071z"/>
			</g>
			<g>
				<path style="fill:#D1EAF3;" d="M233.319,371.092c-5.569,2.738-12.327,0.435-15.065-5.134
					c-2.738-5.569-0.435-12.327,5.135-15.065c5.569-2.738,12.327-0.435,15.065,5.134
					C241.192,361.596,238.888,368.354,233.319,371.092z M223.85,351.831c-5.051,2.483-7.141,8.613-4.657,13.665
					s8.614,7.141,13.665,4.657s7.141-8.613,4.657-13.665C235.032,351.437,228.902,349.347,223.85,351.831z"/>
			</g>
			<g>
				<path style="fill:#D1EAF3;" d="M234.472,358.625l-11.447,5.627c-0.285,0.14-0.629,0.023-0.769-0.262s-0.023-0.629,0.262-0.769
					l11.447-5.627c0.285-0.14,0.629-0.023,0.769,0.262C234.874,358.14,234.757,358.485,234.472,358.625z"/>
			</g>
			<g>
				<path style="fill:#D1EAF3;" d="M232.359,356.809l-9.481,4.661c-0.259,0.127-0.573,0.021-0.7-0.239s-0.021-0.573,0.239-0.7
					l9.481-4.661c0.259-0.127,0.573-0.021,0.7,0.239C232.725,356.368,232.618,356.681,232.359,356.809z"/>
			</g>
			<g>
				<path style="fill:#D1EAF3;" d="M233.579,361.513l-7.722,3.796c-0.234,0.115-0.517,0.019-0.632-0.215
					c-0.115-0.234-0.019-0.517,0.215-0.632l7.722-3.796c0.234-0.115,0.517-0.019,0.632,0.215
					C233.91,361.115,233.813,361.398,233.579,361.513z"/>
			</g>
		</g>
	</g>
	<g id="XMLID_00000085240895482390908450000016057199032746339240_">
		<g id="XMLID_00000136381754688869732780000015901982477218496649_">
			<path style="fill:#A5C8E4;" d="M83.865,253.208c-2.499,1.857-3.998,4.717-4.112,7.837c-0.483,14.082-2.37,38.913-9.523,46.954
				c-0.589,0.659-0.534,1.679,0.131,2.267c0.196,0.177,0.422,0.291,0.656,0.359c0.566,0.141,1.197-0.024,1.615-0.487
				c7.429-8.357,9.721-31.248,10.332-48.983c0.077-2.135,1.104-4.094,2.818-5.366c1.714-1.272,3.878-1.684,5.945-1.136
				c0.31,0.077,0.616,0.064,0.896-0.031l0.552-2.176c0.037-0.149,0.089-0.292,0.15-0.428c-0.204-0.221-0.465-0.395-0.772-0.47
				C89.536,250.749,86.375,251.349,83.865,253.208z"/>
			<path style="fill:#72A2BA;" d="M96.047,250.734c-1.116-0.284-2.25,0.279-2.722,1.283c-0.062,0.136-0.114,0.279-0.15,0.428
				l-0.552,2.176l-14.944,59.052l0.003,0.002l12.783,3.236l15.499-61.231c0.318-1.262-0.448-2.548-1.713-2.869l-1.349-0.34
				l-5.506-1.396L96.047,250.734z"/>
			<polygon style="fill:#A5C8E4;" points="99.032,244.62 97.396,251.075 102.902,252.471 102.904,252.468 104.537,246.011 			"/>
			<polygon style="fill:#A5C8E4;" points="77.678,313.673 76.078,320.002 76.081,320.004 88.862,323.244 90.465,316.912 
				77.682,313.676 			"/>
			<path style="fill:#72A2BA;" d="M76.081,320.004l-0.003-0.002l-12.531,49.507c-1.298,5.124-1.952,10.389-1.956,15.674
				l-0.001,1.252c3.011-0.381,6.019,0.106,8.373,2.187l0.63-1.16c2.513-4.649,4.441-9.592,5.736-14.717l12.532-49.501
				L76.081,320.004z"/>
			<path style="fill:#A5C8E4;" d="M61.591,386.435l-0.008,14.042c0,0.961,1.283,1.285,1.74,0.44l6.138-11.357l0.503-0.938
				C67.61,386.541,64.601,386.054,61.591,386.435z"/>
		</g>
	</g>
	<g>
		<g>
			<path style="fill:#72A2BA;" d="M203.501,193.915c-11.575,2.969-22.877,2.842-33.939,0.005c-1.817-0.466-3.587,0.902-3.587,2.778
				v31.459c0,1.535,0.285,3.059,0.872,4.478c2.6,6.286,8.888,12.737,18.697,18.288c9.915-5.175,15.957-10.501,20.04-17.845
				c0.98-1.763,1.486-3.75,1.486-5.767V196.7C207.07,194.831,205.311,193.451,203.501,193.915z"/>
			<path style="fill:#B2DCF7;" d="M200.638,198.694c-9.624,2.469-19.02,2.363-28.218,0.005c-1.511-0.388-2.982,0.75-2.982,2.31
				v26.155c0,1.276,0.237,2.544,0.725,3.723c2.162,5.227,7.123,10.405,15.278,15.02c8.244-4.302,13.534-8.546,16.929-14.652
				c0.815-1.466,1.236-3.118,1.236-4.795v-25.451C203.606,199.456,202.143,198.308,200.638,198.694z"/>
			<g>
				<path style="fill:#FFFFFF;" d="M172.338,198.683c-0.078-0.017-0.156-0.032-0.233-0.041
					C172.183,198.655,172.26,198.669,172.338,198.683z"/>
				<path style="fill:#E5E5E4;" d="M200.638,198.694c-0.668,0.172-1.335,0.327-2.001,0.474c0.092,0.254,0.143,0.529,0.143,0.818
					v25.451c0,1.677-0.421,3.33-1.236,4.795c-3.159,5.681-7.963,9.751-15.257,13.755c0.994,0.649,2.042,1.29,3.154,1.919
					c8.244-4.302,13.534-8.546,16.929-14.652c0.815-1.466,1.236-3.118,1.236-4.795v-25.451
					C203.606,199.456,202.143,198.308,200.638,198.694z"/>
			</g>
		</g>
		<path style="fill:#72A2BA;" d="M199.721,217.987H187.78v-11.941c0-0.694-0.563-1.257-1.257-1.257s-1.257,0.563-1.257,1.257v11.941
			h-11.941c-0.694,0-1.257,0.563-1.257,1.257c0,0.694,0.563,1.257,1.257,1.257h11.941v11.941c0,0.694,0.563,1.257,1.257,1.257
			s1.257-0.563,1.257-1.257v-11.941h11.941c0.694,0,1.257-0.563,1.257-1.257C200.978,218.55,200.415,217.987,199.721,217.987z"/>
		<path style="fill:#CBCBCB;" d="M172.817,203.195c-1.616,1.616-2.179,3.671-1.259,4.592c0.92,0.92,2.976,0.357,4.592-1.259
			c1.616-1.616,2.179-3.671,1.259-4.592C176.488,201.015,174.432,201.579,172.817,203.195z"/>
	</g>
	<g>
		<polygon style="fill:#E3FBFF;" points="37.606,231.125 49.005,231.125 49.005,219.726 62.466,219.726 62.466,231.125 
			73.865,231.125 73.865,244.586 62.466,244.586 62.466,255.985 49.005,255.985 49.005,244.586 37.606,244.586 		"/>
		<polygon style="fill:#E3FBFF;" points="365.562,100.924 375.561,100.924 375.561,90.925 387.37,90.925 387.37,100.924 
			397.369,100.924 397.369,112.733 387.37,112.733 387.37,122.732 375.561,122.732 375.561,112.733 365.562,112.733 		"/>
		<polygon style="fill:#E3FBFF;" points="61.108,203.065 69.224,203.065 69.224,194.949 78.809,194.949 78.809,203.065 
			86.925,203.065 86.925,212.65 78.809,212.65 78.809,220.766 69.224,220.766 69.224,212.65 61.108,212.65 		"/>
		<polygon style="fill:#FFFFFF;" points="205.348,133.005 213.163,133.005 213.163,125.19 222.392,125.19 222.392,133.005 
			230.208,133.005 230.208,142.235 222.392,142.235 222.392,150.05 213.163,150.05 213.163,142.235 205.348,142.235 		"/>
	</g>
	<g>
		<path style="fill:#B2DCF7;" d="M234.987,75.942l0.395,1.21l0.796,2.448c-0.005,0.004-0.014,0.003-0.019,0.007
			c-0.691,0.228-1.615,0.564-2.679,0.991c-4.415,1.795-11.142,5.213-13.044,9.138c-0.568,1.171-0.636,2.286-0.217,3.421
			c2.734,7.362,38.087,47.044,51.483,61.717l-0.96,0.875l-1.88,1.718c-4.98-5.457-48.762-53.567-52.247-62.974
			c-0.79-2.137-0.673-4.297,0.359-6.428c2.404-4.963,9.531-8.668,14.07-10.608c1.062-0.451,1.98-0.814,2.661-1.066
			C234.429,76.132,234.892,75.975,234.987,75.942z"/>
		<path style="fill:#B2DCF7;" d="M402.807,144.648c-1.936-2.213-3.617-3.156-3.839-3.276l-1.841,3.44
			c0.052,0.025,1.432,0.811,3.051,2.793c0.61,0.744,1.257,1.661,1.875,2.772c3.351,6.023,5.968,17.751-1.543,38.967
			c-4.173,11.779-10.239,10.004-12.234,9.419c-1.251-0.368-2.527-0.968-3.813-1.747c1.15-5.638,0.998-11.563-0.132-16.795
			c-2.482-11.491-9.239-19.553-17.639-21.042c-1.215-0.217-2.313-0.169-3.249,0.12c-1.715,0.519-2.914,1.839-3.38,3.831
			c-1.758,7.489,8.334,26.907,19.985,35.609c-1.497,5.16-4.342,9.826-8.873,12.936c-3.21,2.199-6.467,2.811-9.947,1.869
			c-7.224-1.94-13.71-10.049-17.849-16.451c-2.909-4.492-4.665-8.135-4.703-8.227l-3.528,1.674c0.184,0.384,2.076,4.328,5.214,9.104
			c3.518,5.35,8.598,11.752,14.588,15.363c0.004,0.005,0.004,0.005,0.004,0.005c1.686,1.012,3.44,1.809,5.255,2.299
			c4.589,1.242,9.018,0.426,13.169-2.421c5.007-3.438,8.245-8.433,10.058-13.96c0.616,0.334,1.231,0.635,1.847,0.895
			c0.638,0.268,1.267,0.493,1.897,0.678c2.347,0.694,5.774,1.053,9.16-0.876c0.472-0.269,0.937-0.581,1.402-0.942
			c2.37-1.839,4.65-4.954,6.442-10.036c8.254-23.301,4.939-36.263,0.839-42.979c-0.352-0.579-0.71-1.104-1.069-1.588
			C403.566,145.553,403.182,145.079,402.807,144.648z M363.854,164.024c0.071-0.306,0.153-0.629,0.426-0.842
			c0.289-0.224,0.791-0.33,1.733-0.16c6.8,1.206,12.364,8.116,14.503,18.024c0.904,4.198,1.131,8.881,0.459,13.41
			C371.353,186.289,362.49,169.835,363.854,164.024z"/>
		<path style="fill:#72A2BA;" d="M344.478,194.117c-0.052,0.407-0.49,3.411-3.221,5.073c-1.932,1.176-3.874,0.988-4.483,0.904
			c-7.239-9.331-14.479-18.662-21.718-27.994l7.705-5.977L344.478,194.117z"/>
		<g>
			<path style="fill:#B2DCF7;" d="M320.034,117.765l-3.217,2.106c-10.88-16.619-40.53-60.729-46.984-65.204
				c-0.991-0.687-2.091-0.897-3.364-0.64c-5.308,1.072-11.712,9.55-13.732,12.728l-3.245-2.063
				c0.332-0.522,8.23-12.822,16.216-14.434c2.32-0.468,4.445-0.048,6.316,1.249C280.27,57.224,315.989,111.585,320.034,117.765z"/>
			<path style="fill:#72A2BA;" d="M320.035,117.768l-1.255,0.819c-4.364-6.649-39.745-60.473-47.949-66.154
				c-1.874-1.296-3.995-1.719-6.315-1.249c-1.95,0.393-3.893,1.422-5.716,2.764c2.162-1.783,4.535-3.21,6.911-3.691
				c2.315-0.466,4.441-0.047,6.315,1.249C280.267,57.224,315.992,111.584,320.035,117.768z"/>
			<path style="fill:#72A2BA;" d="M249.491,64.69l2.846,1.807c-0.312,0.445-0.577,0.845-0.794,1.183l-3.248-2.064
				c0.255-0.393,4.832-7.521,10.504-11.67C253.696,58.15,249.728,64.327,249.491,64.69z"/>
			<path style="fill:#72A2BA;" d="M254.971,69.689L254.971,69.689c-1.207,0.936-2.96,0.715-3.897-0.492l-4.125-5.317
				c-0.936-1.207-0.715-2.96,0.492-3.897l0,0c1.207-0.936,2.96-0.715,3.897,0.492l4.125,5.317
				C256.4,66.999,256.178,68.753,254.971,69.689z"/>
			<path style="fill:#72A2BA;" d="M251.338,60.474l4.125,5.317c0.935,1.205,0.714,2.959-0.492,3.894
				c-0.172,0.134-0.355,0.243-0.548,0.328c0.79-0.978,0.839-2.411,0.037-3.444l-4.125-5.317c-0.468-0.603-1.14-0.957-1.845-1.051
				c-0.504-0.064-1.024,0.008-1.5,0.231c0.131-0.166,0.282-0.316,0.454-0.45c0.603-0.467,1.342-0.644,2.049-0.559
				C250.198,59.517,250.871,59.871,251.338,60.474z"/>
		</g>
		<g>
			<path style="fill:#72A2BA;" d="M235.479,77.449c0.233,0.717,0.467,1.435,0.7,2.152c-0.005,0.004-0.014,0.003-0.019,0.007
				c-0.691,0.228-1.615,0.564-2.679,0.991c-4.415,1.795-11.142,5.213-13.044,9.138c-0.568,1.171-0.636,2.286-0.217,3.421
				c2.734,7.362,38.087,47.044,51.483,61.717l-0.96,0.875c-2.934-3.393-49.45-57.225-51.288-61.212
				c-0.738-1.601-0.644-3.117-0.644-3.117c0.094-1.525,0.79-2.726,1.471-3.659c3.716-5.098,9.992-6.366,12.028-8.673
				c0.188-0.213,0.924-1.097,2.157-1.47C234.901,77.487,235.271,77.457,235.479,77.449z"/>
		</g>
		<path style="fill:#72A2BA;" d="M309.636,114.998L320.499,129c8.734,11.257,6.675,27.529-4.577,36.258
			c-11.257,8.734-27.525,6.68-36.258-4.577L268.8,146.679l-7.707,5.98l10.863,14.002c2.711,3.494,5.955,6.348,9.521,8.529
			c0.013,0.006,0.026,0.012,0.039,0.019c0.042,0.033,0.088,0.061,0.14,0.086c0.326,0.201,0.65,0.388,0.982,0.576
			c0.004,0.005,0.013,0.006,0.017,0.011c0.384,0.213,0.773,0.422,1.164,0.622c0.378,0.194,0.76,0.384,1.14,0.56
			c0.022,0.007,0.044,0.015,0.061,0.026c0.341,0.157,0.687,0.311,1.034,0.455c0.554,0.244,1.119,0.47,1.692,0.675
			c0.253,0.096,0.511,0.188,0.765,0.275c0.153,0.051,0.298,0.102,0.447,0.148c0.329,0.11,0.659,0.211,0.993,0.308
			c0.053,0.016,0.097,0.03,0.15,0.046c0.317,0.095,0.635,0.181,0.958,0.263c0.42,0.112,0.837,0.211,1.259,0.305
			c0.226,0.051,0.453,0.103,0.686,0.141c0.311,0.067,0.619,0.128,0.927,0.181c0.411,0.07,0.819,0.135,1.236,0.193
			c0.009,0.001,0.018,0.002,0.027,0.003c0.421,0.062,0.845,0.107,1.264,0.155c0.032,0,0.059,0.003,0.086,0.006
			c0.424,0.044,0.84,0.079,1.262,0.1c0.439,0.033,0.884,0.052,1.322,0.062c0.4,0.014,0.796,0.023,1.195,0.014
			c1.028-0.003,2.058-0.055,3.079-0.15c0.259-0.022,0.508-0.045,0.759-0.078c0.148-0.018,0.306-0.034,0.454-0.052
			c0.153-0.022,0.316-0.042,0.469-0.064c1.103-0.158,2.202-0.362,3.281-0.623c0.151-0.036,0.301-0.072,0.452-0.107
			c0.283-0.074,0.567-0.148,0.846-0.227c0.222-0.059,0.431-0.124,0.649-0.188c1.509-0.449,2.991-1.006,4.445-1.664
			c0.199-0.089,0.407-0.186,0.607-0.284c0.84-0.392,1.662-0.827,2.471-1.301l0.004,0.005c0.926-0.532,1.831-1.112,2.718-1.735
			c0.205-0.143,0.407-0.291,0.608-0.439c0.242-0.18,0.489-0.363,0.732-0.552c1.307-1.014,2.522-2.103,3.644-3.249
			c12.235-12.502,13.68-32.483,2.66-46.687l-10.863-14.002L309.636,114.998z"/>
		<path style="fill:#72A2BA;" d="M316.639,109.565l9.555,12.316c10.828,13.956,9.616,33.505-2.043,46.039
			c-1.295,1.394-2.711,2.696-4.261,3.898c-1.069,0.829-2.164,1.581-3.292,2.27c-10.865,6.636-24.232,6.794-35.082,1.121
			c0.042,0.033,0.088,0.061,0.14,0.086c0.326,0.201,0.65,0.388,0.982,0.576c0.004,0.005,0.013,0.006,0.017,0.011
			c0.384,0.213,0.773,0.422,1.164,0.622c0.378,0.194,0.76,0.384,1.14,0.56c0.022,0.007,0.044,0.015,0.061,0.026
			c0.341,0.157,0.687,0.311,1.034,0.455c0.554,0.244,1.119,0.47,1.692,0.675c0.253,0.096,0.511,0.188,0.765,0.275
			c0.153,0.051,0.298,0.102,0.447,0.148c0.329,0.11,0.659,0.211,0.993,0.308c0.053,0.016,0.097,0.03,0.15,0.046
			c0.317,0.095,0.635,0.181,0.958,0.263c0.42,0.112,0.837,0.211,1.259,0.305c0.226,0.051,0.453,0.103,0.686,0.141
			c0.311,0.067,0.619,0.128,0.927,0.181c0.411,0.07,0.819,0.135,1.236,0.193c0.009,0.001,0.018,0.002,0.027,0.003
			c0.418,0.057,0.84,0.111,1.264,0.155c0.032,0,0.059,0.003,0.086,0.006c0.424,0.044,0.84,0.079,1.262,0.1
			c0.439,0.033,0.884,0.052,1.322,0.062c0.4,0.014,0.796,0.023,1.195,0.014c1.028-0.003,2.058-0.055,3.079-0.15
			c0.259-0.022,0.508-0.045,0.759-0.078c0.148-0.018,0.306-0.034,0.454-0.052c0.153-0.022,0.316-0.042,0.469-0.064
			c1.103-0.158,2.202-0.362,3.281-0.623c0.151-0.036,0.301-0.072,0.452-0.107c0.283-0.074,0.567-0.148,0.846-0.227
			c0.222-0.059,0.431-0.124,0.649-0.188c1.509-0.449,2.991-1.006,4.445-1.664c0.199-0.089,0.407-0.186,0.607-0.284
			c0.84-0.392,1.662-0.827,2.471-1.301l0.004,0.005c0.926-0.532,1.831-1.112,2.718-1.735c0.205-0.143,0.407-0.291,0.608-0.439
			c0.242-0.18,0.489-0.363,0.732-0.552c1.307-1.014,2.522-2.103,3.644-3.249c12.235-12.502,13.68-32.483,2.66-46.687l-10.863-14.002
			L316.639,109.565z"/>
		<path style="fill:#72A2BA;" d="M234.83,73.282l4.125,5.317c0.263,0.339,0.43,0.721,0.512,1.12c0.216,1-0.131,2.089-0.988,2.762
			l-0.015,0.012c-1.205,0.935-2.959,0.714-3.894-0.492l-4.125-5.317c-0.468-0.603-0.644-1.342-0.559-2.049
			c0.094-0.705,0.448-1.378,1.051-1.845c1.043-0.809,2.498-0.754,3.473,0.064C234.562,72.978,234.704,73.12,234.83,73.282z"/>
		<path style="fill:#72A2BA;" d="M234.83,73.282l4.125,5.317c0.263,0.339,0.43,0.721,0.512,1.12c0.216,1-0.131,2.089-0.988,2.762
			l-0.015,0.012c-1.038,0.805-2.475,0.752-3.452-0.047c0.661,0.047,1.338-0.137,1.895-0.569l0.015-0.012
			c0.857-0.673,1.205-1.762,0.988-2.762c-0.082-0.399-0.249-0.781-0.512-1.12l-4.125-5.317c-0.126-0.162-0.268-0.303-0.421-0.428
			c-0.004-0.005-0.017-0.011-0.021-0.016c0.575,0.041,1.128,0.252,1.578,0.633C234.562,72.978,234.704,73.12,234.83,73.282z"/>
		<path style="fill:#72A2BA;" d="M384.33,180.221c1.13,5.231,1.282,11.157,0.132,16.795c0,0,0.859,1.913,0.818,4.808
			c-0.616-0.26-1.231-0.562-1.847-0.895c-1.812,5.527-5.051,10.522-10.058,13.96c-4.151,2.847-8.58,3.663-13.169,2.421
			c-1.816-0.49-3.57-1.287-5.255-2.299c8.111,2.225,19.227,2.491,24.706-9.717c9.216-20.535,0.49-32.828-4.799-40.69
			c-2.577-3.833-7.273-5.057-11.417-5.306c0.936-0.288,2.034-0.337,3.249-0.12C375.09,160.668,381.847,168.73,384.33,180.221z"/>
		<path style="fill:#72A2BA;" d="M403.951,146.081c0.359,0.484,0.718,1.009,1.069,1.588c4.099,6.716,7.415,19.679-0.839,42.979
			c-1.793,5.082-4.073,8.197-6.442,10.036c-0.466,0.361-0.93,0.673-1.402,0.942c1.452-2.019,2.532-3.773,3.264-5.047
			c13.793-23.826,5.783-47.366,5.229-48.624C404.414,147.012,403.951,146.081,403.951,146.081z"/>
		<path style="fill:#72A2BA;" d="M404.645,138.266c2.177,2.805,2.219,6.593,0.375,9.403c-0.059,0.102-0.125,0.194-0.191,0.287
			c-0.444,0.62-0.986,1.187-1.619,1.678c-0.37,0.287-0.758,0.539-1.158,0.745c-3.42,1.834-7.758,0.989-10.213-2.176
			c-2.746-3.54-2.104-8.63,1.436-11.376c0.952-0.739,2.014-1.23,3.115-1.484C399.38,134.637,402.638,135.678,404.645,138.266z"/>
		<path style="fill:#72A2BA;" d="M404.645,138.266c2.177,2.805,2.219,6.593,0.375,9.403c-0.059,0.102-0.125,0.194-0.191,0.287
			c-0.444,0.62-0.986,1.187-1.619,1.678c-0.37,0.287-0.758,0.539-1.158,0.745c-1.925,1.031-4.136,1.214-6.144,0.613
			c1.565,0.156,3.175-0.143,4.625-0.919c0.4-0.205,0.789-0.458,1.158-0.744c0.633-0.491,1.175-1.058,1.619-1.678
			c0.066-0.092,0.133-0.184,0.191-0.286c1.844-2.809,1.801-6.597-0.375-9.403c-1.073-1.382-2.502-2.326-4.061-2.787
			C401.195,135.387,403.231,136.443,404.645,138.266z"/>
		
			<ellipse transform="matrix(0.1252 -0.9921 0.9921 0.1252 206.2585 520.3969)" style="fill:#B2DCF7;" cx="398.24" cy="143.232" rx="4.787" ry="4.787"/>
	</g>
	<g>
		<g>
			<g>
				<g>
					<g>
						<path style="fill:#F4B3B3;" d="M323.783,229.133c-0.006,0.556-0.067,1.095-0.176,1.606c-0.549,2.571-2.313,4.445-4.384,4.423
							l-0.141-0.001c-2.483-0.027-4.466-2.768-4.43-6.125l0.104-9.752l8.469-1.348L323.783,229.133z"/>
					</g>
				</g>
				<path style="fill-rule:evenodd;clip-rule:evenodd;fill:#F4B3B3;" d="M319.316,206.716c0,0-2.588,0.62-4.234,3.142
					c-1.638,2.508-2.888,9.925,2.275,13.373c5.158,3.447,9.336-1.451,9.503-6.227C327.034,212.229,326.179,205.867,319.316,206.716z
					"/>
				<path style="fill-rule:evenodd;clip-rule:evenodd;fill:#F4B3B3;" d="M327.853,215.504c-0.464,1.144-1.371,1.872-2.01,1.594
					c-0.644-0.262-0.777-1.418-0.311-2.563c0.474-1.156,1.375-1.87,2.019-1.606C328.191,213.189,328.328,214.348,327.853,215.504z"
					/>
				<g>
					<g>
						<path style="fill:#EC724C;" d="M321.419,218.005c0.01,0,0.02,0,0.03-0.001c0.272-0.031,1.633-0.222,1.731-0.951
							c0.086-0.638-0.91-2.599-1.111-2.985c-0.053-0.103-0.18-0.143-0.282-0.089c-0.103,0.053-0.143,0.18-0.089,0.282
							c0.441,0.85,1.12,2.344,1.067,2.737c-0.041,0.302-0.837,0.531-1.363,0.591c-0.115,0.013-0.197,0.117-0.184,0.232
							C321.229,217.924,321.317,218.002,321.419,218.005z"/>
					</g>
					<g>
						<path d="M324.811,214.449c0.018,0.358-0.231,0.661-0.555,0.677s-0.602-0.261-0.62-0.618c-0.018-0.358,0.231-0.661,0.555-0.677
							C324.516,213.815,324.794,214.092,324.811,214.449z"/>
					</g>
					<g>
						<path d="M317.52,212.606c0.05,0.001,0.1-0.015,0.141-0.05c0.928-0.789,2.077-0.167,2.088-0.161
							c0.101,0.056,0.229,0.02,0.285-0.081c0.056-0.101,0.02-0.229-0.082-0.285c-0.057-0.032-1.416-0.767-2.563,0.208
							c-0.088,0.075-0.099,0.207-0.024,0.295C317.406,212.58,317.463,212.605,317.52,212.606z"/>
					</g>
					<g>
						<path d="M323.31,212.239c0.045,0.001,0.091-0.012,0.13-0.041l0,0c0.031-0.023,0.762-0.549,1.461-0.026
							c0.093,0.069,0.224,0.05,0.293-0.042c0.069-0.093,0.05-0.224-0.042-0.293c-0.763-0.569-1.617-0.232-1.962,0.025
							c-0.093,0.069-0.112,0.2-0.043,0.293C323.188,212.208,323.248,212.237,323.31,212.239z"/>
					</g>
					<g>
						<path d="M319.322,219.182c2.877,0.617,4.125,0.084,4.125,0.084s0.121,1.799-1.558,1.975
							C319.489,221.492,319.322,219.182,319.322,219.182z"/>
					</g>
					<g>
						<path style="fill:#FFFFFF;" d="M323.347,219.301c0,0-0.07,0.334-0.098,0.401c-0.03,0.066-0.306,0.263-1.48,0.345
							c-0.993,0.07-2.027-0.206-2.32-0.292c-0.11-0.324-0.127-0.572-0.127-0.572c0.168,0.037,0.331,0.067,0.489,0.096
							c2.091,0.381,3.208,0.123,3.534,0.022C323.347,219.301,323.347,219.301,323.347,219.301z"/>
					</g>
					<g>
						
							<ellipse transform="matrix(0.9988 -0.0497 0.0497 0.9988 -10.2829 16.1281)" cx="319.291" cy="214.915" rx="0.606" ry="0.668"/>
					</g>
				</g>
				<path style="fill-rule:evenodd;clip-rule:evenodd;fill:#063E8E;" d="M326.254,212.631c0.726-0.401,2.274-1.407,2.881-3.258
					c0.381-1.16,0.542-3.108-0.3-3.536c-0.36-0.183-0.817-0.046-1.196,0.142c0.808-1.078,0.552-2.57-0.402-3.255
					c-1.027-0.737-2.661-0.396-3.346,0.887c-0.075-0.146-1.118-2.097-3.362-2.335c-1.59-0.168-3.157,0.589-4.05,1.953
					c-2.251-1.107-4.773-0.698-6.125,0.848c-1.149,1.314-1.057,2.997-1.021,3.43c-1.641,1.486-2.062,2.919-2.196,3.638
					c-0.67,3.584,2.312,7.922,7.645,10.171c-0.065-2.734-0.129-5.468-0.194-8.202c0.684-0.882,2.677-3.204,6.108-4.087
					c1.787-0.46,3.341-0.368,4.356-0.218L326.254,212.631z"/>
				<path style="fill-rule:evenodd;clip-rule:evenodd;fill:#F4B3B3;" d="M315.636,216.232c0.35,1.239-0.02,2.462-0.837,2.738
					c-0.81,0.26-1.76-0.532-2.108-1.771c-0.354-1.24,0.02-2.462,0.83-2.721C314.332,214.217,315.282,214.992,315.636,216.232z"/>
			</g>
			<path style="fill:#FFFFFF;" d="M323.667,224.194c0.485,0.962,1.961,3.909,2.959,6.069c1.208,2.618,3.926,19.627,4.228,23.25
				c0.055,0.663,0.179,3.52,0.346,7.746c0.07,1.808,0.15,3.867,0.232,6.111c0.012,0.296,0.023,0.594,0.033,0.896
				c0.005,0.12,0.009,0.241,0.014,0.362c0.023,0.602,0.045,1.216,0.068,1.84h0.001c0.088,2.388,0.18,4.933,0.276,7.57
				c0.008,0.228,0.016,0.455,0.025,0.685c0.02,0.547,0.038,1.097,0.058,1.652c0.034,0.947,0.069,1.903,0.103,2.867
				c0.026,0.715,0.051,1.434,0.077,2.154c0.206,5.782,0.414,11.715,0.606,17.206c0.457,13.124,0.818,23.73,0.818,23.73
				c5.822,0.678,11.009-0.751,11.009-0.751s-0.505-13.688-1.166-30.675c-0.084-2.138-0.17-4.329-0.257-6.55
				c-0.084-2.111-0.168-4.251-0.254-6.402c-0.029-0.734-0.059-1.468-0.088-2.203c-0.048-1.216-0.097-2.432-0.146-3.647
				c-0.028-0.704-0.058-1.408-0.086-2.11c-0.009-0.242-0.02-0.485-0.029-0.727c-0.017-0.398-0.033-0.795-0.049-1.193
				c-0.857-21.064-1.723-40.531-2.024-41.485c-0.549-1.741-11.355-3.632-15.407-5.508
				C324.375,224.784,323.904,224.489,323.667,224.194z"/>
			<g>
				<g>
					<g>
						<g>
							<path style="fill:#F4B3B3;" d="M246.444,349.335l-1.891-13.811l4.934-1.227l1.96,14.313
								C248.254,349.084,246.444,349.335,246.444,349.335z"/>
						</g>
					</g>
				</g>
				<g>
					<g>
						<g>
							<path style="fill:#15EADF;" d="M244.387,334.311l-13.265,1.816c-1.09,0.149-1.851,1.151-1.702,2.239l3.575,26.105
								c0.149,1.087,1.151,1.848,2.241,1.699c0.201-0.027,0.968-0.07,1.866-0.747c0.868-0.656,1.861-1.905,2.589-4.309
								c1.037-3.42,1.486-4.956,2.971-7.614c0.646-1.154,1.549-1.928,3.984-2.685L244.387,334.311z"/>
						</g>
					</g>
				</g>
				<g>
					<g>
						<g>
							<path style="fill:#FFFFFF;" d="M233.055,335.863l-1.932,0.265c-1.09,0.149-1.851,1.151-1.702,2.239l3.575,26.105
								c0.149,1.087,1.151,1.848,2.241,1.699c0.201-0.027,0.968-0.07,1.866-0.747L233.055,335.863z"/>
						</g>
					</g>
				</g>
				<g>
					<g>
						<g>
							<path d="M241.182,356.714c-0.047,0-0.092-0.023-0.119-0.065c-0.012-0.02-1.246-1.924-3.184-1.782
								c-0.075,0.007-0.145-0.052-0.151-0.13c-0.006-0.077,0.052-0.145,0.13-0.151c2.102-0.156,3.389,1.827,3.442,1.912
								c0.042,0.066,0.022,0.152-0.044,0.194C241.234,356.707,241.208,356.714,241.182,356.714z"/>
						</g>
					</g>
				</g>
				<g>
					<g>
						<g>
							<path d="M242.101,354.642c-0.047,0-0.092-0.023-0.119-0.065c-0.012-0.019-1.249-1.923-3.184-1.782
								c-0.075,0.006-0.145-0.052-0.151-0.13c-0.006-0.077,0.052-0.145,0.13-0.151c2.1-0.16,3.389,1.827,3.443,1.912
								c0.042,0.066,0.022,0.152-0.044,0.194C242.153,354.635,242.127,354.642,242.101,354.642z"/>
						</g>
					</g>
				</g>
				<g>
					<g>
						<g>
							<path d="M243.212,352.758c-0.047,0-0.092-0.023-0.119-0.065c-0.012-0.019-1.246-1.923-3.184-1.782
								c-0.076,0.009-0.145-0.052-0.151-0.13c-0.006-0.077,0.052-0.145,0.13-0.151c2.1-0.157,3.389,1.827,3.442,1.912
								c0.042,0.066,0.022,0.152-0.044,0.194C243.264,352.751,243.238,352.758,243.212,352.758z"/>
						</g>
					</g>
				</g>
				<g>
					<g>
						<g>
							<path style="fill:#062C59;" d="M319.695,313.03c0,0-15.288,26.629-17.154,28.785c-1.359,1.568-27.722,6.074-42.034,8.421
								c-1.863,0.307-3.524,0.577-4.894,0.797c-2.595,0.417-4.165,0.664-4.165,0.664l-3.627-18.29l4.452-0.856l4.866-0.934
								l32.611-6.259l15.125-34.536C316.405,297.241,319.695,313.03,319.695,313.03z"/>
						</g>
					</g>
				</g>
				<g>
					<g>
						<g>
							<path style="fill:#F4B3B3;" d="M361.572,385.879h-13.94l-0.546-5.055h14.447
								C361.569,384.053,361.572,385.879,361.572,385.879z"/>
						</g>
					</g>
				</g>
				<g>
					<g>
						<g>
							<path style="fill:#15EADF;" d="M346.408,385.879v13.388c0,1.1,0.889,1.99,1.987,1.99h26.349c1.098,0,1.987-0.889,1.987-1.99
								c0-0.203,0.062-0.968-0.487-1.95c-0.532-0.948-1.635-2.102-3.918-3.149c-3.248-1.492-4.709-2.145-7.14-3.977
								c-1.055-0.796-1.7-1.797-2.119-4.312H346.408z"/>
						</g>
					</g>
				</g>
				<g>
					<g>
						<g>
							<path style="fill:#FFFFFF;" d="M346.408,397.317v1.95c0,1.1,0.889,1.99,1.987,1.99h26.349c1.098,0,1.987-0.889,1.987-1.99
								c0-0.203,0.062-0.968-0.487-1.95H346.408z"/>
						</g>
					</g>
				</g>
				<g>
					<g>
						<g>
							<path d="M365.75,395.248c-0.003,0-0.006,0-0.009,0c-0.077-0.005-0.137-0.071-0.132-0.149c0.129-2.108,2.27-3.11,2.361-3.151
								c0.071-0.032,0.154-0.001,0.186,0.069c0.032,0.071,0.001,0.154-0.069,0.186c-0.021,0.009-2.078,0.975-2.197,2.913
								C365.886,395.19,365.824,395.248,365.75,395.248z"/>
						</g>
					</g>
				</g>
				<g>
					<g>
						<g>
							<path d="M363.822,394.056c-0.003,0-0.006,0-0.009,0c-0.078-0.005-0.137-0.071-0.132-0.149c0.129-2.108,2.27-3.11,2.361-3.151
								c0.071-0.032,0.154-0.001,0.186,0.069c0.032,0.071,0.001,0.154-0.069,0.186c-0.021,0.009-2.078,0.975-2.197,2.913
								C363.958,393.999,363.896,394.056,363.822,394.056z"/>
						</g>
					</g>
				</g>
				<g>
					<g>
						<g>
							<path d="M362.106,392.7c-0.003,0-0.006,0-0.009,0c-0.077-0.005-0.137-0.071-0.132-0.149c0.13-2.108,2.27-3.11,2.361-3.151
								c0.071-0.032,0.154-0.001,0.186,0.069c0.032,0.071,0.001,0.154-0.069,0.186c-0.021,0.009-2.078,0.975-2.197,2.913
								C362.242,392.642,362.18,392.7,362.106,392.7z"/>
						</g>
					</g>
				</g>
				<g>
					<g>
						<g>
							<path style="fill:#063E8E;" d="M362.829,381.694h-17.534l-1.095-4.227l-1.286-4.959l-10.912-42.121
								c0,0-17.894-25.22-25.102-35.434c-4.376-6.2-3.439-16.256-2.026-23.202h29.07c-0.231,2.986-0.487,6.211-0.684,8.401
								c-0.464,5.165,19.006,40.32,22.24,46.095c2.353,4.199,5.159,31.617,6.515,46.261c0.174,1.891,0.326,3.572,0.447,4.959
								C362.697,380.107,362.829,381.694,362.829,381.694z"/>
						</g>
					</g>
				</g>
				<g>
					<g>
						<g>
							<path style="fill:#FFFFFF;" d="M352.122,370.051c-0.067,0-0.127-0.049-0.139-0.117c-0.062-0.368-6.187-36.82-6.825-39.658
								c-0.634-2.818-26.523-43.504-26.785-43.915c-0.042-0.066-0.022-0.153,0.043-0.194c0.066-0.042,0.153-0.023,0.194,0.043
								c1.068,1.678,26.177,41.139,26.822,44.004c0.64,2.845,6.766,39.305,6.828,39.673c0.013,0.077-0.039,0.149-0.115,0.162
								C352.137,370.05,352.13,370.051,352.122,370.051z"/>
						</g>
					</g>
				</g>
			</g>
			<path style="fill:#F4B3B3;" d="M396.134,248.533c0.581,0.295,4.591-0.534,4.602,0.433c0.01,0.966-6.581,1.458-6.581,1.458
				s1.773,0.346,2.188,0.356c0.416,0.01,2.22-0.369,2.035,0.672c-0.184,1.041-4.91,0.589-5.395,0.516
				c-0.484-0.073-1.214,0.103-1.789-0.062c-0.574-0.164-2.726-0.555-3.41-0.545c-0.158,0.003-0.405,0.1-0.689,0.248
				c-0.943,0.49-2.308,1.537-2.308,1.537c-0.248-0.113-2-3.826-0.753-5.305c0,0,0.289-0.173,0.711-0.438
				c0.995-0.624,2.734-1.759,3.208-2.346c0.674-0.837,6.713-3.855,7.104-3.543c0.965,0.768-0.975,2.147-1.682,2.38
				c-0.706,0.232-2.041,1.048-2.041,1.048s1.186,0.256,1.846,0.252c0.659-0.005,2.003-0.194,3.615-0.68
				c1.611-0.487,3.24-1.258,4.006-0.282c0.765,0.976-5.919,2.601-5.919,2.601c0.706,0.158,2.605-0.337,3.413-0.502
				c0.807-0.165,3.477-0.8,3.578,0.079C401.978,247.345,396.134,248.533,396.134,248.533z"/>
			<path style="fill:#15EADF;" d="M387.094,251.609c-0.943,0.49-2.308,1.537-2.308,1.537c-0.248-0.113-2-3.826-0.753-5.305
				c0,0,0.289-0.173,0.711-0.438C385.738,248.154,386.671,250.451,387.094,251.609z"/>
			<path style="fill:#FFFFFF;" d="M328.892,238.475c0,0,0.15,0.279,0.434,0.778c0.028,0.048,0.056,0.099,0.086,0.15
				c0.019,0.035,0.038,0.07,0.059,0.105c0.013,0.021,0.025,0.044,0.038,0.066c0.03,0.054,0.063,0.11,0.096,0.167
				c0.084,0.148,0.177,0.308,0.278,0.479c0.042,0.071,0.084,0.144,0.128,0.22c0.008,0.014,0.016,0.027,0.024,0.04
				c0.048,0.081,0.095,0.162,0.146,0.248c0.256,0.431,0.548,0.915,0.872,1.444c0.095,0.155,0.192,0.313,0.294,0.475
				c0.012,0.019,0.023,0.037,0.034,0.056c0.112,0.179,0.228,0.365,0.348,0.555c0.16,0.253,0.326,0.515,0.498,0.782
				c0.362,0.564,0.749,1.155,1.159,1.769c0.217,0.323,0.44,0.654,0.671,0.991c0.105,0.155,0.213,0.31,0.322,0.466
				c0.095,0.138,0.191,0.277,0.29,0.417c0.059,0.085,0.119,0.171,0.18,0.255c0.246,0.355,0.5,0.71,0.761,1.069
				c0.089,0.125,0.18,0.25,0.271,0.374c0.158,0.217,0.318,0.436,0.48,0.652c0.065,0.091,0.131,0.179,0.198,0.268
				c1.197,1.605,2.502,3.251,3.894,4.856c0.155,0.179,0.311,0.358,0.467,0.534c0.155,0.176,0.311,0.35,0.468,0.523
				c0.001,0.004,0.003,0.005,0.005,0.006c0.135,0.15,0.272,0.301,0.409,0.45c0.115,0.126,0.232,0.253,0.349,0.378
				c0.343,0.366,0.688,0.729,1.038,1.085c0.093,0.095,0.186,0.19,0.279,0.284c0.013,0.013,0.026,0.025,0.039,0.039
				c0.099,0.099,0.197,0.196,0.297,0.294c0.212,0.21,0.425,0.418,0.64,0.623c0.109,0.107,0.221,0.212,0.333,0.316
				c0.127,0.12,0.256,0.24,0.385,0.359c0.129,0.12,0.258,0.238,0.389,0.355c0.101,0.091,0.203,0.182,0.304,0.272
				c0.159,0.14,0.319,0.282,0.48,0.419c0.962,0.826,1.943,1.598,2.941,2.293c2.414,1.684,4.919,2.929,7.437,3.467
				c0.79,0.169,1.579,0.267,2.37,0.287c0.349,0.011,0.698,0.005,1.048-0.016c0.275-0.018,0.548-0.038,0.82-0.062
				c1.147-0.099,2.268-0.253,3.36-0.454c0.39-0.072,0.777-0.149,1.16-0.231c12.428-2.687,20.883-11.14,20.883-11.14l-0.018-0.229
				c-0.031-0.406-0.07-0.809-0.116-1.21c-0.164-1.454-0.417-2.881-0.757-4.258c-0.235-0.956-0.511-1.89-0.827-2.795
				c-0.264-0.758-0.557-1.495-0.876-2.207c-0.806,0.471-1.59,0.914-2.352,1.327c-7.51,4.078-12.942,5.438-17.096,5.48
				c-1.088,0.013-2.09-0.066-3.017-0.211c-0.786-0.123-1.521-0.292-2.211-0.493c-0.337-0.097-0.663-0.203-0.978-0.315
				c-1.179-0.416-2.227-0.908-3.194-1.39c-2.843-1.41-6.189-6.012-9.083-10.39c-1.765-2.672-3.361-5.26-4.574-6.99
				c-0.316-0.454-0.605-0.845-0.866-1.169l-0.055,0.04l-6.333,4.454l-0.819,0.576l-2.044,1.437l-0.601,0.422l-1.432,1.008
				L328.892,238.475z"/>
			<path style="fill:#15EADF;" d="M310.105,227.081c1.374,4.791,19.497,5.118,14.166-1.401c2.179,2.315,5.122,5.926,7.482,10.907
				c3.352,7.074,3.79,13.239,4.123,18.662c0.741,12.081,1.171,23.689,1.352,34.812c-6.111,0-12.222,0-18.333,0L310.105,227.081z"/>
			<g>
				<path style="fill:#FFFFFF;" d="M290.501,323.22c0.282,2.045-0.027,0.254,0.038,0.316c0.816,0.778,0.466,0.328,1.521,0.766
					c1.518,0.63,3.69,1.208,5.663,1.718c0.716,0.185,1.861,0.444,2.93,0.637c1.728,0.312,3.54,0.586,5.548,0.761
					c3.216,0.28,6.896,0.147,10.192-0.103c0.229-7.081,0.173-11.234,0.834-19.1c0.38-4.526,1.479-13.611,2.064-19.137
					c0.147-1.385,0.383-3.483,0.532-4.923c0.024-0.235,0.058-0.542,0.085-0.795c0.08-0.762,0.166-1.574,0.243-2.339
					c0.032-0.315,0.068-0.652,0.096-0.949c0.069-0.716,0.15-1.559,0.212-2.231c0.289-3.113,0.55-6.187,0.782-9.252
					c0.032-0.428,0.054-0.731,0.083-1.127c0.06-0.833,0.171-2.6,0.208-3.193c0.054-0.866,0.051-1.034,0.083-1.605
					c0.017-0.306,0.007-0.587,0.013-0.755c0.335-9.365,0.103-20.862-3.554-28.908c-1.603-3.526-2.422-4.177-3.717-6.574
					c-0.841-1.557-1.08-1.686-1.698-2.757c-0.309-0.534-0.319-0.504-0.475-0.748c-0.156-0.244-0.046-0.257-0.182-0.269
					c-0.136-0.013-0.032,0.215-0.068,0.342c-0.132,0.469-0.331,0.921-0.649,1.348c-0.124,0.166-0.333,0.405-0.498,0.568
					c-0.013,0.013-0.024,0.028-0.046,0.048c-0.351,0.318-0.516,0.489-0.948,0.804c-0.431,0.315-0.742,0.545-1.348,0.914
					c-0.606,0.369-1.348,0.796-2.178,1.225c-0.83,0.429-2.026,1.014-3.009,1.462c-0.433,0.198-1.133,0.515-1.604,0.717
					c0.042,3.664,0.08,7.115,0.058,10.875c-0.001,0.248-0.006,0.878-0.019,1.417c-0.113,4.551-0.341,9.234-0.832,13.867
					c-0.107,1.007-0.228,2.172-0.347,3.257c-0.151,1.375-0.312,2.874-0.472,4.283c-0.052,0.461-0.115,0.964-0.172,1.436
					c-0.007,0.058-0.011,0.099-0.022,0.183c-0.011,0.084-0.027,0.239-0.043,0.35c-0.083,0.565-0.145,1.253-0.231,1.863
					c-1.588,11.281-3.415,24.134-5.458,34.893C292.678,310.072,289.648,317.028,290.501,323.22z"/>
			</g>
			<path style="fill:#2E353D;" d="M308.357,227.408c0.086-0.282,0.203-0.574,0.382-0.876c0.284-0.477,0.722-0.977,1.438-1.49
				c0.345-0.498,0.518-0.955,0.605-1.403c-1.538,0.844-2.778,1.954-3.256,3.513c-0.035,0.113-0.065,0.228-0.091,0.344
				c-0.569,2.526,0.84,5.884,4.299,10.249l0.681-0.54C308.987,232.881,307.66,229.676,308.357,227.408z"/>
			<path style="fill:#2E353D;" d="M334.094,239.096c0.082-0.705,0.151-1.59,0.155-2.577c0.014-4.022-1.095-6.474-2.027-7.823
				c-1.423-2.059-3.561-3.304-6.353-3.701l-0.122,0.86c2.542,0.361,4.479,1.482,5.759,3.332c1.559,2.253,1.88,5.218,1.875,7.308
				c-0.002,0.935-0.068,1.784-0.146,2.463c-0.868,0.086-1.546,0.817-1.546,1.708c0,0.948,0.768,1.716,1.716,1.716
				c0.948,0,1.716-0.768,1.716-1.716C335.12,239.965,334.698,239.362,334.094,239.096z"/>
			<path style="fill:#2E353D;" d="M347.672,280.92c1.111,0,0.99,12.218-3.337,11.281C340.007,291.264,343.037,280.92,347.672,280.92
				z"/>
			<path style="fill:#F4B3B3;" d="M356.022,290.032c0.619,0.675,2.949,1.532,3.906,1.943c0.957,0.411,3.754,1.44,3.495,2.9
				c-0.259,1.461-3.336-0.506-3.761-0.863c-0.425-0.357-3.566-1.307-3.566-1.307c0.39,0.728,5.152,2.762,4.466,3.772
				c-0.687,1.011-5.354-1.74-5.712-2.169c-0.352-0.421-2.119-1.049-2.174-1.067c0.048,0.049,1.597,1.642,2.015,1.949
				c0.424,0.311,2.571,1.219,1.628,2.166c-0.943,0.949-5.524-2.934-5.975-3.359c-0.45-0.425-1.335-0.769-1.814-1.356
				c-0.385-0.472-1.726-1.834-2.607-2.598c-0.213-0.186-0.4-0.335-0.54-0.43c-0.718-0.483-4.401-0.312-4.401-0.312
				c-0.176-0.297,0.783-6.444,3.145-7.081c0,0,1.628,0.469,3.231,0.776c1.113,0.213,2.216,0.347,2.751,0.19
				c1.304-0.383,4.166-0.324,5.48,0.515c1.316,0.839,4.92-0.554,4.455,0.935c-0.466,1.489-2.563,1.526-3.464,1.256
				c-0.901-0.268-2.876-0.386-2.876-0.386s1.046,1.123,1.734,1.595c0.688,0.47,2.22,1.246,4.245,1.904
				c2.026,0.658,4.273,1.033,4.364,2.599C364.137,293.171,356.022,290.032,356.022,290.032z"/>
			<path style="fill:#15EADF;" d="M347.359,282.996c-2.104,2.201-2.408,5.028-1.435,7.047c-0.213-0.186-0.4-0.335-0.54-0.43
				c-0.718-0.483-4.401-0.312-4.401-0.312c-0.176-0.297,0.783-6.444,3.145-7.081C344.127,282.22,345.755,282.69,347.359,282.996z"/>
			<path style="fill:#FFFFFF;" d="M295.66,243.2c0.036,0.52,0.081,1.052,0.134,1.593c0.263,2.696,0.731,5.637,1.361,8.643
				c0.957,4.573,2.287,9.294,3.836,13.52c0.026,0.072,0.054,0.145,0.08,0.217c2.304,6.232,5.081,11.362,7.833,13.312
				c3.883,2.753,12.616,5.706,20.44,7.959c0.74,0.213,1.471,0.419,2.188,0.62c2.338,0.649,4.538,1.224,6.433,1.699
				c3.688,0.922,6.223,1.467,6.369,1.438c0,0-1.35-6.195,0.612-9.428c0.312-0.514,0.707-0.953,1.205-1.28
				c0.428-0.281,0.93-0.481,1.521-0.574c0,0-2.259-0.612-5.454-1.532c-1.427-0.411-3.038-0.883-4.719-1.392
				c-1.957-0.592-4.007-1.229-5.966-1.87c-0.994-0.327-1.966-0.654-2.89-0.977c-0.505-0.178-0.996-0.353-1.468-0.526
				c-2.726-1.001-4.836-1.928-5.564-2.604c-0.367-0.342-0.772-1.362-1.226-2.873c-1.091-3.63-2.46-10.085-4.258-16.742
				c-0.942-3.485-2.001-7.025-3.2-10.242v-0.001c-2.108-5.661-4.646-10.327-7.731-11.948c-1.039-0.547-2.141-0.748-3.309-0.525
				c0,0-0.014,0-0.04,0.003c-0.423,0.025-4.165,0.389-5.633,4.973c-0.32,1.003-0.52,2.243-0.609,3.666
				C295.515,239.781,295.536,241.425,295.66,243.2z"/>
			<path style="fill:#2E353D;" d="M313.334,246.299c0.26,0.675,0.535,1.384,0.818,2.114h0.001c0.116,0.108,0.233,0.212,0.353,0.316
				c0.899,0.778,1.822,1.403,2.733,1.86c-0.342,0.798-0.774,1.464-1.282,1.968c-0.064-0.017-0.129-0.027-0.197-0.029
				c0.065,0.165,0.13,0.33,0.194,0.495c0.067,0.169,0.134,0.338,0.2,0.505c0.067,0.169,0.134,0.339,0.201,0.507
				c0.16-0.16,0.259-0.381,0.259-0.625c0-0.086-0.013-0.168-0.036-0.246c0.577-0.577,1.066-1.328,1.449-2.218
				c0.159,0.064,0.317,0.121,0.474,0.174l-0.831-1.772c-0.04,0.145-0.082,0.286-0.127,0.426c-0.817-0.421-1.651-0.992-2.471-1.701
				C314.445,247.527,313.858,246.927,313.334,246.299z M310.129,242.201v0.001c0.008,0.038,0.019,0.074,0.028,0.113
				c0.436,1.678,1.528,3.511,3.021,5.128l0.001,0.001c0.057,0.064,0.117,0.127,0.177,0.189l0.001,0.001
				c0.255,0.267,0.519,0.527,0.795,0.779h0.001c0.116,0.108,0.233,0.212,0.353,0.316c0.899,0.778,1.822,1.403,2.733,1.86
				c-0.342,0.798-0.774,1.464-1.282,1.968c-0.064-0.017-0.129-0.027-0.197-0.029c-0.009-0.001-0.019-0.001-0.028-0.001
				c-0.487,0-0.883,0.395-0.883,0.883v0.007c0.001,0.142,0.037,0.277,0.097,0.395c0.146,0.285,0.443,0.48,0.785,0.48
				c0.243,0,0.463-0.098,0.623-0.257c0.16-0.16,0.259-0.381,0.259-0.625c0-0.086-0.013-0.168-0.036-0.246
				c0.577-0.577,1.066-1.328,1.449-2.218c0.159,0.064,0.317,0.121,0.474,0.174h0.001c0.693,0.232,1.368,0.357,2.008,0.37
				c0.142,0.298,0.444,0.504,0.796,0.504c0.275,0,0.52-0.125,0.683-0.322c0.124-0.153,0.2-0.348,0.2-0.56
				c0-0.299-0.148-0.563-0.375-0.723c-0.143-0.101-0.319-0.16-0.507-0.16c-0.307,0-0.577,0.157-0.735,0.395
				c-0.698-0.007-1.453-0.174-2.236-0.487c0.322-0.966,0.535-2.059,0.623-3.242c0.213-2.856-0.326-5.702-1.444-7.613
				c-0.604-1.033-1.345-1.743-2.202-2.111c-0.074-0.031-0.15-0.061-0.226-0.087c-0.794-0.278-1.648-0.257-2.548,0.062
				c0,0-0.064,0.022-0.135,0.049c-0.055,0.021-0.115,0.045-0.155,0.063c-0.025,0.01-0.073,0.033-0.073,0.033
				c-0.135,0.064-0.264,0.133-0.386,0.206c-0.059,0.033-0.116,0.069-0.172,0.106c-0.497,0.325-0.887,0.728-1.165,1.205
				c-0.086,0.146-0.161,0.3-0.226,0.46C309.892,240.103,309.858,241.089,310.129,242.201z M310.821,240.743v-0.001
				c0.003-0.255,0.032-0.512,0.095-0.761v-0.001c0.138-0.565,0.444-1.098,1.007-1.527c0.193-0.146,0.417-0.28,0.674-0.399
				c0.953-0.396,1.742-0.352,2.389-0.071c0.794,0.345,1.374,1.047,1.778,1.737c1.017,1.739,1.526,4.464,1.328,7.11
				c-0.068,0.907-0.211,1.751-0.421,2.517v0.001c-0.04,0.145-0.082,0.286-0.127,0.426c-0.817-0.421-1.651-0.992-2.471-1.701
				c-0.629-0.545-1.216-1.145-1.74-1.772l-0.001-0.001c-0.132-0.157-0.258-0.315-0.381-0.475c-0.061-0.079-0.121-0.159-0.179-0.238
				c0,0,0-0.001-0.001-0.001c-0.857-1.163-1.486-2.38-1.773-3.487C310.889,241.672,310.814,241.208,310.821,240.743z
				 M313.334,246.299c0.26,0.675,0.535,1.384,0.818,2.114h0.001c0.116,0.108,0.233,0.212,0.353,0.316
				c0.899,0.778,1.822,1.403,2.733,1.86c-0.342,0.798-0.774,1.464-1.282,1.968c-0.064-0.017-0.129-0.027-0.197-0.029
				c0.065,0.165,0.13,0.33,0.194,0.495c0.067,0.169,0.134,0.338,0.2,0.505c0.067,0.169,0.134,0.339,0.201,0.507
				c0.16-0.16,0.259-0.381,0.259-0.625c0-0.086-0.013-0.168-0.036-0.246c0.577-0.577,1.066-1.328,1.449-2.218
				c0.159,0.064,0.317,0.121,0.474,0.174l-0.831-1.772c-0.04,0.145-0.082,0.286-0.127,0.426c-0.817-0.421-1.651-0.992-2.471-1.701
				C314.445,247.527,313.858,246.927,313.334,246.299z"/>
		</g>
		<g>
			<g id="XMLID_00000155107302511833418330000011593504313068592002_">
				<path style="fill:#A5C8E4;" d="M429.308,190.818l20.08,58.948c0.789,2.318-0.451,4.839-2.768,5.629l-21.341,7.27l-22.941-67.345
					l21.341-7.27C425.997,187.26,428.518,188.498,429.308,190.818z"/>
				<path style="fill:#B9D9EF;" d="M402.339,195.319l22.941,67.345l-21.343,7.27c-2.318,0.789-4.839-0.451-5.629-2.768
					l-20.08-58.948c-0.79-2.32,0.451-4.839,2.768-5.629L402.339,195.319z"/>
			</g>
			<g>
				<g id="XMLID_00000075880676261994226070000010013029190182811055_">
					<path style="fill:#CC293D;" d="M423.928,201.664c0.383,1.125,0.345,2.324-0.096,3.415l-8.77-4.315
						c0.593-1.015,1.52-1.775,2.645-2.158c1.239-0.422,2.569-0.337,3.745,0.241C422.626,199.426,423.506,200.425,423.928,201.664z"
						/>
					<path style="fill:#CC293D;" d="M431.217,223.062c0.383,1.123,0.345,2.322-0.096,3.413l-8.769-4.313
						c0.611-1.046,1.565-1.79,2.645-2.158c1.188-0.405,2.53-0.356,3.744,0.239C429.914,220.822,430.795,221.822,431.217,223.062z"/>
					<path style="fill:#CC293D;" d="M438.505,244.458c0.383,1.125,0.345,2.324-0.096,3.413l-8.769-4.313
						c0.612-1.044,1.565-1.788,2.646-2.156c1.188-0.405,2.53-0.358,3.743,0.238C437.203,242.218,438.083,243.218,438.505,244.458z"
						/>
					<path style="fill:#CC293D;" d="M410.807,250.513c2.193,1.285,3.057,4.073,1.917,6.388c-1.139,2.317-3.874,3.334-6.23,2.381
						L410.807,250.513z"/>
					<path style="fill:#CC293D;" d="M403.517,229.115c2.193,1.286,3.057,4.073,1.917,6.39c-1.139,2.317-3.874,3.332-6.229,2.381
						L403.517,229.115z"/>
					<path style="fill:#CC293D;" d="M396.229,207.719c2.193,1.285,3.057,4.073,1.917,6.39c-1.14,2.315-3.874,3.332-6.23,2.38
						L396.229,207.719z"/>
					<path style="fill:#FD5B68;" d="M414.743,201.413l8.769,4.313c-1.285,2.193-4.071,3.056-6.387,1.918
						C414.809,206.504,413.791,203.769,414.743,201.413z"/>
					<path style="fill:#FD5B68;" d="M422.032,222.809l8.77,4.315c-1.285,2.191-4.071,3.056-6.388,1.917
						C422.097,227.9,421.08,225.166,422.032,222.809z"/>
					<path style="fill:#FD5B68;" d="M429.321,244.206l8.769,4.313c-0.593,1.015-1.52,1.775-2.645,2.158
						c-1.239,0.422-2.569,0.337-3.743-0.242C429.386,249.298,428.368,246.562,429.321,244.206z"/>
					<path style="fill:#FD5B68;" d="M410.158,250.194l-4.313,8.769c-2.193-1.285-3.057-4.073-1.919-6.389
						c0.598-1.213,1.632-2.069,2.82-2.473C407.826,249.733,409.036,249.741,410.158,250.194z"/>
					<path style="fill:#FD5B68;" d="M402.87,228.798l-4.313,8.769c-2.193-1.285-3.057-4.073-1.919-6.389
						c0.598-1.213,1.632-2.07,2.819-2.475C400.537,228.335,401.747,228.343,402.87,228.798z"/>
					<path style="fill:#FD5B68;" d="M395.581,207.4l-4.313,8.769c-2.193-1.285-3.056-4.071-1.918-6.387
						c0.578-1.176,1.58-2.055,2.819-2.477C393.293,206.923,394.49,206.959,395.581,207.4z"/>
					<path style="fill:#76AAD9;" d="M421.769,198.199c1.349,0.662,2.358,1.81,2.843,3.232c0.484,1.422,0.386,2.947-0.278,4.295
						c-0.684,1.393-1.869,2.375-3.233,2.839c-1.362,0.464-2.903,0.411-4.294-0.275c-2.782-1.368-3.932-4.746-2.564-7.527
						c0.663-1.347,1.811-2.356,3.233-2.841C418.896,197.438,420.422,197.536,421.769,198.199z M423.832,205.079
						c0.441-1.091,0.479-2.29,0.096-3.415c-0.422-1.239-1.302-2.238-2.476-2.817c-1.176-0.578-2.505-0.663-3.745-0.241
						c-1.125,0.383-2.052,1.143-2.645,2.158L423.832,205.079z M423.513,205.726l-8.769-4.313c-0.952,2.356,0.065,5.092,2.382,6.231
						C419.441,208.781,422.228,207.918,423.513,205.726z"/>
					<path style="fill:#76AAD9;" d="M429.057,219.595c1.35,0.664,2.359,1.812,2.843,3.234c0.484,1.42,0.386,2.947-0.278,4.295
						c-0.684,1.391-1.869,2.375-3.233,2.839c-1.362,0.464-2.903,0.409-4.294-0.275c-2.782-1.37-3.932-4.746-2.565-7.529
						C422.898,219.377,426.276,218.227,429.057,219.595z M431.121,226.475c0.441-1.091,0.479-2.29,0.096-3.413
						c-0.422-1.239-1.303-2.24-2.477-2.819c-1.214-0.596-2.556-0.644-3.744-0.239c-1.08,0.368-2.034,1.113-2.645,2.158
						L431.121,226.475z M430.802,227.123l-8.77-4.315c-0.952,2.358,0.065,5.092,2.382,6.231
						C426.73,230.179,429.516,229.314,430.802,227.123z"/>
					<path style="fill:#76AAD9;" d="M436.347,240.993c1.349,0.662,2.358,1.81,2.843,3.232c0.484,1.422,0.386,2.947-0.278,4.295
						c-0.663,1.347-1.811,2.356-3.233,2.841c-1.422,0.484-2.947,0.386-4.295-0.277c-2.782-1.368-3.932-4.746-2.564-7.527
						C430.187,240.773,433.564,239.623,436.347,240.993z M438.409,247.871c0.442-1.089,0.479-2.288,0.096-3.413
						c-0.422-1.239-1.303-2.24-2.477-2.819c-1.214-0.596-2.556-0.642-3.743-0.238c-1.08,0.368-2.034,1.113-2.646,2.156
						L438.409,247.871z M438.09,248.519l-8.769-4.313c-0.952,2.356,0.065,5.092,2.382,6.23c1.174,0.579,2.504,0.664,3.743,0.242
						C436.57,250.294,437.497,249.534,438.09,248.519z"/>
					<path style="fill:#76AAD9;" d="M396.23,206.899c1.347,0.663,2.356,1.811,2.841,3.233c0.484,1.422,0.386,2.947-0.277,4.295
						c-0.684,1.393-1.871,2.375-3.233,2.839c-1.364,0.465-2.903,0.411-4.294-0.275c-2.784-1.368-3.934-4.745-2.564-7.527
						c0.663-1.347,1.811-2.356,3.233-2.841C393.357,206.138,394.883,206.236,396.23,206.899z M398.146,214.109
						c1.139-2.317,0.275-5.105-1.917-6.39l-4.313,8.769C394.272,217.441,397.006,216.424,398.146,214.109z M391.268,216.17
						l4.313-8.769c-1.091-0.441-2.288-0.478-3.412-0.095c-1.239,0.422-2.241,1.301-2.819,2.477
						C388.212,212.099,389.075,214.885,391.268,216.17z"/>
					<path style="fill:#76AAD9;" d="M410.807,249.692c1.347,0.663,2.356,1.811,2.841,3.233c0.484,1.422,0.386,2.947-0.277,4.295
						c-0.684,1.391-1.871,2.375-3.233,2.839c-1.364,0.465-2.903,0.409-4.294-0.275c-2.784-1.368-3.934-4.745-2.564-7.527
						C404.648,249.473,408.025,248.323,410.807,249.692z M412.723,256.901c1.14-2.315,0.276-5.103-1.917-6.388l-4.313,8.769
						C408.85,260.235,411.584,259.218,412.723,256.901z M405.845,258.963l4.313-8.769c-1.122-0.453-2.332-0.461-3.412-0.093
						c-1.188,0.405-2.222,1.261-2.82,2.473C402.789,254.89,403.653,257.679,405.845,258.963z"/>
					<path style="fill:#76AAD9;" d="M403.518,228.295c2.782,1.37,3.932,4.746,2.565,7.529c-0.684,1.391-1.872,2.373-3.234,2.837
						c-1.364,0.465-2.903,0.411-4.294-0.273c-2.784-1.369-3.934-4.745-2.565-7.529C397.359,228.077,400.737,226.927,403.518,228.295
						z M405.435,235.505c1.139-2.317,0.276-5.103-1.917-6.39l-4.312,8.771C401.561,238.837,404.295,237.822,405.435,235.505z
						 M398.557,237.567l4.313-8.769c-1.122-0.455-2.332-0.463-3.412-0.095c-1.188,0.405-2.222,1.262-2.819,2.475
						C395.5,233.495,396.364,236.283,398.557,237.567z"/>
				</g>
			</g>
		</g>
	</g>
	<g>
		<g>
			<path style="fill:#2CBF7B;" d="M73.08,392.991c3.999,4.092,6.841,7.537,9.259,10.256h23.115l-6.139-7.229
				c0,0-0.886-1.048-2.494-2.68c-10.584-10.743-20.292-14.763-20.292-14.763c-5.775-2.436-15.991-6.746-24.662-2.054
				c-2.825,1.529-4.711,3.594-5.881,5.146c2.12,0.383,10.2,1.9,17.091,4.594c3.46,1.353,5.687,2.638,7.651,4.384
				C71.201,391.065,71.826,391.708,73.08,392.991z"/>
		</g>
		<g>
			<path style="fill:#2DA66D;" d="M96.947,403.248c0.816-3.196,0.685-6.643-0.127-9.909c-3.669-3.727-11.094-10.495-20.291-14.763
				c-0.325,2.326-0.42,4.768-0.757,6.451c-0.589,2.934-1.526,5.507-2.692,7.965c4,4.092,6.841,7.537,9.259,10.256H96.947z"/>
		</g>
		<g>
			<path style="fill:#2CBF7B;" d="M83.044,383.396c3.428,9.254,8.246,16.114,13.411,19.852h14.91
				c0.406-1.043,0.635-2.339,0.717-3.831c0.736-13.497-10.519-42.812-10.519-42.812s-3.374-4.986-8.882-10.468
				c-4.334-4.316-9.988-8.937-16.36-11.677c-0.451-0.193-0.95,21.249,4.581,42.15C81.534,378.994,82.251,381.259,83.044,383.396z"/>
		</g>
		<g>
			<path style="fill:#2DA66D;" d="M90.8,372.544c-0.002,0.014-0.004,0.027-0.006,0.041c-0.285,2.056-0.669,4.157-1.739,5.938
				c-1.354,2.253-3.606,3.706-6.012,4.873c3.428,9.254,8.246,16.114,13.411,19.852h12.258c1.245-1.148,2.369-2.437,3.37-3.831
				c0.736-13.497-10.519-42.812-10.519-42.812s-3.374-4.986-8.882-10.468c-0.269,4.585-0.537,9.17-0.807,13.755
				c-0.023,0.383-0.045,0.766-0.068,1.149c-2.493-5.243-9.201-18.794-15.484-26.578c0.152,0.272,9.021,16.108,13.689,29.933
				C90.897,367.015,91.178,369.805,90.8,372.544z"/>
		</g>
		<g>
			<g>
				<path style="fill:#027369;" d="M79.351,338.041l-0.463,0.327c16.011,22.666,23.927,44.771,23.527,65.7l0.567,0.011
					c0.214-11.227-1.995-22.949-6.567-34.838C92.472,358.984,86.73,348.487,79.351,338.041z"/>
			</g>
		</g>
		<g>
			<path style="fill:#2CBF7B;" d="M101.142,394.234c0.24,0.617,0.481,1.208,0.725,1.776c1.309,3.056,2.663,5.414,3.987,7.239h12.015
				l11.411-30.817c0,0-0.831-2.6-2.765-6.45c-0.135-0.268-0.275-0.543-0.421-0.823c-4.101-7.885-12.527-20.223-27.337-26.811
				c-0.484-0.214-0.974-0.424-1.472-0.625c-0.001-0.001-0.001-0.001-0.001-0.001c-1.108-0.451-6.593,12.323,0,43.15
				C98.441,386.285,99.757,390.674,101.142,394.234z"/>
		</g>
		<g>
			<path style="fill:#2DA66D;" d="M108.348,388.127c-2.193,2.039-4.464,3.973-6.805,5.797c-0.133,0.104-0.267,0.207-0.401,0.309
				c0.24,0.617,0.481,1.208,0.725,1.776c1.309,3.056,2.663,5.414,3.987,7.239h12.015l11.411-30.817c0,0-0.831-2.6-2.765-6.45
				c-0.135-0.268-0.275-0.543-0.421-0.823c-0.369,0.871-0.77,1.733-1.21,2.588c-1.951,3.796-4.46,7.203-7.125,10.417
				c-0.221,0.267-0.444,0.533-0.669,0.797c-2.232-6.017-10.578-27.927-18.333-40.613c-0.484-0.214-0.974-0.424-1.472-0.625
				c0.102,0.214,11.316,23.813,14.387,40.436C112.35,381.827,111.081,385.586,108.348,388.127z"/>
		</g>
		<g>
			<g>
				<path style="fill:#027369;" d="M99.31,339.429l-0.473,0.312c10.633,16.113,17.889,34.74,20.982,53.866l0.56-0.091
					c-1.543-9.539-4.155-19.06-7.765-28.299C109.038,356.063,104.561,347.387,99.31,339.429z"/>
			</g>
		</g>
		<g>
			<path style="fill:#2CBF7B;" d="M140.719,356.636c-8.4,3.411-13.731,11.449-18.282,19.702c-2.085,3.781-6.361,11.847-9.005,19.598
				c-0.014,0.04-0.028,0.079-0.041,0.119c-0.843,2.485-1.51,4.931-1.887,7.193h29.903c2.47-2.555,4.772-5.233,6.91-8.034
				c0.401-0.526,0.798-1.058,1.188-1.593c0.677-0.926,1.335-1.865,1.976-2.817c0.42-0.621,0.831-1.247,1.235-1.878
				c8.872-13.851,14.283-30.226,16.771-48.61C160.545,347.245,150.995,352.465,140.719,356.636z"/>
		</g>
		<g>
			<path style="fill:#2DA66D;" d="M123.943,395.596c-1.857,2.846-3.507,5.434-4.899,7.651h22.36
				c2.239-2.336,4.191-4.864,6.266-7.321c0.206-0.243,0.421-0.481,0.647-0.713c0.401-0.526,0.798-1.058,1.188-1.593
				c0.677-0.926,1.335-1.865,1.976-2.817c-3.258,1.394-6.738,2.263-10.268,2.56c-0.035,0.003-0.071,0.006-0.108,0.009
				c-3.633,0.294-6.216-0.953-5.91-4.881c0.226-2.88,1.713-5.739,3.154-8.13c2.98-4.949,7.016-9.529,10.594-14.058
				c3.212-4.069,6.495-8.081,9.837-12.045c3.341-3.964,6.719-7.902,10.212-11.733C154.884,350.48,135.477,377.912,123.943,395.596z"
				/>
		</g>
		<g>
			<g>
				<path style="fill:#2DA66D;" d="M119.044,403.248c1.393-2.217,3.042-4.805,4.899-7.651c-3.496,0.295-7.004,0.408-10.512,0.339
					c-0.014,0.04-0.028,0.079-0.041,0.119c-0.843,2.485-1.51,4.931-1.887,7.193H119.044z"/>
			</g>
		</g>
		<g>
			<g>
				<path style="fill:#027369;" d="M95.335,404.11h0.674c-5.76-9.031-12.895-18.492-22.879-23.171
					c-5.002-2.344-10.847-3.583-18.393-3.9l-0.024,0.567c7.468,0.313,13.244,1.535,18.176,3.847
					C82.626,386.016,89.651,395.238,95.335,404.11z"/>
			</g>
		</g>
		<g>
			<g>
				<path style="fill:#027369;" d="M168.618,342.098c-15.74,13.861-41.913,47.36-48.727,61.15h0.633
					c10.567-21.287,26.788-41.631,48.469-60.724L168.618,342.098z"/>
			</g>
		</g>
	</g>
	<rect x="35.829" y="398.585" style="fill:#293F60;" width="428.341" height="5.844"/>
</g>
<g id="TEXTS">
</g>
</svg>
